<svg xmlns="http://www.w3.org/2000/svg" viewBox="0 0 1280 400" width="1280" height="400" shape-rendering="crispEdges">
  <!-- NPC EXTRA — Musician, Woman with boxes (idle+stride) -->
  <!-- SCALE: 4×  |  1 game px = 4 SVG px  |  PALETTE: Turnhoutsebaan 32-color -->
  <rect x="60" y="24" width="24" height="32" fill="#D4A040"/>
  <rect x="56" y="16" width="32" height="16" fill="#4A2C10"/>
  <rect x="64" y="40" width="4" height="4" fill="#141210"/>
  <rect x="76" y="40" width="4" height="4" fill="#141210"/>
  <rect x="60" y="52" width="24" height="8" fill="#606058"/>
  <rect x="52" y="56" width="40" height="56" fill="#F0EEE8"/>
  <rect x="52" y="56" width="8" height="56" fill="#606058"/>
  <rect x="84" y="56" width="8" height="56" fill="#606058"/>
  <rect x="52" y="56" width="40" height="8" fill="#606058"/>
  <rect x="68" y="64" width="8" height="4" fill="#FFD700"/>
  <rect x="68" y="76" width="8" height="4" fill="#FFD700"/>
  <rect x="68" y="88" width="8" height="4" fill="#FFD700"/>
  <rect x="40" y="60" width="16" height="40" fill="#D4A040"/>
  <rect x="40" y="60" width="4" height="40" fill="#F4E8C8"/>
  <rect x="88" y="60" width="16" height="40" fill="#F0EEE8"/>
  <rect x="52" y="112" width="40" height="64" fill="#606058"/>
  <rect x="48" y="112" width="4" height="64" fill="#141210"/>
  <rect x="52" y="168" width="16" height="24" fill="#141210"/>
  <rect x="52" y="168" width="4" height="24" fill="#606058"/>
  <rect x="68" y="168" width="16" height="16" fill="#141210"/>
  <rect x="16" y="72" width="48" height="56" fill="#8A5A28"/>
  <rect x="16" y="72" width="48" height="4" fill="#4A2C10"/>
  <rect x="16" y="72" width="4" height="56" fill="#4A2C10"/>
  <rect x="60" y="72" width="4" height="56" fill="#4A2C10"/>
  <rect x="32" y="88" width="16" height="16" fill="#141210"/>
  <rect x="32" y="92" width="8" height="8" fill="#606058"/>
  <rect x="40" y="48" width="8" height="32" fill="#8A5A28"/>
  <rect x="36" y="48" width="4" height="24" fill="#4A2C10"/>
  <rect x="32" y="48" width="4" height="4" fill="#4A2C10"/>
  <rect x="48" y="48" width="4" height="4" fill="#4A2C10"/>
  <rect x="32" y="56" width="4" height="4" fill="#4A2C10"/>
  <rect x="48" y="56" width="4" height="4" fill="#4A2C10"/>
  <rect x="32" y="64" width="4" height="4" fill="#4A2C10"/>
  <rect x="48" y="64" width="4" height="4" fill="#4A2C10"/>
  <rect x="36" y="48" width="4" height="72" fill="#B4B0A8"/>
  <rect x="40" y="48" width="4" height="72" fill="#B4B0A8"/>
  <rect x="44" y="48" width="4" height="72" fill="#B4B0A8"/>
  <rect x="48" y="48" width="4" height="72" fill="#B4B0A8"/>
  <rect x="16" y="76" width="32" height="8" fill="#F4E8C8"/>
  <text x="32" y="384" font-size="9" fill="#666" font-family="monospace" shape-rendering="auto">musician</text>
  <rect x="172" y="24" width="24" height="32" fill="#D4A040"/>
  <rect x="168" y="16" width="32" height="16" fill="#4A2C10"/>
  <rect x="176" y="40" width="4" height="4" fill="#141210"/>
  <rect x="188" y="40" width="4" height="4" fill="#141210"/>
  <rect x="172" y="52" width="24" height="8" fill="#606058"/>
  <rect x="164" y="56" width="40" height="56" fill="#F0EEE8"/>
  <rect x="164" y="56" width="8" height="56" fill="#606058"/>
  <rect x="196" y="56" width="8" height="56" fill="#606058"/>
  <rect x="164" y="56" width="40" height="8" fill="#606058"/>
  <rect x="180" y="64" width="8" height="4" fill="#FFD700"/>
  <rect x="180" y="76" width="8" height="4" fill="#FFD700"/>
  <rect x="180" y="88" width="8" height="4" fill="#FFD700"/>
  <rect x="152" y="60" width="16" height="40" fill="#D4A040"/>
  <rect x="152" y="60" width="4" height="40" fill="#F4E8C8"/>
  <rect x="200" y="60" width="16" height="40" fill="#F0EEE8"/>
  <rect x="164" y="112" width="40" height="64" fill="#606058"/>
  <rect x="160" y="112" width="4" height="64" fill="#141210"/>
  <rect x="164" y="168" width="16" height="24" fill="#141210"/>
  <rect x="164" y="168" width="4" height="24" fill="#606058"/>
  <rect x="180" y="168" width="16" height="16" fill="#141210"/>
  <rect x="128" y="72" width="48" height="56" fill="#8A5A28"/>
  <rect x="128" y="72" width="48" height="4" fill="#4A2C10"/>
  <rect x="128" y="72" width="4" height="56" fill="#4A2C10"/>
  <rect x="172" y="72" width="4" height="56" fill="#4A2C10"/>
  <rect x="144" y="88" width="16" height="16" fill="#141210"/>
  <rect x="144" y="92" width="8" height="8" fill="#606058"/>
  <rect x="152" y="48" width="8" height="32" fill="#8A5A28"/>
  <rect x="148" y="48" width="4" height="24" fill="#4A2C10"/>
  <rect x="144" y="48" width="4" height="4" fill="#4A2C10"/>
  <rect x="160" y="48" width="4" height="4" fill="#4A2C10"/>
  <rect x="144" y="56" width="4" height="4" fill="#4A2C10"/>
  <rect x="160" y="56" width="4" height="4" fill="#4A2C10"/>
  <rect x="144" y="64" width="4" height="4" fill="#4A2C10"/>
  <rect x="160" y="64" width="4" height="4" fill="#4A2C10"/>
  <rect x="148" y="48" width="4" height="72" fill="#B4B0A8"/>
  <rect x="152" y="48" width="4" height="72" fill="#B4B0A8"/>
  <rect x="156" y="48" width="4" height="72" fill="#B4B0A8"/>
  <rect x="160" y="48" width="4" height="72" fill="#B4B0A8"/>
  <rect x="128" y="76" width="32" height="8" fill="#F4E8C8"/>
  <text x="144" y="384" font-size="9" fill="#666" font-family="monospace" shape-rendering="auto">musn_str</text>
  <rect x="316" y="24" width="24" height="32" fill="#F4E8C8"/>
  <rect x="312" y="16" width="32" height="20" fill="#4A2C10"/>
  <rect x="344" y="24" width="8" height="24" fill="#4A2C10"/>
  <rect x="320" y="44" width="4" height="4" fill="#141210"/>
  <rect x="332" y="44" width="4" height="4" fill="#141210"/>
  <rect x="324" y="52" width="8" height="4" fill="#C07050"/>
  <rect x="304" y="56" width="48" height="56" fill="#C07050"/>
  <rect x="304" y="56" width="48" height="4" fill="#984428"/>
  <rect x="304" y="56" width="4" height="56" fill="#984428"/>
  <rect x="348" y="56" width="4" height="56" fill="#6E2C18"/>
  <rect x="300" y="112" width="56" height="56" fill="#E8CFA0"/>
  <rect x="296" y="112" width="4" height="56" fill="#C8A86C"/>
  <rect x="352" y="112" width="4" height="56" fill="#C8A86C"/>
  <rect x="308" y="168" width="16" height="24" fill="#F4E8C8"/>
  <rect x="324" y="168" width="16" height="16" fill="#F4E8C8"/>
  <rect x="308" y="184" width="16" height="8" fill="#4A2C10"/>
  <rect x="324" y="184" width="16" height="8" fill="#4A2C10"/>
  <rect x="292" y="60" width="16" height="40" fill="#C07050"/>
  <rect x="292" y="60" width="4" height="40" fill="#6E2C18"/>
  <rect x="348" y="60" width="16" height="40" fill="#C07050"/>
  <rect x="360" y="60" width="4" height="40" fill="#6E2C18"/>
  <rect x="272" y="72" width="32" height="40" fill="#F4E8C8"/>
  <rect x="272" y="72" width="32" height="4" fill="#888880"/>
  <rect x="272" y="72" width="4" height="40" fill="#888880"/>
  <rect x="300" y="72" width="4" height="40" fill="#888880"/>
  <rect x="272" y="108" width="32" height="4" fill="#888880"/>
  <rect x="276" y="80" width="24" height="12" fill="#1C5898"/>
  <rect x="280" y="84" width="16" height="4" fill="#F0EEE8"/>
  <rect x="276" y="72" width="8" height="8" fill="#606058"/>
  <rect x="288" y="72" width="8" height="8" fill="#606058"/>
  <rect x="356" y="72" width="32" height="40" fill="#F4E8C8"/>
  <rect x="356" y="72" width="32" height="4" fill="#888880"/>
  <rect x="356" y="72" width="4" height="40" fill="#888880"/>
  <rect x="384" y="72" width="4" height="40" fill="#888880"/>
  <rect x="356" y="108" width="32" height="4" fill="#888880"/>
  <rect x="360" y="80" width="24" height="12" fill="#C07050"/>
  <rect x="364" y="84" width="16" height="4" fill="#F0EEE8"/>
  <rect x="304" y="56" width="48" height="4" fill="#C07050"/>
  <rect x="304" y="56" width="4" height="56" fill="#F4E8C8"/>
  <text x="288" y="384" font-size="9" fill="#666" font-family="monospace" shape-rendering="auto">w_boxes</text>
  <rect x="428" y="24" width="24" height="32" fill="#F4E8C8"/>
  <rect x="424" y="16" width="32" height="20" fill="#4A2C10"/>
  <rect x="456" y="24" width="8" height="24" fill="#4A2C10"/>
  <rect x="432" y="44" width="4" height="4" fill="#141210"/>
  <rect x="444" y="44" width="4" height="4" fill="#141210"/>
  <rect x="436" y="52" width="8" height="4" fill="#C07050"/>
  <rect x="416" y="56" width="48" height="56" fill="#C07050"/>
  <rect x="416" y="56" width="48" height="4" fill="#984428"/>
  <rect x="416" y="56" width="4" height="56" fill="#984428"/>
  <rect x="460" y="56" width="4" height="56" fill="#6E2C18"/>
  <rect x="412" y="112" width="56" height="56" fill="#E8CFA0"/>
  <rect x="408" y="112" width="4" height="56" fill="#C8A86C"/>
  <rect x="464" y="112" width="4" height="56" fill="#C8A86C"/>
  <rect x="420" y="168" width="16" height="24" fill="#F4E8C8"/>
  <rect x="436" y="176" width="16" height="16" fill="#F4E8C8"/>
  <rect x="420" y="184" width="16" height="8" fill="#4A2C10"/>
  <rect x="436" y="184" width="16" height="8" fill="#4A2C10"/>
  <rect x="404" y="60" width="16" height="40" fill="#C07050"/>
  <rect x="404" y="60" width="4" height="40" fill="#6E2C18"/>
  <rect x="460" y="60" width="16" height="40" fill="#C07050"/>
  <rect x="472" y="60" width="4" height="40" fill="#6E2C18"/>
  <rect x="384" y="72" width="32" height="40" fill="#F4E8C8"/>
  <rect x="384" y="72" width="32" height="4" fill="#888880"/>
  <rect x="384" y="72" width="4" height="40" fill="#888880"/>
  <rect x="412" y="72" width="4" height="40" fill="#888880"/>
  <rect x="384" y="108" width="32" height="4" fill="#888880"/>
  <rect x="388" y="80" width="24" height="12" fill="#1C5898"/>
  <rect x="392" y="84" width="16" height="4" fill="#F0EEE8"/>
  <rect x="388" y="72" width="8" height="8" fill="#606058"/>
  <rect x="400" y="72" width="8" height="8" fill="#606058"/>
  <rect x="468" y="72" width="32" height="40" fill="#F4E8C8"/>
  <rect x="468" y="72" width="32" height="4" fill="#888880"/>
  <rect x="468" y="72" width="4" height="40" fill="#888880"/>
  <rect x="496" y="72" width="4" height="40" fill="#888880"/>
  <rect x="468" y="108" width="32" height="4" fill="#888880"/>
  <rect x="472" y="80" width="24" height="12" fill="#C07050"/>
  <rect x="476" y="84" width="16" height="4" fill="#F0EEE8"/>
  <rect x="416" y="56" width="48" height="4" fill="#C07050"/>
  <rect x="416" y="56" width="4" height="56" fill="#F4E8C8"/>
  <text x="400" y="384" font-size="9" fill="#666" font-family="monospace" shape-rendering="auto">wb_str</text>
</svg>
