<svg xmlns="http://www.w3.org/2000/svg" viewBox="0 0 768 384" width="768" height="384" shape-rendering="crispEdges">
  <!-- Reza — Afghan-Belgian 28, waistcoat + oud on back -->
  <!-- SCALE: 4×  |  1 game px = 4 SVG px  |  PALETTE: Turnhoutsebaan 32-color -->
  <rect x="88" y="16" width="72" height="12" fill="#141210"/>
  <rect x="80" y="28" width="88" height="32" fill="#141210"/>
  <rect x="80" y="28" width="16" height="48" fill="#141210"/>
  <rect x="152" y="28" width="16" height="48" fill="#141210"/>
  <rect x="88" y="16" width="24" height="8" fill="#888880"/>
  <rect x="104" y="24" width="16" height="4" fill="#888880"/>
  <rect x="88" y="32" width="72" height="56" fill="#C8A86C"/>
  <rect x="80" y="40" width="8" height="32" fill="#C8A86C"/>
  <rect x="160" y="40" width="8" height="32" fill="#C8A86C"/>
  <rect x="88" y="32" width="32" height="8" fill="#E8CFA0"/>
  <rect x="144" y="44" width="16" height="32" fill="#D4A040"/>
  <rect x="88" y="84" width="72" height="8" fill="#D4A040"/>
  <rect x="96" y="48" width="16" height="4" fill="#141210"/>
  <rect x="128" y="48" width="24" height="8" fill="#141210"/>
  <rect x="128" y="56" width="32" height="4" fill="#141210"/>
  <rect x="128" y="60" width="32" height="16" fill="#F0EEE8"/>
  <rect x="136" y="60" width="16" height="16" fill="#1C5898"/>
  <rect x="140" y="64" width="8" height="8" fill="#141210"/>
  <rect x="128" y="72" width="32" height="4" fill="#141210"/>
  <rect x="128" y="56" width="8" height="4" fill="#D4A040"/>
  <rect x="96" y="56" width="8" height="4" fill="#141210"/>
  <rect x="96" y="60" width="8" height="12" fill="#D4A040"/>
  <rect x="116" y="72" width="16" height="16" fill="#D4A040"/>
  <rect x="112" y="80" width="24" height="8" fill="#D4A040"/>
  <rect x="112" y="72" width="8" height="8" fill="#E8CFA0"/>
  <rect x="100" y="88" width="32" height="8" fill="#C8A86C"/>
  <rect x="104" y="88" width="24" height="4" fill="#D4A040"/>
  <rect x="100" y="96" width="32" height="8" fill="#C8A86C"/>
  <rect x="104" y="96" width="16" height="4" fill="#E8CFA0"/>
  <rect x="80" y="52" width="8" height="24" fill="#C8A86C"/>
  <rect x="160" y="52" width="8" height="24" fill="#C8A86C"/>
  <rect x="160" y="60" width="8" height="12" fill="#D4A040"/>
  <rect x="164" y="52" width="4" height="16" fill="#D4A040"/>
  <rect x="104" y="88" width="40" height="40" fill="#C8A86C"/>
  <rect x="136" y="88" width="16" height="36" fill="#D4A040"/>
  <rect x="88" y="80" width="72" height="16" fill="#D4A040"/>
  <rect x="88" y="80" width="8" height="16" fill="#888880"/>
  <rect x="144" y="80" width="8" height="16" fill="#888880"/>
  <rect x="72" y="128" width="104" height="144" fill="#F0EEE8"/>
  <rect x="64" y="136" width="16" height="104" fill="#F0EEE8"/>
  <rect x="56" y="136" width="8" height="104" fill="#D8D4CC"/>
  <rect x="168" y="136" width="16" height="104" fill="#F0EEE8"/>
  <rect x="184" y="136" width="8" height="104" fill="#D8D4CC"/>
  <rect x="72" y="128" width="32" height="8" fill="#D8D4CC"/>
  <rect x="104" y="128" width="16" height="16" fill="#D8D4CC"/>
  <rect x="80" y="128" width="88" height="144" fill="#606058"/>
  <rect x="80" y="128" width="24" height="8" fill="#888880"/>
  <rect x="80" y="136" width="8" height="72" fill="#888880"/>
  <rect x="160" y="136" width="8" height="128" fill="#0C0C18"/>
  <rect x="108" y="132" width="32" height="112" fill="#F0EEE8"/>
  <rect x="88" y="152" width="24" height="32" fill="#888880"/>
  <rect x="88" y="152" width="24" height="4" fill="#606058"/>
  <rect x="116" y="168" width="8" height="8" fill="#B4B0A8"/>
  <rect x="116" y="168" width="4" height="4" fill="#D8D4CC"/>
  <rect x="116" y="200" width="8" height="8" fill="#B4B0A8"/>
  <rect x="116" y="200" width="4" height="4" fill="#D8D4CC"/>
  <rect x="116" y="232" width="8" height="8" fill="#B4B0A8"/>
  <rect x="116" y="232" width="4" height="4" fill="#D8D4CC"/>
  <rect x="160" y="64" width="56" height="112" fill="#8A5A28"/>
  <rect x="160" y="64" width="8" height="112" fill="#4A2C10"/>
  <rect x="208" y="64" width="8" height="112" fill="#4A2C10"/>
  <rect x="168" y="56" width="32" height="16" fill="#8A5A28"/>
  <rect x="176" y="40" width="24" height="24" fill="#8A5A28"/>
  <rect x="180" y="24" width="16" height="20" fill="#4A2C10"/>
  <rect x="176" y="104" width="24" height="40" fill="#0C0C18"/>
  <rect x="184" y="112" width="8" height="24" fill="#4A2C10"/>
  <rect x="168" y="72" width="4" height="88" fill="#B4B0A8"/>
  <rect x="176" y="72" width="4" height="88" fill="#B4B0A8"/>
  <rect x="184" y="72" width="4" height="88" fill="#888880"/>
  <rect x="168" y="72" width="16" height="12" fill="#E8CFA0"/>
  <rect x="56" y="224" width="16" height="32" fill="#C8A86C"/>
  <rect x="60" y="224" width="8" height="8" fill="#E8CFA0"/>
  <rect x="176" y="224" width="16" height="32" fill="#C8A86C"/>
  <rect x="180" y="224" width="8" height="8" fill="#E8CFA0"/>
  <rect x="72" y="272" width="48" height="88" fill="#0C0C18"/>
  <rect x="72" y="272" width="8" height="88" fill="#606058"/>
  <rect x="112" y="272" width="8" height="88" fill="#606058"/>
  <rect x="120" y="272" width="48" height="88" fill="#0C0C18"/>
  <rect x="160" y="272" width="8" height="88" fill="#141210"/>
  <rect x="64" y="352" width="56" height="24" fill="#F0EEE8"/>
  <rect x="72" y="352" width="24" height="8" fill="#1C5898"/>
  <rect x="64" y="368" width="56" height="8" fill="#D8D4CC"/>
  <rect x="120" y="352" width="56" height="24" fill="#F0EEE8"/>
  <rect x="128" y="352" width="24" height="8" fill="#1C5898"/>
  <rect x="120" y="368" width="56" height="8" fill="#D8D4CC"/>
  <rect x="344" y="16" width="72" height="12" fill="#141210"/>
  <rect x="336" y="28" width="88" height="32" fill="#141210"/>
  <rect x="336" y="28" width="16" height="48" fill="#141210"/>
  <rect x="408" y="28" width="16" height="48" fill="#141210"/>
  <rect x="344" y="16" width="24" height="8" fill="#888880"/>
  <rect x="360" y="24" width="16" height="4" fill="#888880"/>
  <rect x="344" y="32" width="72" height="56" fill="#C8A86C"/>
  <rect x="336" y="40" width="8" height="32" fill="#C8A86C"/>
  <rect x="416" y="40" width="8" height="32" fill="#C8A86C"/>
  <rect x="344" y="32" width="32" height="8" fill="#E8CFA0"/>
  <rect x="400" y="44" width="16" height="32" fill="#D4A040"/>
  <rect x="344" y="84" width="72" height="8" fill="#D4A040"/>
  <rect x="352" y="48" width="16" height="4" fill="#141210"/>
  <rect x="384" y="48" width="24" height="8" fill="#141210"/>
  <rect x="384" y="56" width="32" height="4" fill="#141210"/>
  <rect x="384" y="60" width="32" height="16" fill="#F0EEE8"/>
  <rect x="392" y="60" width="16" height="16" fill="#1C5898"/>
  <rect x="396" y="64" width="8" height="8" fill="#141210"/>
  <rect x="384" y="72" width="32" height="4" fill="#141210"/>
  <rect x="384" y="56" width="8" height="4" fill="#D4A040"/>
  <rect x="352" y="56" width="8" height="4" fill="#141210"/>
  <rect x="352" y="60" width="8" height="12" fill="#D4A040"/>
  <rect x="372" y="72" width="16" height="16" fill="#D4A040"/>
  <rect x="368" y="80" width="24" height="8" fill="#D4A040"/>
  <rect x="368" y="72" width="8" height="8" fill="#E8CFA0"/>
  <rect x="356" y="88" width="32" height="8" fill="#C8A86C"/>
  <rect x="360" y="88" width="24" height="4" fill="#D4A040"/>
  <rect x="356" y="96" width="32" height="8" fill="#C8A86C"/>
  <rect x="360" y="96" width="16" height="4" fill="#E8CFA0"/>
  <rect x="336" y="52" width="8" height="24" fill="#C8A86C"/>
  <rect x="416" y="52" width="8" height="24" fill="#C8A86C"/>
  <rect x="416" y="60" width="8" height="12" fill="#D4A040"/>
  <rect x="420" y="52" width="4" height="16" fill="#D4A040"/>
  <rect x="360" y="88" width="40" height="40" fill="#C8A86C"/>
  <rect x="392" y="88" width="16" height="36" fill="#D4A040"/>
  <rect x="344" y="80" width="72" height="16" fill="#D4A040"/>
  <rect x="344" y="80" width="8" height="16" fill="#888880"/>
  <rect x="400" y="80" width="8" height="16" fill="#888880"/>
  <rect x="328" y="128" width="104" height="144" fill="#F0EEE8"/>
  <rect x="320" y="136" width="16" height="104" fill="#F0EEE8"/>
  <rect x="312" y="136" width="8" height="104" fill="#D8D4CC"/>
  <rect x="424" y="136" width="16" height="104" fill="#F0EEE8"/>
  <rect x="440" y="136" width="8" height="104" fill="#D8D4CC"/>
  <rect x="328" y="128" width="32" height="8" fill="#D8D4CC"/>
  <rect x="360" y="128" width="16" height="16" fill="#D8D4CC"/>
  <rect x="336" y="128" width="88" height="144" fill="#606058"/>
  <rect x="336" y="128" width="24" height="8" fill="#888880"/>
  <rect x="336" y="136" width="8" height="72" fill="#888880"/>
  <rect x="416" y="136" width="8" height="128" fill="#0C0C18"/>
  <rect x="364" y="132" width="32" height="112" fill="#F0EEE8"/>
  <rect x="344" y="152" width="24" height="32" fill="#888880"/>
  <rect x="344" y="152" width="24" height="4" fill="#606058"/>
  <rect x="372" y="168" width="8" height="8" fill="#B4B0A8"/>
  <rect x="372" y="168" width="4" height="4" fill="#D8D4CC"/>
  <rect x="372" y="200" width="8" height="8" fill="#B4B0A8"/>
  <rect x="372" y="200" width="4" height="4" fill="#D8D4CC"/>
  <rect x="372" y="232" width="8" height="8" fill="#B4B0A8"/>
  <rect x="372" y="232" width="4" height="4" fill="#D8D4CC"/>
  <rect x="416" y="64" width="56" height="112" fill="#8A5A28"/>
  <rect x="416" y="64" width="8" height="112" fill="#4A2C10"/>
  <rect x="464" y="64" width="8" height="112" fill="#4A2C10"/>
  <rect x="424" y="56" width="32" height="16" fill="#8A5A28"/>
  <rect x="432" y="40" width="24" height="24" fill="#8A5A28"/>
  <rect x="436" y="24" width="16" height="20" fill="#4A2C10"/>
  <rect x="432" y="104" width="24" height="40" fill="#0C0C18"/>
  <rect x="440" y="112" width="8" height="24" fill="#4A2C10"/>
  <rect x="424" y="72" width="4" height="88" fill="#B4B0A8"/>
  <rect x="432" y="72" width="4" height="88" fill="#B4B0A8"/>
  <rect x="440" y="72" width="4" height="88" fill="#888880"/>
  <rect x="424" y="72" width="16" height="12" fill="#E8CFA0"/>
  <rect x="312" y="224" width="16" height="32" fill="#C8A86C"/>
  <rect x="316" y="224" width="8" height="8" fill="#E8CFA0"/>
  <rect x="432" y="224" width="16" height="32" fill="#C8A86C"/>
  <rect x="436" y="224" width="8" height="8" fill="#E8CFA0"/>
  <rect x="328" y="272" width="48" height="88" fill="#0C0C18"/>
  <rect x="328" y="272" width="8" height="88" fill="#606058"/>
  <rect x="368" y="272" width="8" height="88" fill="#606058"/>
  <rect x="376" y="272" width="48" height="88" fill="#0C0C18"/>
  <rect x="416" y="272" width="8" height="88" fill="#141210"/>
  <rect x="320" y="344" width="56" height="24" fill="#F0EEE8"/>
  <rect x="328" y="344" width="24" height="8" fill="#1C5898"/>
  <rect x="320" y="360" width="56" height="8" fill="#D8D4CC"/>
  <rect x="376" y="352" width="56" height="24" fill="#F0EEE8"/>
  <rect x="384" y="352" width="24" height="8" fill="#1C5898"/>
  <rect x="376" y="368" width="56" height="8" fill="#D8D4CC"/>
  <rect x="600" y="16" width="72" height="12" fill="#141210"/>
  <rect x="592" y="28" width="88" height="32" fill="#141210"/>
  <rect x="592" y="28" width="16" height="48" fill="#141210"/>
  <rect x="664" y="28" width="16" height="48" fill="#141210"/>
  <rect x="600" y="16" width="24" height="8" fill="#888880"/>
  <rect x="616" y="24" width="16" height="4" fill="#888880"/>
  <rect x="600" y="32" width="72" height="56" fill="#C8A86C"/>
  <rect x="592" y="40" width="8" height="32" fill="#C8A86C"/>
  <rect x="672" y="40" width="8" height="32" fill="#C8A86C"/>
  <rect x="600" y="32" width="32" height="8" fill="#E8CFA0"/>
  <rect x="656" y="44" width="16" height="32" fill="#D4A040"/>
  <rect x="600" y="84" width="72" height="8" fill="#D4A040"/>
  <rect x="608" y="48" width="16" height="4" fill="#141210"/>
  <rect x="640" y="48" width="24" height="8" fill="#141210"/>
  <rect x="640" y="56" width="32" height="4" fill="#141210"/>
  <rect x="640" y="60" width="32" height="16" fill="#F0EEE8"/>
  <rect x="648" y="60" width="16" height="16" fill="#1C5898"/>
  <rect x="652" y="64" width="8" height="8" fill="#141210"/>
  <rect x="640" y="72" width="32" height="4" fill="#141210"/>
  <rect x="640" y="56" width="8" height="4" fill="#D4A040"/>
  <rect x="608" y="56" width="8" height="4" fill="#141210"/>
  <rect x="608" y="60" width="8" height="12" fill="#D4A040"/>
  <rect x="628" y="72" width="16" height="16" fill="#D4A040"/>
  <rect x="624" y="80" width="24" height="8" fill="#D4A040"/>
  <rect x="624" y="72" width="8" height="8" fill="#E8CFA0"/>
  <rect x="612" y="88" width="32" height="8" fill="#C8A86C"/>
  <rect x="616" y="88" width="24" height="4" fill="#D4A040"/>
  <rect x="612" y="96" width="32" height="8" fill="#C8A86C"/>
  <rect x="616" y="96" width="16" height="4" fill="#E8CFA0"/>
  <rect x="592" y="52" width="8" height="24" fill="#C8A86C"/>
  <rect x="672" y="52" width="8" height="24" fill="#C8A86C"/>
  <rect x="672" y="60" width="8" height="12" fill="#D4A040"/>
  <rect x="676" y="52" width="4" height="16" fill="#D4A040"/>
  <rect x="616" y="88" width="40" height="40" fill="#C8A86C"/>
  <rect x="648" y="88" width="16" height="36" fill="#D4A040"/>
  <rect x="600" y="80" width="72" height="16" fill="#D4A040"/>
  <rect x="600" y="80" width="8" height="16" fill="#888880"/>
  <rect x="656" y="80" width="8" height="16" fill="#888880"/>
  <rect x="584" y="128" width="104" height="144" fill="#F0EEE8"/>
  <rect x="576" y="136" width="16" height="104" fill="#F0EEE8"/>
  <rect x="568" y="136" width="8" height="104" fill="#D8D4CC"/>
  <rect x="680" y="136" width="16" height="104" fill="#F0EEE8"/>
  <rect x="696" y="136" width="8" height="104" fill="#D8D4CC"/>
  <rect x="584" y="128" width="32" height="8" fill="#D8D4CC"/>
  <rect x="616" y="128" width="16" height="16" fill="#D8D4CC"/>
  <rect x="592" y="128" width="88" height="144" fill="#606058"/>
  <rect x="592" y="128" width="24" height="8" fill="#888880"/>
  <rect x="592" y="136" width="8" height="72" fill="#888880"/>
  <rect x="672" y="136" width="8" height="128" fill="#0C0C18"/>
  <rect x="620" y="132" width="32" height="112" fill="#F0EEE8"/>
  <rect x="600" y="152" width="24" height="32" fill="#888880"/>
  <rect x="600" y="152" width="24" height="4" fill="#606058"/>
  <rect x="628" y="168" width="8" height="8" fill="#B4B0A8"/>
  <rect x="628" y="168" width="4" height="4" fill="#D8D4CC"/>
  <rect x="628" y="200" width="8" height="8" fill="#B4B0A8"/>
  <rect x="628" y="200" width="4" height="4" fill="#D8D4CC"/>
  <rect x="628" y="232" width="8" height="8" fill="#B4B0A8"/>
  <rect x="628" y="232" width="4" height="4" fill="#D8D4CC"/>
  <rect x="672" y="64" width="56" height="112" fill="#8A5A28"/>
  <rect x="672" y="64" width="8" height="112" fill="#4A2C10"/>
  <rect x="720" y="64" width="8" height="112" fill="#4A2C10"/>
  <rect x="680" y="56" width="32" height="16" fill="#8A5A28"/>
  <rect x="688" y="40" width="24" height="24" fill="#8A5A28"/>
  <rect x="692" y="24" width="16" height="20" fill="#4A2C10"/>
  <rect x="688" y="104" width="24" height="40" fill="#0C0C18"/>
  <rect x="696" y="112" width="8" height="24" fill="#4A2C10"/>
  <rect x="680" y="72" width="4" height="88" fill="#B4B0A8"/>
  <rect x="688" y="72" width="4" height="88" fill="#B4B0A8"/>
  <rect x="696" y="72" width="4" height="88" fill="#888880"/>
  <rect x="680" y="72" width="16" height="12" fill="#E8CFA0"/>
  <rect x="568" y="224" width="16" height="32" fill="#C8A86C"/>
  <rect x="572" y="224" width="8" height="8" fill="#E8CFA0"/>
  <rect x="688" y="224" width="16" height="32" fill="#C8A86C"/>
  <rect x="692" y="224" width="8" height="8" fill="#E8CFA0"/>
  <rect x="584" y="272" width="48" height="88" fill="#0C0C18"/>
  <rect x="584" y="272" width="8" height="88" fill="#606058"/>
  <rect x="624" y="272" width="8" height="88" fill="#606058"/>
  <rect x="632" y="272" width="48" height="88" fill="#0C0C18"/>
  <rect x="672" y="272" width="8" height="88" fill="#141210"/>
  <rect x="576" y="352" width="56" height="24" fill="#F0EEE8"/>
  <rect x="584" y="352" width="24" height="8" fill="#1C5898"/>
  <rect x="576" y="368" width="56" height="8" fill="#D8D4CC"/>
  <rect x="632" y="360" width="56" height="24" fill="#F0EEE8"/>
  <rect x="640" y="360" width="24" height="8" fill="#1C5898"/>
  <rect x="632" y="376" width="56" height="8" fill="#D8D4CC"/>
</svg>
