<svg xmlns="http://www.w3.org/2000/svg" viewBox="0 0 1024 320" width="1024" height="320" shape-rendering="crispEdges">
  <!-- FOOD & GOODS — Turnhoutsebaan cultural items -->
  <!-- SCALE: 4×  |  1 game px = 4 SVG px  |  PALETTE: Turnhoutsebaan 32-color -->
  <rect x="8" y="24" width="64" height="64" fill="#FFD700"/>
  <rect x="4" y="32" width="72" height="48" fill="#FFD700"/>
  <rect x="16" y="20" width="48" height="72" fill="#FFD700"/>
  <rect x="12" y="28" width="24" height="12" fill="#F0EEE8"/>
  <rect x="12" y="28" width="12" height="24" fill="#F0EEE8"/>
  <rect x="56" y="32" width="8" height="48" fill="#D4A040"/>
  <rect x="16" y="72" width="48" height="8" fill="#D4A040"/>
  <rect x="32" y="40" width="20" height="4" fill="#D4A040"/>
  <rect x="28" y="44" width="8" height="4" fill="#D4A040"/>
  <rect x="28" y="48" width="24" height="4" fill="#D4A040"/>
  <rect x="28" y="52" width="8" height="4" fill="#D4A040"/>
  <rect x="28" y="56" width="20" height="4" fill="#D4A040"/>
  <rect x="44" y="44" width="8" height="20" fill="#D4A040"/>
  <text x="0" y="296" font-size="9" fill="#666" font-family="monospace" shape-rendering="auto">coin</text>
  <rect x="96" y="16" width="112" height="28" fill="#E8CFA0"/>
  <rect x="96" y="16" width="112" height="4" fill="#F4E8C8"/>
  <rect x="96" y="16" width="4" height="28" fill="#F4E8C8"/>
  <rect x="100" y="20" width="12" height="8" fill="#D4B898"/>
  <rect x="104" y="44" width="96" height="8" fill="#C07050"/>
  <rect x="104" y="52" width="96" height="4" fill="#3C8830"/>
  <rect x="104" y="56" width="96" height="4" fill="#E8CFA0"/>
  <rect x="104" y="60" width="96" height="4" fill="#984428"/>
  <rect x="96" y="64" width="112" height="16" fill="#E8CFA0"/>
  <rect x="96" y="76" width="112" height="4" fill="#C8A86C"/>
  <rect x="112" y="20" width="4" height="4" fill="#F4E8C8"/>
  <rect x="128" y="24" width="4" height="4" fill="#F4E8C8"/>
  <rect x="152" y="20" width="4" height="4" fill="#F4E8C8"/>
  <rect x="176" y="24" width="4" height="4" fill="#F4E8C8"/>
  <rect x="192" y="20" width="4" height="4" fill="#F4E8C8"/>
  <text x="96" y="296" font-size="9" fill="#666" font-family="monospace" shape-rendering="auto">smoske</text>
  <rect x="240" y="56" width="32" height="40" fill="#F4E8C8"/>
  <rect x="240" y="56" width="4" height="40" fill="#E8CFA0"/>
  <rect x="268" y="56" width="4" height="40" fill="#C8A86C"/>
  <rect x="252" y="88" width="8" height="8" fill="#E8CFA0"/>
  <rect x="240" y="16" width="8" height="40" fill="#D4A040"/>
  <rect x="240" y="16" width="4" height="4" fill="#DDB800"/>
  <rect x="240" y="48" width="4" height="8" fill="#C8A86C"/>
  <rect x="244" y="16" width="8" height="40" fill="#D4A040"/>
  <rect x="244" y="16" width="4" height="4" fill="#DDB800"/>
  <rect x="244" y="48" width="4" height="8" fill="#C8A86C"/>
  <rect x="248" y="20" width="8" height="40" fill="#D4A040"/>
  <rect x="248" y="20" width="4" height="4" fill="#DDB800"/>
  <rect x="248" y="52" width="4" height="8" fill="#C8A86C"/>
  <rect x="252" y="16" width="8" height="40" fill="#D4A040"/>
  <rect x="252" y="16" width="4" height="4" fill="#DDB800"/>
  <rect x="252" y="48" width="4" height="8" fill="#C8A86C"/>
  <rect x="256" y="16" width="8" height="40" fill="#D4A040"/>
  <rect x="256" y="16" width="4" height="4" fill="#DDB800"/>
  <rect x="256" y="48" width="4" height="8" fill="#C8A86C"/>
  <rect x="260" y="20" width="8" height="40" fill="#D4A040"/>
  <rect x="260" y="20" width="4" height="4" fill="#DDB800"/>
  <rect x="260" y="52" width="4" height="8" fill="#C8A86C"/>
  <rect x="264" y="16" width="8" height="40" fill="#D4A040"/>
  <rect x="264" y="16" width="4" height="4" fill="#DDB800"/>
  <rect x="264" y="48" width="4" height="8" fill="#C8A86C"/>
  <rect x="268" y="16" width="8" height="40" fill="#D4A040"/>
  <rect x="268" y="16" width="4" height="4" fill="#DDB800"/>
  <rect x="268" y="48" width="4" height="8" fill="#C8A86C"/>
  <rect x="244" y="24" width="24" height="12" fill="#F0EEE8"/>
  <rect x="248" y="20" width="16" height="4" fill="#F0EEE8"/>
  <text x="224" y="296" font-size="9" fill="#666" font-family="monospace" shape-rendering="auto">friet</text>
  <rect x="308" y="32" width="40" height="56" fill="#A0C8E4"/>
  <rect x="312" y="36" width="32" height="44" fill="#D4A040"/>
  <rect x="312" y="36" width="32" height="4" fill="#DDB800"/>
  <rect x="316" y="28" width="12" height="12" fill="#3C8830"/>
  <rect x="324" y="24" width="12" height="16" fill="#3C8830"/>
  <rect x="332" y="28" width="8" height="12" fill="#3C8830"/>
  <rect x="320" y="28" width="4" height="8" fill="#606058"/>
  <rect x="308" y="36" width="8" height="40" fill="#C8DFF2"/>
  <rect x="308" y="32" width="40" height="4" fill="#C8DFF2"/>
  <rect x="304" y="88" width="48" height="8" fill="#B4B0A8"/>
  <rect x="304" y="88" width="48" height="4" fill="#F0EEE8"/>
  <rect x="304" y="92" width="48" height="4" fill="#888880"/>
  <rect x="308" y="32" width="40" height="4" fill="#DDB800"/>
  <rect x="308" y="84" width="40" height="4" fill="#DDB800"/>
  <rect x="348" y="48" width="8" height="4" fill="#DDB800"/>
  <rect x="352" y="52" width="4" height="16" fill="#DDB800"/>
  <rect x="348" y="68" width="8" height="4" fill="#DDB800"/>
  <text x="304" y="296" font-size="9" fill="#666" font-family="monospace" shape-rendering="auto">mint_tea</text>
  <rect x="376" y="24" width="48" height="32" fill="#E8CFA0"/>
  <rect x="380" y="32" width="40" height="4" fill="#F4E8C8"/>
  <rect x="380" y="40" width="40" height="4" fill="#F4E8C8"/>
  <rect x="380" y="48" width="40" height="4" fill="#F4E8C8"/>
  <rect x="376" y="24" width="48" height="8" fill="#D4A040"/>
  <rect x="392" y="32" width="16" height="12" fill="#3C8830"/>
  <rect x="396" y="32" width="8" height="4" fill="#606058"/>
  <rect x="380" y="24" width="40" height="8" fill="#DDB800"/>
  <rect x="376" y="24" width="4" height="8" fill="#DDB800"/>
  <rect x="376" y="52" width="48" height="4" fill="#C8A86C"/>
  <rect x="424" y="24" width="4" height="32" fill="#C8A86C"/>
  <text x="368" y="296" font-size="9" fill="#666" font-family="monospace" shape-rendering="auto">baklava</text>
  <rect x="452" y="28" width="56" height="44" fill="#CC2010"/>
  <rect x="460" y="20" width="40" height="52" fill="#CC2010"/>
  <rect x="456" y="24" width="48" height="48" fill="#CC2010"/>
  <rect x="460" y="28" width="20" height="16" fill="#C07050"/>
  <rect x="460" y="28" width="12" height="20" fill="#C07050"/>
  <rect x="464" y="64" width="32" height="8" fill="#6E2C18"/>
  <rect x="468" y="16" width="24" height="12" fill="#6E2C18"/>
  <rect x="472" y="16" width="16" height="8" fill="#984428"/>
  <rect x="468" y="12" width="4" height="8" fill="#6E2C18"/>
  <rect x="476" y="12" width="4" height="8" fill="#6E2C18"/>
  <rect x="484" y="12" width="4" height="8" fill="#6E2C18"/>
  <rect x="492" y="12" width="4" height="8" fill="#6E2C18"/>
  <rect x="472" y="48" width="8" height="4" fill="#F4E8C8"/>
  <rect x="484" y="52" width="8" height="4" fill="#F4E8C8"/>
  <rect x="480" y="44" width="4" height="4" fill="#F4E8C8"/>
  <text x="448" y="296" font-size="9" fill="#666" font-family="monospace" shape-rendering="auto">pomegrana</text>
  <rect x="532" y="24" width="48" height="40" fill="#D4A040"/>
  <rect x="540" y="20" width="32" height="48" fill="#D4A040"/>
  <rect x="536" y="24" width="40" height="40" fill="#D4A040"/>
  <rect x="540" y="28" width="16" height="12" fill="#DDB800"/>
  <rect x="540" y="28" width="12" height="16" fill="#DDB800"/>
  <rect x="564" y="48" width="12" height="16" fill="#C8A86C"/>
  <rect x="548" y="36" width="4" height="4" fill="#C8A86C"/>
  <rect x="560" y="32" width="4" height="4" fill="#C8A86C"/>
  <rect x="552" y="52" width="4" height="4" fill="#C8A86C"/>
  <rect x="568" y="44" width="4" height="4" fill="#C8A86C"/>
  <rect x="552" y="16" width="8" height="8" fill="#4A2C10"/>
  <rect x="548" y="16" width="12" height="4" fill="#3C8830"/>
  <rect x="560" y="16" width="12" height="4" fill="#3C8830"/>
  <text x="528" y="296" font-size="9" fill="#666" font-family="monospace" shape-rendering="auto">orange</text>
  <rect x="600" y="28" width="80" height="36" fill="#E8CFA0"/>
  <rect x="608" y="16" width="64" height="48" fill="#E8CFA0"/>
  <rect x="612" y="16" width="56" height="12" fill="#E8CFA0"/>
  <rect x="600" y="28" width="80" height="4" fill="#8A5A28"/>
  <rect x="608" y="16" width="64" height="12" fill="#D4A040"/>
  <rect x="612" y="16" width="56" height="4" fill="#DDB800"/>
  <rect x="620" y="20" width="4" height="24" fill="#C8A86C"/>
  <rect x="636" y="20" width="4" height="24" fill="#C8A86C"/>
  <rect x="652" y="20" width="4" height="24" fill="#C8A86C"/>
  <rect x="600" y="60" width="80" height="4" fill="#4A2C10"/>
  <rect x="672" y="32" width="8" height="32" fill="#C8A86C"/>
  <text x="600" y="296" font-size="9" fill="#666" font-family="monospace" shape-rendering="auto">bread</text>
  <rect x="700" y="32" width="40" height="48" fill="#8A5A28"/>
  <rect x="696" y="40" width="48" height="32" fill="#8A5A28"/>
  <rect x="704" y="36" width="32" height="4" fill="#4A2C10"/>
  <rect x="704" y="44" width="32" height="4" fill="#4A2C10"/>
  <rect x="704" y="52" width="32" height="4" fill="#4A2C10"/>
  <rect x="704" y="60" width="32" height="4" fill="#4A2C10"/>
  <rect x="704" y="68" width="32" height="4" fill="#4A2C10"/>
  <rect x="704" y="36" width="4" height="36" fill="#4A2C10"/>
  <rect x="712" y="36" width="4" height="36" fill="#4A2C10"/>
  <rect x="720" y="36" width="4" height="36" fill="#4A2C10"/>
  <rect x="728" y="36" width="4" height="36" fill="#4A2C10"/>
  <rect x="708" y="24" width="24" height="12" fill="#4A2C10"/>
  <rect x="712" y="20" width="16" height="8" fill="#4A2C10"/>
  <rect x="708" y="28" width="24" height="4" fill="#D4A040"/>
  <rect x="732" y="40" width="8" height="40" fill="#4A2C10"/>
  <text x="696" y="296" font-size="9" fill="#666" font-family="monospace" shape-rendering="auto">spice_sac</text>
  <rect x="764" y="40" width="72" height="32" fill="#E8CFA0"/>
  <rect x="760" y="52" width="80" height="20" fill="#E8CFA0"/>
  <rect x="768" y="40" width="64" height="4" fill="#F4E8C8"/>
  <rect x="760" y="68" width="80" height="4" fill="#C8A86C"/>
  <rect x="772" y="28" width="56" height="16" fill="#D4B898"/>
  <rect x="772" y="28" width="56" height="4" fill="#F4E8C8"/>
  <rect x="780" y="32" width="12" height="8" fill="#3C8830"/>
  <rect x="800" y="32" width="12" height="8" fill="#984428"/>
  <rect x="816" y="32" width="8" height="8" fill="#D4A040"/>
  <rect x="792" y="24" width="16" height="12" fill="#8A5A28"/>
  <rect x="792" y="24" width="4" height="4" fill="#4A2C10"/>
  <rect x="768" y="68" width="64" height="4" fill="#E8CFA0"/>
  <rect x="764" y="48" width="4" height="16" fill="#1C5898"/>
  <rect x="832" y="48" width="4" height="16" fill="#1C5898"/>
  <text x="760" y="296" font-size="9" fill="#666" font-family="monospace" shape-rendering="auto">couscous</text>
  <rect x="876" y="16" width="8" height="80" fill="#888880"/>
  <rect x="876" y="16" width="4" height="80" fill="#B4B0A8"/>
  <rect x="864" y="24" width="32" height="8" fill="#8A5A28"/>
  <rect x="864" y="24" width="32" height="4" fill="#C07050"/>
  <rect x="860" y="36" width="36" height="8" fill="#8A5A28"/>
  <rect x="860" y="36" width="36" height="4" fill="#C07050"/>
  <rect x="864" y="48" width="32" height="8" fill="#8A5A28"/>
  <rect x="864" y="48" width="32" height="4" fill="#C07050"/>
  <rect x="860" y="60" width="36" height="8" fill="#8A5A28"/>
  <rect x="860" y="60" width="36" height="4" fill="#C07050"/>
  <rect x="864" y="72" width="32" height="8" fill="#8A5A28"/>
  <rect x="864" y="72" width="32" height="4" fill="#C07050"/>
  <rect x="868" y="28" width="24" height="4" fill="#E8CFA0"/>
  <rect x="868" y="40" width="24" height="4" fill="#E8CFA0"/>
  <rect x="868" y="52" width="24" height="4" fill="#E8CFA0"/>
  <rect x="868" y="64" width="24" height="4" fill="#E8CFA0"/>
  <rect x="868" y="76" width="24" height="4" fill="#E8CFA0"/>
  <rect x="860" y="84" width="40" height="12" fill="#888880"/>
  <rect x="864" y="88" width="32" height="4" fill="#D4A040"/>
  <rect x="872" y="16" width="16" height="4" fill="#D4A040"/>
  <text x="856" y="296" font-size="9" fill="#666" font-family="monospace" shape-rendering="auto">kebab_don</text>
  <rect x="928" y="48" width="64" height="32" fill="#1C5898"/>
  <rect x="920" y="56" width="80" height="24" fill="#1C5898"/>
  <rect x="920" y="76" width="16" height="8" fill="#1C5898"/>
  <rect x="924" y="84" width="8" height="4" fill="#1C5898"/>
  <rect x="936" y="76" width="16" height="8" fill="#1C5898"/>
  <rect x="940" y="84" width="8" height="4" fill="#1C5898"/>
  <rect x="952" y="76" width="16" height="8" fill="#1C5898"/>
  <rect x="956" y="84" width="8" height="4" fill="#1C5898"/>
  <rect x="968" y="76" width="16" height="8" fill="#1C5898"/>
  <rect x="972" y="84" width="8" height="4" fill="#1C5898"/>
  <rect x="984" y="76" width="16" height="8" fill="#1C5898"/>
  <rect x="988" y="84" width="8" height="4" fill="#1C5898"/>
  <rect x="956" y="32" width="8" height="20" fill="#1C5898"/>
  <rect x="952" y="40" width="16" height="16" fill="#1C5898"/>
  <rect x="932" y="56" width="8" height="20" fill="#C8DFF2"/>
  <rect x="952" y="56" width="8" height="20" fill="#C8DFF2"/>
  <rect x="972" y="56" width="8" height="20" fill="#C8DFF2"/>
  <rect x="956" y="24" width="8" height="96" fill="#606058"/>
  <rect x="956" y="24" width="4" height="96" fill="#B4B0A8"/>
  <rect x="956" y="116" width="16" height="8" fill="#606058"/>
  <rect x="972" y="112" width="8" height="16" fill="#606058"/>
  <rect x="972" y="128" width="8" height="4" fill="#888880"/>
  <rect x="956" y="116" width="16" height="4" fill="#B4B0A8"/>
  <text x="920" y="296" font-size="9" fill="#666" font-family="monospace" shape-rendering="auto">paraplu</text>
</svg>
