<svg xmlns="http://www.w3.org/2000/svg" viewBox="0 0 1280 400" width="1280" height="400" shape-rendering="crispEdges">
  <!-- NPC EXTENDED SHEET — All 8 Borgerhout NPCs -->
  <!-- SCALE: 4×  |  1 game px = 4 SVG px  |  PALETTE: Turnhoutsebaan 32-color -->
  <rect x="28" y="24" width="24" height="32" fill="#F4E8C8"/>
  <rect x="32" y="36" width="4" height="4" fill="#141210"/>
  <rect x="44" y="36" width="4" height="4" fill="#141210"/>
  <rect x="16" y="8" width="48" height="24" fill="#606058"/>
  <rect x="12" y="28" width="56" height="40" fill="#606058"/>
  <rect x="20" y="28" width="40" height="16" fill="#0C0C18"/>
  <rect x="12" y="68" width="56" height="96" fill="#0C0C18"/>
  <rect x="12" y="68" width="56" height="4" fill="#606058"/>
  <rect x="12" y="68" width="4" height="96" fill="#606058"/>
  <rect x="64" y="68" width="4" height="96" fill="#141210"/>
  <rect x="4" y="72" width="12" height="64" fill="#0C0C18"/>
  <rect x="4" y="72" width="4" height="64" fill="#606058"/>
  <rect x="64" y="72" width="12" height="64" fill="#0C0C18"/>
  <rect x="72" y="72" width="4" height="64" fill="#141210"/>
  <rect x="4" y="136" width="8" height="16" fill="#F4E8C8"/>
  <rect x="68" y="136" width="8" height="16" fill="#F4E8C8"/>
  <rect x="24" y="160" width="16" height="24" fill="#606058"/>
  <rect x="40" y="160" width="16" height="16" fill="#606058"/>
  <rect x="24" y="176" width="16" height="8" fill="#141210"/>
  <rect x="40" y="176" width="16" height="8" fill="#141210"/>
  <rect x="16" y="8" width="32" height="4" fill="#888880"/>
  <text x="0" y="384" font-size="9" fill="#666" font-family="monospace" shape-rendering="auto">hijab_wo</text>
  <rect x="108" y="24" width="24" height="32" fill="#F4E8C8"/>
  <rect x="112" y="36" width="4" height="4" fill="#141210"/>
  <rect x="124" y="36" width="4" height="4" fill="#141210"/>
  <rect x="96" y="8" width="48" height="24" fill="#606058"/>
  <rect x="92" y="28" width="56" height="40" fill="#606058"/>
  <rect x="100" y="28" width="40" height="16" fill="#0C0C18"/>
  <rect x="92" y="68" width="56" height="96" fill="#0C0C18"/>
  <rect x="92" y="68" width="56" height="4" fill="#606058"/>
  <rect x="92" y="68" width="4" height="96" fill="#606058"/>
  <rect x="144" y="68" width="4" height="96" fill="#141210"/>
  <rect x="84" y="72" width="12" height="64" fill="#0C0C18"/>
  <rect x="84" y="72" width="4" height="64" fill="#606058"/>
  <rect x="144" y="72" width="12" height="64" fill="#0C0C18"/>
  <rect x="152" y="72" width="4" height="64" fill="#141210"/>
  <rect x="84" y="136" width="8" height="16" fill="#F4E8C8"/>
  <rect x="148" y="136" width="8" height="16" fill="#F4E8C8"/>
  <rect x="104" y="160" width="16" height="24" fill="#606058"/>
  <rect x="120" y="168" width="16" height="16" fill="#606058"/>
  <rect x="104" y="176" width="16" height="8" fill="#141210"/>
  <rect x="120" y="176" width="16" height="8" fill="#141210"/>
  <rect x="96" y="8" width="32" height="4" fill="#888880"/>
  <rect x="188" y="24" width="24" height="8" fill="#C8A86C"/>
  <rect x="184" y="20" width="32" height="12" fill="#E8CFA0"/>
  <rect x="188" y="32" width="24" height="32" fill="#D4A040"/>
  <rect x="192" y="44" width="4" height="4" fill="#141210"/>
  <rect x="204" y="44" width="4" height="4" fill="#141210"/>
  <rect x="188" y="56" width="24" height="12" fill="#606058"/>
  <rect x="180" y="16" width="40" height="12" fill="#E8CFA0"/>
  <rect x="176" y="28" width="8" height="24" fill="#E8CFA0"/>
  <rect x="216" y="28" width="8" height="24" fill="#E8CFA0"/>
  <rect x="172" y="68" width="56" height="96" fill="#E8CFA0"/>
  <rect x="172" y="68" width="56" height="4" fill="#C8A86C"/>
  <rect x="172" y="84" width="56" height="4" fill="#C8A86C"/>
  <rect x="172" y="100" width="56" height="4" fill="#C8A86C"/>
  <rect x="172" y="116" width="56" height="4" fill="#C8A86C"/>
  <rect x="172" y="132" width="56" height="4" fill="#C8A86C"/>
  <rect x="172" y="148" width="56" height="4" fill="#C8A86C"/>
  <rect x="172" y="68" width="4" height="96" fill="#C8A86C"/>
  <rect x="224" y="68" width="4" height="96" fill="#C8A86C"/>
  <rect x="196" y="68" width="8" height="72" fill="#D4A040"/>
  <rect x="160" y="72" width="16" height="56" fill="#E8CFA0"/>
  <rect x="160" y="72" width="4" height="56" fill="#C8A86C"/>
  <rect x="224" y="72" width="16" height="56" fill="#E8CFA0"/>
  <rect x="236" y="72" width="4" height="56" fill="#C8A86C"/>
  <rect x="164" y="120" width="8" height="16" fill="#D4A040"/>
  <rect x="228" y="120" width="8" height="16" fill="#D4A040"/>
  <rect x="184" y="160" width="16" height="32" fill="#E8CFA0"/>
  <rect x="200" y="160" width="16" height="24" fill="#E8CFA0"/>
  <rect x="180" y="180" width="8" height="4" fill="#D4A040"/>
  <rect x="200" y="180" width="8" height="4" fill="#D4A040"/>
  <rect x="172" y="68" width="56" height="4" fill="#F4E8C8"/>
  <rect x="172" y="68" width="4" height="96" fill="#F4E8C8"/>
  <text x="160" y="384" font-size="9" fill="#666" font-family="monospace" shape-rendering="auto">djellaba</text>
  <rect x="268" y="24" width="24" height="8" fill="#C8A86C"/>
  <rect x="264" y="20" width="32" height="12" fill="#E8CFA0"/>
  <rect x="268" y="32" width="24" height="32" fill="#D4A040"/>
  <rect x="272" y="44" width="4" height="4" fill="#141210"/>
  <rect x="284" y="44" width="4" height="4" fill="#141210"/>
  <rect x="268" y="56" width="24" height="12" fill="#606058"/>
  <rect x="260" y="16" width="40" height="12" fill="#E8CFA0"/>
  <rect x="256" y="28" width="8" height="24" fill="#E8CFA0"/>
  <rect x="296" y="28" width="8" height="24" fill="#E8CFA0"/>
  <rect x="252" y="68" width="56" height="96" fill="#E8CFA0"/>
  <rect x="252" y="68" width="56" height="4" fill="#C8A86C"/>
  <rect x="252" y="84" width="56" height="4" fill="#C8A86C"/>
  <rect x="252" y="100" width="56" height="4" fill="#C8A86C"/>
  <rect x="252" y="116" width="56" height="4" fill="#C8A86C"/>
  <rect x="252" y="132" width="56" height="4" fill="#C8A86C"/>
  <rect x="252" y="148" width="56" height="4" fill="#C8A86C"/>
  <rect x="252" y="68" width="4" height="96" fill="#C8A86C"/>
  <rect x="304" y="68" width="4" height="96" fill="#C8A86C"/>
  <rect x="276" y="68" width="8" height="72" fill="#D4A040"/>
  <rect x="240" y="72" width="16" height="56" fill="#E8CFA0"/>
  <rect x="240" y="72" width="4" height="56" fill="#C8A86C"/>
  <rect x="304" y="72" width="16" height="56" fill="#E8CFA0"/>
  <rect x="316" y="72" width="4" height="56" fill="#C8A86C"/>
  <rect x="244" y="120" width="8" height="16" fill="#D4A040"/>
  <rect x="308" y="120" width="8" height="16" fill="#D4A040"/>
  <rect x="264" y="160" width="16" height="32" fill="#E8CFA0"/>
  <rect x="280" y="168" width="16" height="24" fill="#E8CFA0"/>
  <rect x="260" y="180" width="8" height="4" fill="#D4A040"/>
  <rect x="280" y="180" width="8" height="4" fill="#D4A040"/>
  <rect x="252" y="68" width="56" height="4" fill="#F4E8C8"/>
  <rect x="252" y="68" width="4" height="96" fill="#F4E8C8"/>
  <rect x="336" y="8" width="32" height="36" fill="#F4E8C8"/>
  <rect x="332" y="4" width="40" height="16" fill="#4A2C10"/>
  <rect x="340" y="24" width="4" height="4" fill="#141210"/>
  <rect x="356" y="24" width="4" height="4" fill="#141210"/>
  <rect x="344" y="28" width="4" height="4" fill="#141210"/>
  <rect x="356" y="32" width="12" height="4" fill="#CC2010"/>
  <rect x="336" y="32" width="8" height="4" fill="#C07050"/>
  <rect x="360" y="32" width="8" height="4" fill="#C07050"/>
  <rect x="336" y="44" width="32" height="40" fill="#1C5898"/>
  <rect x="340" y="72" width="24" height="12" fill="#0C0C18"/>
  <rect x="328" y="44" width="12" height="32" fill="#1C5898"/>
  <rect x="328" y="44" width="4" height="32" fill="#0C0C18"/>
  <rect x="364" y="44" width="12" height="32" fill="#1C5898"/>
  <rect x="372" y="44" width="4" height="32" fill="#0C0C18"/>
  <rect x="328" y="76" width="8" height="12" fill="#F4E8C8"/>
  <rect x="368" y="76" width="8" height="12" fill="#F4E8C8"/>
  <rect x="340" y="84" width="24" height="28" fill="#606058"/>
  <rect x="336" y="84" width="4" height="28" fill="#0C0C18"/>
  <rect x="340" y="112" width="12" height="16" fill="#F0EEE8"/>
  <rect x="340" y="116" width="12" height="4" fill="#1C5898"/>
  <rect x="352" y="112" width="12" height="8" fill="#F0EEE8"/>
  <rect x="352" y="116" width="12" height="4" fill="#1C5898"/>
  <rect x="336" y="44" width="16" height="4" fill="#C8DFF2"/>
  <rect x="336" y="44" width="4" height="20" fill="#C8DFF2"/>
  <text x="320" y="384" font-size="9" fill="#666" font-family="monospace" shape-rendering="auto">child</text>
  <rect x="416" y="8" width="32" height="36" fill="#F4E8C8"/>
  <rect x="412" y="4" width="40" height="16" fill="#4A2C10"/>
  <rect x="420" y="24" width="4" height="4" fill="#141210"/>
  <rect x="436" y="24" width="4" height="4" fill="#141210"/>
  <rect x="424" y="28" width="4" height="4" fill="#141210"/>
  <rect x="436" y="32" width="12" height="4" fill="#CC2010"/>
  <rect x="416" y="32" width="8" height="4" fill="#C07050"/>
  <rect x="440" y="32" width="8" height="4" fill="#C07050"/>
  <rect x="416" y="44" width="32" height="40" fill="#1C5898"/>
  <rect x="420" y="72" width="24" height="12" fill="#0C0C18"/>
  <rect x="408" y="44" width="12" height="32" fill="#1C5898"/>
  <rect x="408" y="44" width="4" height="32" fill="#0C0C18"/>
  <rect x="444" y="44" width="12" height="32" fill="#1C5898"/>
  <rect x="452" y="44" width="4" height="32" fill="#0C0C18"/>
  <rect x="408" y="76" width="8" height="12" fill="#F4E8C8"/>
  <rect x="448" y="76" width="8" height="12" fill="#F4E8C8"/>
  <rect x="420" y="84" width="24" height="28" fill="#606058"/>
  <rect x="416" y="84" width="4" height="28" fill="#0C0C18"/>
  <rect x="420" y="112" width="12" height="16" fill="#F0EEE8"/>
  <rect x="420" y="116" width="12" height="4" fill="#1C5898"/>
  <rect x="432" y="120" width="12" height="8" fill="#F0EEE8"/>
  <rect x="432" y="124" width="12" height="4" fill="#1C5898"/>
  <rect x="416" y="44" width="16" height="4" fill="#C8DFF2"/>
  <rect x="416" y="44" width="4" height="20" fill="#C8DFF2"/>
  <rect x="464" y="8" width="32" height="24" fill="#606058"/>
  <rect x="460" y="12" width="40" height="20" fill="#606058"/>
  <rect x="464" y="8" width="32" height="4" fill="#888880"/>
  <rect x="460" y="12" width="16" height="8" fill="#B4B0A8"/>
  <rect x="460" y="28" width="40" height="8" fill="#A0C8E4"/>
  <rect x="460" y="28" width="16" height="4" fill="#78AFE1"/>
  <rect x="468" y="36" width="24" height="20" fill="#E8CFA0"/>
  <rect x="472" y="44" width="4" height="4" fill="#141210"/>
  <rect x="484" y="44" width="4" height="4" fill="#141210"/>
  <rect x="456" y="56" width="48" height="72" fill="#D4A040"/>
  <rect x="456" y="80" width="48" height="4" fill="#F0EEE8"/>
  <rect x="456" y="96" width="48" height="4" fill="#F0EEE8"/>
  <rect x="456" y="56" width="4" height="72" fill="#C8A86C"/>
  <rect x="500" y="56" width="4" height="72" fill="#C8A86C"/>
  <rect x="452" y="56" width="4" height="72" fill="#0C0C18"/>
  <rect x="504" y="56" width="4" height="72" fill="#0C0C18"/>
  <rect x="444" y="60" width="12" height="48" fill="#D4A040"/>
  <rect x="444" y="60" width="4" height="48" fill="#C8A86C"/>
  <rect x="504" y="60" width="12" height="48" fill="#D4A040"/>
  <rect x="512" y="60" width="4" height="48" fill="#C8A86C"/>
  <rect x="444" y="108" width="12" height="20" fill="#141210"/>
  <rect x="504" y="108" width="12" height="20" fill="#141210"/>
  <rect x="452" y="64" width="56" height="56" fill="#606058"/>
  <rect x="452" y="64" width="56" height="4" fill="#888880"/>
  <rect x="460" y="128" width="40" height="40" fill="#0C0C18"/>
  <rect x="460" y="128" width="4" height="40" fill="#141210"/>
  <rect x="460" y="168" width="16" height="24" fill="#141210"/>
  <rect x="460" y="168" width="4" height="24" fill="#606058"/>
  <rect x="476" y="168" width="16" height="16" fill="#141210"/>
  <rect x="476" y="168" width="4" height="16" fill="#606058"/>
  <text x="440" y="384" font-size="9" fill="#666" font-family="monospace" shape-rendering="auto">delivery</text>
  <rect x="552" y="8" width="32" height="24" fill="#606058"/>
  <rect x="548" y="12" width="40" height="20" fill="#606058"/>
  <rect x="552" y="8" width="32" height="4" fill="#888880"/>
  <rect x="548" y="12" width="16" height="8" fill="#B4B0A8"/>
  <rect x="548" y="28" width="40" height="8" fill="#A0C8E4"/>
  <rect x="548" y="28" width="16" height="4" fill="#78AFE1"/>
  <rect x="556" y="36" width="24" height="20" fill="#E8CFA0"/>
  <rect x="560" y="44" width="4" height="4" fill="#141210"/>
  <rect x="572" y="44" width="4" height="4" fill="#141210"/>
  <rect x="544" y="56" width="48" height="72" fill="#D4A040"/>
  <rect x="544" y="80" width="48" height="4" fill="#F0EEE8"/>
  <rect x="544" y="96" width="48" height="4" fill="#F0EEE8"/>
  <rect x="544" y="56" width="4" height="72" fill="#C8A86C"/>
  <rect x="588" y="56" width="4" height="72" fill="#C8A86C"/>
  <rect x="540" y="56" width="4" height="72" fill="#0C0C18"/>
  <rect x="592" y="56" width="4" height="72" fill="#0C0C18"/>
  <rect x="532" y="60" width="12" height="48" fill="#D4A040"/>
  <rect x="532" y="60" width="4" height="48" fill="#C8A86C"/>
  <rect x="592" y="60" width="12" height="48" fill="#D4A040"/>
  <rect x="600" y="60" width="4" height="48" fill="#C8A86C"/>
  <rect x="532" y="108" width="12" height="20" fill="#141210"/>
  <rect x="592" y="108" width="12" height="20" fill="#141210"/>
  <rect x="540" y="64" width="56" height="56" fill="#606058"/>
  <rect x="540" y="64" width="56" height="4" fill="#888880"/>
  <rect x="548" y="128" width="40" height="40" fill="#0C0C18"/>
  <rect x="548" y="128" width="4" height="40" fill="#141210"/>
  <rect x="548" y="168" width="16" height="24" fill="#141210"/>
  <rect x="548" y="168" width="4" height="24" fill="#606058"/>
  <rect x="564" y="176" width="16" height="16" fill="#141210"/>
  <rect x="564" y="176" width="4" height="16" fill="#606058"/>
</svg>
