<svg xmlns="http://www.w3.org/2000/svg" viewBox="0 0 1024 512" width="1024" height="512" shape-rendering="crispEdges">
  <!-- ARCH DETAILS — Windows, Doors, Gables for Flemish ribbon buildings -->
  <!-- SCALE: 4×  |  1 game px = 4 SVG px  |  PALETTE: Turnhoutsebaan 32-color -->
  <text x="0" y="32" font-size="9" fill="#666" font-family="monospace" shape-rendering="auto">win_arch</text>
  <rect x="0" y="40" width="64" height="96" fill="#888880"/>
  <rect x="8" y="64" width="48" height="56" fill="#A0C8E4"/>
  <rect x="28" y="48" width="8" height="4" fill="#A0C8E4"/>
  <rect x="24" y="52" width="16" height="4" fill="#A0C8E4"/>
  <rect x="16" y="56" width="32" height="4" fill="#A0C8E4"/>
  <rect x="12" y="60" width="40" height="4" fill="#A0C8E4"/>
  <rect x="8" y="88" width="48" height="4" fill="#888880"/>
  <rect x="36" y="64" width="4" height="56" fill="#888880"/>
  <rect x="12" y="68" width="24" height="20" fill="#0C0C18"/>
  <rect x="12" y="92" width="24" height="20" fill="#0C0C18"/>
  <rect x="40" y="68" width="12" height="20" fill="#0C0C18"/>
  <rect x="40" y="92" width="12" height="20" fill="#0C0C18"/>
  <rect x="12" y="68" width="8" height="8" fill="#C8DFF2"/>
  <rect x="40" y="68" width="4" height="4" fill="#C8DFF2"/>
  <rect x="0" y="40" width="64" height="4" fill="#B4B0A8"/>
  <rect x="0" y="40" width="4" height="96" fill="#B4B0A8"/>
  <rect x="60" y="40" width="4" height="96" fill="#606058"/>
  <rect x="0" y="132" width="64" height="4" fill="#606058"/>
  <text x="80" y="32" font-size="9" fill="#666" font-family="monospace" shape-rendering="auto">win_rect</text>
  <rect x="80" y="40" width="56" height="72" fill="#888880"/>
  <rect x="88" y="48" width="16" height="52" fill="#A0C8E4"/>
  <rect x="112" y="48" width="16" height="52" fill="#A0C8E4"/>
  <rect x="104" y="48" width="8" height="52" fill="#888880"/>
  <rect x="88" y="72" width="40" height="4" fill="#888880"/>
  <rect x="92" y="76" width="12" height="20" fill="#0C0C18"/>
  <rect x="116" y="76" width="8" height="20" fill="#0C0C18"/>
  <rect x="88" y="52" width="8" height="8" fill="#C8DFF2"/>
  <rect x="112" y="52" width="8" height="8" fill="#C8DFF2"/>
  <rect x="80" y="40" width="56" height="4" fill="#B4B0A8"/>
  <rect x="80" y="40" width="4" height="72" fill="#B4B0A8"/>
  <rect x="132" y="40" width="4" height="72" fill="#606058"/>
  <rect x="80" y="108" width="56" height="4" fill="#606058"/>
  <text x="152" y="32" font-size="9" fill="#666" font-family="monospace" shape-rendering="auto">win_shut</text>
  <rect x="152" y="32" width="56" height="80" fill="#888880"/>
  <rect x="156" y="36" width="20" height="72" fill="#8A5A28"/>
  <rect x="156" y="36" width="20" height="4" fill="#4A2C10"/>
  <rect x="156" y="44" width="20" height="4" fill="#4A2C10"/>
  <rect x="156" y="52" width="20" height="4" fill="#4A2C10"/>
  <rect x="156" y="60" width="20" height="4" fill="#4A2C10"/>
  <rect x="156" y="68" width="20" height="4" fill="#4A2C10"/>
  <rect x="156" y="76" width="20" height="4" fill="#4A2C10"/>
  <rect x="156" y="84" width="20" height="4" fill="#4A2C10"/>
  <rect x="156" y="92" width="20" height="4" fill="#4A2C10"/>
  <rect x="156" y="100" width="20" height="4" fill="#4A2C10"/>
  <rect x="184" y="36" width="20" height="72" fill="#8A5A28"/>
  <rect x="184" y="36" width="20" height="4" fill="#4A2C10"/>
  <rect x="184" y="44" width="20" height="4" fill="#4A2C10"/>
  <rect x="184" y="52" width="20" height="4" fill="#4A2C10"/>
  <rect x="184" y="60" width="20" height="4" fill="#4A2C10"/>
  <rect x="184" y="68" width="20" height="4" fill="#4A2C10"/>
  <rect x="184" y="76" width="20" height="4" fill="#4A2C10"/>
  <rect x="184" y="84" width="20" height="4" fill="#4A2C10"/>
  <rect x="184" y="92" width="20" height="4" fill="#4A2C10"/>
  <rect x="184" y="100" width="20" height="4" fill="#4A2C10"/>
  <rect x="176" y="36" width="8" height="72" fill="#A0C8E4"/>
  <rect x="156" y="48" width="4" height="8" fill="#606058"/>
  <rect x="156" y="88" width="4" height="8" fill="#606058"/>
  <rect x="200" y="48" width="4" height="8" fill="#606058"/>
  <rect x="200" y="88" width="4" height="8" fill="#606058"/>
  <rect x="152" y="32" width="56" height="4" fill="#B4B0A8"/>
  <rect x="152" y="32" width="4" height="80" fill="#B4B0A8"/>
  <rect x="204" y="32" width="4" height="80" fill="#606058"/>
  <rect x="152" y="108" width="56" height="4" fill="#606058"/>
  <text x="224" y="32" font-size="9" fill="#666" font-family="monospace" shape-rendering="auto">win_nite</text>
  <rect x="224" y="40" width="56" height="72" fill="#888880"/>
  <rect x="232" y="48" width="40" height="52" fill="#D4A040"/>
  <rect x="232" y="48" width="12" height="52" fill="#C8A86C"/>
  <rect x="260" y="48" width="12" height="52" fill="#C8A86C"/>
  <rect x="232" y="76" width="40" height="4" fill="#606058"/>
  <rect x="252" y="48" width="4" height="52" fill="#606058"/>
  <rect x="232" y="100" width="40" height="4" fill="#DDB800"/>
  <rect x="224" y="40" width="56" height="4" fill="#B4B0A8"/>
  <rect x="224" y="40" width="4" height="72" fill="#B4B0A8"/>
  <rect x="276" y="40" width="4" height="72" fill="#606058"/>
  <rect x="224" y="108" width="56" height="4" fill="#606058"/>
  <text x="296" y="32" font-size="9" fill="#666" font-family="monospace" shape-rendering="auto">win_bay</text>
  <rect x="296" y="16" width="80" height="96" fill="#888880"/>
  <rect x="304" y="16" width="64" height="96" fill="#B4B0A8"/>
  <rect x="308" y="24" width="16" height="72" fill="#A0C8E4"/>
  <rect x="308" y="56" width="16" height="4" fill="#888880"/>
  <rect x="308" y="28" width="8" height="8" fill="#C8DFF2"/>
  <rect x="328" y="24" width="16" height="72" fill="#A0C8E4"/>
  <rect x="328" y="56" width="16" height="4" fill="#888880"/>
  <rect x="328" y="28" width="8" height="8" fill="#C8DFF2"/>
  <rect x="348" y="24" width="16" height="72" fill="#A0C8E4"/>
  <rect x="348" y="56" width="16" height="4" fill="#888880"/>
  <rect x="348" y="28" width="8" height="8" fill="#C8DFF2"/>
  <rect x="324" y="24" width="4" height="72" fill="#888880"/>
  <rect x="344" y="24" width="4" height="72" fill="#888880"/>
  <rect x="304" y="16" width="64" height="8" fill="#E8CFA0"/>
  <rect x="308" y="60" width="16" height="28" fill="#0C0C18"/>
  <rect x="328" y="60" width="16" height="28" fill="#0C0C18"/>
  <rect x="348" y="60" width="16" height="28" fill="#0C0C18"/>
  <rect x="296" y="16" width="4" height="96" fill="#606058"/>
  <rect x="372" y="16" width="4" height="96" fill="#606058"/>
  <rect x="296" y="108" width="80" height="4" fill="#606058"/>
  <text x="392" y="32" font-size="9" fill="#666" font-family="monospace" shape-rendering="auto">win_brkn</text>
  <rect x="392" y="40" width="56" height="72" fill="#888880"/>
  <rect x="400" y="48" width="40" height="56" fill="#4A2C10"/>
  <rect x="400" y="64" width="40" height="4" fill="#8A5A28"/>
  <rect x="400" y="76" width="40" height="4" fill="#8A5A28"/>
  <rect x="400" y="88" width="40" height="4" fill="#8A5A28"/>
  <rect x="400" y="100" width="40" height="4" fill="#8A5A28"/>
  <rect x="400" y="48" width="4" height="4" fill="#8A5A28"/>
  <rect x="436" y="48" width="4" height="4" fill="#8A5A28"/>
  <rect x="404" y="52" width="4" height="4" fill="#8A5A28"/>
  <rect x="432" y="52" width="4" height="4" fill="#8A5A28"/>
  <rect x="408" y="56" width="4" height="4" fill="#8A5A28"/>
  <rect x="428" y="56" width="4" height="4" fill="#8A5A28"/>
  <rect x="412" y="60" width="4" height="4" fill="#8A5A28"/>
  <rect x="424" y="60" width="4" height="4" fill="#8A5A28"/>
  <rect x="416" y="64" width="4" height="4" fill="#8A5A28"/>
  <rect x="420" y="64" width="4" height="4" fill="#8A5A28"/>
  <rect x="420" y="68" width="4" height="4" fill="#8A5A28"/>
  <rect x="416" y="68" width="4" height="4" fill="#8A5A28"/>
  <rect x="424" y="72" width="4" height="4" fill="#8A5A28"/>
  <rect x="412" y="72" width="4" height="4" fill="#8A5A28"/>
  <rect x="428" y="76" width="4" height="4" fill="#8A5A28"/>
  <rect x="408" y="76" width="4" height="4" fill="#8A5A28"/>
  <rect x="432" y="80" width="4" height="4" fill="#8A5A28"/>
  <rect x="404" y="80" width="4" height="4" fill="#8A5A28"/>
  <rect x="436" y="84" width="4" height="4" fill="#8A5A28"/>
  <rect x="400" y="84" width="4" height="4" fill="#8A5A28"/>
  <rect x="408" y="80" width="16" height="4" fill="#CC2010"/>
  <rect x="408" y="84" width="4" height="8" fill="#CC2010"/>
  <rect x="392" y="40" width="56" height="4" fill="#B4B0A8"/>
  <rect x="392" y="40" width="4" height="72" fill="#B4B0A8"/>
  <rect x="444" y="40" width="4" height="72" fill="#606058"/>
  <rect x="392" y="108" width="56" height="4" fill="#606058"/>
  <text x="480" y="32" font-size="9" fill="#666" font-family="monospace" shape-rendering="auto">door_arch</text>
  <rect x="480" y="0" width="64" height="112" fill="#888880"/>
  <rect x="488" y="40" width="48" height="68" fill="#8A5A28"/>
  <rect x="492" y="12" width="40" height="28" fill="#A0C8E4"/>
  <rect x="488" y="8" width="48" height="4" fill="#B4B0A8"/>
  <rect x="508" y="4" width="8" height="12" fill="#E8CFA0"/>
  <rect x="492" y="48" width="16" height="24" fill="#4A2C10"/>
  <rect x="516" y="48" width="16" height="24" fill="#4A2C10"/>
  <rect x="492" y="80" width="40" height="20" fill="#4A2C10"/>
  <rect x="492" y="48" width="16" height="4" fill="#8A5A28"/>
  <rect x="516" y="48" width="16" height="4" fill="#8A5A28"/>
  <rect x="524" y="80" width="4" height="12" fill="#D4A040"/>
  <rect x="528" y="84" width="8" height="4" fill="#D4A040"/>
  <rect x="496" y="16" width="12" height="8" fill="#C8DFF2"/>
  <rect x="480" y="108" width="64" height="4" fill="#B4B0A8"/>
  <rect x="480" y="0" width="4" height="112" fill="#B4B0A8"/>
  <rect x="540" y="0" width="4" height="112" fill="#606058"/>
  <rect x="480" y="108" width="64" height="4" fill="#606058"/>
  <text x="560" y="32" font-size="9" fill="#666" font-family="monospace" shape-rendering="auto">door_glas</text>
  <rect x="560" y="0" width="64" height="112" fill="#606058"/>
  <rect x="568" y="4" width="48" height="96" fill="#A0C8E4"/>
  <rect x="568" y="4" width="48" height="4" fill="#888880"/>
  <rect x="568" y="96" width="48" height="4" fill="#888880"/>
  <rect x="568" y="4" width="4" height="96" fill="#888880"/>
  <rect x="612" y="4" width="4" height="96" fill="#888880"/>
  <rect x="576" y="52" width="28" height="4" fill="#B4B0A8"/>
  <rect x="604" y="52" width="4" height="12" fill="#B4B0A8"/>
  <rect x="572" y="8" width="16" height="24" fill="#78AFE1"/>
  <rect x="572" y="8" width="8" height="12" fill="#EEF3FA"/>
  <rect x="576" y="40" width="16" height="48" fill="#2C2C28"/>
  <rect x="596" y="40" width="12" height="48" fill="#2C2C28"/>
  <rect x="560" y="104" width="64" height="8" fill="#888880"/>
  <rect x="560" y="0" width="4" height="112" fill="#B4B0A8"/>
  <rect x="620" y="0" width="4" height="112" fill="#606058"/>
  <text x="640" y="32" font-size="9" fill="#666" font-family="monospace" shape-rendering="auto">door_clar</text>
  <rect x="640" y="48" width="64" height="64" fill="#606058"/>
  <rect x="644" y="52" width="28" height="52" fill="#4A2C10"/>
  <rect x="672" y="52" width="28" height="52" fill="#4A2C10"/>
  <rect x="644" y="52" width="28" height="4" fill="#8A5A28"/>
  <rect x="672" y="52" width="28" height="4" fill="#8A5A28"/>
  <rect x="644" y="60" width="28" height="4" fill="#8A5A28"/>
  <rect x="672" y="60" width="28" height="4" fill="#8A5A28"/>
  <rect x="644" y="68" width="28" height="4" fill="#8A5A28"/>
  <rect x="672" y="68" width="28" height="4" fill="#8A5A28"/>
  <rect x="644" y="76" width="28" height="4" fill="#8A5A28"/>
  <rect x="672" y="76" width="28" height="4" fill="#8A5A28"/>
  <rect x="644" y="84" width="28" height="4" fill="#8A5A28"/>
  <rect x="672" y="84" width="28" height="4" fill="#8A5A28"/>
  <rect x="644" y="92" width="28" height="4" fill="#8A5A28"/>
  <rect x="672" y="92" width="28" height="4" fill="#8A5A28"/>
  <rect x="644" y="100" width="28" height="4" fill="#8A5A28"/>
  <rect x="672" y="100" width="28" height="4" fill="#8A5A28"/>
  <rect x="656" y="76" width="4" height="8" fill="#D4B898"/>
  <rect x="684" y="76" width="4" height="8" fill="#D4B898"/>
  <rect x="644" y="64" width="4" height="8" fill="#888880"/>
  <rect x="696" y="64" width="4" height="8" fill="#888880"/>
  <rect x="668" y="52" width="8" height="56" fill="#606058"/>
  <text x="720" y="32" font-size="9" fill="#666" font-family="monospace" shape-rendering="auto">door_shut</text>
  <rect x="720" y="32" width="96" height="80" fill="#606058"/>
  <rect x="728" y="32" width="80" height="12" fill="#888880"/>
  <rect x="728" y="32" width="80" height="4" fill="#B4B0A8"/>
  <rect x="728" y="40" width="80" height="4" fill="#606058"/>
  <rect x="728" y="48" width="80" height="12" fill="#888880"/>
  <rect x="728" y="48" width="80" height="4" fill="#B4B0A8"/>
  <rect x="728" y="56" width="80" height="4" fill="#606058"/>
  <rect x="728" y="64" width="80" height="12" fill="#888880"/>
  <rect x="728" y="64" width="80" height="4" fill="#B4B0A8"/>
  <rect x="728" y="72" width="80" height="4" fill="#606058"/>
  <rect x="728" y="80" width="80" height="12" fill="#888880"/>
  <rect x="728" y="80" width="80" height="4" fill="#B4B0A8"/>
  <rect x="728" y="88" width="80" height="4" fill="#606058"/>
  <rect x="728" y="96" width="80" height="12" fill="#888880"/>
  <rect x="728" y="96" width="80" height="4" fill="#B4B0A8"/>
  <rect x="728" y="104" width="80" height="4" fill="#606058"/>
  <rect x="736" y="104" width="64" height="8" fill="#B4B0A8"/>
  <rect x="752" y="64" width="20" height="4" fill="#CC2010"/>
  <rect x="752" y="64" width="4" height="12" fill="#CC2010"/>
  <rect x="768" y="64" width="4" height="12" fill="#CC2010"/>
  <rect x="720" y="32" width="4" height="80" fill="#B4B0A8"/>
  <rect x="812" y="32" width="4" height="80" fill="#606058"/>
  <rect x="720" y="108" width="96" height="4" fill="#606058"/>
  <text x="0" y="272" font-size="9" fill="#666" font-family="monospace" shape-rendering="auto">gable_trap</text>
  <rect x="0" y="280" width="128" height="96" fill="#A8CBE8"/>
  <rect x="0" y="280" width="128" height="16" fill="#984428"/>
  <rect x="0" y="280" width="128" height="4" fill="#C07050"/>
  <rect x="0" y="280" width="4" height="16" fill="#C07050"/>
  <rect x="124" y="280" width="4" height="16" fill="#6E2C18"/>
  <rect x="0" y="292" width="128" height="4" fill="#6E2C18"/>
  <rect x="16" y="296" width="96" height="16" fill="#984428"/>
  <rect x="16" y="296" width="96" height="4" fill="#C07050"/>
  <rect x="16" y="296" width="4" height="16" fill="#C07050"/>
  <rect x="108" y="296" width="4" height="16" fill="#6E2C18"/>
  <rect x="16" y="308" width="96" height="4" fill="#6E2C18"/>
  <rect x="32" y="312" width="64" height="16" fill="#984428"/>
  <rect x="32" y="312" width="64" height="4" fill="#C07050"/>
  <rect x="32" y="312" width="4" height="16" fill="#C07050"/>
  <rect x="92" y="312" width="4" height="16" fill="#6E2C18"/>
  <rect x="32" y="324" width="64" height="4" fill="#6E2C18"/>
  <rect x="48" y="328" width="32" height="16" fill="#984428"/>
  <rect x="48" y="328" width="32" height="4" fill="#C07050"/>
  <rect x="48" y="328" width="4" height="16" fill="#C07050"/>
  <rect x="76" y="328" width="4" height="16" fill="#6E2C18"/>
  <rect x="48" y="340" width="32" height="4" fill="#6E2C18"/>
  <rect x="56" y="280" width="16" height="32" fill="#6E2C18"/>
  <rect x="56" y="280" width="16" height="4" fill="#D4B898"/>
  <rect x="52" y="312" width="24" height="4" fill="#606058"/>
  <text x="144" y="272" font-size="9" fill="#666" font-family="monospace" shape-rendering="auto">gable_klok</text>
  <rect x="144" y="280" width="128" height="96" fill="#A8CBE8"/>
  <rect x="152" y="352" width="112" height="24" fill="#E8CFA0"/>
  <rect x="160" y="336" width="96" height="16" fill="#E8CFA0"/>
  <rect x="160" y="336" width="96" height="4" fill="#F4E8C8"/>
  <rect x="160" y="336" width="4" height="16" fill="#F4E8C8"/>
  <rect x="252" y="336" width="4" height="16" fill="#C8A86C"/>
  <rect x="168" y="320" width="80" height="16" fill="#E8CFA0"/>
  <rect x="168" y="320" width="80" height="4" fill="#F4E8C8"/>
  <rect x="168" y="320" width="4" height="16" fill="#F4E8C8"/>
  <rect x="244" y="320" width="4" height="16" fill="#C8A86C"/>
  <rect x="176" y="304" width="64" height="16" fill="#E8CFA0"/>
  <rect x="176" y="304" width="64" height="4" fill="#F4E8C8"/>
  <rect x="176" y="304" width="4" height="16" fill="#F4E8C8"/>
  <rect x="236" y="304" width="4" height="16" fill="#C8A86C"/>
  <rect x="180" y="288" width="56" height="16" fill="#E8CFA0"/>
  <rect x="180" y="288" width="56" height="4" fill="#F4E8C8"/>
  <rect x="180" y="288" width="4" height="16" fill="#F4E8C8"/>
  <rect x="232" y="288" width="4" height="16" fill="#C8A86C"/>
  <rect x="188" y="280" width="40" height="8" fill="#E8CFA0"/>
  <rect x="188" y="280" width="40" height="4" fill="#F4E8C8"/>
  <rect x="188" y="280" width="4" height="8" fill="#F4E8C8"/>
  <rect x="224" y="280" width="4" height="8" fill="#C8A86C"/>
  <rect x="196" y="288" width="24" height="8" fill="#D4A040"/>
  <rect x="176" y="336" width="8" height="4" fill="#606058"/>
  <rect x="232" y="336" width="8" height="4" fill="#606058"/>
  <rect x="200" y="280" width="16" height="16" fill="#888880"/>
  <rect x="196" y="296" width="24" height="4" fill="#606058"/>
  <text x="288" y="272" font-size="9" fill="#666" font-family="monospace" shape-rendering="auto">gable_flat</text>
  <rect x="288" y="312" width="128" height="64" fill="#A8CBE8"/>
  <rect x="288" y="328" width="128" height="48" fill="#E8CFA0"/>
  <rect x="288" y="328" width="128" height="8" fill="#F4E8C8"/>
  <rect x="288" y="336" width="8" height="16" fill="#F4E8C8"/>
  <rect x="296" y="336" width="8" height="16" fill="#C8A86C"/>
  <rect x="304" y="336" width="8" height="16" fill="#F4E8C8"/>
  <rect x="312" y="336" width="8" height="16" fill="#C8A86C"/>
  <rect x="320" y="336" width="8" height="16" fill="#F4E8C8"/>
  <rect x="328" y="336" width="8" height="16" fill="#C8A86C"/>
  <rect x="336" y="336" width="8" height="16" fill="#F4E8C8"/>
  <rect x="344" y="336" width="8" height="16" fill="#C8A86C"/>
  <rect x="352" y="336" width="8" height="16" fill="#F4E8C8"/>
  <rect x="360" y="336" width="8" height="16" fill="#C8A86C"/>
  <rect x="368" y="336" width="8" height="16" fill="#F4E8C8"/>
  <rect x="376" y="336" width="8" height="16" fill="#C8A86C"/>
  <rect x="384" y="336" width="8" height="16" fill="#F4E8C8"/>
  <rect x="392" y="336" width="8" height="16" fill="#C8A86C"/>
  <rect x="400" y="336" width="8" height="16" fill="#F4E8C8"/>
  <rect x="408" y="336" width="8" height="16" fill="#C8A86C"/>
  <rect x="288" y="328" width="128" height="4" fill="#D4A040"/>
  <rect x="288" y="312" width="128" height="16" fill="#E8CFA0"/>
  <rect x="288" y="312" width="128" height="4" fill="#F4E8C8"/>
  <rect x="288" y="324" width="128" height="4" fill="#C8A86C"/>
  <text x="432" y="272" font-size="9" fill="#666" font-family="monospace" shape-rendering="auto">gable_tria</text>
  <rect x="432" y="280" width="128" height="96" fill="#A8CBE8"/>
  <rect x="480" y="280" width="0" height="4" fill="#E8CFA0"/>
  <rect x="480" y="280" width="4" height="4" fill="#F4E8C8"/>
  <rect x="476" y="284" width="8" height="4" fill="#E8CFA0"/>
  <rect x="476" y="284" width="4" height="4" fill="#F4E8C8"/>
  <rect x="480" y="284" width="4" height="4" fill="#C8A86C"/>
  <rect x="472" y="288" width="16" height="4" fill="#E8CFA0"/>
  <rect x="472" y="288" width="4" height="4" fill="#F4E8C8"/>
  <rect x="484" y="288" width="4" height="4" fill="#C8A86C"/>
  <rect x="468" y="292" width="24" height="4" fill="#E8CFA0"/>
  <rect x="468" y="292" width="4" height="4" fill="#F4E8C8"/>
  <rect x="488" y="292" width="4" height="4" fill="#C8A86C"/>
  <rect x="464" y="296" width="32" height="4" fill="#E8CFA0"/>
  <rect x="464" y="296" width="4" height="4" fill="#F4E8C8"/>
  <rect x="492" y="296" width="4" height="4" fill="#C8A86C"/>
  <rect x="460" y="300" width="40" height="4" fill="#E8CFA0"/>
  <rect x="460" y="300" width="4" height="4" fill="#F4E8C8"/>
  <rect x="496" y="300" width="4" height="4" fill="#C8A86C"/>
  <rect x="456" y="304" width="48" height="4" fill="#E8CFA0"/>
  <rect x="456" y="304" width="4" height="4" fill="#F4E8C8"/>
  <rect x="500" y="304" width="4" height="4" fill="#C8A86C"/>
  <rect x="452" y="308" width="56" height="4" fill="#E8CFA0"/>
  <rect x="452" y="308" width="4" height="4" fill="#F4E8C8"/>
  <rect x="504" y="308" width="4" height="4" fill="#C8A86C"/>
  <rect x="448" y="312" width="64" height="4" fill="#E8CFA0"/>
  <rect x="448" y="312" width="4" height="4" fill="#F4E8C8"/>
  <rect x="508" y="312" width="4" height="4" fill="#C8A86C"/>
  <rect x="444" y="316" width="72" height="4" fill="#E8CFA0"/>
  <rect x="444" y="316" width="4" height="4" fill="#F4E8C8"/>
  <rect x="512" y="316" width="4" height="4" fill="#C8A86C"/>
  <rect x="440" y="320" width="80" height="4" fill="#E8CFA0"/>
  <rect x="440" y="320" width="4" height="4" fill="#F4E8C8"/>
  <rect x="516" y="320" width="4" height="4" fill="#C8A86C"/>
  <rect x="436" y="324" width="88" height="4" fill="#E8CFA0"/>
  <rect x="436" y="324" width="4" height="4" fill="#F4E8C8"/>
  <rect x="520" y="324" width="4" height="4" fill="#C8A86C"/>
  <rect x="432" y="328" width="128" height="32" fill="#E8CFA0"/>
  <rect x="432" y="328" width="128" height="4" fill="#F4E8C8"/>
  <rect x="432" y="356" width="128" height="4" fill="#C8A86C"/>
  <rect x="432" y="336" width="8" height="12" fill="#F4E8C8"/>
  <rect x="448" y="336" width="8" height="12" fill="#F4E8C8"/>
  <rect x="464" y="336" width="8" height="12" fill="#F4E8C8"/>
  <rect x="480" y="336" width="8" height="12" fill="#F4E8C8"/>
  <rect x="496" y="336" width="8" height="12" fill="#F4E8C8"/>
  <rect x="512" y="336" width="8" height="12" fill="#F4E8C8"/>
  <rect x="528" y="336" width="8" height="12" fill="#F4E8C8"/>
  <rect x="544" y="336" width="8" height="12" fill="#F4E8C8"/>
  <rect x="488" y="280" width="16" height="8" fill="#D4A040"/>
  <rect x="432" y="360" width="128" height="16" fill="#E8CFA0"/>
</svg>
