<svg xmlns="http://www.w3.org/2000/svg" viewBox="0 0 1280 384" width="1280" height="384" shape-rendering="crispEdges">
  <!-- SHOP FACADES — Real Turnhoutsebaan businesses -->
  <!-- SCALE: 4×  |  1 game px = 4 SVG px  |  PALETTE: Turnhoutsebaan 32-color -->
  <rect x="0" y="32" width="144" height="320" fill="#E8CFA0"/>
  <rect x="0" y="32" width="144" height="96" fill="#984428"/>
  <rect x="40" y="40" width="64" height="96" fill="#888880"/>
  <rect x="48" y="64" width="48" height="56" fill="#A0C8E4"/>
  <rect x="68" y="48" width="8" height="4" fill="#A0C8E4"/>
  <rect x="64" y="52" width="16" height="4" fill="#A0C8E4"/>
  <rect x="56" y="56" width="32" height="4" fill="#A0C8E4"/>
  <rect x="52" y="60" width="40" height="4" fill="#A0C8E4"/>
  <rect x="48" y="88" width="48" height="4" fill="#888880"/>
  <rect x="76" y="64" width="4" height="56" fill="#888880"/>
  <rect x="52" y="68" width="24" height="20" fill="#0C0C18"/>
  <rect x="52" y="92" width="24" height="20" fill="#0C0C18"/>
  <rect x="80" y="68" width="12" height="20" fill="#0C0C18"/>
  <rect x="80" y="92" width="12" height="20" fill="#0C0C18"/>
  <rect x="52" y="68" width="8" height="8" fill="#C8DFF2"/>
  <rect x="80" y="68" width="4" height="4" fill="#C8DFF2"/>
  <rect x="40" y="40" width="64" height="4" fill="#B4B0A8"/>
  <rect x="40" y="40" width="4" height="96" fill="#B4B0A8"/>
  <rect x="100" y="40" width="4" height="96" fill="#606058"/>
  <rect x="40" y="132" width="64" height="4" fill="#606058"/>
  <rect x="0" y="224" width="144" height="48" fill="#CC2010"/>
  <rect x="0" y="224" width="144" height="4" fill="#CC2010"/>
  <rect x="0" y="232" width="12" height="32" fill="#F0EEE8"/>
  <rect x="24" y="232" width="12" height="32" fill="#F0EEE8"/>
  <rect x="48" y="232" width="12" height="32" fill="#F0EEE8"/>
  <rect x="72" y="232" width="12" height="32" fill="#F0EEE8"/>
  <rect x="96" y="232" width="12" height="32" fill="#F0EEE8"/>
  <rect x="120" y="232" width="12" height="32" fill="#F0EEE8"/>
  <rect x="8" y="272" width="128" height="64" fill="#A0C8E4"/>
  <rect x="8" y="272" width="40" height="24" fill="#C8DFF2"/>
  <rect x="60" y="280" width="24" height="56" fill="#606058"/>
  <rect x="64" y="280" width="16" height="48" fill="#A0C8E4"/>
  <rect x="8" y="228" width="120" height="12" fill="#F0EEE8"/>
  <text x="8" y="360" font-size="9" fill="#666" font-family="monospace" shape-rendering="auto">BUDGET MK</text>
  <rect x="160" y="32" width="144" height="320" fill="#E8CFA0"/>
  <rect x="160" y="32" width="144" height="96" fill="#984428"/>
  <rect x="200" y="40" width="64" height="96" fill="#888880"/>
  <rect x="208" y="64" width="48" height="56" fill="#A0C8E4"/>
  <rect x="228" y="48" width="8" height="4" fill="#A0C8E4"/>
  <rect x="224" y="52" width="16" height="4" fill="#A0C8E4"/>
  <rect x="216" y="56" width="32" height="4" fill="#A0C8E4"/>
  <rect x="212" y="60" width="40" height="4" fill="#A0C8E4"/>
  <rect x="208" y="88" width="48" height="4" fill="#888880"/>
  <rect x="236" y="64" width="4" height="56" fill="#888880"/>
  <rect x="212" y="68" width="24" height="20" fill="#0C0C18"/>
  <rect x="212" y="92" width="24" height="20" fill="#0C0C18"/>
  <rect x="240" y="68" width="12" height="20" fill="#0C0C18"/>
  <rect x="240" y="92" width="12" height="20" fill="#0C0C18"/>
  <rect x="212" y="68" width="8" height="8" fill="#C8DFF2"/>
  <rect x="240" y="68" width="4" height="4" fill="#C8DFF2"/>
  <rect x="200" y="40" width="64" height="4" fill="#B4B0A8"/>
  <rect x="200" y="40" width="4" height="96" fill="#B4B0A8"/>
  <rect x="260" y="40" width="4" height="96" fill="#606058"/>
  <rect x="200" y="132" width="64" height="4" fill="#606058"/>
  <rect x="160" y="224" width="144" height="48" fill="#606058"/>
  <rect x="160" y="224" width="144" height="4" fill="#606058"/>
  <rect x="160" y="232" width="12" height="32" fill="#F0EEE8"/>
  <rect x="184" y="232" width="12" height="32" fill="#F0EEE8"/>
  <rect x="208" y="232" width="12" height="32" fill="#F0EEE8"/>
  <rect x="232" y="232" width="12" height="32" fill="#F0EEE8"/>
  <rect x="256" y="232" width="12" height="32" fill="#F0EEE8"/>
  <rect x="280" y="232" width="12" height="32" fill="#F0EEE8"/>
  <rect x="168" y="272" width="128" height="64" fill="#A0C8E4"/>
  <rect x="168" y="272" width="40" height="24" fill="#C8DFF2"/>
  <rect x="220" y="280" width="24" height="56" fill="#606058"/>
  <rect x="224" y="280" width="16" height="48" fill="#A0C8E4"/>
  <rect x="168" y="228" width="120" height="12" fill="#D4A040"/>
  <text x="168" y="360" font-size="9" fill="#666" font-family="monospace" shape-rendering="auto">HAMMAM</text>
  <rect x="320" y="32" width="144" height="320" fill="#E8CFA0"/>
  <rect x="320" y="32" width="144" height="96" fill="#984428"/>
  <rect x="360" y="40" width="64" height="96" fill="#888880"/>
  <rect x="368" y="64" width="48" height="56" fill="#A0C8E4"/>
  <rect x="388" y="48" width="8" height="4" fill="#A0C8E4"/>
  <rect x="384" y="52" width="16" height="4" fill="#A0C8E4"/>
  <rect x="376" y="56" width="32" height="4" fill="#A0C8E4"/>
  <rect x="372" y="60" width="40" height="4" fill="#A0C8E4"/>
  <rect x="368" y="88" width="48" height="4" fill="#888880"/>
  <rect x="396" y="64" width="4" height="56" fill="#888880"/>
  <rect x="372" y="68" width="24" height="20" fill="#0C0C18"/>
  <rect x="372" y="92" width="24" height="20" fill="#0C0C18"/>
  <rect x="400" y="68" width="12" height="20" fill="#0C0C18"/>
  <rect x="400" y="92" width="12" height="20" fill="#0C0C18"/>
  <rect x="372" y="68" width="8" height="8" fill="#C8DFF2"/>
  <rect x="400" y="68" width="4" height="4" fill="#C8DFF2"/>
  <rect x="360" y="40" width="64" height="4" fill="#B4B0A8"/>
  <rect x="360" y="40" width="4" height="96" fill="#B4B0A8"/>
  <rect x="420" y="40" width="4" height="96" fill="#606058"/>
  <rect x="360" y="132" width="64" height="4" fill="#606058"/>
  <rect x="320" y="224" width="144" height="48" fill="#DDB800"/>
  <rect x="320" y="224" width="144" height="4" fill="#F4E8C8"/>
  <rect x="320" y="232" width="12" height="32" fill="#F0EEE8"/>
  <rect x="344" y="232" width="12" height="32" fill="#F0EEE8"/>
  <rect x="368" y="232" width="12" height="32" fill="#F0EEE8"/>
  <rect x="392" y="232" width="12" height="32" fill="#F0EEE8"/>
  <rect x="416" y="232" width="12" height="32" fill="#F0EEE8"/>
  <rect x="440" y="232" width="12" height="32" fill="#F0EEE8"/>
  <rect x="328" y="272" width="128" height="64" fill="#A0C8E4"/>
  <rect x="328" y="272" width="40" height="24" fill="#C8DFF2"/>
  <rect x="380" y="280" width="24" height="56" fill="#606058"/>
  <rect x="384" y="280" width="16" height="48" fill="#A0C8E4"/>
  <rect x="328" y="228" width="120" height="12" fill="#141210"/>
  <text x="328" y="360" font-size="9" fill="#666" font-family="monospace" shape-rendering="auto">ALADDIN</text>
  <rect x="480" y="32" width="144" height="320" fill="#E8CFA0"/>
  <rect x="480" y="32" width="144" height="96" fill="#984428"/>
  <rect x="520" y="40" width="64" height="96" fill="#888880"/>
  <rect x="528" y="64" width="48" height="56" fill="#A0C8E4"/>
  <rect x="548" y="48" width="8" height="4" fill="#A0C8E4"/>
  <rect x="544" y="52" width="16" height="4" fill="#A0C8E4"/>
  <rect x="536" y="56" width="32" height="4" fill="#A0C8E4"/>
  <rect x="532" y="60" width="40" height="4" fill="#A0C8E4"/>
  <rect x="528" y="88" width="48" height="4" fill="#888880"/>
  <rect x="556" y="64" width="4" height="56" fill="#888880"/>
  <rect x="532" y="68" width="24" height="20" fill="#0C0C18"/>
  <rect x="532" y="92" width="24" height="20" fill="#0C0C18"/>
  <rect x="560" y="68" width="12" height="20" fill="#0C0C18"/>
  <rect x="560" y="92" width="12" height="20" fill="#0C0C18"/>
  <rect x="532" y="68" width="8" height="8" fill="#C8DFF2"/>
  <rect x="560" y="68" width="4" height="4" fill="#C8DFF2"/>
  <rect x="520" y="40" width="64" height="4" fill="#B4B0A8"/>
  <rect x="520" y="40" width="4" height="96" fill="#B4B0A8"/>
  <rect x="580" y="40" width="4" height="96" fill="#606058"/>
  <rect x="520" y="132" width="64" height="4" fill="#606058"/>
  <rect x="480" y="224" width="144" height="48" fill="#CC2010"/>
  <rect x="480" y="224" width="144" height="4" fill="#CC2010"/>
  <rect x="480" y="232" width="12" height="32" fill="#F0EEE8"/>
  <rect x="504" y="232" width="12" height="32" fill="#F0EEE8"/>
  <rect x="528" y="232" width="12" height="32" fill="#F0EEE8"/>
  <rect x="552" y="232" width="12" height="32" fill="#F0EEE8"/>
  <rect x="576" y="232" width="12" height="32" fill="#F0EEE8"/>
  <rect x="600" y="232" width="12" height="32" fill="#F0EEE8"/>
  <rect x="488" y="272" width="128" height="64" fill="#A0C8E4"/>
  <rect x="488" y="272" width="40" height="24" fill="#C8DFF2"/>
  <rect x="540" y="280" width="24" height="56" fill="#606058"/>
  <rect x="544" y="280" width="16" height="48" fill="#A0C8E4"/>
  <rect x="488" y="228" width="120" height="12" fill="#F0EEE8"/>
  <text x="488" y="360" font-size="9" fill="#666" font-family="monospace" shape-rendering="auto">FRITUUR</text>
  <rect x="640" y="32" width="144" height="320" fill="#E8CFA0"/>
  <rect x="640" y="32" width="144" height="96" fill="#984428"/>
  <rect x="680" y="40" width="64" height="96" fill="#888880"/>
  <rect x="688" y="64" width="48" height="56" fill="#A0C8E4"/>
  <rect x="708" y="48" width="8" height="4" fill="#A0C8E4"/>
  <rect x="704" y="52" width="16" height="4" fill="#A0C8E4"/>
  <rect x="696" y="56" width="32" height="4" fill="#A0C8E4"/>
  <rect x="692" y="60" width="40" height="4" fill="#A0C8E4"/>
  <rect x="688" y="88" width="48" height="4" fill="#888880"/>
  <rect x="716" y="64" width="4" height="56" fill="#888880"/>
  <rect x="692" y="68" width="24" height="20" fill="#0C0C18"/>
  <rect x="692" y="92" width="24" height="20" fill="#0C0C18"/>
  <rect x="720" y="68" width="12" height="20" fill="#0C0C18"/>
  <rect x="720" y="92" width="12" height="20" fill="#0C0C18"/>
  <rect x="692" y="68" width="8" height="8" fill="#C8DFF2"/>
  <rect x="720" y="68" width="4" height="4" fill="#C8DFF2"/>
  <rect x="680" y="40" width="64" height="4" fill="#B4B0A8"/>
  <rect x="680" y="40" width="4" height="96" fill="#B4B0A8"/>
  <rect x="740" y="40" width="4" height="96" fill="#606058"/>
  <rect x="680" y="132" width="64" height="4" fill="#606058"/>
  <rect x="640" y="224" width="144" height="48" fill="#C8A86C"/>
  <rect x="640" y="224" width="144" height="4" fill="#F4E8C8"/>
  <rect x="640" y="232" width="12" height="32" fill="#F0EEE8"/>
  <rect x="664" y="232" width="12" height="32" fill="#F0EEE8"/>
  <rect x="688" y="232" width="12" height="32" fill="#F0EEE8"/>
  <rect x="712" y="232" width="12" height="32" fill="#F0EEE8"/>
  <rect x="736" y="232" width="12" height="32" fill="#F0EEE8"/>
  <rect x="760" y="232" width="12" height="32" fill="#F0EEE8"/>
  <rect x="648" y="272" width="128" height="64" fill="#A0C8E4"/>
  <rect x="648" y="272" width="40" height="24" fill="#C8DFF2"/>
  <rect x="700" y="280" width="24" height="56" fill="#606058"/>
  <rect x="704" y="280" width="16" height="48" fill="#A0C8E4"/>
  <rect x="648" y="228" width="120" height="12" fill="#0C0C18"/>
  <text x="648" y="360" font-size="9" fill="#666" font-family="monospace" shape-rendering="auto">THEEHUYS</text>
  <rect x="800" y="32" width="144" height="320" fill="#E8CFA0"/>
  <rect x="800" y="32" width="144" height="96" fill="#984428"/>
  <rect x="840" y="40" width="64" height="96" fill="#888880"/>
  <rect x="848" y="64" width="48" height="56" fill="#A0C8E4"/>
  <rect x="868" y="48" width="8" height="4" fill="#A0C8E4"/>
  <rect x="864" y="52" width="16" height="4" fill="#A0C8E4"/>
  <rect x="856" y="56" width="32" height="4" fill="#A0C8E4"/>
  <rect x="852" y="60" width="40" height="4" fill="#A0C8E4"/>
  <rect x="848" y="88" width="48" height="4" fill="#888880"/>
  <rect x="876" y="64" width="4" height="56" fill="#888880"/>
  <rect x="852" y="68" width="24" height="20" fill="#0C0C18"/>
  <rect x="852" y="92" width="24" height="20" fill="#0C0C18"/>
  <rect x="880" y="68" width="12" height="20" fill="#0C0C18"/>
  <rect x="880" y="92" width="12" height="20" fill="#0C0C18"/>
  <rect x="852" y="68" width="8" height="8" fill="#C8DFF2"/>
  <rect x="880" y="68" width="4" height="4" fill="#C8DFF2"/>
  <rect x="840" y="40" width="64" height="4" fill="#B4B0A8"/>
  <rect x="840" y="40" width="4" height="96" fill="#B4B0A8"/>
  <rect x="900" y="40" width="4" height="96" fill="#606058"/>
  <rect x="840" y="132" width="64" height="4" fill="#606058"/>
  <rect x="800" y="224" width="144" height="48" fill="#0C0C18"/>
  <rect x="800" y="224" width="144" height="4" fill="#0C0C18"/>
  <rect x="800" y="232" width="12" height="32" fill="#F0EEE8"/>
  <rect x="824" y="232" width="12" height="32" fill="#F0EEE8"/>
  <rect x="848" y="232" width="12" height="32" fill="#F0EEE8"/>
  <rect x="872" y="232" width="12" height="32" fill="#F0EEE8"/>
  <rect x="896" y="232" width="12" height="32" fill="#F0EEE8"/>
  <rect x="920" y="232" width="12" height="32" fill="#F0EEE8"/>
  <rect x="808" y="272" width="128" height="64" fill="#A0C8E4"/>
  <rect x="808" y="272" width="40" height="24" fill="#C8DFF2"/>
  <rect x="860" y="280" width="24" height="56" fill="#606058"/>
  <rect x="864" y="280" width="16" height="48" fill="#A0C8E4"/>
  <rect x="808" y="228" width="120" height="12" fill="#DDB800"/>
  <text x="808" y="360" font-size="9" fill="#666" font-family="monospace" shape-rendering="auto">NACHT W</text>
  <rect x="960" y="32" width="144" height="320" fill="#E8CFA0"/>
  <rect x="960" y="32" width="144" height="96" fill="#984428"/>
  <rect x="1000" y="40" width="64" height="96" fill="#888880"/>
  <rect x="1008" y="64" width="48" height="56" fill="#A0C8E4"/>
  <rect x="1028" y="48" width="8" height="4" fill="#A0C8E4"/>
  <rect x="1024" y="52" width="16" height="4" fill="#A0C8E4"/>
  <rect x="1016" y="56" width="32" height="4" fill="#A0C8E4"/>
  <rect x="1012" y="60" width="40" height="4" fill="#A0C8E4"/>
  <rect x="1008" y="88" width="48" height="4" fill="#888880"/>
  <rect x="1036" y="64" width="4" height="56" fill="#888880"/>
  <rect x="1012" y="68" width="24" height="20" fill="#0C0C18"/>
  <rect x="1012" y="92" width="24" height="20" fill="#0C0C18"/>
  <rect x="1040" y="68" width="12" height="20" fill="#0C0C18"/>
  <rect x="1040" y="92" width="12" height="20" fill="#0C0C18"/>
  <rect x="1012" y="68" width="8" height="8" fill="#C8DFF2"/>
  <rect x="1040" y="68" width="4" height="4" fill="#C8DFF2"/>
  <rect x="1000" y="40" width="64" height="4" fill="#B4B0A8"/>
  <rect x="1000" y="40" width="4" height="96" fill="#B4B0A8"/>
  <rect x="1060" y="40" width="4" height="96" fill="#606058"/>
  <rect x="1000" y="132" width="64" height="4" fill="#606058"/>
  <rect x="960" y="224" width="144" height="48" fill="#DDB800"/>
  <rect x="960" y="224" width="144" height="4" fill="#F4E8C8"/>
  <rect x="960" y="232" width="12" height="32" fill="#F0EEE8"/>
  <rect x="984" y="232" width="12" height="32" fill="#F0EEE8"/>
  <rect x="1008" y="232" width="12" height="32" fill="#F0EEE8"/>
  <rect x="1032" y="232" width="12" height="32" fill="#F0EEE8"/>
  <rect x="1056" y="232" width="12" height="32" fill="#F0EEE8"/>
  <rect x="1080" y="232" width="12" height="32" fill="#F0EEE8"/>
  <rect x="968" y="272" width="128" height="64" fill="#A0C8E4"/>
  <rect x="968" y="272" width="40" height="24" fill="#C8DFF2"/>
  <rect x="1020" y="280" width="24" height="56" fill="#606058"/>
  <rect x="1024" y="280" width="16" height="48" fill="#A0C8E4"/>
  <rect x="968" y="228" width="120" height="12" fill="#4A2C10"/>
  <text x="968" y="360" font-size="9" fill="#666" font-family="monospace" shape-rendering="auto">CHARIF</text>
  <rect x="1120" y="32" width="144" height="320" fill="#E8CFA0"/>
  <rect x="1120" y="32" width="144" height="96" fill="#984428"/>
  <rect x="1160" y="40" width="64" height="96" fill="#888880"/>
  <rect x="1168" y="64" width="48" height="56" fill="#A0C8E4"/>
  <rect x="1188" y="48" width="8" height="4" fill="#A0C8E4"/>
  <rect x="1184" y="52" width="16" height="4" fill="#A0C8E4"/>
  <rect x="1176" y="56" width="32" height="4" fill="#A0C8E4"/>
  <rect x="1172" y="60" width="40" height="4" fill="#A0C8E4"/>
  <rect x="1168" y="88" width="48" height="4" fill="#888880"/>
  <rect x="1196" y="64" width="4" height="56" fill="#888880"/>
  <rect x="1172" y="68" width="24" height="20" fill="#0C0C18"/>
  <rect x="1172" y="92" width="24" height="20" fill="#0C0C18"/>
  <rect x="1200" y="68" width="12" height="20" fill="#0C0C18"/>
  <rect x="1200" y="92" width="12" height="20" fill="#0C0C18"/>
  <rect x="1172" y="68" width="8" height="8" fill="#C8DFF2"/>
  <rect x="1200" y="68" width="4" height="4" fill="#C8DFF2"/>
  <rect x="1160" y="40" width="64" height="4" fill="#B4B0A8"/>
  <rect x="1160" y="40" width="4" height="96" fill="#B4B0A8"/>
  <rect x="1220" y="40" width="4" height="96" fill="#606058"/>
  <rect x="1160" y="132" width="64" height="4" fill="#606058"/>
  <rect x="1120" y="224" width="144" height="48" fill="#3C8830"/>
  <rect x="1120" y="224" width="144" height="4" fill="#3C8830"/>
  <rect x="1120" y="232" width="12" height="32" fill="#F0EEE8"/>
  <rect x="1144" y="232" width="12" height="32" fill="#F0EEE8"/>
  <rect x="1168" y="232" width="12" height="32" fill="#F0EEE8"/>
  <rect x="1192" y="232" width="12" height="32" fill="#F0EEE8"/>
  <rect x="1216" y="232" width="12" height="32" fill="#F0EEE8"/>
  <rect x="1240" y="232" width="12" height="32" fill="#F0EEE8"/>
  <rect x="1128" y="272" width="128" height="64" fill="#A0C8E4"/>
  <rect x="1128" y="272" width="40" height="24" fill="#C8DFF2"/>
  <rect x="1180" y="280" width="24" height="56" fill="#606058"/>
  <rect x="1184" y="280" width="16" height="48" fill="#A0C8E4"/>
  <rect x="1128" y="228" width="120" height="12" fill="#F0EEE8"/>
  <text x="1128" y="360" font-size="9" fill="#666" font-family="monospace" shape-rendering="auto">BORGER HU</text>
</svg>
