<svg xmlns="http://www.w3.org/2000/svg" viewBox="0 0 768 384" width="768" height="384" shape-rendering="crispEdges">
  <!-- Hamza — Moroccan-Belgian teen 14, blue tracksuit + phone -->
  <!-- SCALE: 4×  |  1 game px = 4 SVG px  |  PALETTE: Turnhoutsebaan 32-color -->
  <rect x="88" y="48" width="72" height="12" fill="#141210"/>
  <rect x="80" y="60" width="88" height="32" fill="#141210"/>
  <rect x="80" y="60" width="16" height="48" fill="#141210"/>
  <rect x="152" y="60" width="16" height="48" fill="#141210"/>
  <rect x="88" y="48" width="24" height="8" fill="#888880"/>
  <rect x="104" y="56" width="16" height="4" fill="#888880"/>
  <rect x="88" y="64" width="72" height="56" fill="#C8A86C"/>
  <rect x="80" y="72" width="8" height="32" fill="#C8A86C"/>
  <rect x="160" y="72" width="8" height="32" fill="#C8A86C"/>
  <rect x="88" y="64" width="32" height="8" fill="#E8CFA0"/>
  <rect x="144" y="76" width="16" height="32" fill="#D4A040"/>
  <rect x="88" y="116" width="72" height="8" fill="#D4A040"/>
  <rect x="96" y="80" width="16" height="4" fill="#141210"/>
  <rect x="128" y="80" width="24" height="8" fill="#141210"/>
  <rect x="128" y="88" width="32" height="4" fill="#141210"/>
  <rect x="128" y="92" width="32" height="16" fill="#F0EEE8"/>
  <rect x="136" y="92" width="16" height="16" fill="#1C5898"/>
  <rect x="140" y="96" width="8" height="8" fill="#141210"/>
  <rect x="128" y="104" width="32" height="4" fill="#141210"/>
  <rect x="128" y="88" width="8" height="4" fill="#D4A040"/>
  <rect x="88" y="88" width="16" height="4" fill="#141210"/>
  <rect x="88" y="92" width="16" height="12" fill="#F0EEE8"/>
  <rect x="92" y="92" width="8" height="12" fill="#1C5898"/>
  <rect x="92" y="96" width="4" height="8" fill="#141210"/>
  <rect x="88" y="104" width="16" height="4" fill="#141210"/>
  <rect x="88" y="88" width="8" height="4" fill="#D4A040"/>
  <rect x="116" y="104" width="16" height="16" fill="#D4A040"/>
  <rect x="112" y="112" width="24" height="8" fill="#D4A040"/>
  <rect x="112" y="104" width="8" height="8" fill="#E8CFA0"/>
  <rect x="100" y="120" width="32" height="8" fill="#C8A86C"/>
  <rect x="104" y="120" width="24" height="4" fill="#D4A040"/>
  <rect x="100" y="128" width="32" height="8" fill="#C8A86C"/>
  <rect x="104" y="128" width="16" height="4" fill="#E8CFA0"/>
  <rect x="80" y="84" width="8" height="24" fill="#C8A86C"/>
  <rect x="160" y="84" width="8" height="24" fill="#C8A86C"/>
  <rect x="160" y="92" width="8" height="12" fill="#D4A040"/>
  <rect x="164" y="84" width="4" height="16" fill="#D4A040"/>
  <rect x="104" y="120" width="40" height="40" fill="#C8A86C"/>
  <rect x="136" y="120" width="16" height="36" fill="#D4A040"/>
  <rect x="64" y="160" width="120" height="112" fill="#1C5898"/>
  <rect x="56" y="160" width="8" height="112" fill="#0C0C18"/>
  <rect x="184" y="160" width="8" height="112" fill="#0C0C18"/>
  <rect x="64" y="160" width="32" height="8" fill="#C8DFF2"/>
  <rect x="64" y="168" width="8" height="64" fill="#C8DFF2"/>
  <rect x="56" y="168" width="8" height="96" fill="#F0EEE8"/>
  <rect x="184" y="168" width="8" height="96" fill="#F0EEE8"/>
  <rect x="120" y="160" width="8" height="96" fill="#F0EEE8"/>
  <rect x="120" y="160" width="8" height="8" fill="#B4B0A8"/>
  <rect x="152" y="176" width="16" height="16" fill="#F0EEE8"/>
  <rect x="156" y="180" width="8" height="8" fill="#1C5898"/>
  <rect x="40" y="168" width="24" height="80" fill="#1C5898"/>
  <rect x="32" y="168" width="8" height="80" fill="#0C0C18"/>
  <rect x="40" y="168" width="8" height="8" fill="#C8DFF2"/>
  <rect x="184" y="168" width="24" height="80" fill="#1C5898"/>
  <rect x="208" y="168" width="8" height="80" fill="#0C0C18"/>
  <rect x="192" y="216" width="16" height="32" fill="#0C0C18"/>
  <rect x="192" y="216" width="16" height="24" fill="#A0C8E4"/>
  <rect x="196" y="220" width="8" height="12" fill="#C8DFF2"/>
  <rect x="192" y="248" width="16" height="24" fill="#C8A86C"/>
  <rect x="196" y="248" width="8" height="8" fill="#E8CFA0"/>
  <rect x="40" y="232" width="16" height="24" fill="#C8A86C"/>
  <rect x="44" y="232" width="8" height="8" fill="#E8CFA0"/>
  <rect x="64" y="272" width="56" height="96" fill="#1C5898"/>
  <rect x="56" y="272" width="8" height="96" fill="#0C0C18"/>
  <rect x="56" y="280" width="8" height="80" fill="#F0EEE8"/>
  <rect x="112" y="272" width="8" height="96" fill="#0C0C18"/>
  <rect x="120" y="272" width="56" height="96" fill="#1C5898"/>
  <rect x="176" y="272" width="8" height="96" fill="#0C0C18"/>
  <rect x="176" y="280" width="8" height="80" fill="#F0EEE8"/>
  <rect x="56" y="360" width="56" height="24" fill="#F0EEE8"/>
  <rect x="64" y="360" width="24" height="8" fill="#1C5898"/>
  <rect x="56" y="376" width="56" height="16" fill="#888880"/>
  <rect x="112" y="360" width="56" height="24" fill="#F0EEE8"/>
  <rect x="120" y="360" width="24" height="8" fill="#1C5898"/>
  <rect x="112" y="376" width="56" height="16" fill="#888880"/>
  <rect x="344" y="48" width="72" height="12" fill="#141210"/>
  <rect x="336" y="60" width="88" height="32" fill="#141210"/>
  <rect x="336" y="60" width="16" height="48" fill="#141210"/>
  <rect x="408" y="60" width="16" height="48" fill="#141210"/>
  <rect x="344" y="48" width="24" height="8" fill="#888880"/>
  <rect x="360" y="56" width="16" height="4" fill="#888880"/>
  <rect x="344" y="64" width="72" height="56" fill="#C8A86C"/>
  <rect x="336" y="72" width="8" height="32" fill="#C8A86C"/>
  <rect x="416" y="72" width="8" height="32" fill="#C8A86C"/>
  <rect x="344" y="64" width="32" height="8" fill="#E8CFA0"/>
  <rect x="400" y="76" width="16" height="32" fill="#D4A040"/>
  <rect x="344" y="116" width="72" height="8" fill="#D4A040"/>
  <rect x="352" y="80" width="16" height="4" fill="#141210"/>
  <rect x="384" y="80" width="24" height="8" fill="#141210"/>
  <rect x="384" y="88" width="32" height="4" fill="#141210"/>
  <rect x="384" y="92" width="32" height="16" fill="#F0EEE8"/>
  <rect x="392" y="92" width="16" height="16" fill="#1C5898"/>
  <rect x="396" y="96" width="8" height="8" fill="#141210"/>
  <rect x="384" y="104" width="32" height="4" fill="#141210"/>
  <rect x="384" y="88" width="8" height="4" fill="#D4A040"/>
  <rect x="344" y="88" width="16" height="4" fill="#141210"/>
  <rect x="344" y="92" width="16" height="12" fill="#F0EEE8"/>
  <rect x="348" y="92" width="8" height="12" fill="#1C5898"/>
  <rect x="348" y="96" width="4" height="8" fill="#141210"/>
  <rect x="344" y="104" width="16" height="4" fill="#141210"/>
  <rect x="344" y="88" width="8" height="4" fill="#D4A040"/>
  <rect x="372" y="104" width="16" height="16" fill="#D4A040"/>
  <rect x="368" y="112" width="24" height="8" fill="#D4A040"/>
  <rect x="368" y="104" width="8" height="8" fill="#E8CFA0"/>
  <rect x="356" y="120" width="32" height="8" fill="#C8A86C"/>
  <rect x="360" y="120" width="24" height="4" fill="#D4A040"/>
  <rect x="356" y="128" width="32" height="8" fill="#C8A86C"/>
  <rect x="360" y="128" width="16" height="4" fill="#E8CFA0"/>
  <rect x="336" y="84" width="8" height="24" fill="#C8A86C"/>
  <rect x="416" y="84" width="8" height="24" fill="#C8A86C"/>
  <rect x="416" y="92" width="8" height="12" fill="#D4A040"/>
  <rect x="420" y="84" width="4" height="16" fill="#D4A040"/>
  <rect x="360" y="120" width="40" height="40" fill="#C8A86C"/>
  <rect x="392" y="120" width="16" height="36" fill="#D4A040"/>
  <rect x="320" y="160" width="120" height="112" fill="#1C5898"/>
  <rect x="312" y="160" width="8" height="112" fill="#0C0C18"/>
  <rect x="440" y="160" width="8" height="112" fill="#0C0C18"/>
  <rect x="320" y="160" width="32" height="8" fill="#C8DFF2"/>
  <rect x="320" y="168" width="8" height="64" fill="#C8DFF2"/>
  <rect x="312" y="168" width="8" height="96" fill="#F0EEE8"/>
  <rect x="440" y="168" width="8" height="96" fill="#F0EEE8"/>
  <rect x="376" y="160" width="8" height="96" fill="#F0EEE8"/>
  <rect x="376" y="160" width="8" height="8" fill="#B4B0A8"/>
  <rect x="408" y="176" width="16" height="16" fill="#F0EEE8"/>
  <rect x="412" y="180" width="8" height="8" fill="#1C5898"/>
  <rect x="296" y="168" width="24" height="80" fill="#1C5898"/>
  <rect x="288" y="168" width="8" height="80" fill="#0C0C18"/>
  <rect x="296" y="168" width="8" height="8" fill="#C8DFF2"/>
  <rect x="440" y="168" width="24" height="80" fill="#1C5898"/>
  <rect x="464" y="168" width="8" height="80" fill="#0C0C18"/>
  <rect x="448" y="216" width="16" height="32" fill="#0C0C18"/>
  <rect x="448" y="216" width="16" height="24" fill="#A0C8E4"/>
  <rect x="452" y="220" width="8" height="12" fill="#C8DFF2"/>
  <rect x="448" y="248" width="16" height="24" fill="#C8A86C"/>
  <rect x="452" y="248" width="8" height="8" fill="#E8CFA0"/>
  <rect x="296" y="232" width="16" height="24" fill="#C8A86C"/>
  <rect x="300" y="232" width="8" height="8" fill="#E8CFA0"/>
  <rect x="320" y="272" width="56" height="96" fill="#1C5898"/>
  <rect x="312" y="272" width="8" height="96" fill="#0C0C18"/>
  <rect x="312" y="280" width="8" height="80" fill="#F0EEE8"/>
  <rect x="368" y="272" width="8" height="96" fill="#0C0C18"/>
  <rect x="376" y="272" width="56" height="96" fill="#1C5898"/>
  <rect x="432" y="272" width="8" height="96" fill="#0C0C18"/>
  <rect x="432" y="280" width="8" height="80" fill="#F0EEE8"/>
  <rect x="312" y="344" width="56" height="24" fill="#F0EEE8"/>
  <rect x="320" y="344" width="24" height="8" fill="#1C5898"/>
  <rect x="312" y="360" width="56" height="16" fill="#888880"/>
  <rect x="368" y="360" width="56" height="24" fill="#F0EEE8"/>
  <rect x="376" y="360" width="24" height="8" fill="#1C5898"/>
  <rect x="368" y="376" width="56" height="16" fill="#888880"/>
  <rect x="600" y="48" width="72" height="12" fill="#141210"/>
  <rect x="592" y="60" width="88" height="32" fill="#141210"/>
  <rect x="592" y="60" width="16" height="48" fill="#141210"/>
  <rect x="664" y="60" width="16" height="48" fill="#141210"/>
  <rect x="600" y="48" width="24" height="8" fill="#888880"/>
  <rect x="616" y="56" width="16" height="4" fill="#888880"/>
  <rect x="600" y="64" width="72" height="56" fill="#C8A86C"/>
  <rect x="592" y="72" width="8" height="32" fill="#C8A86C"/>
  <rect x="672" y="72" width="8" height="32" fill="#C8A86C"/>
  <rect x="600" y="64" width="32" height="8" fill="#E8CFA0"/>
  <rect x="656" y="76" width="16" height="32" fill="#D4A040"/>
  <rect x="600" y="116" width="72" height="8" fill="#D4A040"/>
  <rect x="608" y="80" width="16" height="4" fill="#141210"/>
  <rect x="640" y="80" width="24" height="8" fill="#141210"/>
  <rect x="640" y="88" width="32" height="4" fill="#141210"/>
  <rect x="640" y="92" width="32" height="16" fill="#F0EEE8"/>
  <rect x="648" y="92" width="16" height="16" fill="#1C5898"/>
  <rect x="652" y="96" width="8" height="8" fill="#141210"/>
  <rect x="640" y="104" width="32" height="4" fill="#141210"/>
  <rect x="640" y="88" width="8" height="4" fill="#D4A040"/>
  <rect x="600" y="88" width="16" height="4" fill="#141210"/>
  <rect x="600" y="92" width="16" height="12" fill="#F0EEE8"/>
  <rect x="604" y="92" width="8" height="12" fill="#1C5898"/>
  <rect x="604" y="96" width="4" height="8" fill="#141210"/>
  <rect x="600" y="104" width="16" height="4" fill="#141210"/>
  <rect x="600" y="88" width="8" height="4" fill="#D4A040"/>
  <rect x="628" y="104" width="16" height="16" fill="#D4A040"/>
  <rect x="624" y="112" width="24" height="8" fill="#D4A040"/>
  <rect x="624" y="104" width="8" height="8" fill="#E8CFA0"/>
  <rect x="612" y="120" width="32" height="8" fill="#C8A86C"/>
  <rect x="616" y="120" width="24" height="4" fill="#D4A040"/>
  <rect x="612" y="128" width="32" height="8" fill="#C8A86C"/>
  <rect x="616" y="128" width="16" height="4" fill="#E8CFA0"/>
  <rect x="592" y="84" width="8" height="24" fill="#C8A86C"/>
  <rect x="672" y="84" width="8" height="24" fill="#C8A86C"/>
  <rect x="672" y="92" width="8" height="12" fill="#D4A040"/>
  <rect x="676" y="84" width="4" height="16" fill="#D4A040"/>
  <rect x="616" y="120" width="40" height="40" fill="#C8A86C"/>
  <rect x="648" y="120" width="16" height="36" fill="#D4A040"/>
  <rect x="576" y="160" width="120" height="112" fill="#1C5898"/>
  <rect x="568" y="160" width="8" height="112" fill="#0C0C18"/>
  <rect x="696" y="160" width="8" height="112" fill="#0C0C18"/>
  <rect x="576" y="160" width="32" height="8" fill="#C8DFF2"/>
  <rect x="576" y="168" width="8" height="64" fill="#C8DFF2"/>
  <rect x="568" y="168" width="8" height="96" fill="#F0EEE8"/>
  <rect x="696" y="168" width="8" height="96" fill="#F0EEE8"/>
  <rect x="632" y="160" width="8" height="96" fill="#F0EEE8"/>
  <rect x="632" y="160" width="8" height="8" fill="#B4B0A8"/>
  <rect x="664" y="176" width="16" height="16" fill="#F0EEE8"/>
  <rect x="668" y="180" width="8" height="8" fill="#1C5898"/>
  <rect x="552" y="168" width="24" height="80" fill="#1C5898"/>
  <rect x="544" y="168" width="8" height="80" fill="#0C0C18"/>
  <rect x="552" y="168" width="8" height="8" fill="#C8DFF2"/>
  <rect x="696" y="168" width="24" height="80" fill="#1C5898"/>
  <rect x="720" y="168" width="8" height="80" fill="#0C0C18"/>
  <rect x="704" y="216" width="16" height="32" fill="#0C0C18"/>
  <rect x="704" y="216" width="16" height="24" fill="#A0C8E4"/>
  <rect x="708" y="220" width="8" height="12" fill="#C8DFF2"/>
  <rect x="704" y="248" width="16" height="24" fill="#C8A86C"/>
  <rect x="708" y="248" width="8" height="8" fill="#E8CFA0"/>
  <rect x="552" y="232" width="16" height="24" fill="#C8A86C"/>
  <rect x="556" y="232" width="8" height="8" fill="#E8CFA0"/>
  <rect x="576" y="272" width="56" height="96" fill="#1C5898"/>
  <rect x="568" y="272" width="8" height="96" fill="#0C0C18"/>
  <rect x="568" y="280" width="8" height="80" fill="#F0EEE8"/>
  <rect x="624" y="272" width="8" height="96" fill="#0C0C18"/>
  <rect x="632" y="272" width="56" height="96" fill="#1C5898"/>
  <rect x="688" y="272" width="8" height="96" fill="#0C0C18"/>
  <rect x="688" y="280" width="8" height="80" fill="#F0EEE8"/>
  <rect x="568" y="360" width="56" height="24" fill="#F0EEE8"/>
  <rect x="576" y="360" width="24" height="8" fill="#1C5898"/>
  <rect x="568" y="376" width="56" height="16" fill="#888880"/>
  <rect x="624" y="376" width="56" height="24" fill="#F0EEE8"/>
  <rect x="632" y="376" width="24" height="8" fill="#1C5898"/>
  <rect x="624" y="392" width="56" height="16" fill="#888880"/>
</svg>
