<svg xmlns="http://www.w3.org/2000/svg" viewBox="0 0 768 384" width="768" height="384" shape-rendering="crispEdges">
  <!-- Omar — Moroccan baker 38, white apron, bread -->
  <!-- SCALE: 4×  |  1 game px = 4 SVG px  |  PALETTE: Turnhoutsebaan 32-color -->
  <rect x="88" y="16" width="72" height="12" fill="#141210"/>
  <rect x="80" y="28" width="88" height="32" fill="#141210"/>
  <rect x="80" y="28" width="16" height="48" fill="#141210"/>
  <rect x="152" y="28" width="16" height="48" fill="#141210"/>
  <rect x="88" y="16" width="24" height="8" fill="#888880"/>
  <rect x="104" y="24" width="16" height="4" fill="#888880"/>
  <rect x="88" y="32" width="72" height="56" fill="#C8A86C"/>
  <rect x="80" y="40" width="8" height="32" fill="#C8A86C"/>
  <rect x="160" y="40" width="8" height="32" fill="#C8A86C"/>
  <rect x="88" y="32" width="32" height="8" fill="#E8CFA0"/>
  <rect x="144" y="44" width="16" height="32" fill="#D4A040"/>
  <rect x="88" y="84" width="72" height="8" fill="#D4A040"/>
  <rect x="96" y="48" width="16" height="4" fill="#141210"/>
  <rect x="128" y="48" width="24" height="8" fill="#141210"/>
  <rect x="128" y="56" width="32" height="4" fill="#141210"/>
  <rect x="128" y="60" width="32" height="16" fill="#F0EEE8"/>
  <rect x="136" y="60" width="16" height="16" fill="#1C5898"/>
  <rect x="140" y="64" width="8" height="8" fill="#141210"/>
  <rect x="128" y="72" width="32" height="4" fill="#141210"/>
  <rect x="128" y="56" width="8" height="4" fill="#D4A040"/>
  <rect x="88" y="56" width="16" height="4" fill="#141210"/>
  <rect x="88" y="60" width="16" height="12" fill="#F0EEE8"/>
  <rect x="92" y="60" width="8" height="12" fill="#1C5898"/>
  <rect x="92" y="64" width="4" height="8" fill="#141210"/>
  <rect x="88" y="72" width="16" height="4" fill="#141210"/>
  <rect x="88" y="56" width="8" height="4" fill="#D4A040"/>
  <rect x="116" y="72" width="16" height="16" fill="#D4A040"/>
  <rect x="112" y="80" width="24" height="8" fill="#D4A040"/>
  <rect x="112" y="72" width="8" height="8" fill="#E8CFA0"/>
  <rect x="100" y="88" width="32" height="8" fill="#C8A86C"/>
  <rect x="104" y="88" width="24" height="4" fill="#D4A040"/>
  <rect x="100" y="96" width="32" height="8" fill="#C8A86C"/>
  <rect x="104" y="96" width="16" height="4" fill="#E8CFA0"/>
  <rect x="80" y="52" width="8" height="24" fill="#C8A86C"/>
  <rect x="160" y="52" width="8" height="24" fill="#C8A86C"/>
  <rect x="160" y="60" width="8" height="12" fill="#D4A040"/>
  <rect x="164" y="52" width="4" height="16" fill="#D4A040"/>
  <rect x="104" y="88" width="40" height="40" fill="#C8A86C"/>
  <rect x="136" y="88" width="16" height="36" fill="#D4A040"/>
  <rect x="72" y="128" width="104" height="120" fill="#606058"/>
  <rect x="56" y="136" width="24" height="96" fill="#606058"/>
  <rect x="48" y="136" width="8" height="96" fill="#0C0C18"/>
  <rect x="168" y="136" width="24" height="96" fill="#606058"/>
  <rect x="192" y="136" width="8" height="96" fill="#0C0C18"/>
  <rect x="80" y="128" width="88" height="200" fill="#F0EEE8"/>
  <rect x="80" y="128" width="32" height="8" fill="#D8D4CC"/>
  <rect x="80" y="136" width="8" height="72" fill="#D8D4CC"/>
  <rect x="160" y="136" width="8" height="176" fill="#888880"/>
  <rect x="84" y="128" width="80" height="4" fill="#888880"/>
  <rect x="120" y="144" width="8" height="176" fill="#D8D4CC"/>
  <rect x="72" y="192" width="8" height="8" fill="#888880"/>
  <rect x="168" y="192" width="8" height="8" fill="#888880"/>
  <rect x="128" y="216" width="40" height="48" fill="#D8D4CC"/>
  <rect x="128" y="216" width="40" height="4" fill="#888880"/>
  <rect x="128" y="216" width="4" height="48" fill="#888880"/>
  <rect x="96" y="152" width="24" height="16" fill="#D4B898"/>
  <rect x="136" y="176" width="16" height="16" fill="#D4B898"/>
  <rect x="88" y="216" width="32" height="16" fill="#D4B898"/>
  <rect x="144" y="224" width="16" height="8" fill="#D4B898"/>
  <rect x="176" y="168" width="40" height="32" fill="#E8CFA0"/>
  <rect x="176" y="168" width="40" height="8" fill="#C8A86C"/>
  <rect x="176" y="176" width="8" height="8" fill="#D4B898"/>
  <rect x="200" y="176" width="8" height="8" fill="#D4B898"/>
  <rect x="176" y="168" width="16" height="4" fill="#F4E8C8"/>
  <rect x="56" y="208" width="16" height="32" fill="#E8CFA0"/>
  <rect x="60" y="208" width="8" height="8" fill="#F0EEE8"/>
  <rect x="176" y="200" width="16" height="32" fill="#E8CFA0"/>
  <rect x="80" y="304" width="48" height="56" fill="#606058"/>
  <rect x="80" y="304" width="8" height="56" fill="#888880"/>
  <rect x="120" y="304" width="8" height="56" fill="#0C0C18"/>
  <rect x="128" y="304" width="40" height="56" fill="#606058"/>
  <rect x="160" y="304" width="8" height="56" fill="#0C0C18"/>
  <rect x="80" y="352" width="40" height="24" fill="#0C0C18"/>
  <rect x="80" y="352" width="16" height="8" fill="#606058"/>
  <rect x="128" y="352" width="40" height="24" fill="#0C0C18"/>
  <rect x="128" y="352" width="16" height="8" fill="#606058"/>
  <rect x="344" y="16" width="72" height="12" fill="#141210"/>
  <rect x="336" y="28" width="88" height="32" fill="#141210"/>
  <rect x="336" y="28" width="16" height="48" fill="#141210"/>
  <rect x="408" y="28" width="16" height="48" fill="#141210"/>
  <rect x="344" y="16" width="24" height="8" fill="#888880"/>
  <rect x="360" y="24" width="16" height="4" fill="#888880"/>
  <rect x="344" y="32" width="72" height="56" fill="#C8A86C"/>
  <rect x="336" y="40" width="8" height="32" fill="#C8A86C"/>
  <rect x="416" y="40" width="8" height="32" fill="#C8A86C"/>
  <rect x="344" y="32" width="32" height="8" fill="#E8CFA0"/>
  <rect x="400" y="44" width="16" height="32" fill="#D4A040"/>
  <rect x="344" y="84" width="72" height="8" fill="#D4A040"/>
  <rect x="352" y="48" width="16" height="4" fill="#141210"/>
  <rect x="384" y="48" width="24" height="8" fill="#141210"/>
  <rect x="384" y="56" width="32" height="4" fill="#141210"/>
  <rect x="384" y="60" width="32" height="16" fill="#F0EEE8"/>
  <rect x="392" y="60" width="16" height="16" fill="#1C5898"/>
  <rect x="396" y="64" width="8" height="8" fill="#141210"/>
  <rect x="384" y="72" width="32" height="4" fill="#141210"/>
  <rect x="384" y="56" width="8" height="4" fill="#D4A040"/>
  <rect x="344" y="56" width="16" height="4" fill="#141210"/>
  <rect x="344" y="60" width="16" height="12" fill="#F0EEE8"/>
  <rect x="348" y="60" width="8" height="12" fill="#1C5898"/>
  <rect x="348" y="64" width="4" height="8" fill="#141210"/>
  <rect x="344" y="72" width="16" height="4" fill="#141210"/>
  <rect x="344" y="56" width="8" height="4" fill="#D4A040"/>
  <rect x="372" y="72" width="16" height="16" fill="#D4A040"/>
  <rect x="368" y="80" width="24" height="8" fill="#D4A040"/>
  <rect x="368" y="72" width="8" height="8" fill="#E8CFA0"/>
  <rect x="356" y="88" width="32" height="8" fill="#C8A86C"/>
  <rect x="360" y="88" width="24" height="4" fill="#D4A040"/>
  <rect x="356" y="96" width="32" height="8" fill="#C8A86C"/>
  <rect x="360" y="96" width="16" height="4" fill="#E8CFA0"/>
  <rect x="336" y="52" width="8" height="24" fill="#C8A86C"/>
  <rect x="416" y="52" width="8" height="24" fill="#C8A86C"/>
  <rect x="416" y="60" width="8" height="12" fill="#D4A040"/>
  <rect x="420" y="52" width="4" height="16" fill="#D4A040"/>
  <rect x="360" y="88" width="40" height="40" fill="#C8A86C"/>
  <rect x="392" y="88" width="16" height="36" fill="#D4A040"/>
  <rect x="328" y="128" width="104" height="120" fill="#606058"/>
  <rect x="312" y="136" width="24" height="96" fill="#606058"/>
  <rect x="304" y="136" width="8" height="96" fill="#0C0C18"/>
  <rect x="424" y="136" width="24" height="96" fill="#606058"/>
  <rect x="448" y="136" width="8" height="96" fill="#0C0C18"/>
  <rect x="336" y="128" width="88" height="200" fill="#F0EEE8"/>
  <rect x="336" y="128" width="32" height="8" fill="#D8D4CC"/>
  <rect x="336" y="136" width="8" height="72" fill="#D8D4CC"/>
  <rect x="416" y="136" width="8" height="176" fill="#888880"/>
  <rect x="340" y="128" width="80" height="4" fill="#888880"/>
  <rect x="376" y="144" width="8" height="176" fill="#D8D4CC"/>
  <rect x="328" y="192" width="8" height="8" fill="#888880"/>
  <rect x="424" y="192" width="8" height="8" fill="#888880"/>
  <rect x="384" y="216" width="40" height="48" fill="#D8D4CC"/>
  <rect x="384" y="216" width="40" height="4" fill="#888880"/>
  <rect x="384" y="216" width="4" height="48" fill="#888880"/>
  <rect x="352" y="152" width="24" height="16" fill="#D4B898"/>
  <rect x="392" y="176" width="16" height="16" fill="#D4B898"/>
  <rect x="344" y="216" width="32" height="16" fill="#D4B898"/>
  <rect x="400" y="224" width="16" height="8" fill="#D4B898"/>
  <rect x="432" y="168" width="40" height="32" fill="#E8CFA0"/>
  <rect x="432" y="168" width="40" height="8" fill="#C8A86C"/>
  <rect x="432" y="176" width="8" height="8" fill="#D4B898"/>
  <rect x="456" y="176" width="8" height="8" fill="#D4B898"/>
  <rect x="432" y="168" width="16" height="4" fill="#F4E8C8"/>
  <rect x="312" y="208" width="16" height="32" fill="#E8CFA0"/>
  <rect x="316" y="208" width="8" height="8" fill="#F0EEE8"/>
  <rect x="432" y="200" width="16" height="32" fill="#E8CFA0"/>
  <rect x="336" y="304" width="48" height="56" fill="#606058"/>
  <rect x="336" y="304" width="8" height="56" fill="#888880"/>
  <rect x="376" y="304" width="8" height="56" fill="#0C0C18"/>
  <rect x="384" y="304" width="40" height="56" fill="#606058"/>
  <rect x="416" y="304" width="8" height="56" fill="#0C0C18"/>
  <rect x="336" y="344" width="40" height="24" fill="#0C0C18"/>
  <rect x="336" y="344" width="16" height="8" fill="#606058"/>
  <rect x="384" y="352" width="40" height="24" fill="#0C0C18"/>
  <rect x="384" y="352" width="16" height="8" fill="#606058"/>
  <rect x="600" y="16" width="72" height="12" fill="#141210"/>
  <rect x="592" y="28" width="88" height="32" fill="#141210"/>
  <rect x="592" y="28" width="16" height="48" fill="#141210"/>
  <rect x="664" y="28" width="16" height="48" fill="#141210"/>
  <rect x="600" y="16" width="24" height="8" fill="#888880"/>
  <rect x="616" y="24" width="16" height="4" fill="#888880"/>
  <rect x="600" y="32" width="72" height="56" fill="#C8A86C"/>
  <rect x="592" y="40" width="8" height="32" fill="#C8A86C"/>
  <rect x="672" y="40" width="8" height="32" fill="#C8A86C"/>
  <rect x="600" y="32" width="32" height="8" fill="#E8CFA0"/>
  <rect x="656" y="44" width="16" height="32" fill="#D4A040"/>
  <rect x="600" y="84" width="72" height="8" fill="#D4A040"/>
  <rect x="608" y="48" width="16" height="4" fill="#141210"/>
  <rect x="640" y="48" width="24" height="8" fill="#141210"/>
  <rect x="640" y="56" width="32" height="4" fill="#141210"/>
  <rect x="640" y="60" width="32" height="16" fill="#F0EEE8"/>
  <rect x="648" y="60" width="16" height="16" fill="#1C5898"/>
  <rect x="652" y="64" width="8" height="8" fill="#141210"/>
  <rect x="640" y="72" width="32" height="4" fill="#141210"/>
  <rect x="640" y="56" width="8" height="4" fill="#D4A040"/>
  <rect x="600" y="56" width="16" height="4" fill="#141210"/>
  <rect x="600" y="60" width="16" height="12" fill="#F0EEE8"/>
  <rect x="604" y="60" width="8" height="12" fill="#1C5898"/>
  <rect x="604" y="64" width="4" height="8" fill="#141210"/>
  <rect x="600" y="72" width="16" height="4" fill="#141210"/>
  <rect x="600" y="56" width="8" height="4" fill="#D4A040"/>
  <rect x="628" y="72" width="16" height="16" fill="#D4A040"/>
  <rect x="624" y="80" width="24" height="8" fill="#D4A040"/>
  <rect x="624" y="72" width="8" height="8" fill="#E8CFA0"/>
  <rect x="612" y="88" width="32" height="8" fill="#C8A86C"/>
  <rect x="616" y="88" width="24" height="4" fill="#D4A040"/>
  <rect x="612" y="96" width="32" height="8" fill="#C8A86C"/>
  <rect x="616" y="96" width="16" height="4" fill="#E8CFA0"/>
  <rect x="592" y="52" width="8" height="24" fill="#C8A86C"/>
  <rect x="672" y="52" width="8" height="24" fill="#C8A86C"/>
  <rect x="672" y="60" width="8" height="12" fill="#D4A040"/>
  <rect x="676" y="52" width="4" height="16" fill="#D4A040"/>
  <rect x="616" y="88" width="40" height="40" fill="#C8A86C"/>
  <rect x="648" y="88" width="16" height="36" fill="#D4A040"/>
  <rect x="584" y="128" width="104" height="120" fill="#606058"/>
  <rect x="568" y="136" width="24" height="96" fill="#606058"/>
  <rect x="560" y="136" width="8" height="96" fill="#0C0C18"/>
  <rect x="680" y="136" width="24" height="96" fill="#606058"/>
  <rect x="704" y="136" width="8" height="96" fill="#0C0C18"/>
  <rect x="592" y="128" width="88" height="200" fill="#F0EEE8"/>
  <rect x="592" y="128" width="32" height="8" fill="#D8D4CC"/>
  <rect x="592" y="136" width="8" height="72" fill="#D8D4CC"/>
  <rect x="672" y="136" width="8" height="176" fill="#888880"/>
  <rect x="596" y="128" width="80" height="4" fill="#888880"/>
  <rect x="632" y="144" width="8" height="176" fill="#D8D4CC"/>
  <rect x="584" y="192" width="8" height="8" fill="#888880"/>
  <rect x="680" y="192" width="8" height="8" fill="#888880"/>
  <rect x="640" y="216" width="40" height="48" fill="#D8D4CC"/>
  <rect x="640" y="216" width="40" height="4" fill="#888880"/>
  <rect x="640" y="216" width="4" height="48" fill="#888880"/>
  <rect x="608" y="152" width="24" height="16" fill="#D4B898"/>
  <rect x="648" y="176" width="16" height="16" fill="#D4B898"/>
  <rect x="600" y="216" width="32" height="16" fill="#D4B898"/>
  <rect x="656" y="224" width="16" height="8" fill="#D4B898"/>
  <rect x="568" y="208" width="16" height="32" fill="#E8CFA0"/>
  <rect x="572" y="208" width="8" height="8" fill="#F0EEE8"/>
  <rect x="688" y="200" width="16" height="32" fill="#E8CFA0"/>
  <rect x="592" y="304" width="48" height="56" fill="#606058"/>
  <rect x="592" y="304" width="8" height="56" fill="#888880"/>
  <rect x="632" y="304" width="8" height="56" fill="#0C0C18"/>
  <rect x="640" y="304" width="40" height="56" fill="#606058"/>
  <rect x="672" y="304" width="8" height="56" fill="#0C0C18"/>
  <rect x="592" y="352" width="40" height="24" fill="#0C0C18"/>
  <rect x="592" y="352" width="16" height="8" fill="#606058"/>
  <rect x="640" y="360" width="40" height="24" fill="#0C0C18"/>
  <rect x="640" y="360" width="16" height="8" fill="#606058"/>
</svg>
