<svg xmlns="http://www.w3.org/2000/svg" viewBox="0 0 768 384" width="768" height="384" shape-rendering="crispEdges">
  <!-- Tine — Turkish-Belgian 50, teal tunic + embroidery -->
  <!-- SCALE: 4×  |  1 game px = 4 SVG px  |  PALETTE: Turnhoutsebaan 32-color -->
  <rect x="80" y="16" width="88" height="56" fill="#C07050"/>
  <rect x="72" y="32" width="16" height="48" fill="#C07050"/>
  <rect x="168" y="32" width="16" height="48" fill="#C07050"/>
  <rect x="88" y="16" width="32" height="8" fill="#D4B898"/>
  <rect x="80" y="24" width="8" height="32" fill="#D4B898"/>
  <rect x="80" y="64" width="88" height="8" fill="#984428"/>
  <rect x="72" y="48" width="16" height="24" fill="#984428"/>
  <rect x="96" y="24" width="8" height="8" fill="#FFD700"/>
  <rect x="112" y="32" width="8" height="8" fill="#FFD700"/>
  <rect x="88" y="40" width="8" height="8" fill="#FFD700"/>
  <rect x="128" y="24" width="8" height="8" fill="#FFD700"/>
  <rect x="104" y="48" width="8" height="8" fill="#FFD700"/>
  <rect x="120" y="40" width="8" height="8" fill="#FFD700"/>
  <rect x="136" y="32" width="8" height="8" fill="#FFD700"/>
  <rect x="88" y="32" width="72" height="8" fill="#606058"/>
  <rect x="88" y="40" width="72" height="56" fill="#C8A86C"/>
  <rect x="80" y="48" width="8" height="32" fill="#C8A86C"/>
  <rect x="160" y="48" width="8" height="32" fill="#C8A86C"/>
  <rect x="88" y="40" width="32" height="8" fill="#E8CFA0"/>
  <rect x="144" y="52" width="16" height="32" fill="#D4A040"/>
  <rect x="88" y="88" width="72" height="8" fill="#D4A040"/>
  <rect x="128" y="52" width="24" height="4" fill="#141210"/>
  <rect x="128" y="56" width="24" height="16" fill="#F0EEE8"/>
  <rect x="136" y="56" width="8" height="16" fill="#606058"/>
  <rect x="136" y="60" width="4" height="8" fill="#141210"/>
  <rect x="128" y="68" width="24" height="4" fill="#D4A040"/>
  <rect x="96" y="56" width="8" height="16" fill="#D4A040"/>
  <rect x="116" y="72" width="16" height="16" fill="#D4A040"/>
  <rect x="112" y="80" width="24" height="8" fill="#D4A040"/>
  <rect x="112" y="72" width="8" height="8" fill="#E8CFA0"/>
  <rect x="100" y="88" width="32" height="8" fill="#C8A86C"/>
  <rect x="104" y="88" width="20" height="4" fill="#C07050"/>
  <rect x="100" y="96" width="32" height="8" fill="#C8A86C"/>
  <rect x="104" y="96" width="16" height="4" fill="#E8CFA0"/>
  <rect x="160" y="52" width="8" height="24" fill="#C8A86C"/>
  <rect x="160" y="60" width="8" height="12" fill="#D4A040"/>
  <rect x="104" y="96" width="40" height="32" fill="#C8A86C"/>
  <rect x="136" y="96" width="16" height="28" fill="#D4A040"/>
  <rect x="56" y="128" width="136" height="192" fill="#1C5898"/>
  <rect x="48" y="128" width="8" height="192" fill="#0C0C18"/>
  <rect x="192" y="128" width="8" height="192" fill="#0C0C18"/>
  <rect x="56" y="128" width="32" height="8" fill="#C8DFF2"/>
  <rect x="56" y="136" width="8" height="80" fill="#C8DFF2"/>
  <rect x="184" y="136" width="8" height="144" fill="#0C0C18"/>
  <rect x="88" y="136" width="8" height="8" fill="#FFD700"/>
  <rect x="96" y="136" width="8" height="8" fill="#FFD700"/>
  <rect x="104" y="136" width="8" height="8" fill="#FFD700"/>
  <rect x="112" y="136" width="8" height="8" fill="#FFD700"/>
  <rect x="120" y="136" width="8" height="8" fill="#FFD700"/>
  <rect x="128" y="136" width="8" height="8" fill="#FFD700"/>
  <rect x="136" y="136" width="8" height="8" fill="#FFD700"/>
  <rect x="144" y="136" width="8" height="8" fill="#FFD700"/>
  <rect x="152" y="136" width="8" height="8" fill="#FFD700"/>
  <rect x="88" y="144" width="72" height="8" fill="#D4A040"/>
  <rect x="128" y="208" width="8" height="96" fill="#0C0C18"/>
  <rect x="88" y="224" width="24" height="80" fill="#C8DFF2"/>
  <rect x="152" y="208" width="16" height="88" fill="#0C0C18"/>
  <rect x="40" y="136" width="16" height="104" fill="#1C5898"/>
  <rect x="32" y="136" width="8" height="104" fill="#0C0C18"/>
  <rect x="40" y="136" width="8" height="8" fill="#C8DFF2"/>
  <rect x="192" y="136" width="16" height="104" fill="#1C5898"/>
  <rect x="208" y="136" width="8" height="104" fill="#0C0C18"/>
  <rect x="40" y="232" width="16" height="24" fill="#C8A86C"/>
  <rect x="44" y="232" width="8" height="8" fill="#E8CFA0"/>
  <rect x="192" y="232" width="16" height="24" fill="#C8A86C"/>
  <rect x="196" y="232" width="8" height="8" fill="#E8CFA0"/>
  <rect x="64" y="320" width="56" height="48" fill="#606058"/>
  <rect x="56" y="320" width="8" height="48" fill="#0C0C18"/>
  <rect x="112" y="320" width="8" height="48" fill="#0C0C18"/>
  <rect x="120" y="320" width="56" height="48" fill="#606058"/>
  <rect x="176" y="320" width="8" height="48" fill="#0C0C18"/>
  <rect x="56" y="360" width="56" height="24" fill="#4A2C10"/>
  <rect x="56" y="360" width="24" height="8" fill="#8A5A28"/>
  <rect x="120" y="360" width="56" height="24" fill="#4A2C10"/>
  <rect x="120" y="360" width="24" height="8" fill="#8A5A28"/>
  <rect x="336" y="16" width="88" height="56" fill="#C07050"/>
  <rect x="328" y="32" width="16" height="48" fill="#C07050"/>
  <rect x="424" y="32" width="16" height="48" fill="#C07050"/>
  <rect x="344" y="16" width="32" height="8" fill="#D4B898"/>
  <rect x="336" y="24" width="8" height="32" fill="#D4B898"/>
  <rect x="336" y="64" width="88" height="8" fill="#984428"/>
  <rect x="328" y="48" width="16" height="24" fill="#984428"/>
  <rect x="352" y="24" width="8" height="8" fill="#FFD700"/>
  <rect x="368" y="32" width="8" height="8" fill="#FFD700"/>
  <rect x="344" y="40" width="8" height="8" fill="#FFD700"/>
  <rect x="384" y="24" width="8" height="8" fill="#FFD700"/>
  <rect x="360" y="48" width="8" height="8" fill="#FFD700"/>
  <rect x="376" y="40" width="8" height="8" fill="#FFD700"/>
  <rect x="392" y="32" width="8" height="8" fill="#FFD700"/>
  <rect x="344" y="32" width="72" height="8" fill="#606058"/>
  <rect x="344" y="40" width="72" height="56" fill="#C8A86C"/>
  <rect x="336" y="48" width="8" height="32" fill="#C8A86C"/>
  <rect x="416" y="48" width="8" height="32" fill="#C8A86C"/>
  <rect x="344" y="40" width="32" height="8" fill="#E8CFA0"/>
  <rect x="400" y="52" width="16" height="32" fill="#D4A040"/>
  <rect x="344" y="88" width="72" height="8" fill="#D4A040"/>
  <rect x="384" y="52" width="24" height="4" fill="#141210"/>
  <rect x="384" y="56" width="24" height="16" fill="#F0EEE8"/>
  <rect x="392" y="56" width="8" height="16" fill="#606058"/>
  <rect x="392" y="60" width="4" height="8" fill="#141210"/>
  <rect x="384" y="68" width="24" height="4" fill="#D4A040"/>
  <rect x="352" y="56" width="8" height="16" fill="#D4A040"/>
  <rect x="372" y="72" width="16" height="16" fill="#D4A040"/>
  <rect x="368" y="80" width="24" height="8" fill="#D4A040"/>
  <rect x="368" y="72" width="8" height="8" fill="#E8CFA0"/>
  <rect x="356" y="88" width="32" height="8" fill="#C8A86C"/>
  <rect x="360" y="88" width="20" height="4" fill="#C07050"/>
  <rect x="356" y="96" width="32" height="8" fill="#C8A86C"/>
  <rect x="360" y="96" width="16" height="4" fill="#E8CFA0"/>
  <rect x="416" y="52" width="8" height="24" fill="#C8A86C"/>
  <rect x="416" y="60" width="8" height="12" fill="#D4A040"/>
  <rect x="360" y="96" width="40" height="32" fill="#C8A86C"/>
  <rect x="392" y="96" width="16" height="28" fill="#D4A040"/>
  <rect x="312" y="128" width="136" height="192" fill="#1C5898"/>
  <rect x="304" y="128" width="8" height="192" fill="#0C0C18"/>
  <rect x="448" y="128" width="8" height="192" fill="#0C0C18"/>
  <rect x="312" y="128" width="32" height="8" fill="#C8DFF2"/>
  <rect x="312" y="136" width="8" height="80" fill="#C8DFF2"/>
  <rect x="440" y="136" width="8" height="144" fill="#0C0C18"/>
  <rect x="344" y="136" width="8" height="8" fill="#FFD700"/>
  <rect x="352" y="136" width="8" height="8" fill="#FFD700"/>
  <rect x="360" y="136" width="8" height="8" fill="#FFD700"/>
  <rect x="368" y="136" width="8" height="8" fill="#FFD700"/>
  <rect x="376" y="136" width="8" height="8" fill="#FFD700"/>
  <rect x="384" y="136" width="8" height="8" fill="#FFD700"/>
  <rect x="392" y="136" width="8" height="8" fill="#FFD700"/>
  <rect x="400" y="136" width="8" height="8" fill="#FFD700"/>
  <rect x="408" y="136" width="8" height="8" fill="#FFD700"/>
  <rect x="344" y="144" width="72" height="8" fill="#D4A040"/>
  <rect x="384" y="208" width="8" height="96" fill="#0C0C18"/>
  <rect x="344" y="224" width="24" height="80" fill="#C8DFF2"/>
  <rect x="408" y="208" width="16" height="88" fill="#0C0C18"/>
  <rect x="296" y="136" width="16" height="104" fill="#1C5898"/>
  <rect x="288" y="136" width="8" height="104" fill="#0C0C18"/>
  <rect x="296" y="136" width="8" height="8" fill="#C8DFF2"/>
  <rect x="448" y="136" width="16" height="104" fill="#1C5898"/>
  <rect x="464" y="136" width="8" height="104" fill="#0C0C18"/>
  <rect x="296" y="232" width="16" height="24" fill="#C8A86C"/>
  <rect x="300" y="232" width="8" height="8" fill="#E8CFA0"/>
  <rect x="448" y="232" width="16" height="24" fill="#C8A86C"/>
  <rect x="452" y="232" width="8" height="8" fill="#E8CFA0"/>
  <rect x="320" y="320" width="56" height="48" fill="#606058"/>
  <rect x="312" y="320" width="8" height="48" fill="#0C0C18"/>
  <rect x="368" y="320" width="8" height="48" fill="#0C0C18"/>
  <rect x="376" y="320" width="56" height="48" fill="#606058"/>
  <rect x="432" y="320" width="8" height="48" fill="#0C0C18"/>
  <rect x="312" y="352" width="56" height="24" fill="#4A2C10"/>
  <rect x="312" y="352" width="24" height="8" fill="#8A5A28"/>
  <rect x="376" y="360" width="56" height="24" fill="#4A2C10"/>
  <rect x="376" y="360" width="24" height="8" fill="#8A5A28"/>
  <rect x="592" y="16" width="88" height="56" fill="#C07050"/>
  <rect x="584" y="32" width="16" height="48" fill="#C07050"/>
  <rect x="680" y="32" width="16" height="48" fill="#C07050"/>
  <rect x="600" y="16" width="32" height="8" fill="#D4B898"/>
  <rect x="592" y="24" width="8" height="32" fill="#D4B898"/>
  <rect x="592" y="64" width="88" height="8" fill="#984428"/>
  <rect x="584" y="48" width="16" height="24" fill="#984428"/>
  <rect x="608" y="24" width="8" height="8" fill="#FFD700"/>
  <rect x="624" y="32" width="8" height="8" fill="#FFD700"/>
  <rect x="600" y="40" width="8" height="8" fill="#FFD700"/>
  <rect x="640" y="24" width="8" height="8" fill="#FFD700"/>
  <rect x="616" y="48" width="8" height="8" fill="#FFD700"/>
  <rect x="632" y="40" width="8" height="8" fill="#FFD700"/>
  <rect x="648" y="32" width="8" height="8" fill="#FFD700"/>
  <rect x="600" y="32" width="72" height="8" fill="#606058"/>
  <rect x="600" y="40" width="72" height="56" fill="#C8A86C"/>
  <rect x="592" y="48" width="8" height="32" fill="#C8A86C"/>
  <rect x="672" y="48" width="8" height="32" fill="#C8A86C"/>
  <rect x="600" y="40" width="32" height="8" fill="#E8CFA0"/>
  <rect x="656" y="52" width="16" height="32" fill="#D4A040"/>
  <rect x="600" y="88" width="72" height="8" fill="#D4A040"/>
  <rect x="640" y="52" width="24" height="4" fill="#141210"/>
  <rect x="640" y="56" width="24" height="16" fill="#F0EEE8"/>
  <rect x="648" y="56" width="8" height="16" fill="#606058"/>
  <rect x="648" y="60" width="4" height="8" fill="#141210"/>
  <rect x="640" y="68" width="24" height="4" fill="#D4A040"/>
  <rect x="608" y="56" width="8" height="16" fill="#D4A040"/>
  <rect x="628" y="72" width="16" height="16" fill="#D4A040"/>
  <rect x="624" y="80" width="24" height="8" fill="#D4A040"/>
  <rect x="624" y="72" width="8" height="8" fill="#E8CFA0"/>
  <rect x="612" y="88" width="32" height="8" fill="#C8A86C"/>
  <rect x="616" y="88" width="20" height="4" fill="#C07050"/>
  <rect x="612" y="96" width="32" height="8" fill="#C8A86C"/>
  <rect x="616" y="96" width="16" height="4" fill="#E8CFA0"/>
  <rect x="672" y="52" width="8" height="24" fill="#C8A86C"/>
  <rect x="672" y="60" width="8" height="12" fill="#D4A040"/>
  <rect x="616" y="96" width="40" height="32" fill="#C8A86C"/>
  <rect x="648" y="96" width="16" height="28" fill="#D4A040"/>
  <rect x="568" y="128" width="136" height="192" fill="#1C5898"/>
  <rect x="560" y="128" width="8" height="192" fill="#0C0C18"/>
  <rect x="704" y="128" width="8" height="192" fill="#0C0C18"/>
  <rect x="568" y="128" width="32" height="8" fill="#C8DFF2"/>
  <rect x="568" y="136" width="8" height="80" fill="#C8DFF2"/>
  <rect x="696" y="136" width="8" height="144" fill="#0C0C18"/>
  <rect x="600" y="136" width="8" height="8" fill="#FFD700"/>
  <rect x="608" y="136" width="8" height="8" fill="#FFD700"/>
  <rect x="616" y="136" width="8" height="8" fill="#FFD700"/>
  <rect x="624" y="136" width="8" height="8" fill="#FFD700"/>
  <rect x="632" y="136" width="8" height="8" fill="#FFD700"/>
  <rect x="640" y="136" width="8" height="8" fill="#FFD700"/>
  <rect x="648" y="136" width="8" height="8" fill="#FFD700"/>
  <rect x="656" y="136" width="8" height="8" fill="#FFD700"/>
  <rect x="664" y="136" width="8" height="8" fill="#FFD700"/>
  <rect x="600" y="144" width="72" height="8" fill="#D4A040"/>
  <rect x="640" y="208" width="8" height="96" fill="#0C0C18"/>
  <rect x="600" y="224" width="24" height="80" fill="#C8DFF2"/>
  <rect x="664" y="208" width="16" height="88" fill="#0C0C18"/>
  <rect x="552" y="136" width="16" height="104" fill="#1C5898"/>
  <rect x="544" y="136" width="8" height="104" fill="#0C0C18"/>
  <rect x="552" y="136" width="8" height="8" fill="#C8DFF2"/>
  <rect x="704" y="136" width="16" height="104" fill="#1C5898"/>
  <rect x="720" y="136" width="8" height="104" fill="#0C0C18"/>
  <rect x="552" y="232" width="16" height="24" fill="#C8A86C"/>
  <rect x="556" y="232" width="8" height="8" fill="#E8CFA0"/>
  <rect x="704" y="232" width="16" height="24" fill="#C8A86C"/>
  <rect x="708" y="232" width="8" height="8" fill="#E8CFA0"/>
  <rect x="576" y="320" width="56" height="48" fill="#606058"/>
  <rect x="568" y="320" width="8" height="48" fill="#0C0C18"/>
  <rect x="624" y="320" width="8" height="48" fill="#0C0C18"/>
  <rect x="632" y="320" width="56" height="48" fill="#606058"/>
  <rect x="688" y="320" width="8" height="48" fill="#0C0C18"/>
  <rect x="568" y="360" width="56" height="24" fill="#4A2C10"/>
  <rect x="568" y="360" width="24" height="8" fill="#8A5A28"/>
  <rect x="632" y="368" width="56" height="24" fill="#4A2C10"/>
  <rect x="632" y="368" width="24" height="8" fill="#8A5A28"/>
</svg>
