<svg xmlns="http://www.w3.org/2000/svg" viewBox="0 0 1024 512" width="1024" height="512" shape-rendering="crispEdges">
  <!-- MATERIALS SHEET — Base tiles, 32×32 px each -->
  <!-- SCALE: 4×  |  1 game px = 4 SVG px  |  PALETTE: Turnhoutsebaan 32-color -->
  <rect x="384" y="0" width="128" height="128" fill="#888880"/>
  <rect x="388" y="4" width="40" height="20" fill="#B4B0A8"/>
  <rect x="388" y="4" width="40" height="4" fill="#D8D4CC"/>
  <rect x="388" y="20" width="40" height="4" fill="#606058"/>
  <rect x="436" y="4" width="40" height="20" fill="#B4B0A8"/>
  <rect x="436" y="4" width="40" height="4" fill="#D8D4CC"/>
  <rect x="436" y="20" width="40" height="4" fill="#606058"/>
  <rect x="484" y="4" width="32" height="20" fill="#B4B0A8"/>
  <rect x="484" y="4" width="32" height="4" fill="#D8D4CC"/>
  <rect x="484" y="20" width="32" height="4" fill="#606058"/>
  <rect x="412" y="36" width="40" height="20" fill="#B4B0A8"/>
  <rect x="412" y="36" width="40" height="4" fill="#D8D4CC"/>
  <rect x="412" y="52" width="40" height="4" fill="#606058"/>
  <rect x="460" y="36" width="40" height="20" fill="#B4B0A8"/>
  <rect x="460" y="36" width="40" height="4" fill="#D8D4CC"/>
  <rect x="460" y="52" width="40" height="4" fill="#606058"/>
  <rect x="508" y="36" width="8" height="20" fill="#B4B0A8"/>
  <rect x="508" y="36" width="8" height="4" fill="#D8D4CC"/>
  <rect x="508" y="52" width="8" height="4" fill="#606058"/>
  <rect x="388" y="68" width="40" height="20" fill="#B4B0A8"/>
  <rect x="388" y="68" width="40" height="4" fill="#D8D4CC"/>
  <rect x="388" y="84" width="40" height="4" fill="#606058"/>
  <rect x="436" y="68" width="40" height="20" fill="#B4B0A8"/>
  <rect x="436" y="68" width="40" height="4" fill="#D8D4CC"/>
  <rect x="436" y="84" width="40" height="4" fill="#606058"/>
  <rect x="484" y="68" width="32" height="20" fill="#B4B0A8"/>
  <rect x="484" y="68" width="32" height="4" fill="#D8D4CC"/>
  <rect x="484" y="84" width="32" height="4" fill="#606058"/>
  <rect x="412" y="100" width="40" height="20" fill="#B4B0A8"/>
  <rect x="412" y="100" width="40" height="4" fill="#D8D4CC"/>
  <rect x="412" y="116" width="40" height="4" fill="#606058"/>
  <rect x="460" y="100" width="40" height="20" fill="#B4B0A8"/>
  <rect x="460" y="100" width="40" height="4" fill="#D8D4CC"/>
  <rect x="460" y="116" width="40" height="4" fill="#606058"/>
  <rect x="508" y="100" width="8" height="20" fill="#B4B0A8"/>
  <rect x="508" y="100" width="8" height="4" fill="#D8D4CC"/>
  <rect x="508" y="116" width="8" height="4" fill="#606058"/>
  <rect x="768" y="0" width="128" height="64" fill="#78AFE1"/>
  <rect x="768" y="64" width="128" height="40" fill="#A8CBE8"/>
  <rect x="768" y="104" width="128" height="24" fill="#C8DFF2"/>
  <rect x="784" y="12" width="48" height="12" fill="#EEF3FA"/>
  <rect x="840" y="32" width="32" height="8" fill="#EEF3FA"/>
  <rect x="896" y="128" width="128" height="128" fill="#484440"/>
  <rect x="904" y="140" width="4" height="4" fill="#686460"/>
  <rect x="916" y="160" width="4" height="4" fill="#686460"/>
  <rect x="928" y="132" width="4" height="4" fill="#686460"/>
  <rect x="940" y="184" width="4" height="4" fill="#686460"/>
  <rect x="952" y="156" width="4" height="4" fill="#686460"/>
  <rect x="964" y="208" width="4" height="4" fill="#686460"/>
  <rect x="976" y="144" width="4" height="4" fill="#686460"/>
  <rect x="988" y="172" width="4" height="4" fill="#686460"/>
  <rect x="1000" y="200" width="4" height="4" fill="#686460"/>
  <rect x="1012" y="148" width="4" height="4" fill="#686460"/>
  <rect x="908" y="216" width="4" height="4" fill="#686460"/>
  <rect x="920" y="188" width="4" height="4" fill="#686460"/>
  <rect x="932" y="240" width="4" height="4" fill="#686460"/>
  <rect x="944" y="204" width="4" height="4" fill="#686460"/>
  <rect x="956" y="136" width="4" height="4" fill="#686460"/>
  <rect x="968" y="228" width="4" height="4" fill="#686460"/>
  <rect x="980" y="164" width="4" height="4" fill="#686460"/>
  <rect x="992" y="216" width="4" height="4" fill="#686460"/>
  <rect x="1004" y="184" width="4" height="4" fill="#686460"/>
  <rect x="1016" y="240" width="4" height="4" fill="#686460"/>
  <rect x="900" y="172" width="4" height="4" fill="#686460"/>
  <rect x="912" y="232" width="4" height="4" fill="#686460"/>
  <rect x="924" y="204" width="4" height="4" fill="#686460"/>
  <rect x="936" y="148" width="4" height="4" fill="#686460"/>
  <rect x="948" y="224" width="4" height="4" fill="#686460"/>
  <rect x="960" y="176" width="4" height="4" fill="#686460"/>
  <rect x="972" y="244" width="4" height="4" fill="#686460"/>
  <rect x="984" y="192" width="4" height="4" fill="#686460"/>
  <rect x="996" y="140" width="4" height="4" fill="#686460"/>
  <rect x="1008" y="212" width="4" height="4" fill="#686460"/>
  <rect x="908" y="156" width="4" height="4" fill="#2C2C28"/>
  <rect x="920" y="176" width="4" height="4" fill="#2C2C28"/>
  <rect x="932" y="144" width="4" height="4" fill="#2C2C28"/>
  <rect x="944" y="212" width="4" height="4" fill="#2C2C28"/>
  <rect x="956" y="192" width="4" height="4" fill="#2C2C28"/>
  <rect x="968" y="164" width="4" height="4" fill="#2C2C28"/>
  <rect x="980" y="228" width="4" height="4" fill="#2C2C28"/>
  <rect x="992" y="156" width="4" height="4" fill="#2C2C28"/>
  <rect x="1004" y="204" width="4" height="4" fill="#2C2C28"/>
  <rect x="1016" y="176" width="4" height="4" fill="#2C2C28"/>
  <rect x="904" y="200" width="4" height="4" fill="#2C2C28"/>
  <rect x="916" y="244" width="4" height="4" fill="#2C2C28"/>
  <rect x="928" y="172" width="4" height="4" fill="#2C2C28"/>
  <rect x="940" y="128" width="4" height="4" fill="#2C2C28"/>
  <rect x="952" y="220" width="4" height="4" fill="#2C2C28"/>
  <rect x="964" y="152" width="4" height="4" fill="#2C2C28"/>
  <rect x="976" y="196" width="4" height="4" fill="#2C2C28"/>
  <rect x="988" y="240" width="4" height="4" fill="#2C2C28"/>
  <rect x="1000" y="168" width="4" height="4" fill="#2C2C28"/>
  <rect x="1012" y="220" width="4" height="4" fill="#2C2C28"/>
  <rect x="916" y="148" width="4" height="4" fill="#2C2C28"/>
  <rect x="920" y="152" width="4" height="4" fill="#2C2C28"/>
  <rect x="924" y="156" width="4" height="4" fill="#2C2C28"/>
  <rect x="928" y="160" width="4" height="4" fill="#2C2C28"/>
  <rect x="928" y="164" width="4" height="4" fill="#2C2C28"/>
  <rect x="932" y="168" width="4" height="4" fill="#2C2C28"/>
  <rect x="936" y="168" width="4" height="4" fill="#2C2C28"/>
  <rect x="976" y="188" width="4" height="4" fill="#2C2C28"/>
  <rect x="980" y="192" width="4" height="4" fill="#2C2C28"/>
  <rect x="984" y="196" width="4" height="4" fill="#2C2C28"/>
  <rect x="988" y="200" width="4" height="4" fill="#2C2C28"/>
  <rect x="992" y="200" width="4" height="4" fill="#2C2C28"/>
  <rect x="640" y="0" width="128" height="128" fill="#A8CBE8"/>
  <rect x="640" y="16" width="128" height="112" fill="#984428"/>
  <rect x="640" y="16" width="128" height="4" fill="#C07050"/>
  <rect x="0" y="0" width="128" height="128" fill="#984428"/>
  <rect x="0" y="0" width="128" height="4" fill="#D4B898"/>
  <rect x="0" y="20" width="128" height="4" fill="#D4B898"/>
  <rect x="0" y="40" width="128" height="4" fill="#D4B898"/>
  <rect x="0" y="60" width="128" height="4" fill="#D4B898"/>
  <rect x="0" y="80" width="128" height="4" fill="#D4B898"/>
  <rect x="0" y="100" width="128" height="4" fill="#D4B898"/>
  <rect x="0" y="120" width="128" height="4" fill="#D4B898"/>
  <rect x="28" y="4" width="4" height="16" fill="#D4B898"/>
  <rect x="60" y="4" width="4" height="16" fill="#D4B898"/>
  <rect x="92" y="4" width="4" height="16" fill="#D4B898"/>
  <rect x="124" y="4" width="4" height="16" fill="#D4B898"/>
  <rect x="44" y="24" width="4" height="16" fill="#D4B898"/>
  <rect x="76" y="24" width="4" height="16" fill="#D4B898"/>
  <rect x="108" y="24" width="4" height="16" fill="#D4B898"/>
  <rect x="28" y="44" width="4" height="16" fill="#D4B898"/>
  <rect x="60" y="44" width="4" height="16" fill="#D4B898"/>
  <rect x="92" y="44" width="4" height="16" fill="#D4B898"/>
  <rect x="124" y="44" width="4" height="16" fill="#D4B898"/>
  <rect x="44" y="64" width="4" height="16" fill="#D4B898"/>
  <rect x="76" y="64" width="4" height="16" fill="#D4B898"/>
  <rect x="108" y="64" width="4" height="16" fill="#D4B898"/>
  <rect x="28" y="84" width="4" height="16" fill="#D4B898"/>
  <rect x="60" y="84" width="4" height="16" fill="#D4B898"/>
  <rect x="92" y="84" width="4" height="16" fill="#D4B898"/>
  <rect x="124" y="84" width="4" height="16" fill="#D4B898"/>
  <rect x="44" y="104" width="4" height="16" fill="#D4B898"/>
  <rect x="76" y="104" width="4" height="16" fill="#D4B898"/>
  <rect x="108" y="104" width="4" height="16" fill="#D4B898"/>
  <rect x="28" y="124" width="4" height="16" fill="#D4B898"/>
  <rect x="60" y="124" width="4" height="16" fill="#D4B898"/>
  <rect x="92" y="124" width="4" height="16" fill="#D4B898"/>
  <rect x="124" y="124" width="4" height="16" fill="#D4B898"/>
  <rect x="0" y="4" width="28" height="4" fill="#C07050"/>
  <rect x="0" y="8" width="4" height="12" fill="#C07050"/>
  <rect x="24" y="12" width="4" height="8" fill="#6E2C18"/>
  <rect x="0" y="16" width="24" height="4" fill="#6E2C18"/>
  <rect x="32" y="4" width="28" height="4" fill="#C07050"/>
  <rect x="32" y="8" width="4" height="12" fill="#C07050"/>
  <rect x="56" y="12" width="4" height="8" fill="#6E2C18"/>
  <rect x="32" y="16" width="24" height="4" fill="#6E2C18"/>
  <rect x="64" y="4" width="28" height="4" fill="#C07050"/>
  <rect x="64" y="8" width="4" height="12" fill="#C07050"/>
  <rect x="88" y="12" width="4" height="8" fill="#6E2C18"/>
  <rect x="64" y="16" width="24" height="4" fill="#6E2C18"/>
  <rect x="96" y="4" width="28" height="4" fill="#C07050"/>
  <rect x="96" y="8" width="4" height="12" fill="#C07050"/>
  <rect x="120" y="12" width="4" height="8" fill="#6E2C18"/>
  <rect x="96" y="16" width="24" height="4" fill="#6E2C18"/>
  <rect x="16" y="24" width="28" height="4" fill="#C07050"/>
  <rect x="16" y="28" width="4" height="12" fill="#C07050"/>
  <rect x="40" y="32" width="4" height="8" fill="#6E2C18"/>
  <rect x="16" y="36" width="24" height="4" fill="#6E2C18"/>
  <rect x="48" y="24" width="28" height="4" fill="#C07050"/>
  <rect x="48" y="28" width="4" height="12" fill="#C07050"/>
  <rect x="72" y="32" width="4" height="8" fill="#6E2C18"/>
  <rect x="48" y="36" width="24" height="4" fill="#6E2C18"/>
  <rect x="80" y="24" width="28" height="4" fill="#C07050"/>
  <rect x="80" y="28" width="4" height="12" fill="#C07050"/>
  <rect x="104" y="32" width="4" height="8" fill="#6E2C18"/>
  <rect x="80" y="36" width="24" height="4" fill="#6E2C18"/>
  <rect x="112" y="24" width="16" height="4" fill="#C07050"/>
  <rect x="112" y="28" width="4" height="12" fill="#C07050"/>
  <rect x="124" y="32" width="4" height="8" fill="#6E2C18"/>
  <rect x="112" y="36" width="12" height="4" fill="#6E2C18"/>
  <rect x="0" y="44" width="28" height="4" fill="#C07050"/>
  <rect x="0" y="48" width="4" height="12" fill="#C07050"/>
  <rect x="24" y="52" width="4" height="8" fill="#6E2C18"/>
  <rect x="0" y="56" width="24" height="4" fill="#6E2C18"/>
  <rect x="32" y="44" width="28" height="4" fill="#C07050"/>
  <rect x="32" y="48" width="4" height="12" fill="#C07050"/>
  <rect x="56" y="52" width="4" height="8" fill="#6E2C18"/>
  <rect x="32" y="56" width="24" height="4" fill="#6E2C18"/>
  <rect x="64" y="44" width="28" height="4" fill="#C07050"/>
  <rect x="64" y="48" width="4" height="12" fill="#C07050"/>
  <rect x="88" y="52" width="4" height="8" fill="#6E2C18"/>
  <rect x="64" y="56" width="24" height="4" fill="#6E2C18"/>
  <rect x="96" y="44" width="28" height="4" fill="#C07050"/>
  <rect x="96" y="48" width="4" height="12" fill="#C07050"/>
  <rect x="120" y="52" width="4" height="8" fill="#6E2C18"/>
  <rect x="96" y="56" width="24" height="4" fill="#6E2C18"/>
  <rect x="16" y="64" width="28" height="4" fill="#C07050"/>
  <rect x="16" y="68" width="4" height="12" fill="#C07050"/>
  <rect x="40" y="72" width="4" height="8" fill="#6E2C18"/>
  <rect x="16" y="76" width="24" height="4" fill="#6E2C18"/>
  <rect x="48" y="64" width="28" height="4" fill="#C07050"/>
  <rect x="48" y="68" width="4" height="12" fill="#C07050"/>
  <rect x="72" y="72" width="4" height="8" fill="#6E2C18"/>
  <rect x="48" y="76" width="24" height="4" fill="#6E2C18"/>
  <rect x="80" y="64" width="28" height="4" fill="#C07050"/>
  <rect x="80" y="68" width="4" height="12" fill="#C07050"/>
  <rect x="104" y="72" width="4" height="8" fill="#6E2C18"/>
  <rect x="80" y="76" width="24" height="4" fill="#6E2C18"/>
  <rect x="112" y="64" width="16" height="4" fill="#C07050"/>
  <rect x="112" y="68" width="4" height="12" fill="#C07050"/>
  <rect x="124" y="72" width="4" height="8" fill="#6E2C18"/>
  <rect x="112" y="76" width="12" height="4" fill="#6E2C18"/>
  <rect x="0" y="84" width="28" height="4" fill="#C07050"/>
  <rect x="0" y="88" width="4" height="12" fill="#C07050"/>
  <rect x="24" y="92" width="4" height="8" fill="#6E2C18"/>
  <rect x="0" y="96" width="24" height="4" fill="#6E2C18"/>
  <rect x="32" y="84" width="28" height="4" fill="#C07050"/>
  <rect x="32" y="88" width="4" height="12" fill="#C07050"/>
  <rect x="56" y="92" width="4" height="8" fill="#6E2C18"/>
  <rect x="32" y="96" width="24" height="4" fill="#6E2C18"/>
  <rect x="64" y="84" width="28" height="4" fill="#C07050"/>
  <rect x="64" y="88" width="4" height="12" fill="#C07050"/>
  <rect x="88" y="92" width="4" height="8" fill="#6E2C18"/>
  <rect x="64" y="96" width="24" height="4" fill="#6E2C18"/>
  <rect x="96" y="84" width="28" height="4" fill="#C07050"/>
  <rect x="96" y="88" width="4" height="12" fill="#C07050"/>
  <rect x="120" y="92" width="4" height="8" fill="#6E2C18"/>
  <rect x="96" y="96" width="24" height="4" fill="#6E2C18"/>
  <rect x="16" y="104" width="28" height="4" fill="#C07050"/>
  <rect x="16" y="108" width="4" height="12" fill="#C07050"/>
  <rect x="40" y="112" width="4" height="8" fill="#6E2C18"/>
  <rect x="16" y="116" width="24" height="4" fill="#6E2C18"/>
  <rect x="48" y="104" width="28" height="4" fill="#C07050"/>
  <rect x="48" y="108" width="4" height="12" fill="#C07050"/>
  <rect x="72" y="112" width="4" height="8" fill="#6E2C18"/>
  <rect x="48" y="116" width="24" height="4" fill="#6E2C18"/>
  <rect x="80" y="104" width="28" height="4" fill="#C07050"/>
  <rect x="80" y="108" width="4" height="12" fill="#C07050"/>
  <rect x="104" y="112" width="4" height="8" fill="#6E2C18"/>
  <rect x="80" y="116" width="24" height="4" fill="#6E2C18"/>
  <rect x="112" y="104" width="16" height="4" fill="#C07050"/>
  <rect x="112" y="108" width="4" height="12" fill="#C07050"/>
  <rect x="124" y="112" width="4" height="8" fill="#6E2C18"/>
  <rect x="112" y="116" width="12" height="4" fill="#6E2C18"/>
  <rect x="0" y="124" width="28" height="4" fill="#C07050"/>
  <rect x="0" y="128" width="4" height="12" fill="#C07050"/>
  <rect x="24" y="132" width="4" height="8" fill="#6E2C18"/>
  <rect x="0" y="136" width="24" height="4" fill="#6E2C18"/>
  <rect x="32" y="124" width="28" height="4" fill="#C07050"/>
  <rect x="32" y="128" width="4" height="12" fill="#C07050"/>
  <rect x="56" y="132" width="4" height="8" fill="#6E2C18"/>
  <rect x="32" y="136" width="24" height="4" fill="#6E2C18"/>
  <rect x="64" y="124" width="28" height="4" fill="#C07050"/>
  <rect x="64" y="128" width="4" height="12" fill="#C07050"/>
  <rect x="88" y="132" width="4" height="8" fill="#6E2C18"/>
  <rect x="64" y="136" width="24" height="4" fill="#6E2C18"/>
  <rect x="96" y="124" width="28" height="4" fill="#C07050"/>
  <rect x="96" y="128" width="4" height="12" fill="#C07050"/>
  <rect x="120" y="132" width="4" height="8" fill="#6E2C18"/>
  <rect x="96" y="136" width="24" height="4" fill="#6E2C18"/>
  <text x="4" y="120" font-size="9" fill="#666" font-family="monospace" shape-rendering="auto">brick_st</text>
  <rect x="128" y="0" width="128" height="128" fill="#E8CFA0"/>
  <rect x="128" y="0" width="128" height="4" fill="#F4E8C8"/>
  <rect x="128" y="44" width="128" height="4" fill="#D4A040"/>
  <rect x="128" y="48" width="128" height="4" fill="#F4E8C8"/>
  <rect x="128" y="92" width="128" height="4" fill="#D4A040"/>
  <rect x="128" y="96" width="128" height="4" fill="#F4E8C8"/>
  <rect x="156" y="0" width="4" height="4" fill="#D4A040"/>
  <rect x="156" y="12" width="4" height="4" fill="#D4A040"/>
  <rect x="156" y="24" width="4" height="4" fill="#D4A040"/>
  <rect x="156" y="36" width="4" height="4" fill="#D4A040"/>
  <rect x="156" y="48" width="4" height="4" fill="#D4A040"/>
  <rect x="156" y="60" width="4" height="4" fill="#D4A040"/>
  <rect x="156" y="72" width="4" height="4" fill="#D4A040"/>
  <rect x="156" y="84" width="4" height="4" fill="#D4A040"/>
  <rect x="156" y="96" width="4" height="4" fill="#D4A040"/>
  <rect x="156" y="108" width="4" height="4" fill="#D4A040"/>
  <rect x="156" y="120" width="4" height="4" fill="#D4A040"/>
  <rect x="204" y="0" width="4" height="4" fill="#D4A040"/>
  <rect x="204" y="12" width="4" height="4" fill="#D4A040"/>
  <rect x="204" y="24" width="4" height="4" fill="#D4A040"/>
  <rect x="204" y="36" width="4" height="4" fill="#D4A040"/>
  <rect x="204" y="48" width="4" height="4" fill="#D4A040"/>
  <rect x="204" y="60" width="4" height="4" fill="#D4A040"/>
  <rect x="204" y="72" width="4" height="4" fill="#D4A040"/>
  <rect x="204" y="84" width="4" height="4" fill="#D4A040"/>
  <rect x="204" y="96" width="4" height="4" fill="#D4A040"/>
  <rect x="204" y="108" width="4" height="4" fill="#D4A040"/>
  <rect x="204" y="120" width="4" height="4" fill="#D4A040"/>
  <rect x="128" y="0" width="128" height="4" fill="#F4E8C8"/>
  <rect x="128" y="0" width="4" height="128" fill="#F4E8C8"/>
  <text x="132" y="120" font-size="9" fill="#666" font-family="monospace" shape-rendering="auto">render_c</text>
  <rect x="256" y="0" width="128" height="128" fill="#D4A040"/>
  <rect x="256" y="0" width="128" height="4" fill="#E8CFA0"/>
  <rect x="256" y="44" width="128" height="4" fill="#C8A86C"/>
  <rect x="256" y="48" width="128" height="4" fill="#E8CFA0"/>
  <rect x="256" y="92" width="128" height="4" fill="#C8A86C"/>
  <rect x="256" y="96" width="128" height="4" fill="#E8CFA0"/>
  <rect x="284" y="0" width="4" height="4" fill="#C8A86C"/>
  <rect x="284" y="12" width="4" height="4" fill="#C8A86C"/>
  <rect x="284" y="24" width="4" height="4" fill="#C8A86C"/>
  <rect x="284" y="36" width="4" height="4" fill="#C8A86C"/>
  <rect x="284" y="48" width="4" height="4" fill="#C8A86C"/>
  <rect x="284" y="60" width="4" height="4" fill="#C8A86C"/>
  <rect x="284" y="72" width="4" height="4" fill="#C8A86C"/>
  <rect x="284" y="84" width="4" height="4" fill="#C8A86C"/>
  <rect x="284" y="96" width="4" height="4" fill="#C8A86C"/>
  <rect x="284" y="108" width="4" height="4" fill="#C8A86C"/>
  <rect x="284" y="120" width="4" height="4" fill="#C8A86C"/>
  <rect x="332" y="0" width="4" height="4" fill="#C8A86C"/>
  <rect x="332" y="12" width="4" height="4" fill="#C8A86C"/>
  <rect x="332" y="24" width="4" height="4" fill="#C8A86C"/>
  <rect x="332" y="36" width="4" height="4" fill="#C8A86C"/>
  <rect x="332" y="48" width="4" height="4" fill="#C8A86C"/>
  <rect x="332" y="60" width="4" height="4" fill="#C8A86C"/>
  <rect x="332" y="72" width="4" height="4" fill="#C8A86C"/>
  <rect x="332" y="84" width="4" height="4" fill="#C8A86C"/>
  <rect x="332" y="96" width="4" height="4" fill="#C8A86C"/>
  <rect x="332" y="108" width="4" height="4" fill="#C8A86C"/>
  <rect x="332" y="120" width="4" height="4" fill="#C8A86C"/>
  <rect x="256" y="0" width="128" height="4" fill="#E8CFA0"/>
  <rect x="256" y="0" width="4" height="128" fill="#E8CFA0"/>
  <text x="260" y="120" font-size="9" fill="#666" font-family="monospace" shape-rendering="auto">render_o</text>
  <text x="388" y="120" font-size="9" fill="#666" font-family="monospace" shape-rendering="auto">stone_as</text>
  <rect x="512" y="0" width="128" height="128" fill="#606058"/>
  <rect x="516" y="4" width="24" height="8" fill="#888880"/>
  <rect x="516" y="4" width="24" height="4" fill="#B4B0A8"/>
  <rect x="516" y="12" width="28" height="4" fill="#606058"/>
  <rect x="548" y="4" width="24" height="8" fill="#888880"/>
  <rect x="548" y="4" width="24" height="4" fill="#B4B0A8"/>
  <rect x="548" y="12" width="28" height="4" fill="#606058"/>
  <rect x="580" y="4" width="24" height="8" fill="#888880"/>
  <rect x="580" y="4" width="24" height="4" fill="#B4B0A8"/>
  <rect x="580" y="12" width="28" height="4" fill="#606058"/>
  <rect x="612" y="4" width="24" height="8" fill="#888880"/>
  <rect x="612" y="4" width="24" height="4" fill="#B4B0A8"/>
  <rect x="612" y="12" width="28" height="4" fill="#606058"/>
  <rect x="516" y="20" width="24" height="8" fill="#888880"/>
  <rect x="516" y="20" width="24" height="4" fill="#B4B0A8"/>
  <rect x="516" y="28" width="28" height="4" fill="#606058"/>
  <rect x="548" y="20" width="24" height="8" fill="#888880"/>
  <rect x="548" y="20" width="24" height="4" fill="#B4B0A8"/>
  <rect x="548" y="28" width="28" height="4" fill="#606058"/>
  <rect x="580" y="20" width="24" height="8" fill="#888880"/>
  <rect x="580" y="20" width="24" height="4" fill="#B4B0A8"/>
  <rect x="580" y="28" width="28" height="4" fill="#606058"/>
  <rect x="612" y="20" width="24" height="8" fill="#888880"/>
  <rect x="612" y="20" width="24" height="4" fill="#B4B0A8"/>
  <rect x="612" y="28" width="28" height="4" fill="#606058"/>
  <rect x="516" y="36" width="24" height="8" fill="#888880"/>
  <rect x="516" y="36" width="24" height="4" fill="#B4B0A8"/>
  <rect x="516" y="44" width="28" height="4" fill="#606058"/>
  <rect x="548" y="36" width="24" height="8" fill="#888880"/>
  <rect x="548" y="36" width="24" height="4" fill="#B4B0A8"/>
  <rect x="548" y="44" width="28" height="4" fill="#606058"/>
  <rect x="580" y="36" width="24" height="8" fill="#888880"/>
  <rect x="580" y="36" width="24" height="4" fill="#B4B0A8"/>
  <rect x="580" y="44" width="28" height="4" fill="#606058"/>
  <rect x="612" y="36" width="24" height="8" fill="#888880"/>
  <rect x="612" y="36" width="24" height="4" fill="#B4B0A8"/>
  <rect x="612" y="44" width="28" height="4" fill="#606058"/>
  <rect x="516" y="52" width="24" height="8" fill="#888880"/>
  <rect x="516" y="52" width="24" height="4" fill="#B4B0A8"/>
  <rect x="516" y="60" width="28" height="4" fill="#606058"/>
  <rect x="548" y="52" width="24" height="8" fill="#888880"/>
  <rect x="548" y="52" width="24" height="4" fill="#B4B0A8"/>
  <rect x="548" y="60" width="28" height="4" fill="#606058"/>
  <rect x="580" y="52" width="24" height="8" fill="#888880"/>
  <rect x="580" y="52" width="24" height="4" fill="#B4B0A8"/>
  <rect x="580" y="60" width="28" height="4" fill="#606058"/>
  <rect x="612" y="52" width="24" height="8" fill="#888880"/>
  <rect x="612" y="52" width="24" height="4" fill="#B4B0A8"/>
  <rect x="612" y="60" width="28" height="4" fill="#606058"/>
  <rect x="516" y="68" width="24" height="8" fill="#888880"/>
  <rect x="516" y="68" width="24" height="4" fill="#B4B0A8"/>
  <rect x="516" y="76" width="28" height="4" fill="#606058"/>
  <rect x="548" y="68" width="24" height="8" fill="#888880"/>
  <rect x="548" y="68" width="24" height="4" fill="#B4B0A8"/>
  <rect x="548" y="76" width="28" height="4" fill="#606058"/>
  <rect x="580" y="68" width="24" height="8" fill="#888880"/>
  <rect x="580" y="68" width="24" height="4" fill="#B4B0A8"/>
  <rect x="580" y="76" width="28" height="4" fill="#606058"/>
  <rect x="612" y="68" width="24" height="8" fill="#888880"/>
  <rect x="612" y="68" width="24" height="4" fill="#B4B0A8"/>
  <rect x="612" y="76" width="28" height="4" fill="#606058"/>
  <rect x="516" y="84" width="24" height="8" fill="#888880"/>
  <rect x="516" y="84" width="24" height="4" fill="#B4B0A8"/>
  <rect x="516" y="92" width="28" height="4" fill="#606058"/>
  <rect x="548" y="84" width="24" height="8" fill="#888880"/>
  <rect x="548" y="84" width="24" height="4" fill="#B4B0A8"/>
  <rect x="548" y="92" width="28" height="4" fill="#606058"/>
  <rect x="580" y="84" width="24" height="8" fill="#888880"/>
  <rect x="580" y="84" width="24" height="4" fill="#B4B0A8"/>
  <rect x="580" y="92" width="28" height="4" fill="#606058"/>
  <rect x="612" y="84" width="24" height="8" fill="#888880"/>
  <rect x="612" y="84" width="24" height="4" fill="#B4B0A8"/>
  <rect x="612" y="92" width="28" height="4" fill="#606058"/>
  <rect x="516" y="100" width="24" height="8" fill="#888880"/>
  <rect x="516" y="100" width="24" height="4" fill="#B4B0A8"/>
  <rect x="516" y="108" width="28" height="4" fill="#606058"/>
  <rect x="548" y="100" width="24" height="8" fill="#888880"/>
  <rect x="548" y="100" width="24" height="4" fill="#B4B0A8"/>
  <rect x="548" y="108" width="28" height="4" fill="#606058"/>
  <rect x="580" y="100" width="24" height="8" fill="#888880"/>
  <rect x="580" y="100" width="24" height="4" fill="#B4B0A8"/>
  <rect x="580" y="108" width="28" height="4" fill="#606058"/>
  <rect x="612" y="100" width="24" height="8" fill="#888880"/>
  <rect x="612" y="100" width="24" height="4" fill="#B4B0A8"/>
  <rect x="612" y="108" width="28" height="4" fill="#606058"/>
  <rect x="516" y="116" width="24" height="8" fill="#888880"/>
  <rect x="516" y="116" width="24" height="4" fill="#B4B0A8"/>
  <rect x="516" y="124" width="28" height="4" fill="#606058"/>
  <rect x="548" y="116" width="24" height="8" fill="#888880"/>
  <rect x="548" y="116" width="24" height="4" fill="#B4B0A8"/>
  <rect x="548" y="124" width="28" height="4" fill="#606058"/>
  <rect x="580" y="116" width="24" height="8" fill="#888880"/>
  <rect x="580" y="116" width="24" height="4" fill="#B4B0A8"/>
  <rect x="580" y="124" width="28" height="4" fill="#606058"/>
  <rect x="612" y="116" width="24" height="8" fill="#888880"/>
  <rect x="612" y="116" width="24" height="4" fill="#B4B0A8"/>
  <rect x="612" y="124" width="28" height="4" fill="#606058"/>
  <text x="516" y="120" font-size="9" fill="#666" font-family="monospace" shape-rendering="auto">roof_til</text>
  <text x="644" y="120" font-size="9" fill="#666" font-family="monospace" shape-rendering="auto">gable_tr</text>
  <text x="772" y="120" font-size="9" fill="#666" font-family="monospace" shape-rendering="auto">sky_pane</text>
  <rect x="896" y="0" width="128" height="128" fill="#3C8830"/>
  <rect x="896" y="0" width="32" height="16" fill="#606058"/>
  <rect x="896" y="0" width="4" height="4" fill="#686460"/>
  <rect x="936" y="24" width="24" height="12" fill="#606058"/>
  <rect x="936" y="24" width="4" height="4" fill="#686460"/>
  <rect x="976" y="8" width="20" height="16" fill="#606058"/>
  <rect x="976" y="8" width="4" height="4" fill="#686460"/>
  <rect x="904" y="56" width="24" height="12" fill="#606058"/>
  <rect x="904" y="56" width="4" height="4" fill="#686460"/>
  <rect x="952" y="72" width="32" height="16" fill="#606058"/>
  <rect x="952" y="72" width="4" height="4" fill="#686460"/>
  <rect x="992" y="48" width="24" height="12" fill="#606058"/>
  <rect x="992" y="48" width="4" height="4" fill="#686460"/>
  <rect x="912" y="96" width="28" height="16" fill="#606058"/>
  <rect x="912" y="96" width="4" height="4" fill="#686460"/>
  <rect x="960" y="112" width="24" height="12" fill="#606058"/>
  <rect x="960" y="112" width="4" height="4" fill="#686460"/>
  <rect x="1000" y="88" width="20" height="12" fill="#606058"/>
  <rect x="1000" y="88" width="4" height="4" fill="#686460"/>
  <text x="900" y="120" font-size="9" fill="#666" font-family="monospace" shape-rendering="auto">grass_pa</text>
  <rect x="0" y="128" width="128" height="128" fill="#484440"/>
  <rect x="8" y="140" width="4" height="4" fill="#686460"/>
  <rect x="20" y="160" width="4" height="4" fill="#686460"/>
  <rect x="32" y="132" width="4" height="4" fill="#686460"/>
  <rect x="44" y="184" width="4" height="4" fill="#686460"/>
  <rect x="56" y="156" width="4" height="4" fill="#686460"/>
  <rect x="68" y="208" width="4" height="4" fill="#686460"/>
  <rect x="80" y="144" width="4" height="4" fill="#686460"/>
  <rect x="92" y="172" width="4" height="4" fill="#686460"/>
  <rect x="104" y="200" width="4" height="4" fill="#686460"/>
  <rect x="116" y="148" width="4" height="4" fill="#686460"/>
  <rect x="12" y="216" width="4" height="4" fill="#686460"/>
  <rect x="24" y="188" width="4" height="4" fill="#686460"/>
  <rect x="36" y="240" width="4" height="4" fill="#686460"/>
  <rect x="48" y="204" width="4" height="4" fill="#686460"/>
  <rect x="60" y="136" width="4" height="4" fill="#686460"/>
  <rect x="72" y="228" width="4" height="4" fill="#686460"/>
  <rect x="84" y="164" width="4" height="4" fill="#686460"/>
  <rect x="96" y="216" width="4" height="4" fill="#686460"/>
  <rect x="108" y="184" width="4" height="4" fill="#686460"/>
  <rect x="120" y="240" width="4" height="4" fill="#686460"/>
  <rect x="4" y="172" width="4" height="4" fill="#686460"/>
  <rect x="16" y="232" width="4" height="4" fill="#686460"/>
  <rect x="28" y="204" width="4" height="4" fill="#686460"/>
  <rect x="40" y="148" width="4" height="4" fill="#686460"/>
  <rect x="52" y="224" width="4" height="4" fill="#686460"/>
  <rect x="64" y="176" width="4" height="4" fill="#686460"/>
  <rect x="76" y="244" width="4" height="4" fill="#686460"/>
  <rect x="88" y="192" width="4" height="4" fill="#686460"/>
  <rect x="100" y="140" width="4" height="4" fill="#686460"/>
  <rect x="112" y="212" width="4" height="4" fill="#686460"/>
  <rect x="12" y="156" width="4" height="4" fill="#2C2C28"/>
  <rect x="24" y="176" width="4" height="4" fill="#2C2C28"/>
  <rect x="36" y="144" width="4" height="4" fill="#2C2C28"/>
  <rect x="48" y="212" width="4" height="4" fill="#2C2C28"/>
  <rect x="60" y="192" width="4" height="4" fill="#2C2C28"/>
  <rect x="72" y="164" width="4" height="4" fill="#2C2C28"/>
  <rect x="84" y="228" width="4" height="4" fill="#2C2C28"/>
  <rect x="96" y="156" width="4" height="4" fill="#2C2C28"/>
  <rect x="108" y="204" width="4" height="4" fill="#2C2C28"/>
  <rect x="120" y="176" width="4" height="4" fill="#2C2C28"/>
  <rect x="8" y="200" width="4" height="4" fill="#2C2C28"/>
  <rect x="20" y="244" width="4" height="4" fill="#2C2C28"/>
  <rect x="32" y="172" width="4" height="4" fill="#2C2C28"/>
  <rect x="44" y="128" width="4" height="4" fill="#2C2C28"/>
  <rect x="56" y="220" width="4" height="4" fill="#2C2C28"/>
  <rect x="68" y="152" width="4" height="4" fill="#2C2C28"/>
  <rect x="80" y="196" width="4" height="4" fill="#2C2C28"/>
  <rect x="92" y="240" width="4" height="4" fill="#2C2C28"/>
  <rect x="104" y="168" width="4" height="4" fill="#2C2C28"/>
  <rect x="116" y="220" width="4" height="4" fill="#2C2C28"/>
  <text x="4" y="248" font-size="9" fill="#666" font-family="monospace" shape-rendering="auto">asphalt_</text>
  <rect x="128" y="128" width="128" height="128" fill="#B4AE9E"/>
  <rect x="128" y="188" width="128" height="4" fill="#888880"/>
  <rect x="188" y="128" width="4" height="128" fill="#888880"/>
  <rect x="128" y="128" width="56" height="4" fill="#B4B0A8"/>
  <rect x="128" y="128" width="4" height="56" fill="#B4B0A8"/>
  <rect x="128" y="184" width="60" height="4" fill="#888880"/>
  <rect x="184" y="128" width="4" height="60" fill="#888880"/>
  <rect x="192" y="128" width="56" height="4" fill="#B4B0A8"/>
  <rect x="192" y="128" width="4" height="56" fill="#B4B0A8"/>
  <rect x="192" y="184" width="60" height="4" fill="#888880"/>
  <rect x="248" y="128" width="4" height="60" fill="#888880"/>
  <rect x="128" y="192" width="56" height="4" fill="#B4B0A8"/>
  <rect x="128" y="192" width="4" height="56" fill="#B4B0A8"/>
  <rect x="128" y="248" width="60" height="4" fill="#888880"/>
  <rect x="184" y="192" width="4" height="60" fill="#888880"/>
  <rect x="192" y="192" width="56" height="4" fill="#B4B0A8"/>
  <rect x="192" y="192" width="4" height="56" fill="#B4B0A8"/>
  <rect x="192" y="248" width="60" height="4" fill="#888880"/>
  <rect x="248" y="192" width="4" height="60" fill="#888880"/>
  <text x="132" y="248" font-size="9" fill="#666" font-family="monospace" shape-rendering="auto">sidewalk</text>
  <rect x="256" y="128" width="128" height="128" fill="#747068"/>
  <rect x="260" y="132" width="12" height="8" fill="#888880"/>
  <rect x="260" y="132" width="12" height="4" fill="#B4B0A8"/>
  <rect x="260" y="132" width="4" height="8" fill="#B4B0A8"/>
  <rect x="260" y="136" width="12" height="4" fill="#606058"/>
  <rect x="268" y="132" width="4" height="8" fill="#606058"/>
  <rect x="284" y="132" width="12" height="8" fill="#888880"/>
  <rect x="284" y="132" width="12" height="4" fill="#B4B0A8"/>
  <rect x="284" y="132" width="4" height="8" fill="#B4B0A8"/>
  <rect x="284" y="136" width="12" height="4" fill="#606058"/>
  <rect x="292" y="132" width="4" height="8" fill="#606058"/>
  <rect x="308" y="132" width="16" height="8" fill="#888880"/>
  <rect x="308" y="132" width="16" height="4" fill="#B4B0A8"/>
  <rect x="308" y="132" width="4" height="8" fill="#B4B0A8"/>
  <rect x="308" y="136" width="16" height="4" fill="#606058"/>
  <rect x="320" y="132" width="4" height="8" fill="#606058"/>
  <rect x="336" y="132" width="12" height="8" fill="#888880"/>
  <rect x="336" y="132" width="12" height="4" fill="#B4B0A8"/>
  <rect x="336" y="132" width="4" height="8" fill="#B4B0A8"/>
  <rect x="336" y="136" width="12" height="4" fill="#606058"/>
  <rect x="344" y="132" width="4" height="8" fill="#606058"/>
  <rect x="360" y="132" width="20" height="8" fill="#888880"/>
  <rect x="360" y="132" width="20" height="4" fill="#B4B0A8"/>
  <rect x="360" y="132" width="4" height="8" fill="#B4B0A8"/>
  <rect x="360" y="136" width="20" height="4" fill="#606058"/>
  <rect x="376" y="132" width="4" height="8" fill="#606058"/>
  <rect x="260" y="152" width="16" height="8" fill="#888880"/>
  <rect x="260" y="152" width="16" height="4" fill="#B4B0A8"/>
  <rect x="260" y="152" width="4" height="8" fill="#B4B0A8"/>
  <rect x="260" y="156" width="16" height="4" fill="#606058"/>
  <rect x="272" y="152" width="4" height="8" fill="#606058"/>
  <rect x="288" y="152" width="12" height="8" fill="#888880"/>
  <rect x="288" y="152" width="12" height="4" fill="#B4B0A8"/>
  <rect x="288" y="152" width="4" height="8" fill="#B4B0A8"/>
  <rect x="288" y="156" width="12" height="4" fill="#606058"/>
  <rect x="296" y="152" width="4" height="8" fill="#606058"/>
  <rect x="312" y="152" width="16" height="8" fill="#888880"/>
  <rect x="312" y="152" width="16" height="4" fill="#B4B0A8"/>
  <rect x="312" y="152" width="4" height="8" fill="#B4B0A8"/>
  <rect x="312" y="156" width="16" height="4" fill="#606058"/>
  <rect x="324" y="152" width="4" height="8" fill="#606058"/>
  <rect x="340" y="152" width="12" height="8" fill="#888880"/>
  <rect x="340" y="152" width="12" height="4" fill="#B4B0A8"/>
  <rect x="340" y="152" width="4" height="8" fill="#B4B0A8"/>
  <rect x="340" y="156" width="12" height="4" fill="#606058"/>
  <rect x="348" y="152" width="4" height="8" fill="#606058"/>
  <rect x="364" y="152" width="16" height="8" fill="#888880"/>
  <rect x="364" y="152" width="16" height="4" fill="#B4B0A8"/>
  <rect x="364" y="152" width="4" height="8" fill="#B4B0A8"/>
  <rect x="364" y="156" width="16" height="4" fill="#606058"/>
  <rect x="376" y="152" width="4" height="8" fill="#606058"/>
  <rect x="260" y="172" width="12" height="8" fill="#888880"/>
  <rect x="260" y="172" width="12" height="4" fill="#B4B0A8"/>
  <rect x="260" y="172" width="4" height="8" fill="#B4B0A8"/>
  <rect x="260" y="176" width="12" height="4" fill="#606058"/>
  <rect x="268" y="172" width="4" height="8" fill="#606058"/>
  <rect x="284" y="172" width="16" height="8" fill="#888880"/>
  <rect x="284" y="172" width="16" height="4" fill="#B4B0A8"/>
  <rect x="284" y="172" width="4" height="8" fill="#B4B0A8"/>
  <rect x="284" y="176" width="16" height="4" fill="#606058"/>
  <rect x="296" y="172" width="4" height="8" fill="#606058"/>
  <rect x="312" y="172" width="12" height="8" fill="#888880"/>
  <rect x="312" y="172" width="12" height="4" fill="#B4B0A8"/>
  <rect x="312" y="172" width="4" height="8" fill="#B4B0A8"/>
  <rect x="312" y="176" width="12" height="4" fill="#606058"/>
  <rect x="320" y="172" width="4" height="8" fill="#606058"/>
  <rect x="336" y="172" width="16" height="8" fill="#888880"/>
  <rect x="336" y="172" width="16" height="4" fill="#B4B0A8"/>
  <rect x="336" y="172" width="4" height="8" fill="#B4B0A8"/>
  <rect x="336" y="176" width="16" height="4" fill="#606058"/>
  <rect x="348" y="172" width="4" height="8" fill="#606058"/>
  <rect x="364" y="172" width="16" height="8" fill="#888880"/>
  <rect x="364" y="172" width="16" height="4" fill="#B4B0A8"/>
  <rect x="364" y="172" width="4" height="8" fill="#B4B0A8"/>
  <rect x="364" y="176" width="16" height="4" fill="#606058"/>
  <rect x="376" y="172" width="4" height="8" fill="#606058"/>
  <rect x="260" y="192" width="16" height="8" fill="#888880"/>
  <rect x="260" y="192" width="16" height="4" fill="#B4B0A8"/>
  <rect x="260" y="192" width="4" height="8" fill="#B4B0A8"/>
  <rect x="260" y="196" width="16" height="4" fill="#606058"/>
  <rect x="272" y="192" width="4" height="8" fill="#606058"/>
  <rect x="288" y="192" width="12" height="8" fill="#888880"/>
  <rect x="288" y="192" width="12" height="4" fill="#B4B0A8"/>
  <rect x="288" y="192" width="4" height="8" fill="#B4B0A8"/>
  <rect x="288" y="196" width="12" height="4" fill="#606058"/>
  <rect x="296" y="192" width="4" height="8" fill="#606058"/>
  <rect x="312" y="192" width="16" height="8" fill="#888880"/>
  <rect x="312" y="192" width="16" height="4" fill="#B4B0A8"/>
  <rect x="312" y="192" width="4" height="8" fill="#B4B0A8"/>
  <rect x="312" y="196" width="16" height="4" fill="#606058"/>
  <rect x="324" y="192" width="4" height="8" fill="#606058"/>
  <rect x="340" y="192" width="12" height="8" fill="#888880"/>
  <rect x="340" y="192" width="12" height="4" fill="#B4B0A8"/>
  <rect x="340" y="192" width="4" height="8" fill="#B4B0A8"/>
  <rect x="340" y="196" width="12" height="4" fill="#606058"/>
  <rect x="348" y="192" width="4" height="8" fill="#606058"/>
  <rect x="364" y="192" width="16" height="8" fill="#888880"/>
  <rect x="364" y="192" width="16" height="4" fill="#B4B0A8"/>
  <rect x="364" y="192" width="4" height="8" fill="#B4B0A8"/>
  <rect x="364" y="196" width="16" height="4" fill="#606058"/>
  <rect x="376" y="192" width="4" height="8" fill="#606058"/>
  <rect x="260" y="212" width="12" height="8" fill="#888880"/>
  <rect x="260" y="212" width="12" height="4" fill="#B4B0A8"/>
  <rect x="260" y="212" width="4" height="8" fill="#B4B0A8"/>
  <rect x="260" y="216" width="12" height="4" fill="#606058"/>
  <rect x="268" y="212" width="4" height="8" fill="#606058"/>
  <rect x="284" y="212" width="16" height="8" fill="#888880"/>
  <rect x="284" y="212" width="16" height="4" fill="#B4B0A8"/>
  <rect x="284" y="212" width="4" height="8" fill="#B4B0A8"/>
  <rect x="284" y="216" width="16" height="4" fill="#606058"/>
  <rect x="296" y="212" width="4" height="8" fill="#606058"/>
  <rect x="312" y="212" width="12" height="8" fill="#888880"/>
  <rect x="312" y="212" width="12" height="4" fill="#B4B0A8"/>
  <rect x="312" y="212" width="4" height="8" fill="#B4B0A8"/>
  <rect x="312" y="216" width="12" height="4" fill="#606058"/>
  <rect x="320" y="212" width="4" height="8" fill="#606058"/>
  <rect x="336" y="212" width="16" height="8" fill="#888880"/>
  <rect x="336" y="212" width="16" height="4" fill="#B4B0A8"/>
  <rect x="336" y="212" width="4" height="8" fill="#B4B0A8"/>
  <rect x="336" y="216" width="16" height="4" fill="#606058"/>
  <rect x="348" y="212" width="4" height="8" fill="#606058"/>
  <rect x="364" y="212" width="16" height="8" fill="#888880"/>
  <rect x="364" y="212" width="16" height="4" fill="#B4B0A8"/>
  <rect x="364" y="212" width="4" height="8" fill="#B4B0A8"/>
  <rect x="364" y="216" width="16" height="4" fill="#606058"/>
  <rect x="376" y="212" width="4" height="8" fill="#606058"/>
  <rect x="260" y="232" width="16" height="8" fill="#888880"/>
  <rect x="260" y="232" width="16" height="4" fill="#B4B0A8"/>
  <rect x="260" y="232" width="4" height="8" fill="#B4B0A8"/>
  <rect x="260" y="236" width="16" height="4" fill="#606058"/>
  <rect x="272" y="232" width="4" height="8" fill="#606058"/>
  <rect x="288" y="232" width="12" height="8" fill="#888880"/>
  <rect x="288" y="232" width="12" height="4" fill="#B4B0A8"/>
  <rect x="288" y="232" width="4" height="8" fill="#B4B0A8"/>
  <rect x="288" y="236" width="12" height="4" fill="#606058"/>
  <rect x="296" y="232" width="4" height="8" fill="#606058"/>
  <rect x="312" y="232" width="16" height="8" fill="#888880"/>
  <rect x="312" y="232" width="16" height="4" fill="#B4B0A8"/>
  <rect x="312" y="232" width="4" height="8" fill="#B4B0A8"/>
  <rect x="312" y="236" width="16" height="4" fill="#606058"/>
  <rect x="324" y="232" width="4" height="8" fill="#606058"/>
  <rect x="340" y="232" width="12" height="8" fill="#888880"/>
  <rect x="340" y="232" width="12" height="4" fill="#B4B0A8"/>
  <rect x="340" y="232" width="4" height="8" fill="#B4B0A8"/>
  <rect x="340" y="236" width="12" height="4" fill="#606058"/>
  <rect x="348" y="232" width="4" height="8" fill="#606058"/>
  <rect x="364" y="232" width="16" height="8" fill="#888880"/>
  <rect x="364" y="232" width="16" height="4" fill="#B4B0A8"/>
  <rect x="364" y="232" width="4" height="8" fill="#B4B0A8"/>
  <rect x="364" y="236" width="16" height="4" fill="#606058"/>
  <rect x="376" y="232" width="4" height="8" fill="#606058"/>
  <text x="260" y="248" font-size="9" fill="#666" font-family="monospace" shape-rendering="auto">cobblest</text>
  <rect x="384" y="128" width="128" height="128" fill="#545048"/>
  <rect x="396" y="144" width="4" height="4" fill="#606058"/>
  <rect x="420" y="176" width="4" height="4" fill="#606058"/>
  <rect x="444" y="152" width="4" height="4" fill="#606058"/>
  <rect x="468" y="200" width="4" height="4" fill="#606058"/>
  <rect x="492" y="164" width="4" height="4" fill="#606058"/>
  <rect x="404" y="216" width="4" height="4" fill="#606058"/>
  <rect x="428" y="240" width="4" height="4" fill="#606058"/>
  <rect x="452" y="140" width="4" height="4" fill="#606058"/>
  <rect x="476" y="188" width="4" height="4" fill="#606058"/>
  <rect x="500" y="228" width="4" height="4" fill="#606058"/>
  <rect x="416" y="128" width="8" height="128" fill="#9090A0"/>
  <rect x="416" y="128" width="4" height="128" fill="#B4B0A8"/>
  <rect x="420" y="128" width="4" height="128" fill="#606058"/>
  <rect x="472" y="128" width="8" height="128" fill="#9090A0"/>
  <rect x="472" y="128" width="4" height="128" fill="#B4B0A8"/>
  <rect x="476" y="128" width="4" height="128" fill="#606058"/>
  <rect x="408" y="128" width="80" height="8" fill="#606058"/>
  <rect x="408" y="160" width="80" height="8" fill="#606058"/>
  <rect x="408" y="192" width="80" height="8" fill="#606058"/>
  <rect x="408" y="224" width="80" height="8" fill="#606058"/>
  <text x="388" y="248" font-size="9" fill="#666" font-family="monospace" shape-rendering="auto">tram_tra</text>
  <rect x="512" y="128" width="128" height="128" fill="#484440"/>
  <rect x="512" y="128" width="128" height="16" fill="#D8D4CC"/>
  <rect x="512" y="160" width="128" height="16" fill="#D8D4CC"/>
  <rect x="512" y="192" width="128" height="16" fill="#D8D4CC"/>
  <rect x="512" y="224" width="128" height="16" fill="#D8D4CC"/>
  <text x="516" y="248" font-size="9" fill="#666" font-family="monospace" shape-rendering="auto">zebra_cr</text>
  <rect x="640" y="128" width="128" height="128" fill="#484440"/>
  <rect x="700" y="128" width="8" height="48" fill="#DDB800"/>
  <rect x="700" y="208" width="8" height="48" fill="#DDB800"/>
  <text x="644" y="248" font-size="9" fill="#666" font-family="monospace" shape-rendering="auto">lane_mar</text>
  <rect x="768" y="128" width="128" height="128" fill="#B4AE9E"/>
  <rect x="768" y="128" width="128" height="16" fill="#1C5898"/>
  <rect x="832" y="144" width="4" height="112" fill="#888880"/>
  <rect x="768" y="200" width="128" height="4" fill="#888880"/>
  <rect x="768" y="144" width="128" height="4" fill="#B4B0A8"/>
  <text x="772" y="248" font-size="9" fill="#666" font-family="monospace" shape-rendering="auto">tram_sto</text>
  <text x="900" y="248" font-size="9" fill="#666" font-family="monospace" shape-rendering="auto">asphalt_</text>
  <text x="4" y="120" font-size="9" fill="#666" font-family="monospace" shape-rendering="auto">brick_st</text>
  <text x="132" y="120" font-size="9" fill="#666" font-family="monospace" shape-rendering="auto">render_c</text>
  <text x="260" y="120" font-size="9" fill="#666" font-family="monospace" shape-rendering="auto">render_o</text>
  <text x="388" y="120" font-size="9" fill="#666" font-family="monospace" shape-rendering="auto">stone_as</text>
  <text x="516" y="120" font-size="9" fill="#666" font-family="monospace" shape-rendering="auto">roof_til</text>
  <text x="644" y="120" font-size="9" fill="#666" font-family="monospace" shape-rendering="auto">gable_tr</text>
  <text x="772" y="120" font-size="9" fill="#666" font-family="monospace" shape-rendering="auto">sky_pane</text>
  <text x="900" y="120" font-size="9" fill="#666" font-family="monospace" shape-rendering="auto">grass_pa</text>
  <text x="4" y="248" font-size="9" fill="#666" font-family="monospace" shape-rendering="auto">asphalt_</text>
  <text x="132" y="248" font-size="9" fill="#666" font-family="monospace" shape-rendering="auto">sidewalk</text>
  <text x="260" y="248" font-size="9" fill="#666" font-family="monospace" shape-rendering="auto">cobblest</text>
  <text x="388" y="248" font-size="9" fill="#666" font-family="monospace" shape-rendering="auto">tram_tra</text>
  <text x="516" y="248" font-size="9" fill="#666" font-family="monospace" shape-rendering="auto">zebra_cr</text>
  <text x="644" y="248" font-size="9" fill="#666" font-family="monospace" shape-rendering="auto">lane_mar</text>
  <text x="772" y="248" font-size="9" fill="#666" font-family="monospace" shape-rendering="auto">tram_sto</text>
  <text x="900" y="248" font-size="9" fill="#666" font-family="monospace" shape-rendering="auto">asphalt_</text>
</svg>
