<svg xmlns="http://www.w3.org/2000/svg" viewBox="0 0 768 384" width="768" height="384" shape-rendering="crispEdges">
  <!-- El Osri — District mayor 42, green blazer + tablet -->
  <!-- SCALE: 4×  |  1 game px = 4 SVG px  |  PALETTE: Turnhoutsebaan 32-color -->
  <rect x="72" y="16" width="104" height="80" fill="#0C0C18"/>
  <rect x="64" y="32" width="16" height="80" fill="#0C0C18"/>
  <rect x="176" y="32" width="16" height="80" fill="#0C0C18"/>
  <rect x="72" y="96" width="104" height="32" fill="#0C0C18"/>
  <rect x="80" y="16" width="32" height="12" fill="#606058"/>
  <rect x="72" y="28" width="12" height="24" fill="#606058"/>
  <rect x="72" y="88" width="32" height="12" fill="#141210"/>
  <rect x="152" y="88" width="24" height="12" fill="#141210"/>
  <rect x="64" y="56" width="16" height="40" fill="#141210"/>
  <rect x="88" y="32" width="72" height="72" fill="#C8A86C"/>
  <rect x="88" y="32" width="32" height="8" fill="#E8CFA0"/>
  <rect x="144" y="48" width="16" height="32" fill="#D4A040"/>
  <rect x="88" y="96" width="72" height="8" fill="#D4A040"/>
  <rect x="96" y="48" width="16" height="8" fill="#141210"/>
  <rect x="128" y="48" width="24" height="8" fill="#141210"/>
  <rect x="128" y="56" width="32" height="4" fill="#141210"/>
  <rect x="128" y="60" width="32" height="16" fill="#F0EEE8"/>
  <rect x="136" y="60" width="16" height="16" fill="#606058"/>
  <rect x="140" y="64" width="8" height="8" fill="#141210"/>
  <rect x="128" y="72" width="32" height="4" fill="#141210"/>
  <rect x="96" y="56" width="8" height="4" fill="#141210"/>
  <rect x="96" y="60" width="8" height="12" fill="#D4A040"/>
  <rect x="116" y="72" width="16" height="16" fill="#D4A040"/>
  <rect x="112" y="80" width="24" height="8" fill="#D4A040"/>
  <rect x="112" y="72" width="8" height="8" fill="#E8CFA0"/>
  <rect x="100" y="88" width="32" height="8" fill="#C8A86C"/>
  <rect x="104" y="88" width="24" height="4" fill="#D4A040"/>
  <rect x="100" y="96" width="32" height="8" fill="#C8A86C"/>
  <rect x="104" y="96" width="16" height="4" fill="#E8CFA0"/>
  <rect x="80" y="80" width="8" height="16" fill="#FFD700"/>
  <rect x="160" y="80" width="8" height="16" fill="#FFD700"/>
  <rect x="80" y="88" width="8" height="8" fill="#D4A040"/>
  <rect x="56" y="128" width="136" height="152" fill="#3C8830"/>
  <rect x="48" y="128" width="8" height="152" fill="#0C0C18"/>
  <rect x="192" y="128" width="8" height="152" fill="#0C0C18"/>
  <rect x="56" y="128" width="32" height="8" fill="#D8D4CC"/>
  <rect x="56" y="136" width="8" height="64" fill="#D8D4CC"/>
  <rect x="184" y="136" width="8" height="128" fill="#0C0C18"/>
  <rect x="104" y="128" width="32" height="32" fill="#0C0C18"/>
  <rect x="104" y="128" width="16" height="32" fill="#3C8830"/>
  <rect x="128" y="128" width="16" height="32" fill="#3C8830"/>
  <rect x="112" y="144" width="24" height="64" fill="#F0EEE8"/>
  <rect x="120" y="144" width="8" height="8" fill="#D8D4CC"/>
  <rect x="152" y="144" width="32" height="8" fill="#D8D4CC"/>
  <rect x="152" y="144" width="32" height="4" fill="#606058"/>
  <rect x="112" y="176" width="8" height="8" fill="#D8D4CC"/>
  <rect x="112" y="176" width="4" height="4" fill="#FFD700"/>
  <rect x="112" y="216" width="8" height="8" fill="#D8D4CC"/>
  <rect x="112" y="216" width="4" height="4" fill="#FFD700"/>
  <rect x="40" y="136" width="16" height="112" fill="#3C8830"/>
  <rect x="32" y="136" width="8" height="112" fill="#0C0C18"/>
  <rect x="40" y="136" width="8" height="8" fill="#D8D4CC"/>
  <rect x="192" y="136" width="16" height="112" fill="#3C8830"/>
  <rect x="208" y="136" width="8" height="112" fill="#0C0C18"/>
  <rect x="40" y="240" width="16" height="8" fill="#F0EEE8"/>
  <rect x="192" y="240" width="16" height="8" fill="#F0EEE8"/>
  <rect x="24" y="192" width="24" height="48" fill="#606058"/>
  <rect x="24" y="192" width="24" height="40" fill="#A0C8E4"/>
  <rect x="28" y="196" width="16" height="16" fill="#C8DFF2"/>
  <rect x="36" y="228" width="8" height="8" fill="#FFD700"/>
  <rect x="32" y="240" width="16" height="24" fill="#C8A86C"/>
  <rect x="192" y="232" width="16" height="24" fill="#C8A86C"/>
  <rect x="72" y="280" width="48" height="88" fill="#606058"/>
  <rect x="72" y="280" width="8" height="88" fill="#888880"/>
  <rect x="112" y="280" width="8" height="88" fill="#0C0C18"/>
  <rect x="120" y="280" width="48" height="88" fill="#606058"/>
  <rect x="160" y="280" width="8" height="88" fill="#0C0C18"/>
  <rect x="64" y="360" width="56" height="16" fill="#0C0C18"/>
  <rect x="72" y="360" width="24" height="8" fill="#606058"/>
  <rect x="88" y="372" width="16" height="8" fill="#0C0C18"/>
  <rect x="120" y="360" width="56" height="16" fill="#0C0C18"/>
  <rect x="128" y="360" width="24" height="8" fill="#606058"/>
  <rect x="144" y="372" width="16" height="8" fill="#0C0C18"/>
  <rect x="328" y="16" width="104" height="80" fill="#0C0C18"/>
  <rect x="320" y="32" width="16" height="80" fill="#0C0C18"/>
  <rect x="432" y="32" width="16" height="80" fill="#0C0C18"/>
  <rect x="328" y="96" width="104" height="32" fill="#0C0C18"/>
  <rect x="336" y="16" width="32" height="12" fill="#606058"/>
  <rect x="328" y="28" width="12" height="24" fill="#606058"/>
  <rect x="328" y="88" width="32" height="12" fill="#141210"/>
  <rect x="408" y="88" width="24" height="12" fill="#141210"/>
  <rect x="320" y="56" width="16" height="40" fill="#141210"/>
  <rect x="344" y="32" width="72" height="72" fill="#C8A86C"/>
  <rect x="344" y="32" width="32" height="8" fill="#E8CFA0"/>
  <rect x="400" y="48" width="16" height="32" fill="#D4A040"/>
  <rect x="344" y="96" width="72" height="8" fill="#D4A040"/>
  <rect x="352" y="48" width="16" height="8" fill="#141210"/>
  <rect x="384" y="48" width="24" height="8" fill="#141210"/>
  <rect x="384" y="56" width="32" height="4" fill="#141210"/>
  <rect x="384" y="60" width="32" height="16" fill="#F0EEE8"/>
  <rect x="392" y="60" width="16" height="16" fill="#606058"/>
  <rect x="396" y="64" width="8" height="8" fill="#141210"/>
  <rect x="384" y="72" width="32" height="4" fill="#141210"/>
  <rect x="352" y="56" width="8" height="4" fill="#141210"/>
  <rect x="352" y="60" width="8" height="12" fill="#D4A040"/>
  <rect x="372" y="72" width="16" height="16" fill="#D4A040"/>
  <rect x="368" y="80" width="24" height="8" fill="#D4A040"/>
  <rect x="368" y="72" width="8" height="8" fill="#E8CFA0"/>
  <rect x="356" y="88" width="32" height="8" fill="#C8A86C"/>
  <rect x="360" y="88" width="24" height="4" fill="#D4A040"/>
  <rect x="356" y="96" width="32" height="8" fill="#C8A86C"/>
  <rect x="360" y="96" width="16" height="4" fill="#E8CFA0"/>
  <rect x="336" y="80" width="8" height="16" fill="#FFD700"/>
  <rect x="416" y="80" width="8" height="16" fill="#FFD700"/>
  <rect x="336" y="88" width="8" height="8" fill="#D4A040"/>
  <rect x="312" y="128" width="136" height="152" fill="#3C8830"/>
  <rect x="304" y="128" width="8" height="152" fill="#0C0C18"/>
  <rect x="448" y="128" width="8" height="152" fill="#0C0C18"/>
  <rect x="312" y="128" width="32" height="8" fill="#D8D4CC"/>
  <rect x="312" y="136" width="8" height="64" fill="#D8D4CC"/>
  <rect x="440" y="136" width="8" height="128" fill="#0C0C18"/>
  <rect x="360" y="128" width="32" height="32" fill="#0C0C18"/>
  <rect x="360" y="128" width="16" height="32" fill="#3C8830"/>
  <rect x="384" y="128" width="16" height="32" fill="#3C8830"/>
  <rect x="368" y="144" width="24" height="64" fill="#F0EEE8"/>
  <rect x="376" y="144" width="8" height="8" fill="#D8D4CC"/>
  <rect x="408" y="144" width="32" height="8" fill="#D8D4CC"/>
  <rect x="408" y="144" width="32" height="4" fill="#606058"/>
  <rect x="368" y="176" width="8" height="8" fill="#D8D4CC"/>
  <rect x="368" y="176" width="4" height="4" fill="#FFD700"/>
  <rect x="368" y="216" width="8" height="8" fill="#D8D4CC"/>
  <rect x="368" y="216" width="4" height="4" fill="#FFD700"/>
  <rect x="296" y="136" width="16" height="112" fill="#3C8830"/>
  <rect x="288" y="136" width="8" height="112" fill="#0C0C18"/>
  <rect x="296" y="136" width="8" height="8" fill="#D8D4CC"/>
  <rect x="448" y="136" width="16" height="112" fill="#3C8830"/>
  <rect x="464" y="136" width="8" height="112" fill="#0C0C18"/>
  <rect x="296" y="240" width="16" height="8" fill="#F0EEE8"/>
  <rect x="448" y="240" width="16" height="8" fill="#F0EEE8"/>
  <rect x="280" y="192" width="24" height="48" fill="#606058"/>
  <rect x="280" y="192" width="24" height="40" fill="#A0C8E4"/>
  <rect x="284" y="196" width="16" height="16" fill="#C8DFF2"/>
  <rect x="292" y="228" width="8" height="8" fill="#FFD700"/>
  <rect x="288" y="240" width="16" height="24" fill="#C8A86C"/>
  <rect x="448" y="200" width="16" height="24" fill="#C8A86C"/>
  <rect x="328" y="280" width="48" height="88" fill="#606058"/>
  <rect x="328" y="280" width="8" height="88" fill="#888880"/>
  <rect x="368" y="280" width="8" height="88" fill="#0C0C18"/>
  <rect x="376" y="280" width="48" height="88" fill="#606058"/>
  <rect x="416" y="280" width="8" height="88" fill="#0C0C18"/>
  <rect x="320" y="352" width="56" height="16" fill="#0C0C18"/>
  <rect x="328" y="352" width="24" height="8" fill="#606058"/>
  <rect x="344" y="364" width="16" height="8" fill="#0C0C18"/>
  <rect x="376" y="360" width="56" height="16" fill="#0C0C18"/>
  <rect x="384" y="360" width="24" height="8" fill="#606058"/>
  <rect x="400" y="372" width="16" height="8" fill="#0C0C18"/>
  <rect x="584" y="16" width="104" height="80" fill="#0C0C18"/>
  <rect x="576" y="32" width="16" height="80" fill="#0C0C18"/>
  <rect x="688" y="32" width="16" height="80" fill="#0C0C18"/>
  <rect x="584" y="96" width="104" height="32" fill="#0C0C18"/>
  <rect x="592" y="16" width="32" height="12" fill="#606058"/>
  <rect x="584" y="28" width="12" height="24" fill="#606058"/>
  <rect x="584" y="88" width="32" height="12" fill="#141210"/>
  <rect x="664" y="88" width="24" height="12" fill="#141210"/>
  <rect x="576" y="56" width="16" height="40" fill="#141210"/>
  <rect x="600" y="32" width="72" height="72" fill="#C8A86C"/>
  <rect x="600" y="32" width="32" height="8" fill="#E8CFA0"/>
  <rect x="656" y="48" width="16" height="32" fill="#D4A040"/>
  <rect x="600" y="96" width="72" height="8" fill="#D4A040"/>
  <rect x="608" y="48" width="16" height="8" fill="#141210"/>
  <rect x="640" y="48" width="24" height="8" fill="#141210"/>
  <rect x="640" y="56" width="32" height="4" fill="#141210"/>
  <rect x="640" y="60" width="32" height="16" fill="#F0EEE8"/>
  <rect x="648" y="60" width="16" height="16" fill="#606058"/>
  <rect x="652" y="64" width="8" height="8" fill="#141210"/>
  <rect x="640" y="72" width="32" height="4" fill="#141210"/>
  <rect x="608" y="56" width="8" height="4" fill="#141210"/>
  <rect x="608" y="60" width="8" height="12" fill="#D4A040"/>
  <rect x="628" y="72" width="16" height="16" fill="#D4A040"/>
  <rect x="624" y="80" width="24" height="8" fill="#D4A040"/>
  <rect x="624" y="72" width="8" height="8" fill="#E8CFA0"/>
  <rect x="612" y="88" width="32" height="8" fill="#C8A86C"/>
  <rect x="616" y="88" width="24" height="4" fill="#D4A040"/>
  <rect x="612" y="96" width="32" height="8" fill="#C8A86C"/>
  <rect x="616" y="96" width="16" height="4" fill="#E8CFA0"/>
  <rect x="592" y="80" width="8" height="16" fill="#FFD700"/>
  <rect x="672" y="80" width="8" height="16" fill="#FFD700"/>
  <rect x="592" y="88" width="8" height="8" fill="#D4A040"/>
  <rect x="568" y="128" width="136" height="152" fill="#3C8830"/>
  <rect x="560" y="128" width="8" height="152" fill="#0C0C18"/>
  <rect x="704" y="128" width="8" height="152" fill="#0C0C18"/>
  <rect x="568" y="128" width="32" height="8" fill="#D8D4CC"/>
  <rect x="568" y="136" width="8" height="64" fill="#D8D4CC"/>
  <rect x="696" y="136" width="8" height="128" fill="#0C0C18"/>
  <rect x="616" y="128" width="32" height="32" fill="#0C0C18"/>
  <rect x="616" y="128" width="16" height="32" fill="#3C8830"/>
  <rect x="640" y="128" width="16" height="32" fill="#3C8830"/>
  <rect x="624" y="144" width="24" height="64" fill="#F0EEE8"/>
  <rect x="632" y="144" width="8" height="8" fill="#D8D4CC"/>
  <rect x="664" y="144" width="32" height="8" fill="#D8D4CC"/>
  <rect x="664" y="144" width="32" height="4" fill="#606058"/>
  <rect x="624" y="176" width="8" height="8" fill="#D8D4CC"/>
  <rect x="624" y="176" width="4" height="4" fill="#FFD700"/>
  <rect x="624" y="216" width="8" height="8" fill="#D8D4CC"/>
  <rect x="624" y="216" width="4" height="4" fill="#FFD700"/>
  <rect x="552" y="136" width="16" height="112" fill="#3C8830"/>
  <rect x="544" y="136" width="8" height="112" fill="#0C0C18"/>
  <rect x="552" y="136" width="8" height="8" fill="#D8D4CC"/>
  <rect x="704" y="136" width="16" height="112" fill="#3C8830"/>
  <rect x="720" y="136" width="8" height="112" fill="#0C0C18"/>
  <rect x="552" y="240" width="16" height="8" fill="#F0EEE8"/>
  <rect x="704" y="240" width="16" height="8" fill="#F0EEE8"/>
  <rect x="536" y="192" width="24" height="48" fill="#606058"/>
  <rect x="536" y="192" width="24" height="40" fill="#A0C8E4"/>
  <rect x="540" y="196" width="16" height="16" fill="#C8DFF2"/>
  <rect x="548" y="228" width="8" height="8" fill="#FFD700"/>
  <rect x="544" y="240" width="16" height="24" fill="#C8A86C"/>
  <rect x="704" y="200" width="16" height="24" fill="#C8A86C"/>
  <rect x="584" y="280" width="48" height="88" fill="#606058"/>
  <rect x="584" y="280" width="8" height="88" fill="#888880"/>
  <rect x="624" y="280" width="8" height="88" fill="#0C0C18"/>
  <rect x="632" y="280" width="48" height="88" fill="#606058"/>
  <rect x="672" y="280" width="8" height="88" fill="#0C0C18"/>
  <rect x="576" y="360" width="56" height="16" fill="#0C0C18"/>
  <rect x="584" y="360" width="24" height="8" fill="#606058"/>
  <rect x="600" y="372" width="16" height="8" fill="#0C0C18"/>
  <rect x="632" y="368" width="56" height="16" fill="#0C0C18"/>
  <rect x="640" y="368" width="24" height="8" fill="#606058"/>
  <rect x="656" y="380" width="16" height="8" fill="#0C0C18"/>
</svg>
