<svg xmlns="http://www.w3.org/2000/svg" viewBox="0 0 768 384" width="768" height="384" shape-rendering="crispEdges">
  <!-- Yusuf — Delivery rider 30, orange vest + helmet -->
  <!-- SCALE: 4×  |  1 game px = 4 SVG px  |  PALETTE: Turnhoutsebaan 32-color -->
  <rect x="80" y="8" width="88" height="48" fill="#606058"/>
  <rect x="72" y="24" width="16" height="32" fill="#606058"/>
  <rect x="168" y="24" width="16" height="32" fill="#606058"/>
  <rect x="80" y="8" width="40" height="8" fill="#B4B0A8"/>
  <rect x="80" y="16" width="8" height="16" fill="#B4B0A8"/>
  <rect x="112" y="8" width="16" height="8" fill="#888880"/>
  <rect x="80" y="52" width="88" height="8" fill="#606058"/>
  <rect x="72" y="60" width="104" height="16" fill="#A0C8E4"/>
  <rect x="72" y="60" width="32" height="8" fill="#C8DFF2"/>
  <rect x="104" y="16" width="8" height="16" fill="#0C0C18"/>
  <rect x="120" y="16" width="8" height="16" fill="#0C0C18"/>
  <rect x="136" y="16" width="8" height="16" fill="#0C0C18"/>
  <rect x="152" y="16" width="8" height="16" fill="#0C0C18"/>
  <rect x="88" y="76" width="72" height="32" fill="#C8A86C"/>
  <rect x="88" y="76" width="32" height="8" fill="#E8CFA0"/>
  <rect x="144" y="80" width="16" height="20" fill="#D4A040"/>
  <rect x="136" y="84" width="8" height="8" fill="#141210"/>
  <rect x="128" y="80" width="16" height="4" fill="#606058"/>
  <rect x="88" y="108" width="72" height="12" fill="#C8A86C"/>
  <rect x="80" y="104" width="8" height="16" fill="#888880"/>
  <rect x="160" y="104" width="8" height="16" fill="#888880"/>
  <rect x="56" y="120" width="136" height="152" fill="#D4A040"/>
  <rect x="48" y="120" width="8" height="152" fill="#C8A86C"/>
  <rect x="192" y="120" width="8" height="152" fill="#C8A86C"/>
  <rect x="56" y="120" width="32" height="8" fill="#F4E8C8"/>
  <rect x="56" y="128" width="8" height="72" fill="#F4E8C8"/>
  <rect x="56" y="168" width="136" height="8" fill="#F0EEE8"/>
  <rect x="56" y="216" width="136" height="8" fill="#F0EEE8"/>
  <rect x="56" y="168" width="136" height="4" fill="#D8D4CC"/>
  <rect x="120" y="144" width="32" height="24" fill="#C8A86C"/>
  <rect x="128" y="148" width="16" height="16" fill="#D4A040"/>
  <rect x="32" y="120" width="24" height="120" fill="#606058"/>
  <rect x="32" y="120" width="24" height="8" fill="#888880"/>
  <rect x="32" y="120" width="8" height="112" fill="#888880"/>
  <rect x="52" y="120" width="4" height="112" fill="#606058"/>
  <rect x="40" y="128" width="16" height="88" fill="#D4A040"/>
  <rect x="32" y="128" width="8" height="88" fill="#C8A86C"/>
  <rect x="192" y="128" width="16" height="88" fill="#D4A040"/>
  <rect x="208" y="128" width="8" height="88" fill="#C8A86C"/>
  <rect x="32" y="224" width="16" height="32" fill="#141210"/>
  <rect x="36" y="224" width="8" height="8" fill="#606058"/>
  <rect x="192" y="224" width="16" height="32" fill="#141210"/>
  <rect x="196" y="224" width="8" height="8" fill="#606058"/>
  <rect x="72" y="272" width="48" height="80" fill="#606058"/>
  <rect x="72" y="272" width="8" height="80" fill="#888880"/>
  <rect x="112" y="272" width="8" height="80" fill="#0C0C18"/>
  <rect x="120" y="272" width="48" height="80" fill="#606058"/>
  <rect x="160" y="272" width="8" height="80" fill="#0C0C18"/>
  <rect x="64" y="344" width="56" height="32" fill="#141210"/>
  <rect x="64" y="344" width="24" height="8" fill="#888880"/>
  <rect x="64" y="368" width="56" height="8" fill="#606058"/>
  <rect x="120" y="344" width="56" height="32" fill="#141210"/>
  <rect x="120" y="344" width="24" height="8" fill="#888880"/>
  <rect x="120" y="368" width="56" height="8" fill="#606058"/>
  <rect x="336" y="8" width="88" height="48" fill="#606058"/>
  <rect x="328" y="24" width="16" height="32" fill="#606058"/>
  <rect x="424" y="24" width="16" height="32" fill="#606058"/>
  <rect x="336" y="8" width="40" height="8" fill="#B4B0A8"/>
  <rect x="336" y="16" width="8" height="16" fill="#B4B0A8"/>
  <rect x="368" y="8" width="16" height="8" fill="#888880"/>
  <rect x="336" y="52" width="88" height="8" fill="#606058"/>
  <rect x="328" y="60" width="104" height="16" fill="#A0C8E4"/>
  <rect x="328" y="60" width="32" height="8" fill="#C8DFF2"/>
  <rect x="360" y="16" width="8" height="16" fill="#0C0C18"/>
  <rect x="376" y="16" width="8" height="16" fill="#0C0C18"/>
  <rect x="392" y="16" width="8" height="16" fill="#0C0C18"/>
  <rect x="408" y="16" width="8" height="16" fill="#0C0C18"/>
  <rect x="344" y="76" width="72" height="32" fill="#C8A86C"/>
  <rect x="344" y="76" width="32" height="8" fill="#E8CFA0"/>
  <rect x="400" y="80" width="16" height="20" fill="#D4A040"/>
  <rect x="392" y="84" width="8" height="8" fill="#141210"/>
  <rect x="384" y="80" width="16" height="4" fill="#606058"/>
  <rect x="344" y="108" width="72" height="12" fill="#C8A86C"/>
  <rect x="336" y="104" width="8" height="16" fill="#888880"/>
  <rect x="416" y="104" width="8" height="16" fill="#888880"/>
  <rect x="312" y="120" width="136" height="152" fill="#D4A040"/>
  <rect x="304" y="120" width="8" height="152" fill="#C8A86C"/>
  <rect x="448" y="120" width="8" height="152" fill="#C8A86C"/>
  <rect x="312" y="120" width="32" height="8" fill="#F4E8C8"/>
  <rect x="312" y="128" width="8" height="72" fill="#F4E8C8"/>
  <rect x="312" y="168" width="136" height="8" fill="#F0EEE8"/>
  <rect x="312" y="216" width="136" height="8" fill="#F0EEE8"/>
  <rect x="312" y="168" width="136" height="4" fill="#D8D4CC"/>
  <rect x="376" y="144" width="32" height="24" fill="#C8A86C"/>
  <rect x="384" y="148" width="16" height="16" fill="#D4A040"/>
  <rect x="288" y="120" width="24" height="120" fill="#606058"/>
  <rect x="288" y="120" width="24" height="8" fill="#888880"/>
  <rect x="288" y="120" width="8" height="112" fill="#888880"/>
  <rect x="308" y="120" width="4" height="112" fill="#606058"/>
  <rect x="296" y="128" width="16" height="88" fill="#D4A040"/>
  <rect x="288" y="128" width="8" height="88" fill="#C8A86C"/>
  <rect x="448" y="128" width="16" height="88" fill="#D4A040"/>
  <rect x="464" y="128" width="8" height="88" fill="#C8A86C"/>
  <rect x="288" y="224" width="16" height="32" fill="#141210"/>
  <rect x="292" y="224" width="8" height="8" fill="#606058"/>
  <rect x="448" y="224" width="16" height="32" fill="#141210"/>
  <rect x="452" y="224" width="8" height="8" fill="#606058"/>
  <rect x="328" y="272" width="48" height="80" fill="#606058"/>
  <rect x="328" y="272" width="8" height="80" fill="#888880"/>
  <rect x="368" y="272" width="8" height="80" fill="#0C0C18"/>
  <rect x="376" y="272" width="48" height="80" fill="#606058"/>
  <rect x="416" y="272" width="8" height="80" fill="#0C0C18"/>
  <rect x="320" y="328" width="56" height="32" fill="#141210"/>
  <rect x="320" y="328" width="24" height="8" fill="#888880"/>
  <rect x="320" y="352" width="56" height="8" fill="#606058"/>
  <rect x="376" y="344" width="56" height="32" fill="#141210"/>
  <rect x="376" y="344" width="24" height="8" fill="#888880"/>
  <rect x="376" y="368" width="56" height="8" fill="#606058"/>
  <rect x="592" y="8" width="88" height="48" fill="#606058"/>
  <rect x="584" y="24" width="16" height="32" fill="#606058"/>
  <rect x="680" y="24" width="16" height="32" fill="#606058"/>
  <rect x="592" y="8" width="40" height="8" fill="#B4B0A8"/>
  <rect x="592" y="16" width="8" height="16" fill="#B4B0A8"/>
  <rect x="624" y="8" width="16" height="8" fill="#888880"/>
  <rect x="592" y="52" width="88" height="8" fill="#606058"/>
  <rect x="584" y="60" width="104" height="16" fill="#A0C8E4"/>
  <rect x="584" y="60" width="32" height="8" fill="#C8DFF2"/>
  <rect x="616" y="16" width="8" height="16" fill="#0C0C18"/>
  <rect x="632" y="16" width="8" height="16" fill="#0C0C18"/>
  <rect x="648" y="16" width="8" height="16" fill="#0C0C18"/>
  <rect x="664" y="16" width="8" height="16" fill="#0C0C18"/>
  <rect x="600" y="76" width="72" height="32" fill="#C8A86C"/>
  <rect x="600" y="76" width="32" height="8" fill="#E8CFA0"/>
  <rect x="656" y="80" width="16" height="20" fill="#D4A040"/>
  <rect x="648" y="84" width="8" height="8" fill="#141210"/>
  <rect x="640" y="80" width="16" height="4" fill="#606058"/>
  <rect x="600" y="108" width="72" height="12" fill="#C8A86C"/>
  <rect x="592" y="104" width="8" height="16" fill="#888880"/>
  <rect x="672" y="104" width="8" height="16" fill="#888880"/>
  <rect x="568" y="120" width="136" height="152" fill="#D4A040"/>
  <rect x="560" y="120" width="8" height="152" fill="#C8A86C"/>
  <rect x="704" y="120" width="8" height="152" fill="#C8A86C"/>
  <rect x="568" y="120" width="32" height="8" fill="#F4E8C8"/>
  <rect x="568" y="128" width="8" height="72" fill="#F4E8C8"/>
  <rect x="568" y="168" width="136" height="8" fill="#F0EEE8"/>
  <rect x="568" y="216" width="136" height="8" fill="#F0EEE8"/>
  <rect x="568" y="168" width="136" height="4" fill="#D8D4CC"/>
  <rect x="632" y="144" width="32" height="24" fill="#C8A86C"/>
  <rect x="640" y="148" width="16" height="16" fill="#D4A040"/>
  <rect x="544" y="120" width="24" height="120" fill="#606058"/>
  <rect x="544" y="120" width="24" height="8" fill="#888880"/>
  <rect x="544" y="120" width="8" height="112" fill="#888880"/>
  <rect x="564" y="120" width="4" height="112" fill="#606058"/>
  <rect x="552" y="128" width="16" height="88" fill="#D4A040"/>
  <rect x="544" y="128" width="8" height="88" fill="#C8A86C"/>
  <rect x="704" y="128" width="16" height="88" fill="#D4A040"/>
  <rect x="720" y="128" width="8" height="88" fill="#C8A86C"/>
  <rect x="544" y="224" width="16" height="32" fill="#141210"/>
  <rect x="548" y="224" width="8" height="8" fill="#606058"/>
  <rect x="704" y="224" width="16" height="32" fill="#141210"/>
  <rect x="708" y="224" width="8" height="8" fill="#606058"/>
  <rect x="584" y="272" width="48" height="80" fill="#606058"/>
  <rect x="584" y="272" width="8" height="80" fill="#888880"/>
  <rect x="624" y="272" width="8" height="80" fill="#0C0C18"/>
  <rect x="632" y="272" width="48" height="80" fill="#606058"/>
  <rect x="672" y="272" width="8" height="80" fill="#0C0C18"/>
  <rect x="576" y="344" width="56" height="32" fill="#141210"/>
  <rect x="576" y="344" width="24" height="8" fill="#888880"/>
  <rect x="576" y="368" width="56" height="8" fill="#606058"/>
  <rect x="632" y="360" width="56" height="32" fill="#141210"/>
  <rect x="632" y="360" width="24" height="8" fill="#888880"/>
  <rect x="632" y="384" width="56" height="8" fill="#606058"/>
</svg>
