<svg xmlns="http://www.w3.org/2000/svg" viewBox="0 0 1024 320" width="1024" height="320" shape-rendering="crispEdges">
  <!-- FX SPRITES — Coin, dust, tram sparks, exclamation -->
  <!-- SCALE: 4×  |  1 game px = 4 SVG px  |  PALETTE: Turnhoutsebaan 32-color -->
  <rect x="64" y="0" width="8" height="8" fill="#FFD700"/>
  <rect x="64" y="0" width="4" height="4" fill="#F0EEE8"/>
  <rect x="64" y="8" width="8" height="8" fill="#FFD700"/>
  <rect x="64" y="8" width="4" height="4" fill="#F0EEE8"/>
  <rect x="64" y="16" width="8" height="8" fill="#FFD700"/>
  <rect x="64" y="16" width="4" height="4" fill="#F0EEE8"/>
  <rect x="64" y="24" width="8" height="8" fill="#FFD700"/>
  <rect x="64" y="24" width="4" height="4" fill="#F0EEE8"/>
  <rect x="0" y="64" width="8" height="8" fill="#FFD700"/>
  <rect x="0" y="64" width="4" height="4" fill="#F0EEE8"/>
  <rect x="8" y="64" width="8" height="8" fill="#FFD700"/>
  <rect x="8" y="64" width="4" height="4" fill="#F0EEE8"/>
  <rect x="16" y="64" width="8" height="8" fill="#FFD700"/>
  <rect x="16" y="64" width="4" height="4" fill="#F0EEE8"/>
  <rect x="24" y="64" width="8" height="8" fill="#FFD700"/>
  <rect x="24" y="64" width="4" height="4" fill="#F0EEE8"/>
  <rect x="104" y="24" width="8" height="8" fill="#FFD700"/>
  <rect x="104" y="24" width="4" height="4" fill="#F0EEE8"/>
  <rect x="96" y="24" width="8" height="8" fill="#FFD700"/>
  <rect x="96" y="24" width="4" height="4" fill="#F0EEE8"/>
  <rect x="88" y="32" width="8" height="8" fill="#FFD700"/>
  <rect x="88" y="32" width="4" height="4" fill="#F0EEE8"/>
  <rect x="40" y="32" width="8" height="8" fill="#FFD700"/>
  <rect x="40" y="32" width="4" height="4" fill="#F0EEE8"/>
  <rect x="32" y="32" width="8" height="8" fill="#FFD700"/>
  <rect x="32" y="32" width="4" height="4" fill="#F0EEE8"/>
  <rect x="32" y="40" width="8" height="8" fill="#FFD700"/>
  <rect x="32" y="40" width="4" height="4" fill="#F0EEE8"/>
  <rect x="104" y="104" width="8" height="8" fill="#FFD700"/>
  <rect x="104" y="104" width="4" height="4" fill="#F0EEE8"/>
  <rect x="24" y="104" width="8" height="8" fill="#FFD700"/>
  <rect x="24" y="104" width="4" height="4" fill="#F0EEE8"/>
  <rect x="48" y="48" width="32" height="32" fill="#FFD700"/>
  <rect x="48" y="48" width="12" height="12" fill="#F0EEE8"/>
  <text x="0" y="144" font-size="9" fill="#666" font-family="monospace" shape-rendering="auto">coin_f0</text>
  <rect x="200" y="0" width="8" height="8" fill="#FFD700"/>
  <rect x="200" y="0" width="4" height="4" fill="#F0EEE8"/>
  <rect x="200" y="8" width="8" height="8" fill="#FFD700"/>
  <rect x="200" y="8" width="4" height="4" fill="#F0EEE8"/>
  <rect x="200" y="16" width="8" height="8" fill="#FFD700"/>
  <rect x="200" y="16" width="4" height="4" fill="#F0EEE8"/>
  <rect x="216" y="16" width="8" height="8" fill="#FFD700"/>
  <rect x="216" y="16" width="4" height="4" fill="#F0EEE8"/>
  <rect x="216" y="8" width="8" height="8" fill="#FFD700"/>
  <rect x="216" y="8" width="4" height="4" fill="#F0EEE8"/>
  <rect x="216" y="0" width="8" height="8" fill="#FFD700"/>
  <rect x="216" y="0" width="4" height="4" fill="#F0EEE8"/>
  <rect x="144" y="56" width="8" height="8" fill="#FFD700"/>
  <rect x="144" y="56" width="4" height="4" fill="#F0EEE8"/>
  <rect x="152" y="56" width="8" height="8" fill="#FFD700"/>
  <rect x="152" y="56" width="4" height="4" fill="#F0EEE8"/>
  <rect x="160" y="56" width="8" height="8" fill="#FFD700"/>
  <rect x="160" y="56" width="4" height="4" fill="#F0EEE8"/>
  <rect x="256" y="56" width="8" height="8" fill="#FFD700"/>
  <rect x="256" y="56" width="4" height="4" fill="#F0EEE8"/>
  <rect x="248" y="56" width="8" height="8" fill="#FFD700"/>
  <rect x="248" y="56" width="4" height="4" fill="#F0EEE8"/>
  <rect x="240" y="56" width="8" height="8" fill="#FFD700"/>
  <rect x="240" y="56" width="4" height="4" fill="#F0EEE8"/>
  <rect x="144" y="72" width="8" height="8" fill="#FFD700"/>
  <rect x="144" y="72" width="4" height="4" fill="#F0EEE8"/>
  <rect x="256" y="72" width="8" height="8" fill="#FFD700"/>
  <rect x="256" y="72" width="4" height="4" fill="#F0EEE8"/>
  <rect x="176" y="24" width="8" height="8" fill="#FFD700"/>
  <rect x="176" y="24" width="4" height="4" fill="#F0EEE8"/>
  <rect x="232" y="24" width="8" height="8" fill="#FFD700"/>
  <rect x="232" y="24" width="4" height="4" fill="#F0EEE8"/>
  <rect x="168" y="88" width="8" height="8" fill="#FFD700"/>
  <rect x="168" y="88" width="4" height="4" fill="#F0EEE8"/>
  <rect x="232" y="88" width="8" height="8" fill="#FFD700"/>
  <rect x="232" y="88" width="4" height="4" fill="#F0EEE8"/>
  <rect x="192" y="48" width="32" height="32" fill="#FFD700"/>
  <rect x="192" y="48" width="12" height="12" fill="#F0EEE8"/>
  <text x="144" y="144" font-size="9" fill="#666" font-family="monospace" shape-rendering="auto">coin_f1</text>
  <rect x="336" y="16" width="4" height="4" fill="#FFD700"/>
  <rect x="336" y="24" width="4" height="4" fill="#FFD700"/>
  <rect x="352" y="0" width="4" height="4" fill="#FFD700"/>
  <rect x="368" y="16" width="4" height="4" fill="#FFD700"/>
  <rect x="368" y="24" width="4" height="4" fill="#FFD700"/>
  <rect x="304" y="48" width="4" height="4" fill="#FFD700"/>
  <rect x="304" y="80" width="4" height="4" fill="#FFD700"/>
  <rect x="400" y="48" width="4" height="4" fill="#FFD700"/>
  <rect x="400" y="80" width="4" height="4" fill="#FFD700"/>
  <rect x="312" y="32" width="4" height="4" fill="#FFD700"/>
  <rect x="328" y="24" width="4" height="4" fill="#FFD700"/>
  <rect x="376" y="24" width="4" height="4" fill="#FFD700"/>
  <rect x="392" y="32" width="4" height="4" fill="#FFD700"/>
  <rect x="312" y="96" width="4" height="4" fill="#FFD700"/>
  <rect x="392" y="96" width="4" height="4" fill="#FFD700"/>
  <rect x="336" y="48" width="32" height="32" fill="#FFD700"/>
  <rect x="336" y="48" width="12" height="12" fill="#F0EEE8"/>
  <text x="288" y="144" font-size="9" fill="#666" font-family="monospace" shape-rendering="auto">coin_f2</text>
  <rect x="472" y="32" width="4" height="4" fill="#FFD700"/>
  <rect x="464" y="40" width="4" height="4" fill="#FFD700"/>
  <rect x="464" y="88" width="4" height="4" fill="#FFD700"/>
  <rect x="472" y="96" width="4" height="4" fill="#FFD700"/>
  <rect x="520" y="32" width="4" height="4" fill="#FFD700"/>
  <rect x="528" y="40" width="4" height="4" fill="#FFD700"/>
  <rect x="528" y="88" width="4" height="4" fill="#FFD700"/>
  <rect x="520" y="96" width="4" height="4" fill="#FFD700"/>
  <rect x="496" y="8" width="4" height="4" fill="#FFD700"/>
  <rect x="496" y="112" width="4" height="4" fill="#FFD700"/>
  <rect x="440" y="64" width="4" height="4" fill="#FFD700"/>
  <rect x="544" y="64" width="4" height="4" fill="#FFD700"/>
  <rect x="480" y="48" width="32" height="32" fill="#FFD700"/>
  <rect x="480" y="48" width="12" height="12" fill="#F0EEE8"/>
  <text x="432" y="144" font-size="9" fill="#666" font-family="monospace" shape-rendering="auto">coin_f3</text>
  <rect x="0" y="192" width="24" height="24" fill="#D8D4CC"/>
  <rect x="16" y="184" width="24" height="24" fill="#D8D4CC"/>
  <rect x="32" y="176" width="32" height="32" fill="#D8D4CC"/>
  <rect x="0" y="212" width="96" height="4" fill="#B4AE9E"/>
  <text x="0" y="240" font-size="9" fill="#666" font-family="monospace" shape-rendering="auto">dust_f0</text>
  <rect x="112" y="192" width="32" height="24" fill="#D8D4CC"/>
  <rect x="136" y="176" width="32" height="32" fill="#D8D4CC"/>
  <rect x="160" y="184" width="24" height="24" fill="#D8D4CC"/>
  <rect x="112" y="212" width="96" height="4" fill="#B4AE9E"/>
  <text x="112" y="240" font-size="9" fill="#666" font-family="monospace" shape-rendering="auto">dust_f1</text>
  <rect x="232" y="184" width="40" height="32" fill="#D8D4CC"/>
  <rect x="264" y="176" width="40" height="32" fill="#D8D4CC"/>
  <rect x="296" y="184" width="16" height="24" fill="#D8D4CC"/>
  <rect x="224" y="212" width="96" height="4" fill="#B4AE9E"/>
  <text x="224" y="240" font-size="9" fill="#666" font-family="monospace" shape-rendering="auto">dust_f2</text>
  <rect x="352" y="184" width="48" height="32" fill="#D8D4CC"/>
  <rect x="392" y="176" width="24" height="32" fill="#D8D4CC"/>
  <rect x="416" y="176" width="8" height="24" fill="#D8D4CC"/>
  <rect x="336" y="212" width="96" height="4" fill="#B4AE9E"/>
  <text x="336" y="240" font-size="9" fill="#666" font-family="monospace" shape-rendering="auto">dust_f3</text>
  <rect x="588" y="160" width="4" height="4" fill="#DDB800"/>
  <rect x="592" y="160" width="4" height="4" fill="#DDB800"/>
  <rect x="588" y="164" width="4" height="4" fill="#DDB800"/>
  <rect x="592" y="164" width="4" height="4" fill="#DDB800"/>
  <rect x="584" y="168" width="4" height="4" fill="#DDB800"/>
  <rect x="596" y="168" width="4" height="4" fill="#DDB800"/>
  <rect x="580" y="172" width="4" height="4" fill="#DDB800"/>
  <rect x="600" y="172" width="4" height="4" fill="#DDB800"/>
  <text x="576" y="240" font-size="9" fill="#666" font-family="monospace" shape-rendering="auto">spk_f0</text>
  <rect x="636" y="160" width="4" height="4" fill="#F0EEE8"/>
  <rect x="640" y="160" width="4" height="4" fill="#F0EEE8"/>
  <rect x="632" y="164" width="4" height="4" fill="#F0EEE8"/>
  <rect x="644" y="164" width="4" height="4" fill="#F0EEE8"/>
  <rect x="628" y="168" width="4" height="4" fill="#F0EEE8"/>
  <rect x="648" y="168" width="4" height="4" fill="#F0EEE8"/>
  <rect x="624" y="172" width="4" height="4" fill="#F0EEE8"/>
  <rect x="652" y="172" width="4" height="4" fill="#F0EEE8"/>
  <rect x="632" y="176" width="4" height="4" fill="#F0EEE8"/>
  <rect x="644" y="176" width="4" height="4" fill="#F0EEE8"/>
  <text x="624" y="240" font-size="9" fill="#666" font-family="monospace" shape-rendering="auto">spk_f1</text>
  <rect x="680" y="160" width="4" height="4" fill="#F0EEE8"/>
  <rect x="692" y="160" width="4" height="4" fill="#F0EEE8"/>
  <rect x="676" y="164" width="4" height="4" fill="#F0EEE8"/>
  <rect x="696" y="164" width="4" height="4" fill="#F0EEE8"/>
  <rect x="672" y="168" width="4" height="4" fill="#F0EEE8"/>
  <rect x="700" y="168" width="4" height="4" fill="#F0EEE8"/>
  <rect x="684" y="172" width="4" height="4" fill="#F0EEE8"/>
  <rect x="688" y="172" width="4" height="4" fill="#F0EEE8"/>
  <rect x="676" y="176" width="4" height="4" fill="#F0EEE8"/>
  <rect x="696" y="176" width="4" height="4" fill="#F0EEE8"/>
  <rect x="680" y="180" width="4" height="4" fill="#F0EEE8"/>
  <rect x="692" y="180" width="4" height="4" fill="#F0EEE8"/>
  <text x="672" y="240" font-size="9" fill="#666" font-family="monospace" shape-rendering="auto">spk_f2</text>
  <rect x="732" y="168" width="4" height="4" fill="#FFD700"/>
  <rect x="736" y="168" width="4" height="4" fill="#FFD700"/>
  <rect x="728" y="172" width="4" height="4" fill="#FFD700"/>
  <rect x="740" y="172" width="4" height="4" fill="#FFD700"/>
  <rect x="732" y="176" width="4" height="4" fill="#FFD700"/>
  <rect x="736" y="176" width="4" height="4" fill="#FFD700"/>
  <text x="720" y="240" font-size="9" fill="#666" font-family="monospace" shape-rendering="auto">spk_f3</text>
  <rect x="804" y="4" width="40" height="56" fill="#F0EEE8"/>
  <rect x="800" y="8" width="48" height="48" fill="#F0EEE8"/>
  <rect x="800" y="8" width="48" height="4" fill="#606058"/>
  <rect x="800" y="8" width="4" height="48" fill="#606058"/>
  <rect x="844" y="8" width="4" height="48" fill="#606058"/>
  <rect x="800" y="52" width="48" height="4" fill="#606058"/>
  <rect x="816" y="56" width="16" height="12" fill="#F0EEE8"/>
  <rect x="816" y="56" width="4" height="12" fill="#606058"/>
  <rect x="828" y="56" width="4" height="12" fill="#606058"/>
  <rect x="820" y="64" width="4" height="4" fill="#606058"/>
  <rect x="820" y="12" width="8" height="28" fill="#CC2010"/>
  <rect x="820" y="44" width="8" height="8" fill="#CC2010"/>
  <rect x="796" y="0" width="56" height="4" fill="#FFD700"/>
  <rect x="796" y="0" width="4" height="64" fill="#FFD700"/>
  <rect x="852" y="0" width="4" height="64" fill="#FFD700"/>
  <rect x="796" y="60" width="56" height="4" fill="#FFD700"/>
  <text x="800" y="96" font-size="9" fill="#666" font-family="monospace" shape-rendering="auto">exc_f0</text>
  <rect x="868" y="4" width="40" height="56" fill="#F0EEE8"/>
  <rect x="864" y="8" width="48" height="48" fill="#F0EEE8"/>
  <rect x="864" y="8" width="48" height="4" fill="#606058"/>
  <rect x="864" y="8" width="4" height="48" fill="#606058"/>
  <rect x="908" y="8" width="4" height="48" fill="#606058"/>
  <rect x="864" y="52" width="48" height="4" fill="#606058"/>
  <rect x="880" y="56" width="16" height="12" fill="#F0EEE8"/>
  <rect x="880" y="56" width="4" height="12" fill="#606058"/>
  <rect x="892" y="56" width="4" height="12" fill="#606058"/>
  <rect x="884" y="64" width="4" height="4" fill="#606058"/>
  <rect x="884" y="12" width="8" height="28" fill="#CC2010"/>
  <rect x="884" y="44" width="8" height="8" fill="#CC2010"/>
  <text x="864" y="96" font-size="9" fill="#666" font-family="monospace" shape-rendering="auto">exc_f1</text>
</svg>
