<svg xmlns="http://www.w3.org/2000/svg" viewBox="0 0 768 384" width="768" height="384" shape-rendering="crispEdges">
  <!-- Mevrouw Baert — Flemish woman 67, Stunt Solderie -->
  <!-- SCALE: 4×  |  1 game px = 4 SVG px  |  PALETTE: Turnhoutsebaan 32-color -->
  <rect x="88" y="16" width="72" height="16" fill="#888880"/>
  <rect x="80" y="32" width="88" height="32" fill="#888880"/>
  <rect x="80" y="32" width="16" height="40" fill="#B4B0A8"/>
  <rect x="152" y="32" width="16" height="40" fill="#888880"/>
  <rect x="88" y="16" width="32" height="8" fill="#B4B0A8"/>
  <rect x="104" y="24" width="16" height="4" fill="#D8D4CC"/>
  <rect x="88" y="32" width="72" height="64" fill="#F4E8C8"/>
  <rect x="80" y="40" width="8" height="32" fill="#F4E8C8"/>
  <rect x="160" y="40" width="8" height="32" fill="#F4E8C8"/>
  <rect x="88" y="32" width="32" height="8" fill="#F0EEE8"/>
  <rect x="144" y="48" width="16" height="32" fill="#E8CFA0"/>
  <rect x="88" y="88" width="72" height="8" fill="#E8CFA0"/>
  <rect x="88" y="48" width="72" height="8" fill="#606058"/>
  <rect x="88" y="48" width="24" height="4" fill="#B4B0A8"/>
  <rect x="136" y="48" width="24" height="4" fill="#B4B0A8"/>
  <rect x="116" y="48" width="8" height="8" fill="#606058"/>
  <rect x="96" y="56" width="24" height="12" fill="#F0EEE8"/>
  <rect x="104" y="56" width="8" height="12" fill="#888880"/>
  <rect x="108" y="60" width="4" height="4" fill="#141210"/>
  <rect x="96" y="52" width="24" height="4" fill="#606058"/>
  <rect x="116" y="72" width="16" height="16" fill="#E8CFA0"/>
  <rect x="112" y="80" width="24" height="8" fill="#E8CFA0"/>
  <rect x="112" y="72" width="8" height="8" fill="#F0EEE8"/>
  <rect x="100" y="88" width="32" height="8" fill="#F4E8C8"/>
  <rect x="104" y="88" width="24" height="4" fill="#E8CFA0"/>
  <rect x="92" y="80" width="8" height="12" fill="#E8CFA0"/>
  <rect x="148" y="80" width="8" height="12" fill="#E8CFA0"/>
  <rect x="160" y="52" width="8" height="24" fill="#F4E8C8"/>
  <rect x="160" y="60" width="8" height="12" fill="#E8CFA0"/>
  <rect x="104" y="88" width="40" height="40" fill="#F4E8C8"/>
  <rect x="136" y="88" width="16" height="36" fill="#E8CFA0"/>
  <rect x="64" y="128" width="120" height="136" fill="#888880"/>
  <rect x="56" y="128" width="8" height="136" fill="#606058"/>
  <rect x="184" y="128" width="8" height="136" fill="#606058"/>
  <rect x="64" y="128" width="32" height="8" fill="#B4B0A8"/>
  <rect x="64" y="136" width="8" height="64" fill="#B4B0A8"/>
  <rect x="112" y="128" width="16" height="32" fill="#0C0C18"/>
  <rect x="112" y="128" width="8" height="32" fill="#888880"/>
  <rect x="128" y="128" width="8" height="32" fill="#888880"/>
  <rect x="112" y="136" width="16" height="32" fill="#F4E8C8"/>
  <rect x="112" y="168" width="8" height="8" fill="#606058"/>
  <rect x="112" y="168" width="4" height="4" fill="#B4B0A8"/>
  <rect x="112" y="200" width="8" height="8" fill="#606058"/>
  <rect x="112" y="200" width="4" height="4" fill="#B4B0A8"/>
  <rect x="112" y="232" width="8" height="8" fill="#606058"/>
  <rect x="112" y="232" width="4" height="4" fill="#B4B0A8"/>
  <rect x="48" y="136" width="16" height="88" fill="#888880"/>
  <rect x="40" y="136" width="8" height="88" fill="#606058"/>
  <rect x="48" y="136" width="8" height="8" fill="#B4B0A8"/>
  <rect x="184" y="136" width="16" height="88" fill="#888880"/>
  <rect x="200" y="136" width="8" height="88" fill="#606058"/>
  <rect x="48" y="216" width="16" height="24" fill="#F0EEE8"/>
  <rect x="184" y="216" width="16" height="24" fill="#F0EEE8"/>
  <rect x="72" y="264" width="104" height="88" fill="#D8D4CC"/>
  <rect x="64" y="264" width="8" height="88" fill="#888880"/>
  <rect x="176" y="264" width="8" height="88" fill="#888880"/>
  <rect x="120" y="264" width="8" height="88" fill="#888880"/>
  <rect x="72" y="344" width="48" height="24" fill="#606058"/>
  <rect x="72" y="344" width="24" height="8" fill="#888880"/>
  <rect x="128" y="344" width="48" height="24" fill="#606058"/>
  <rect x="128" y="344" width="24" height="8" fill="#888880"/>
  <rect x="344" y="16" width="72" height="16" fill="#888880"/>
  <rect x="336" y="32" width="88" height="32" fill="#888880"/>
  <rect x="336" y="32" width="16" height="40" fill="#B4B0A8"/>
  <rect x="408" y="32" width="16" height="40" fill="#888880"/>
  <rect x="344" y="16" width="32" height="8" fill="#B4B0A8"/>
  <rect x="360" y="24" width="16" height="4" fill="#D8D4CC"/>
  <rect x="344" y="32" width="72" height="64" fill="#F4E8C8"/>
  <rect x="336" y="40" width="8" height="32" fill="#F4E8C8"/>
  <rect x="416" y="40" width="8" height="32" fill="#F4E8C8"/>
  <rect x="344" y="32" width="32" height="8" fill="#F0EEE8"/>
  <rect x="400" y="48" width="16" height="32" fill="#E8CFA0"/>
  <rect x="344" y="88" width="72" height="8" fill="#E8CFA0"/>
  <rect x="344" y="48" width="72" height="8" fill="#606058"/>
  <rect x="344" y="48" width="24" height="4" fill="#B4B0A8"/>
  <rect x="392" y="48" width="24" height="4" fill="#B4B0A8"/>
  <rect x="372" y="48" width="8" height="8" fill="#606058"/>
  <rect x="352" y="56" width="24" height="12" fill="#F0EEE8"/>
  <rect x="360" y="56" width="8" height="12" fill="#888880"/>
  <rect x="364" y="60" width="4" height="4" fill="#141210"/>
  <rect x="352" y="52" width="24" height="4" fill="#606058"/>
  <rect x="372" y="72" width="16" height="16" fill="#E8CFA0"/>
  <rect x="368" y="80" width="24" height="8" fill="#E8CFA0"/>
  <rect x="368" y="72" width="8" height="8" fill="#F0EEE8"/>
  <rect x="356" y="88" width="32" height="8" fill="#F4E8C8"/>
  <rect x="360" y="88" width="24" height="4" fill="#E8CFA0"/>
  <rect x="348" y="80" width="8" height="12" fill="#E8CFA0"/>
  <rect x="404" y="80" width="8" height="12" fill="#E8CFA0"/>
  <rect x="416" y="52" width="8" height="24" fill="#F4E8C8"/>
  <rect x="416" y="60" width="8" height="12" fill="#E8CFA0"/>
  <rect x="360" y="88" width="40" height="40" fill="#F4E8C8"/>
  <rect x="392" y="88" width="16" height="36" fill="#E8CFA0"/>
  <rect x="320" y="128" width="120" height="136" fill="#888880"/>
  <rect x="312" y="128" width="8" height="136" fill="#606058"/>
  <rect x="440" y="128" width="8" height="136" fill="#606058"/>
  <rect x="320" y="128" width="32" height="8" fill="#B4B0A8"/>
  <rect x="320" y="136" width="8" height="64" fill="#B4B0A8"/>
  <rect x="368" y="128" width="16" height="32" fill="#0C0C18"/>
  <rect x="368" y="128" width="8" height="32" fill="#888880"/>
  <rect x="384" y="128" width="8" height="32" fill="#888880"/>
  <rect x="368" y="136" width="16" height="32" fill="#F4E8C8"/>
  <rect x="368" y="168" width="8" height="8" fill="#606058"/>
  <rect x="368" y="168" width="4" height="4" fill="#B4B0A8"/>
  <rect x="368" y="200" width="8" height="8" fill="#606058"/>
  <rect x="368" y="200" width="4" height="4" fill="#B4B0A8"/>
  <rect x="368" y="232" width="8" height="8" fill="#606058"/>
  <rect x="368" y="232" width="4" height="4" fill="#B4B0A8"/>
  <rect x="304" y="136" width="16" height="88" fill="#888880"/>
  <rect x="296" y="136" width="8" height="88" fill="#606058"/>
  <rect x="304" y="136" width="8" height="8" fill="#B4B0A8"/>
  <rect x="440" y="136" width="16" height="88" fill="#888880"/>
  <rect x="456" y="136" width="8" height="88" fill="#606058"/>
  <rect x="304" y="216" width="16" height="24" fill="#F0EEE8"/>
  <rect x="440" y="216" width="16" height="24" fill="#F0EEE8"/>
  <rect x="328" y="264" width="104" height="88" fill="#D8D4CC"/>
  <rect x="320" y="264" width="8" height="88" fill="#888880"/>
  <rect x="432" y="264" width="8" height="88" fill="#888880"/>
  <rect x="376" y="264" width="8" height="88" fill="#888880"/>
  <rect x="328" y="336" width="48" height="24" fill="#606058"/>
  <rect x="328" y="336" width="24" height="8" fill="#888880"/>
  <rect x="384" y="344" width="48" height="24" fill="#606058"/>
  <rect x="384" y="344" width="24" height="8" fill="#888880"/>
  <rect x="600" y="16" width="72" height="16" fill="#888880"/>
  <rect x="592" y="32" width="88" height="32" fill="#888880"/>
  <rect x="592" y="32" width="16" height="40" fill="#B4B0A8"/>
  <rect x="664" y="32" width="16" height="40" fill="#888880"/>
  <rect x="600" y="16" width="32" height="8" fill="#B4B0A8"/>
  <rect x="616" y="24" width="16" height="4" fill="#D8D4CC"/>
  <rect x="600" y="32" width="72" height="64" fill="#F4E8C8"/>
  <rect x="592" y="40" width="8" height="32" fill="#F4E8C8"/>
  <rect x="672" y="40" width="8" height="32" fill="#F4E8C8"/>
  <rect x="600" y="32" width="32" height="8" fill="#F0EEE8"/>
  <rect x="656" y="48" width="16" height="32" fill="#E8CFA0"/>
  <rect x="600" y="88" width="72" height="8" fill="#E8CFA0"/>
  <rect x="600" y="48" width="72" height="8" fill="#606058"/>
  <rect x="600" y="48" width="24" height="4" fill="#B4B0A8"/>
  <rect x="648" y="48" width="24" height="4" fill="#B4B0A8"/>
  <rect x="628" y="48" width="8" height="8" fill="#606058"/>
  <rect x="608" y="56" width="24" height="12" fill="#F0EEE8"/>
  <rect x="616" y="56" width="8" height="12" fill="#888880"/>
  <rect x="620" y="60" width="4" height="4" fill="#141210"/>
  <rect x="608" y="52" width="24" height="4" fill="#606058"/>
  <rect x="628" y="72" width="16" height="16" fill="#E8CFA0"/>
  <rect x="624" y="80" width="24" height="8" fill="#E8CFA0"/>
  <rect x="624" y="72" width="8" height="8" fill="#F0EEE8"/>
  <rect x="612" y="88" width="32" height="8" fill="#F4E8C8"/>
  <rect x="616" y="88" width="24" height="4" fill="#E8CFA0"/>
  <rect x="604" y="80" width="8" height="12" fill="#E8CFA0"/>
  <rect x="660" y="80" width="8" height="12" fill="#E8CFA0"/>
  <rect x="672" y="52" width="8" height="24" fill="#F4E8C8"/>
  <rect x="672" y="60" width="8" height="12" fill="#E8CFA0"/>
  <rect x="616" y="88" width="40" height="40" fill="#F4E8C8"/>
  <rect x="648" y="88" width="16" height="36" fill="#E8CFA0"/>
  <rect x="576" y="128" width="120" height="136" fill="#888880"/>
  <rect x="568" y="128" width="8" height="136" fill="#606058"/>
  <rect x="696" y="128" width="8" height="136" fill="#606058"/>
  <rect x="576" y="128" width="32" height="8" fill="#B4B0A8"/>
  <rect x="576" y="136" width="8" height="64" fill="#B4B0A8"/>
  <rect x="624" y="128" width="16" height="32" fill="#0C0C18"/>
  <rect x="624" y="128" width="8" height="32" fill="#888880"/>
  <rect x="640" y="128" width="8" height="32" fill="#888880"/>
  <rect x="624" y="136" width="16" height="32" fill="#F4E8C8"/>
  <rect x="624" y="168" width="8" height="8" fill="#606058"/>
  <rect x="624" y="168" width="4" height="4" fill="#B4B0A8"/>
  <rect x="624" y="200" width="8" height="8" fill="#606058"/>
  <rect x="624" y="200" width="4" height="4" fill="#B4B0A8"/>
  <rect x="624" y="232" width="8" height="8" fill="#606058"/>
  <rect x="624" y="232" width="4" height="4" fill="#B4B0A8"/>
  <rect x="560" y="136" width="16" height="88" fill="#888880"/>
  <rect x="552" y="136" width="8" height="88" fill="#606058"/>
  <rect x="560" y="136" width="8" height="8" fill="#B4B0A8"/>
  <rect x="696" y="136" width="16" height="88" fill="#888880"/>
  <rect x="712" y="136" width="8" height="88" fill="#606058"/>
  <rect x="560" y="216" width="16" height="24" fill="#F0EEE8"/>
  <rect x="696" y="216" width="16" height="24" fill="#F0EEE8"/>
  <rect x="584" y="264" width="104" height="88" fill="#D8D4CC"/>
  <rect x="576" y="264" width="8" height="88" fill="#888880"/>
  <rect x="688" y="264" width="8" height="88" fill="#888880"/>
  <rect x="632" y="264" width="8" height="88" fill="#888880"/>
  <rect x="584" y="344" width="48" height="24" fill="#606058"/>
  <rect x="584" y="344" width="24" height="8" fill="#888880"/>
  <rect x="640" y="352" width="48" height="24" fill="#606058"/>
  <rect x="640" y="352" width="24" height="8" fill="#888880"/>
</svg>
