<svg xmlns="http://www.w3.org/2000/svg" viewBox="0 0 768 384" width="768" height="384" shape-rendering="crispEdges">
  <!-- Fatima — Moroccan woman 45, long coat + hijab + wicker bag -->
  <!-- SCALE: 4×  |  1 game px = 4 SVG px  |  PALETTE: Turnhoutsebaan 32-color -->
  <rect x="72" y="16" width="104" height="80" fill="#E8CFA0"/>
  <rect x="64" y="32" width="16" height="80" fill="#E8CFA0"/>
  <rect x="176" y="32" width="16" height="80" fill="#E8CFA0"/>
  <rect x="72" y="96" width="104" height="32" fill="#E8CFA0"/>
  <rect x="80" y="16" width="32" height="12" fill="#F0EEE8"/>
  <rect x="72" y="28" width="12" height="24" fill="#F0EEE8"/>
  <rect x="72" y="88" width="32" height="12" fill="#C8A86C"/>
  <rect x="152" y="88" width="24" height="12" fill="#C8A86C"/>
  <rect x="64" y="56" width="16" height="40" fill="#C8A86C"/>
  <rect x="88" y="32" width="72" height="72" fill="#C8A86C"/>
  <rect x="88" y="32" width="32" height="8" fill="#E8CFA0"/>
  <rect x="144" y="48" width="16" height="32" fill="#D4A040"/>
  <rect x="88" y="96" width="72" height="8" fill="#D4A040"/>
  <rect x="96" y="48" width="16" height="8" fill="#C8A86C"/>
  <rect x="128" y="48" width="24" height="8" fill="#C8A86C"/>
  <rect x="128" y="56" width="32" height="4" fill="#141210"/>
  <rect x="128" y="60" width="32" height="16" fill="#F0EEE8"/>
  <rect x="136" y="60" width="16" height="16" fill="#606058"/>
  <rect x="140" y="64" width="8" height="8" fill="#141210"/>
  <rect x="128" y="72" width="32" height="4" fill="#C8A86C"/>
  <rect x="88" y="56" width="16" height="4" fill="#C8A86C"/>
  <rect x="88" y="60" width="16" height="12" fill="#F0EEE8"/>
  <rect x="92" y="60" width="8" height="12" fill="#606058"/>
  <rect x="92" y="64" width="4" height="8" fill="#141210"/>
  <rect x="88" y="72" width="16" height="4" fill="#C8A86C"/>
  <rect x="88" y="56" width="8" height="4" fill="#D4A040"/>
  <rect x="116" y="72" width="16" height="16" fill="#D4A040"/>
  <rect x="112" y="80" width="24" height="8" fill="#D4A040"/>
  <rect x="112" y="72" width="8" height="8" fill="#E8CFA0"/>
  <rect x="100" y="88" width="32" height="8" fill="#C8A86C"/>
  <rect x="104" y="88" width="24" height="4" fill="#D4A040"/>
  <rect x="100" y="96" width="32" height="8" fill="#C8A86C"/>
  <rect x="104" y="96" width="16" height="4" fill="#E8CFA0"/>
  <rect x="64" y="128" width="8" height="184" fill="#984428"/>
  <rect x="72" y="128" width="104" height="184" fill="#C07050"/>
  <rect x="176" y="128" width="8" height="184" fill="#984428"/>
  <rect x="72" y="128" width="24" height="8" fill="#D4B898"/>
  <rect x="72" y="136" width="8" height="72" fill="#D4B898"/>
  <rect x="120" y="144" width="8" height="168" fill="#984428"/>
  <rect x="120" y="160" width="8" height="8" fill="#D4B898"/>
  <rect x="124" y="160" width="4" height="4" fill="#F0EEE8"/>
  <rect x="120" y="200" width="8" height="8" fill="#D4B898"/>
  <rect x="124" y="200" width="4" height="4" fill="#F0EEE8"/>
  <rect x="120" y="240" width="8" height="8" fill="#D4B898"/>
  <rect x="124" y="240" width="4" height="4" fill="#F0EEE8"/>
  <rect x="88" y="208" width="40" height="4" fill="#984428"/>
  <rect x="80" y="248" width="56" height="4" fill="#984428"/>
  <rect x="88" y="128" width="72" height="8" fill="#D4B898"/>
  <rect x="96" y="136" width="32" height="8" fill="#C07050"/>
  <rect x="48" y="136" width="24" height="112" fill="#C07050"/>
  <rect x="40" y="136" width="8" height="112" fill="#984428"/>
  <rect x="48" y="136" width="8" height="8" fill="#D4B898"/>
  <rect x="176" y="136" width="16" height="96" fill="#C07050"/>
  <rect x="192" y="136" width="8" height="96" fill="#984428"/>
  <rect x="32" y="200" width="40" height="72" fill="#8A5A28"/>
  <rect x="32" y="200" width="8" height="72" fill="#4A2C10"/>
  <rect x="32" y="200" width="40" height="8" fill="#E8CFA0"/>
  <rect x="40" y="184" width="16" height="24" fill="#8A5A28"/>
  <rect x="56" y="176" width="16" height="16" fill="#8A5A28"/>
  <rect x="36" y="216" width="32" height="4" fill="#4A2C10"/>
  <rect x="36" y="232" width="32" height="4" fill="#4A2C10"/>
  <rect x="36" y="248" width="32" height="4" fill="#4A2C10"/>
  <rect x="40" y="240" width="16" height="24" fill="#C8A86C"/>
  <rect x="44" y="240" width="8" height="8" fill="#E8CFA0"/>
  <rect x="176" y="224" width="16" height="24" fill="#C8A86C"/>
  <rect x="180" y="224" width="8" height="8" fill="#E8CFA0"/>
  <rect x="96" y="304" width="32" height="56" fill="#606058"/>
  <rect x="96" y="304" width="8" height="56" fill="#888880"/>
  <rect x="120" y="304" width="8" height="56" fill="#0C0C18"/>
  <rect x="88" y="352" width="40" height="24" fill="#606058"/>
  <rect x="88" y="352" width="16" height="8" fill="#888880"/>
  <rect x="128" y="352" width="40" height="24" fill="#606058"/>
  <rect x="128" y="352" width="16" height="8" fill="#888880"/>
  <rect x="328" y="16" width="104" height="80" fill="#E8CFA0"/>
  <rect x="320" y="32" width="16" height="80" fill="#E8CFA0"/>
  <rect x="432" y="32" width="16" height="80" fill="#E8CFA0"/>
  <rect x="328" y="96" width="104" height="32" fill="#E8CFA0"/>
  <rect x="336" y="16" width="32" height="12" fill="#F0EEE8"/>
  <rect x="328" y="28" width="12" height="24" fill="#F0EEE8"/>
  <rect x="328" y="88" width="32" height="12" fill="#C8A86C"/>
  <rect x="408" y="88" width="24" height="12" fill="#C8A86C"/>
  <rect x="320" y="56" width="16" height="40" fill="#C8A86C"/>
  <rect x="344" y="32" width="72" height="72" fill="#C8A86C"/>
  <rect x="344" y="32" width="32" height="8" fill="#E8CFA0"/>
  <rect x="400" y="48" width="16" height="32" fill="#D4A040"/>
  <rect x="344" y="96" width="72" height="8" fill="#D4A040"/>
  <rect x="352" y="48" width="16" height="8" fill="#C8A86C"/>
  <rect x="384" y="48" width="24" height="8" fill="#C8A86C"/>
  <rect x="384" y="56" width="32" height="4" fill="#141210"/>
  <rect x="384" y="60" width="32" height="16" fill="#F0EEE8"/>
  <rect x="392" y="60" width="16" height="16" fill="#606058"/>
  <rect x="396" y="64" width="8" height="8" fill="#141210"/>
  <rect x="384" y="72" width="32" height="4" fill="#C8A86C"/>
  <rect x="344" y="56" width="16" height="4" fill="#C8A86C"/>
  <rect x="344" y="60" width="16" height="12" fill="#F0EEE8"/>
  <rect x="348" y="60" width="8" height="12" fill="#606058"/>
  <rect x="348" y="64" width="4" height="8" fill="#141210"/>
  <rect x="344" y="72" width="16" height="4" fill="#C8A86C"/>
  <rect x="344" y="56" width="8" height="4" fill="#D4A040"/>
  <rect x="372" y="72" width="16" height="16" fill="#D4A040"/>
  <rect x="368" y="80" width="24" height="8" fill="#D4A040"/>
  <rect x="368" y="72" width="8" height="8" fill="#E8CFA0"/>
  <rect x="356" y="88" width="32" height="8" fill="#C8A86C"/>
  <rect x="360" y="88" width="24" height="4" fill="#D4A040"/>
  <rect x="356" y="96" width="32" height="8" fill="#C8A86C"/>
  <rect x="360" y="96" width="16" height="4" fill="#E8CFA0"/>
  <rect x="320" y="128" width="8" height="184" fill="#984428"/>
  <rect x="328" y="128" width="104" height="184" fill="#C07050"/>
  <rect x="432" y="128" width="8" height="184" fill="#984428"/>
  <rect x="328" y="128" width="24" height="8" fill="#D4B898"/>
  <rect x="328" y="136" width="8" height="72" fill="#D4B898"/>
  <rect x="376" y="144" width="8" height="168" fill="#984428"/>
  <rect x="376" y="160" width="8" height="8" fill="#D4B898"/>
  <rect x="380" y="160" width="4" height="4" fill="#F0EEE8"/>
  <rect x="376" y="200" width="8" height="8" fill="#D4B898"/>
  <rect x="380" y="200" width="4" height="4" fill="#F0EEE8"/>
  <rect x="376" y="240" width="8" height="8" fill="#D4B898"/>
  <rect x="380" y="240" width="4" height="4" fill="#F0EEE8"/>
  <rect x="344" y="208" width="40" height="4" fill="#984428"/>
  <rect x="336" y="248" width="56" height="4" fill="#984428"/>
  <rect x="344" y="128" width="72" height="8" fill="#D4B898"/>
  <rect x="352" y="136" width="32" height="8" fill="#C07050"/>
  <rect x="304" y="136" width="24" height="112" fill="#C07050"/>
  <rect x="296" y="136" width="8" height="112" fill="#984428"/>
  <rect x="304" y="136" width="8" height="8" fill="#D4B898"/>
  <rect x="432" y="136" width="16" height="96" fill="#C07050"/>
  <rect x="448" y="136" width="8" height="96" fill="#984428"/>
  <rect x="288" y="200" width="40" height="72" fill="#8A5A28"/>
  <rect x="288" y="200" width="8" height="72" fill="#4A2C10"/>
  <rect x="288" y="200" width="40" height="8" fill="#E8CFA0"/>
  <rect x="296" y="184" width="16" height="24" fill="#8A5A28"/>
  <rect x="312" y="176" width="16" height="16" fill="#8A5A28"/>
  <rect x="292" y="216" width="32" height="4" fill="#4A2C10"/>
  <rect x="292" y="232" width="32" height="4" fill="#4A2C10"/>
  <rect x="292" y="248" width="32" height="4" fill="#4A2C10"/>
  <rect x="296" y="240" width="16" height="24" fill="#C8A86C"/>
  <rect x="300" y="240" width="8" height="8" fill="#E8CFA0"/>
  <rect x="432" y="224" width="16" height="24" fill="#C8A86C"/>
  <rect x="436" y="224" width="8" height="8" fill="#E8CFA0"/>
  <rect x="352" y="304" width="32" height="56" fill="#606058"/>
  <rect x="352" y="304" width="8" height="56" fill="#888880"/>
  <rect x="376" y="304" width="8" height="56" fill="#0C0C18"/>
  <rect x="344" y="344" width="40" height="24" fill="#606058"/>
  <rect x="344" y="344" width="16" height="8" fill="#888880"/>
  <rect x="384" y="352" width="40" height="24" fill="#606058"/>
  <rect x="384" y="352" width="16" height="8" fill="#888880"/>
  <rect x="584" y="16" width="104" height="80" fill="#E8CFA0"/>
  <rect x="576" y="32" width="16" height="80" fill="#E8CFA0"/>
  <rect x="688" y="32" width="16" height="80" fill="#E8CFA0"/>
  <rect x="584" y="96" width="104" height="32" fill="#E8CFA0"/>
  <rect x="592" y="16" width="32" height="12" fill="#F0EEE8"/>
  <rect x="584" y="28" width="12" height="24" fill="#F0EEE8"/>
  <rect x="584" y="88" width="32" height="12" fill="#C8A86C"/>
  <rect x="664" y="88" width="24" height="12" fill="#C8A86C"/>
  <rect x="576" y="56" width="16" height="40" fill="#C8A86C"/>
  <rect x="600" y="32" width="72" height="72" fill="#C8A86C"/>
  <rect x="600" y="32" width="32" height="8" fill="#E8CFA0"/>
  <rect x="656" y="48" width="16" height="32" fill="#D4A040"/>
  <rect x="600" y="96" width="72" height="8" fill="#D4A040"/>
  <rect x="608" y="48" width="16" height="8" fill="#C8A86C"/>
  <rect x="640" y="48" width="24" height="8" fill="#C8A86C"/>
  <rect x="640" y="56" width="32" height="4" fill="#141210"/>
  <rect x="640" y="60" width="32" height="16" fill="#F0EEE8"/>
  <rect x="648" y="60" width="16" height="16" fill="#606058"/>
  <rect x="652" y="64" width="8" height="8" fill="#141210"/>
  <rect x="640" y="72" width="32" height="4" fill="#C8A86C"/>
  <rect x="600" y="56" width="16" height="4" fill="#C8A86C"/>
  <rect x="600" y="60" width="16" height="12" fill="#F0EEE8"/>
  <rect x="604" y="60" width="8" height="12" fill="#606058"/>
  <rect x="604" y="64" width="4" height="8" fill="#141210"/>
  <rect x="600" y="72" width="16" height="4" fill="#C8A86C"/>
  <rect x="600" y="56" width="8" height="4" fill="#D4A040"/>
  <rect x="628" y="72" width="16" height="16" fill="#D4A040"/>
  <rect x="624" y="80" width="24" height="8" fill="#D4A040"/>
  <rect x="624" y="72" width="8" height="8" fill="#E8CFA0"/>
  <rect x="612" y="88" width="32" height="8" fill="#C8A86C"/>
  <rect x="616" y="88" width="24" height="4" fill="#D4A040"/>
  <rect x="612" y="96" width="32" height="8" fill="#C8A86C"/>
  <rect x="616" y="96" width="16" height="4" fill="#E8CFA0"/>
  <rect x="576" y="128" width="8" height="184" fill="#984428"/>
  <rect x="584" y="128" width="104" height="184" fill="#C07050"/>
  <rect x="688" y="128" width="8" height="184" fill="#984428"/>
  <rect x="584" y="128" width="24" height="8" fill="#D4B898"/>
  <rect x="584" y="136" width="8" height="72" fill="#D4B898"/>
  <rect x="632" y="144" width="8" height="168" fill="#984428"/>
  <rect x="632" y="160" width="8" height="8" fill="#D4B898"/>
  <rect x="636" y="160" width="4" height="4" fill="#F0EEE8"/>
  <rect x="632" y="200" width="8" height="8" fill="#D4B898"/>
  <rect x="636" y="200" width="4" height="4" fill="#F0EEE8"/>
  <rect x="632" y="240" width="8" height="8" fill="#D4B898"/>
  <rect x="636" y="240" width="4" height="4" fill="#F0EEE8"/>
  <rect x="600" y="208" width="40" height="4" fill="#984428"/>
  <rect x="592" y="248" width="56" height="4" fill="#984428"/>
  <rect x="600" y="128" width="72" height="8" fill="#D4B898"/>
  <rect x="608" y="136" width="32" height="8" fill="#C07050"/>
  <rect x="560" y="136" width="24" height="112" fill="#C07050"/>
  <rect x="552" y="136" width="8" height="112" fill="#984428"/>
  <rect x="560" y="136" width="8" height="8" fill="#D4B898"/>
  <rect x="688" y="136" width="16" height="96" fill="#C07050"/>
  <rect x="704" y="136" width="8" height="96" fill="#984428"/>
  <rect x="544" y="200" width="40" height="72" fill="#8A5A28"/>
  <rect x="544" y="200" width="8" height="72" fill="#4A2C10"/>
  <rect x="544" y="200" width="40" height="8" fill="#E8CFA0"/>
  <rect x="552" y="184" width="16" height="24" fill="#8A5A28"/>
  <rect x="568" y="176" width="16" height="16" fill="#8A5A28"/>
  <rect x="548" y="216" width="32" height="4" fill="#4A2C10"/>
  <rect x="548" y="232" width="32" height="4" fill="#4A2C10"/>
  <rect x="548" y="248" width="32" height="4" fill="#4A2C10"/>
  <rect x="552" y="240" width="16" height="24" fill="#C8A86C"/>
  <rect x="556" y="240" width="8" height="8" fill="#E8CFA0"/>
  <rect x="688" y="224" width="16" height="24" fill="#C8A86C"/>
  <rect x="692" y="224" width="8" height="8" fill="#E8CFA0"/>
  <rect x="608" y="304" width="32" height="56" fill="#606058"/>
  <rect x="608" y="304" width="8" height="56" fill="#888880"/>
  <rect x="632" y="304" width="8" height="56" fill="#0C0C18"/>
  <rect x="600" y="352" width="40" height="24" fill="#606058"/>
  <rect x="600" y="352" width="16" height="8" fill="#888880"/>
  <rect x="640" y="360" width="40" height="24" fill="#606058"/>
  <rect x="640" y="360" width="16" height="8" fill="#888880"/>
</svg>
