<svg xmlns="http://www.w3.org/2000/svg" viewBox="0 0 1280 320" width="1280" height="320" shape-rendering="crispEdges">
  <!-- UI / HUD ELEMENTS — Turnhoutsebaan RPG -->
  <!-- SCALE: 4×  |  1 game px = 4 SVG px  |  PALETTE: Turnhoutsebaan 32-color -->
  <rect x="8" y="8" width="48" height="48" fill="#FFD700"/>
  <rect x="4" y="16" width="56" height="32" fill="#FFD700"/>
  <rect x="16" y="4" width="32" height="56" fill="#FFD700"/>
  <rect x="12" y="12" width="16" height="8" fill="#F0EEE8"/>
  <rect x="12" y="12" width="8" height="16" fill="#F0EEE8"/>
  <rect x="40" y="32" width="8" height="20" fill="#D4A040"/>
  <rect x="24" y="20" width="4" height="4" fill="#D4A040"/>
  <rect x="28" y="20" width="12" height="4" fill="#D4A040"/>
  <rect x="24" y="24" width="4" height="4" fill="#D4A040"/>
  <rect x="24" y="28" width="16" height="4" fill="#D4A040"/>
  <rect x="24" y="32" width="4" height="4" fill="#D4A040"/>
  <rect x="24" y="36" width="12" height="4" fill="#D4A040"/>
  <text x="0" y="80" font-size="9" fill="#666" font-family="monospace" shape-rendering="auto">coin16</text>
  <rect x="88" y="8" width="48" height="8" fill="#CC2010"/>
  <rect x="84" y="12" width="56" height="4" fill="#CC2010"/>
  <rect x="80" y="16" width="64" height="4" fill="#CC2010"/>
  <rect x="80" y="20" width="64" height="4" fill="#CC2010"/>
  <rect x="80" y="24" width="64" height="4" fill="#CC2010"/>
  <rect x="80" y="28" width="64" height="4" fill="#CC2010"/>
  <rect x="84" y="32" width="56" height="4" fill="#CC2010"/>
  <rect x="88" y="36" width="48" height="4" fill="#CC2010"/>
  <rect x="92" y="40" width="40" height="4" fill="#CC2010"/>
  <rect x="96" y="44" width="32" height="4" fill="#CC2010"/>
  <rect x="100" y="48" width="24" height="4" fill="#CC2010"/>
  <rect x="104" y="52" width="16" height="4" fill="#CC2010"/>
  <rect x="108" y="56" width="8" height="4" fill="#CC2010"/>
  <rect x="88" y="16" width="20" height="12" fill="#C07050"/>
  <rect x="88" y="16" width="12" height="16" fill="#C07050"/>
  <rect x="116" y="16" width="20" height="12" fill="#C07050"/>
  <text x="80" y="80" font-size="9" fill="#666" font-family="monospace" shape-rendering="auto">heart16</text>
  <rect x="164" y="20" width="24" height="24" fill="#FFD700"/>
  <rect x="168" y="16" width="16" height="32" fill="#FFD700"/>
  <rect x="160" y="24" width="32" height="16" fill="#FFD700"/>
  <rect x="168" y="24" width="8" height="8" fill="#F0EEE8"/>
  <rect x="180" y="36" width="8" height="8" fill="#D4A040"/>
  <text x="160" y="80" font-size="9" fill="#666" font-family="monospace" shape-rendering="auto">quest8</text>
  <rect x="212" y="4" width="32" height="32" fill="#CC2010"/>
  <rect x="216" y="0" width="24" height="40" fill="#CC2010"/>
  <rect x="208" y="8" width="40" height="24" fill="#CC2010"/>
  <rect x="216" y="8" width="16" height="16" fill="#C07050"/>
  <rect x="220" y="12" width="8" height="8" fill="#F0EEE8"/>
  <rect x="224" y="36" width="8" height="20" fill="#CC2010"/>
  <rect x="228" y="52" width="4" height="12" fill="#CC2010"/>
  <text x="208" y="80" font-size="9" fill="#666" font-family="monospace" shape-rendering="auto">map_pin</text>
  <rect x="0" y="112" width="256" height="32" fill="#141210"/>
  <rect x="4" y="116" width="248" height="24" fill="#2C2C28"/>
  <rect x="0" y="112" width="256" height="4" fill="#606058"/>
  <rect x="0" y="112" width="4" height="32" fill="#606058"/>
  <rect x="252" y="112" width="4" height="32" fill="#606058"/>
  <rect x="0" y="140" width="256" height="4" fill="#606058"/>
  <text x="0" y="160" font-size="9" fill="#666" font-family="monospace" shape-rendering="auto">bar_bg64</text>
  <rect x="0" y="176" width="80" height="64" fill="#2C2C28"/>
  <rect x="4" y="180" width="72" height="56" fill="#1C5898"/>
  <rect x="4" y="180" width="72" height="4" fill="#F0EEE8"/>
  <rect x="4" y="180" width="4" height="56" fill="#F0EEE8"/>
  <rect x="4" y="232" width="72" height="4" fill="#606058"/>
  <rect x="72" y="180" width="4" height="56" fill="#606058"/>
  <rect x="16" y="200" width="48" height="8" fill="#F0EEE8"/>
  <rect x="16" y="216" width="32" height="8" fill="#F0EEE8"/>
  <text x="0" y="252" font-size="9" fill="#666" font-family="monospace" shape-rendering="auto">btn_shop</text>
  <rect x="96" y="176" width="80" height="64" fill="#2C2C28"/>
  <rect x="100" y="180" width="72" height="56" fill="#984428"/>
  <rect x="100" y="180" width="72" height="4" fill="#F0EEE8"/>
  <rect x="100" y="180" width="4" height="56" fill="#F0EEE8"/>
  <rect x="100" y="232" width="72" height="4" fill="#606058"/>
  <rect x="168" y="180" width="4" height="56" fill="#606058"/>
  <rect x="112" y="200" width="48" height="8" fill="#F0EEE8"/>
  <rect x="112" y="216" width="32" height="8" fill="#F0EEE8"/>
  <text x="96" y="252" font-size="9" fill="#666" font-family="monospace" shape-rendering="auto">btn_deliv</text>
  <rect x="192" y="176" width="80" height="64" fill="#2C2C28"/>
  <rect x="196" y="180" width="72" height="56" fill="#3C8830"/>
  <rect x="196" y="180" width="72" height="4" fill="#F0EEE8"/>
  <rect x="196" y="180" width="4" height="56" fill="#F0EEE8"/>
  <rect x="196" y="232" width="72" height="4" fill="#606058"/>
  <rect x="264" y="180" width="4" height="56" fill="#606058"/>
  <rect x="208" y="200" width="48" height="8" fill="#F0EEE8"/>
  <rect x="208" y="216" width="32" height="8" fill="#F0EEE8"/>
  <text x="192" y="252" font-size="9" fill="#666" font-family="monospace" shape-rendering="auto">btn_map</text>
  <rect x="288" y="176" width="80" height="64" fill="#2C2C28"/>
  <rect x="292" y="180" width="72" height="56" fill="#606058"/>
  <rect x="292" y="180" width="72" height="4" fill="#F0EEE8"/>
  <rect x="292" y="180" width="4" height="56" fill="#F0EEE8"/>
  <rect x="292" y="232" width="72" height="4" fill="#606058"/>
  <rect x="360" y="180" width="4" height="56" fill="#606058"/>
  <rect x="304" y="200" width="48" height="8" fill="#F0EEE8"/>
  <rect x="304" y="216" width="32" height="8" fill="#F0EEE8"/>
  <text x="288" y="252" font-size="9" fill="#666" font-family="monospace" shape-rendering="auto">btn_heal</text>
  <rect x="400" y="0" width="160" height="160" fill="#141210"/>
  <rect x="408" y="8" width="144" height="144" fill="#2C2C28"/>
  <rect x="400" y="0" width="160" height="8" fill="#FFD700"/>
  <rect x="400" y="0" width="8" height="160" fill="#FFD700"/>
  <rect x="552" y="0" width="8" height="160" fill="#FFD700"/>
  <rect x="400" y="152" width="160" height="8" fill="#FFD700"/>
  <rect x="400" y="0" width="24" height="24" fill="#D4A040"/>
  <rect x="536" y="0" width="24" height="24" fill="#D4A040"/>
  <rect x="400" y="136" width="24" height="24" fill="#D4A040"/>
  <rect x="536" y="136" width="24" height="24" fill="#D4A040"/>
  <rect x="416" y="16" width="4" height="4" fill="#484440"/>
  <rect x="416" y="32" width="4" height="4" fill="#484440"/>
  <rect x="416" y="48" width="4" height="4" fill="#484440"/>
  <rect x="416" y="64" width="4" height="4" fill="#484440"/>
  <rect x="416" y="80" width="4" height="4" fill="#484440"/>
  <rect x="416" y="96" width="4" height="4" fill="#484440"/>
  <rect x="416" y="112" width="4" height="4" fill="#484440"/>
  <rect x="416" y="128" width="4" height="4" fill="#484440"/>
  <rect x="432" y="16" width="4" height="4" fill="#484440"/>
  <rect x="432" y="32" width="4" height="4" fill="#484440"/>
  <rect x="432" y="48" width="4" height="4" fill="#484440"/>
  <rect x="432" y="64" width="4" height="4" fill="#484440"/>
  <rect x="432" y="80" width="4" height="4" fill="#484440"/>
  <rect x="432" y="96" width="4" height="4" fill="#484440"/>
  <rect x="432" y="112" width="4" height="4" fill="#484440"/>
  <rect x="432" y="128" width="4" height="4" fill="#484440"/>
  <rect x="448" y="16" width="4" height="4" fill="#484440"/>
  <rect x="448" y="32" width="4" height="4" fill="#484440"/>
  <rect x="448" y="48" width="4" height="4" fill="#484440"/>
  <rect x="448" y="64" width="4" height="4" fill="#484440"/>
  <rect x="448" y="80" width="4" height="4" fill="#484440"/>
  <rect x="448" y="96" width="4" height="4" fill="#484440"/>
  <rect x="448" y="112" width="4" height="4" fill="#484440"/>
  <rect x="448" y="128" width="4" height="4" fill="#484440"/>
  <rect x="464" y="16" width="4" height="4" fill="#484440"/>
  <rect x="464" y="32" width="4" height="4" fill="#484440"/>
  <rect x="464" y="48" width="4" height="4" fill="#484440"/>
  <rect x="464" y="64" width="4" height="4" fill="#484440"/>
  <rect x="464" y="80" width="4" height="4" fill="#484440"/>
  <rect x="464" y="96" width="4" height="4" fill="#484440"/>
  <rect x="464" y="112" width="4" height="4" fill="#484440"/>
  <rect x="464" y="128" width="4" height="4" fill="#484440"/>
  <rect x="480" y="16" width="4" height="4" fill="#484440"/>
  <rect x="480" y="32" width="4" height="4" fill="#484440"/>
  <rect x="480" y="48" width="4" height="4" fill="#484440"/>
  <rect x="480" y="64" width="4" height="4" fill="#484440"/>
  <rect x="480" y="80" width="4" height="4" fill="#484440"/>
  <rect x="480" y="96" width="4" height="4" fill="#484440"/>
  <rect x="480" y="112" width="4" height="4" fill="#484440"/>
  <rect x="480" y="128" width="4" height="4" fill="#484440"/>
  <rect x="496" y="16" width="4" height="4" fill="#484440"/>
  <rect x="496" y="32" width="4" height="4" fill="#484440"/>
  <rect x="496" y="48" width="4" height="4" fill="#484440"/>
  <rect x="496" y="64" width="4" height="4" fill="#484440"/>
  <rect x="496" y="80" width="4" height="4" fill="#484440"/>
  <rect x="496" y="96" width="4" height="4" fill="#484440"/>
  <rect x="496" y="112" width="4" height="4" fill="#484440"/>
  <rect x="496" y="128" width="4" height="4" fill="#484440"/>
  <rect x="512" y="16" width="4" height="4" fill="#484440"/>
  <rect x="512" y="32" width="4" height="4" fill="#484440"/>
  <rect x="512" y="48" width="4" height="4" fill="#484440"/>
  <rect x="512" y="64" width="4" height="4" fill="#484440"/>
  <rect x="512" y="80" width="4" height="4" fill="#484440"/>
  <rect x="512" y="96" width="4" height="4" fill="#484440"/>
  <rect x="512" y="112" width="4" height="4" fill="#484440"/>
  <rect x="512" y="128" width="4" height="4" fill="#484440"/>
  <rect x="528" y="16" width="4" height="4" fill="#484440"/>
  <rect x="528" y="32" width="4" height="4" fill="#484440"/>
  <rect x="528" y="48" width="4" height="4" fill="#484440"/>
  <rect x="528" y="64" width="4" height="4" fill="#484440"/>
  <rect x="528" y="80" width="4" height="4" fill="#484440"/>
  <rect x="528" y="96" width="4" height="4" fill="#484440"/>
  <rect x="528" y="112" width="4" height="4" fill="#484440"/>
  <rect x="528" y="128" width="4" height="4" fill="#484440"/>
  <text x="400" y="176" font-size="9" fill="#666" font-family="monospace" shape-rendering="auto">minimap</text>
  <rect x="592" y="0" width="80" height="80" fill="#141210"/>
  <rect x="600" y="8" width="64" height="64" fill="#2C2C28"/>
  <rect x="600" y="8" width="64" height="4" fill="#606058"/>
  <rect x="600" y="8" width="4" height="64" fill="#606058"/>
  <rect x="600" y="68" width="64" height="4" fill="#484440"/>
  <rect x="660" y="8" width="4" height="64" fill="#484440"/>
  <rect x="592" y="0" width="12" height="4" fill="#FFD700"/>
  <rect x="592" y="0" width="4" height="12" fill="#FFD700"/>
  <rect x="660" y="0" width="12" height="4" fill="#FFD700"/>
  <rect x="668" y="0" width="4" height="12" fill="#FFD700"/>
  <text x="592" y="96" font-size="9" fill="#666" font-family="monospace" shape-rendering="auto">inv_slot</text>
  <rect x="0" y="264" width="320" height="80" fill="#141210"/>
  <rect x="8" y="272" width="304" height="64" fill="#2C2C28"/>
  <rect x="0" y="264" width="320" height="8" fill="#FFD700"/>
  <rect x="0" y="264" width="8" height="80" fill="#FFD700"/>
  <rect x="312" y="264" width="8" height="80" fill="#FFD700"/>
  <rect x="0" y="336" width="320" height="8" fill="#FFD700"/>
  <rect x="8" y="272" width="16" height="16" fill="#D4A040"/>
  <rect x="296" y="272" width="16" height="16" fill="#D4A040"/>
  <rect x="24" y="284" width="272" height="8" fill="#888880"/>
  <rect x="24" y="304" width="200" height="8" fill="#888880"/>
  <rect x="24" y="320" width="240" height="8" fill="#888880"/>
  <rect x="40" y="340" width="24" height="4" fill="#FFD700"/>
  <rect x="44" y="340" width="16" height="4" fill="#2C2C28"/>
  <text x="0" y="312" font-size="9" fill="#666" font-family="monospace" shape-rendering="auto">dialogue80</text>
</svg>
