<svg xmlns="http://www.w3.org/2000/svg" viewBox="0 0 1024 320" width="1024" height="320" shape-rendering="crispEdges">
  <!-- STREET DETAILS — Traffic light, bus stop, café, crates, cat, balcony -->
  <!-- SCALE: 4×  |  1 game px = 4 SVG px  |  PALETTE: Turnhoutsebaan 32-color -->
  <rect x="4" y="0" width="32" height="104" fill="#141210"/>
  <rect x="4" y="0" width="4" height="104" fill="#606058"/>
  <rect x="32" y="0" width="4" height="104" fill="#606058"/>
  <rect x="4" y="0" width="32" height="4" fill="#606058"/>
  <rect x="4" y="100" width="32" height="4" fill="#606058"/>
  <rect x="8" y="8" width="24" height="24" fill="#CC2010"/>
  <rect x="12" y="8" width="16" height="24" fill="#CC2010"/>
  <rect x="8" y="12" width="24" height="16" fill="#CC2010"/>
  <rect x="12" y="12" width="8" height="8" fill="#F0EEE8"/>
  <rect x="8" y="40" width="24" height="24" fill="#606058"/>
  <rect x="12" y="40" width="16" height="24" fill="#606058"/>
  <rect x="8" y="44" width="24" height="16" fill="#606058"/>
  <rect x="8" y="72" width="24" height="24" fill="#606058"/>
  <rect x="12" y="72" width="16" height="24" fill="#606058"/>
  <rect x="8" y="76" width="24" height="16" fill="#606058"/>
  <rect x="16" y="104" width="8" height="48" fill="#606058"/>
  <rect x="16" y="104" width="4" height="48" fill="#888880"/>
  <rect x="8" y="148" width="24" height="8" fill="#606058"/>
  <text x="0" y="176" font-size="9" fill="#666" font-family="monospace" shape-rendering="auto">tl_red</text>
  <rect x="60" y="0" width="32" height="104" fill="#141210"/>
  <rect x="60" y="0" width="4" height="104" fill="#606058"/>
  <rect x="88" y="0" width="4" height="104" fill="#606058"/>
  <rect x="60" y="0" width="32" height="4" fill="#606058"/>
  <rect x="60" y="100" width="32" height="4" fill="#606058"/>
  <rect x="64" y="8" width="24" height="24" fill="#606058"/>
  <rect x="68" y="8" width="16" height="24" fill="#606058"/>
  <rect x="64" y="12" width="24" height="16" fill="#606058"/>
  <rect x="64" y="40" width="24" height="24" fill="#DDB800"/>
  <rect x="68" y="40" width="16" height="24" fill="#DDB800"/>
  <rect x="64" y="44" width="24" height="16" fill="#DDB800"/>
  <rect x="68" y="44" width="8" height="8" fill="#F0EEE8"/>
  <rect x="64" y="72" width="24" height="24" fill="#606058"/>
  <rect x="68" y="72" width="16" height="24" fill="#606058"/>
  <rect x="64" y="76" width="24" height="16" fill="#606058"/>
  <rect x="72" y="104" width="8" height="48" fill="#606058"/>
  <rect x="72" y="104" width="4" height="48" fill="#888880"/>
  <rect x="64" y="148" width="24" height="8" fill="#606058"/>
  <text x="56" y="176" font-size="9" fill="#666" font-family="monospace" shape-rendering="auto">tl_amb</text>
  <rect x="116" y="0" width="32" height="104" fill="#141210"/>
  <rect x="116" y="0" width="4" height="104" fill="#606058"/>
  <rect x="144" y="0" width="4" height="104" fill="#606058"/>
  <rect x="116" y="0" width="32" height="4" fill="#606058"/>
  <rect x="116" y="100" width="32" height="4" fill="#606058"/>
  <rect x="120" y="8" width="24" height="24" fill="#606058"/>
  <rect x="124" y="8" width="16" height="24" fill="#606058"/>
  <rect x="120" y="12" width="24" height="16" fill="#606058"/>
  <rect x="120" y="40" width="24" height="24" fill="#606058"/>
  <rect x="124" y="40" width="16" height="24" fill="#606058"/>
  <rect x="120" y="44" width="24" height="16" fill="#606058"/>
  <rect x="120" y="72" width="24" height="24" fill="#3C8830"/>
  <rect x="124" y="72" width="16" height="24" fill="#3C8830"/>
  <rect x="120" y="76" width="24" height="16" fill="#3C8830"/>
  <rect x="124" y="76" width="8" height="8" fill="#F0EEE8"/>
  <rect x="128" y="104" width="8" height="48" fill="#606058"/>
  <rect x="128" y="104" width="4" height="48" fill="#888880"/>
  <rect x="120" y="148" width="24" height="8" fill="#606058"/>
  <text x="112" y="176" font-size="9" fill="#666" font-family="monospace" shape-rendering="auto">tl_grn</text>
  <rect x="204" y="32" width="8" height="96" fill="#888880"/>
  <rect x="204" y="32" width="4" height="96" fill="#B4B0A8"/>
  <rect x="176" y="0" width="64" height="36" fill="#1C5898"/>
  <rect x="176" y="0" width="64" height="4" fill="#F0EEE8"/>
  <rect x="176" y="32" width="64" height="4" fill="#F0EEE8"/>
  <rect x="176" y="0" width="4" height="36" fill="#F0EEE8"/>
  <rect x="236" y="0" width="4" height="36" fill="#F0EEE8"/>
  <rect x="184" y="8" width="24" height="20" fill="#F0EEE8"/>
  <rect x="188" y="8" width="16" height="8" fill="#1C5898"/>
  <rect x="184" y="24" width="8" height="4" fill="#606058"/>
  <rect x="196" y="24" width="8" height="4" fill="#606058"/>
  <rect x="216" y="8" width="16" height="20" fill="#DDB800"/>
  <rect x="220" y="12" width="8" height="12" fill="#141210"/>
  <rect x="180" y="40" width="56" height="40" fill="#F0EEE8"/>
  <rect x="184" y="44" width="48" height="4" fill="#606058"/>
  <rect x="184" y="52" width="32" height="4" fill="#606058"/>
  <rect x="184" y="60" width="40" height="4" fill="#606058"/>
  <rect x="184" y="68" width="24" height="4" fill="#606058"/>
  <rect x="196" y="124" width="24" height="4" fill="#606058"/>
  <text x="176" y="176" font-size="9" fill="#666" font-family="monospace" shape-rendering="auto">bus_stop</text>
  <rect x="288" y="24" width="64" height="8" fill="#8A5A28"/>
  <rect x="288" y="24" width="64" height="4" fill="#4A2C10"/>
  <rect x="288" y="28" width="64" height="4" fill="#C8A86C"/>
  <rect x="316" y="32" width="8" height="40" fill="#4A2C10"/>
  <rect x="316" y="32" width="4" height="40" fill="#8A5A28"/>
  <rect x="288" y="68" width="64" height="8" fill="#4A2C10"/>
  <rect x="256" y="32" width="24" height="8" fill="#8A5A28"/>
  <rect x="256" y="32" width="24" height="4" fill="#4A2C10"/>
  <rect x="260" y="16" width="8" height="20" fill="#8A5A28"/>
  <rect x="268" y="16" width="8" height="20" fill="#8A5A28"/>
  <rect x="260" y="16" width="16" height="4" fill="#8A5A28"/>
  <rect x="256" y="40" width="8" height="24" fill="#4A2C10"/>
  <rect x="272" y="40" width="8" height="24" fill="#4A2C10"/>
  <rect x="360" y="32" width="24" height="8" fill="#8A5A28"/>
  <rect x="360" y="32" width="24" height="4" fill="#4A2C10"/>
  <rect x="364" y="16" width="8" height="20" fill="#8A5A28"/>
  <rect x="372" y="16" width="8" height="20" fill="#8A5A28"/>
  <rect x="364" y="16" width="16" height="4" fill="#8A5A28"/>
  <rect x="360" y="40" width="8" height="24" fill="#4A2C10"/>
  <rect x="376" y="40" width="8" height="24" fill="#4A2C10"/>
  <rect x="296" y="16" width="16" height="12" fill="#F0EEE8"/>
  <rect x="300" y="20" width="8" height="4" fill="#4A2C10"/>
  <rect x="328" y="16" width="16" height="12" fill="#F0EEE8"/>
  <rect x="332" y="20" width="8" height="4" fill="#4A2C10"/>
  <rect x="280" y="88" width="80" height="8" fill="#2C2C28"/>
  <text x="256" y="176" font-size="9" fill="#666" font-family="monospace" shape-rendering="auto">cafe_ter</text>
  <rect x="400" y="24" width="80" height="40" fill="#8A5A28"/>
  <rect x="400" y="24" width="80" height="4" fill="#4A2C10"/>
  <rect x="400" y="24" width="4" height="40" fill="#4A2C10"/>
  <rect x="476" y="24" width="4" height="40" fill="#4A2C10"/>
  <rect x="400" y="60" width="80" height="4" fill="#4A2C10"/>
  <rect x="416" y="28" width="4" height="32" fill="#4A2C10"/>
  <rect x="436" y="28" width="4" height="32" fill="#4A2C10"/>
  <rect x="456" y="28" width="4" height="32" fill="#4A2C10"/>
  <rect x="404" y="8" width="8" height="12" fill="#984428"/>
  <rect x="404" y="8" width="8" height="4" fill="#C07050"/>
  <rect x="412" y="8" width="8" height="12" fill="#984428"/>
  <rect x="412" y="8" width="8" height="4" fill="#C07050"/>
  <rect x="424" y="8" width="8" height="12" fill="#984428"/>
  <rect x="424" y="8" width="8" height="4" fill="#C07050"/>
  <rect x="432" y="8" width="8" height="12" fill="#984428"/>
  <rect x="432" y="8" width="8" height="4" fill="#C07050"/>
  <rect x="444" y="8" width="8" height="12" fill="#984428"/>
  <rect x="444" y="8" width="8" height="4" fill="#C07050"/>
  <rect x="452" y="8" width="8" height="12" fill="#984428"/>
  <rect x="452" y="8" width="8" height="4" fill="#C07050"/>
  <rect x="464" y="8" width="8" height="12" fill="#984428"/>
  <rect x="464" y="8" width="8" height="4" fill="#C07050"/>
  <rect x="472" y="8" width="8" height="12" fill="#984428"/>
  <rect x="472" y="8" width="8" height="4" fill="#C07050"/>
  <rect x="408" y="0" width="8" height="12" fill="#D4A040"/>
  <rect x="408" y="0" width="8" height="4" fill="#DDB800"/>
  <rect x="420" y="0" width="8" height="12" fill="#D4A040"/>
  <rect x="420" y="0" width="8" height="4" fill="#DDB800"/>
  <rect x="432" y="0" width="8" height="12" fill="#D4A040"/>
  <rect x="432" y="0" width="8" height="4" fill="#DDB800"/>
  <rect x="444" y="0" width="8" height="12" fill="#D4A040"/>
  <rect x="444" y="0" width="8" height="4" fill="#DDB800"/>
  <rect x="456" y="0" width="8" height="12" fill="#D4A040"/>
  <rect x="456" y="0" width="8" height="4" fill="#DDB800"/>
  <rect x="468" y="0" width="8" height="12" fill="#D4A040"/>
  <rect x="468" y="0" width="8" height="4" fill="#DDB800"/>
  <rect x="404" y="16" width="16" height="8" fill="#3C8830"/>
  <rect x="440" y="16" width="16" height="8" fill="#3C8830"/>
  <rect x="432" y="44" width="32" height="16" fill="#F0EEE8"/>
  <rect x="436" y="48" width="24" height="4" fill="#606058"/>
  <text x="400" y="176" font-size="9" fill="#666" font-family="monospace" shape-rendering="auto">merch_cr</text>
  <rect x="504" y="36" width="32" height="28" fill="#888880"/>
  <rect x="508" y="24" width="24" height="20" fill="#888880"/>
  <rect x="508" y="16" width="24" height="16" fill="#888880"/>
  <rect x="508" y="16" width="8" height="8" fill="#606058"/>
  <rect x="524" y="16" width="8" height="8" fill="#606058"/>
  <rect x="512" y="24" width="4" height="4" fill="#0C0C18"/>
  <rect x="524" y="24" width="4" height="4" fill="#0C0C18"/>
  <rect x="516" y="24" width="4" height="4" fill="#FFD700"/>
  <rect x="528" y="24" width="4" height="4" fill="#FFD700"/>
  <rect x="520" y="28" width="4" height="4" fill="#C07050"/>
  <rect x="536" y="48" width="8" height="16" fill="#888880"/>
  <rect x="536" y="60" width="4" height="4" fill="#888880"/>
  <rect x="508" y="60" width="12" height="4" fill="#B4B0A8"/>
  <rect x="524" y="60" width="12" height="4" fill="#B4B0A8"/>
  <rect x="512" y="20" width="12" height="8" fill="#B4B0A8"/>
  <rect x="512" y="32" width="8" height="8" fill="#B4B0A8"/>
  <text x="496" y="176" font-size="9" fill="#666" font-family="monospace" shape-rendering="auto">cat</text>
  <rect x="560" y="16" width="96" height="12" fill="#888880"/>
  <rect x="560" y="16" width="96" height="4" fill="#B4B0A8"/>
  <rect x="560" y="24" width="96" height="4" fill="#606058"/>
  <rect x="564" y="28" width="8" height="36" fill="#606058"/>
  <rect x="564" y="28" width="4" height="36" fill="#888880"/>
  <rect x="580" y="28" width="8" height="36" fill="#606058"/>
  <rect x="580" y="28" width="4" height="36" fill="#888880"/>
  <rect x="596" y="28" width="8" height="36" fill="#606058"/>
  <rect x="596" y="28" width="4" height="36" fill="#888880"/>
  <rect x="612" y="28" width="8" height="36" fill="#606058"/>
  <rect x="612" y="28" width="4" height="36" fill="#888880"/>
  <rect x="628" y="28" width="8" height="36" fill="#606058"/>
  <rect x="628" y="28" width="4" height="36" fill="#888880"/>
  <rect x="644" y="28" width="8" height="36" fill="#606058"/>
  <rect x="644" y="28" width="4" height="36" fill="#888880"/>
  <rect x="560" y="28" width="96" height="4" fill="#606058"/>
  <rect x="560" y="28" width="96" height="4" fill="#888880"/>
  <rect x="560" y="56" width="96" height="4" fill="#606058"/>
  <rect x="568" y="40" width="8" height="4" fill="#888880"/>
  <rect x="572" y="36" width="4" height="12" fill="#888880"/>
  <rect x="568" y="36" width="4" height="4" fill="#B4B0A8"/>
  <rect x="576" y="36" width="4" height="4" fill="#B4B0A8"/>
  <rect x="584" y="40" width="8" height="4" fill="#888880"/>
  <rect x="588" y="36" width="4" height="12" fill="#888880"/>
  <rect x="584" y="36" width="4" height="4" fill="#B4B0A8"/>
  <rect x="592" y="36" width="4" height="4" fill="#B4B0A8"/>
  <rect x="600" y="40" width="8" height="4" fill="#888880"/>
  <rect x="604" y="36" width="4" height="12" fill="#888880"/>
  <rect x="600" y="36" width="4" height="4" fill="#B4B0A8"/>
  <rect x="608" y="36" width="4" height="4" fill="#B4B0A8"/>
  <rect x="616" y="40" width="8" height="4" fill="#888880"/>
  <rect x="620" y="36" width="4" height="12" fill="#888880"/>
  <rect x="616" y="36" width="4" height="4" fill="#B4B0A8"/>
  <rect x="624" y="36" width="4" height="4" fill="#B4B0A8"/>
  <rect x="632" y="40" width="8" height="4" fill="#888880"/>
  <rect x="636" y="36" width="4" height="12" fill="#888880"/>
  <rect x="632" y="36" width="4" height="4" fill="#B4B0A8"/>
  <rect x="640" y="36" width="4" height="4" fill="#B4B0A8"/>
  <rect x="600" y="16" width="16" height="8" fill="#C07050"/>
  <rect x="600" y="8" width="16" height="12" fill="#3C8830"/>
  <rect x="604" y="4" width="8" height="8" fill="#3C8830"/>
  <text x="560" y="176" font-size="9" fill="#666" font-family="monospace" shape-rendering="auto">balcony</text>
  <rect x="672" y="0" width="8" height="80" fill="#606058"/>
  <rect x="672" y="0" width="4" height="80" fill="#B4B0A8"/>
  <rect x="680" y="4" width="16" height="48" fill="#141210"/>
  <rect x="696" y="4" width="16" height="48" fill="#FFD700"/>
  <rect x="712" y="4" width="16" height="48" fill="#CC2010"/>
  <rect x="680" y="4" width="16" height="4" fill="#606058"/>
  <rect x="680" y="16" width="12" height="4" fill="#606058"/>
  <rect x="696" y="16" width="12" height="4" fill="#D4A040"/>
  <rect x="712" y="16" width="12" height="4" fill="#C07050"/>
  <rect x="672" y="0" width="8" height="8" fill="#FFD700"/>
  <rect x="676" y="76" width="16" height="4" fill="#2C2C28"/>
  <text x="672" y="176" font-size="9" fill="#666" font-family="monospace" shape-rendering="auto">flag_be</text>
</svg>
