<svg xmlns="http://www.w3.org/2000/svg" viewBox="0 0 640 256" width="640" height="256" shape-rendering="crispEdges">
  <!-- PROPS SHEET — Street furniture, Turnhoutsebaan -->
  <!-- SCALE: 4×  |  1 game px = 4 SVG px  |  PALETTE: Turnhoutsebaan 32-color -->
  <rect x="12" y="136" width="8" height="120" fill="#606058"/>
  <rect x="12" y="136" width="4" height="120" fill="#B4B0A8"/>
  <rect x="8" y="240" width="16" height="16" fill="#606058"/>
  <rect x="4" y="248" width="24" height="8" fill="#606058"/>
  <rect x="4" y="144" width="8" height="4" fill="#606058"/>
  <rect x="4" y="136" width="4" height="12" fill="#606058"/>
  <rect x="0" y="128" width="12" height="12" fill="#888880"/>
  <rect x="4" y="124" width="4" height="4" fill="#DDB800"/>
  <rect x="0" y="132" width="12" height="4" fill="#606058"/>
  <rect x="20" y="144" width="8" height="4" fill="#606058"/>
  <rect x="24" y="136" width="4" height="12" fill="#606058"/>
  <rect x="20" y="128" width="12" height="12" fill="#888880"/>
  <rect x="24" y="124" width="4" height="4" fill="#DDB800"/>
  <rect x="20" y="132" width="12" height="4" fill="#606058"/>
  <rect x="8" y="132" width="16" height="8" fill="#888880"/>
  <rect x="8" y="132" width="16" height="4" fill="#B4B0A8"/>
  <rect x="20" y="252" width="12" height="4" fill="#2C2C28"/>
  <text x="0" y="248" font-size="9" fill="#666" font-family="monospace" shape-rendering="auto">lamp</text>
  <rect x="80" y="128" width="32" height="12" fill="#606058"/>
  <rect x="72" y="136" width="48" height="16" fill="#606058"/>
  <rect x="68" y="148" width="56" height="20" fill="#606058"/>
  <rect x="64" y="164" width="64" height="24" fill="#606058"/>
  <rect x="84" y="128" width="24" height="8" fill="#3C8830"/>
  <rect x="76" y="136" width="40" height="16" fill="#3C8830"/>
  <rect x="68" y="148" width="56" height="16" fill="#3C8830"/>
  <rect x="64" y="164" width="64" height="16" fill="#3C8830"/>
  <rect x="84" y="132" width="16" height="8" fill="#686460"/>
  <rect x="92" y="188" width="8" height="44" fill="#4A2C10"/>
  <rect x="92" y="188" width="4" height="44" fill="#8A5A28"/>
  <rect x="64" y="232" width="64" height="24" fill="#606058"/>
  <rect x="64" y="232" width="4" height="24" fill="#888880"/>
  <rect x="80" y="232" width="4" height="24" fill="#888880"/>
  <rect x="96" y="232" width="4" height="24" fill="#888880"/>
  <rect x="112" y="232" width="4" height="24" fill="#888880"/>
  <rect x="64" y="232" width="64" height="4" fill="#888880"/>
  <rect x="64" y="240" width="64" height="4" fill="#888880"/>
  <rect x="64" y="248" width="64" height="4" fill="#888880"/>
  <rect x="72" y="252" width="48" height="4" fill="#2C2C28"/>
  <text x="64" y="248" font-size="9" fill="#666" font-family="monospace" shape-rendering="auto">tree</text>
  <rect x="168" y="200" width="80" height="4" fill="#8A5A28"/>
  <rect x="168" y="204" width="80" height="4" fill="#4A2C10"/>
  <rect x="168" y="208" width="80" height="4" fill="#8A5A28"/>
  <rect x="168" y="212" width="80" height="4" fill="#4A2C10"/>
  <rect x="168" y="216" width="80" height="4" fill="#8A5A28"/>
  <rect x="168" y="220" width="80" height="4" fill="#4A2C10"/>
  <rect x="168" y="184" width="80" height="4" fill="#8A5A28"/>
  <rect x="168" y="188" width="80" height="4" fill="#4A2C10"/>
  <rect x="168" y="192" width="80" height="4" fill="#8A5A28"/>
  <rect x="168" y="196" width="80" height="4" fill="#4A2C10"/>
  <rect x="168" y="224" width="8" height="24" fill="#606058"/>
  <rect x="168" y="224" width="4" height="24" fill="#B4B0A8"/>
  <rect x="164" y="240" width="16" height="8" fill="#606058"/>
  <rect x="208" y="224" width="8" height="24" fill="#606058"/>
  <rect x="208" y="224" width="4" height="24" fill="#B4B0A8"/>
  <rect x="204" y="240" width="16" height="8" fill="#606058"/>
  <rect x="240" y="224" width="8" height="24" fill="#606058"/>
  <rect x="240" y="224" width="4" height="24" fill="#B4B0A8"/>
  <rect x="236" y="240" width="16" height="8" fill="#606058"/>
  <rect x="168" y="216" width="4" height="16" fill="#606058"/>
  <rect x="244" y="216" width="4" height="16" fill="#606058"/>
  <rect x="176" y="244" width="64" height="4" fill="#2C2C28"/>
  <text x="160" y="248" font-size="9" fill="#666" font-family="monospace" shape-rendering="auto">bench</text>
  <rect x="276" y="188" width="32" height="60" fill="#606058"/>
  <rect x="276" y="188" width="8" height="60" fill="#888880"/>
  <rect x="276" y="188" width="32" height="4" fill="#888880"/>
  <rect x="272" y="184" width="40" height="4" fill="#B4B0A8"/>
  <rect x="272" y="184" width="40" height="8" fill="#888880"/>
  <rect x="276" y="176" width="32" height="12" fill="#888880"/>
  <rect x="280" y="176" width="24" height="4" fill="#B4B0A8"/>
  <rect x="284" y="180" width="16" height="4" fill="#141210"/>
  <rect x="288" y="216" width="4" height="4" fill="#F0EEE8"/>
  <rect x="292" y="212" width="4" height="4" fill="#F0EEE8"/>
  <rect x="296" y="216" width="4" height="4" fill="#F0EEE8"/>
  <rect x="292" y="220" width="4" height="4" fill="#F0EEE8"/>
  <rect x="280" y="248" width="24" height="8" fill="#606058"/>
  <rect x="284" y="252" width="16" height="4" fill="#2C2C28"/>
  <rect x="284" y="256" width="16" height="4" fill="#2C2C28"/>
  <text x="272" y="248" font-size="9" fill="#666" font-family="monospace" shape-rendering="auto">bin</text>
  <rect x="332" y="208" width="16" height="36" fill="#141210"/>
  <rect x="332" y="208" width="4" height="36" fill="#606058"/>
  <rect x="328" y="200" width="24" height="12" fill="#DDB800"/>
  <rect x="328" y="200" width="24" height="4" fill="#D4A040"/>
  <rect x="328" y="208" width="24" height="4" fill="#C8A86C"/>
  <rect x="332" y="224" width="16" height="4" fill="#B4B0A8"/>
  <rect x="328" y="244" width="24" height="4" fill="#606058"/>
  <rect x="332" y="244" width="16" height="4" fill="#2C2C28"/>
  <text x="328" y="248" font-size="9" fill="#666" font-family="monospace" shape-rendering="auto">bollard</text>
  <rect x="388" y="192" width="8" height="48" fill="#888880"/>
  <rect x="388" y="192" width="4" height="48" fill="#B4B0A8"/>
  <rect x="368" y="160" width="48" height="36" fill="#1C5898"/>
  <rect x="368" y="160" width="48" height="4" fill="#F0EEE8"/>
  <rect x="368" y="192" width="48" height="4" fill="#F0EEE8"/>
  <rect x="368" y="160" width="4" height="36" fill="#F0EEE8"/>
  <rect x="412" y="160" width="4" height="36" fill="#F0EEE8"/>
  <rect x="372" y="168" width="40" height="4" fill="#F0EEE8"/>
  <rect x="372" y="176" width="32" height="4" fill="#F0EEE8"/>
  <rect x="372" y="184" width="36" height="4" fill="#F0EEE8"/>
  <rect x="368" y="160" width="48" height="4" fill="#C8DFF2"/>
  <rect x="368" y="160" width="4" height="36" fill="#C8DFF2"/>
  <rect x="384" y="236" width="16" height="4" fill="#606058"/>
  <text x="368" y="248" font-size="9" fill="#666" font-family="monospace" shape-rendering="auto">sign</text>
  <rect x="456" y="196" width="4" height="4" fill="#606058"/>
  <rect x="452" y="200" width="4" height="4" fill="#606058"/>
  <rect x="448" y="204" width="4" height="4" fill="#606058"/>
  <rect x="448" y="208" width="4" height="4" fill="#606058"/>
  <rect x="448" y="212" width="4" height="4" fill="#606058"/>
  <rect x="452" y="216" width="4" height="4" fill="#606058"/>
  <rect x="456" y="220" width="4" height="4" fill="#606058"/>
  <rect x="460" y="224" width="4" height="4" fill="#606058"/>
  <rect x="464" y="224" width="4" height="4" fill="#606058"/>
  <rect x="468" y="220" width="4" height="4" fill="#606058"/>
  <rect x="472" y="216" width="4" height="4" fill="#606058"/>
  <rect x="472" y="212" width="4" height="4" fill="#606058"/>
  <rect x="472" y="208" width="4" height="4" fill="#606058"/>
  <rect x="472" y="204" width="4" height="4" fill="#606058"/>
  <rect x="468" y="200" width="4" height="4" fill="#606058"/>
  <rect x="464" y="196" width="4" height="4" fill="#606058"/>
  <rect x="460" y="196" width="4" height="4" fill="#606058"/>
  <rect x="488" y="196" width="4" height="4" fill="#606058"/>
  <rect x="484" y="200" width="4" height="4" fill="#606058"/>
  <rect x="480" y="204" width="4" height="4" fill="#606058"/>
  <rect x="480" y="208" width="4" height="4" fill="#606058"/>
  <rect x="480" y="212" width="4" height="4" fill="#606058"/>
  <rect x="484" y="216" width="4" height="4" fill="#606058"/>
  <rect x="488" y="220" width="4" height="4" fill="#606058"/>
  <rect x="492" y="224" width="4" height="4" fill="#606058"/>
  <rect x="496" y="224" width="4" height="4" fill="#606058"/>
  <rect x="500" y="220" width="4" height="4" fill="#606058"/>
  <rect x="500" y="216" width="4" height="4" fill="#606058"/>
  <rect x="500" y="212" width="4" height="4" fill="#606058"/>
  <rect x="500" y="208" width="4" height="4" fill="#606058"/>
  <rect x="500" y="204" width="4" height="4" fill="#606058"/>
  <rect x="496" y="200" width="4" height="4" fill="#606058"/>
  <rect x="492" y="196" width="4" height="4" fill="#606058"/>
  <rect x="460" y="208" width="12" height="4" fill="#888880"/>
  <rect x="464" y="204" width="4" height="12" fill="#888880"/>
  <rect x="488" y="208" width="12" height="4" fill="#888880"/>
  <rect x="492" y="204" width="4" height="12" fill="#888880"/>
  <rect x="468" y="200" width="4" height="4" fill="#606058"/>
  <rect x="472" y="200" width="16" height="4" fill="#888880"/>
  <rect x="472" y="204" width="4" height="12" fill="#888880"/>
  <rect x="472" y="212" width="16" height="4" fill="#888880"/>
  <rect x="484" y="196" width="4" height="8" fill="#606058"/>
  <rect x="480" y="196" width="8" height="4" fill="#B4B0A8"/>
  <rect x="468" y="196" width="8" height="4" fill="#606058"/>
  <rect x="468" y="192" width="8" height="4" fill="#B4B0A8"/>
  <rect x="476" y="216" width="12" height="4" fill="#B4B0A8"/>
  <text x="440" y="248" font-size="9" fill="#666" font-family="monospace" shape-rendering="auto">bicycle</text>
</svg>
