<svg xmlns="http://www.w3.org/2000/svg" viewBox="0 0 1344 256" width="1344" height="256" shape-rendering="crispEdges">
  <!-- Battle Character Sprites — Turnhoutsebaan RPG -->
  <!-- SCALE: 4×  |  1 game px = 4 SVG px  |  PALETTE: Turnhoutsebaan 32-color -->
  <rect x="64" y="28" width="64" height="20" fill="#1C5898"/>
  <rect x="56" y="40" width="12" height="56" fill="#1C5898"/>
  <rect x="124" y="40" width="12" height="56" fill="#1C5898"/>
  <rect x="64" y="28" width="8" height="48" fill="#F0EEE8"/>
  <rect x="120" y="28" width="8" height="48" fill="#F0EEE8"/>
  <rect x="76" y="32" width="40" height="12" fill="#141210"/>
  <rect x="72" y="40" width="48" height="20" fill="#141210"/>
  <rect x="76" y="44" width="40" height="48" fill="#C8A86C"/>
  <rect x="76" y="44" width="20" height="12" fill="#E8CFA0"/>
  <rect x="108" y="52" width="8" height="24" fill="#D4A040"/>
  <rect x="80" y="60" width="12" height="4" fill="#141210"/>
  <rect x="96" y="60" width="12" height="4" fill="#141210"/>
  <rect x="80" y="64" width="8" height="4" fill="#141210"/>
  <rect x="100" y="64" width="8" height="4" fill="#141210"/>
  <rect x="84" y="84" width="24" height="4" fill="#D4A040"/>
  <rect x="84" y="80" width="8" height="4" fill="#D4A040"/>
  <rect x="100" y="80" width="8" height="4" fill="#D4A040"/>
  <rect x="92" y="72" width="12" height="12" fill="#D4A040"/>
  <rect x="68" y="60" width="8" height="20" fill="#C8A86C"/>
  <rect x="116" y="60" width="8" height="20" fill="#C8A86C"/>
  <rect x="84" y="92" width="24" height="16" fill="#C8A86C"/>
  <rect x="96" y="96" width="8" height="12" fill="#D4A040"/>
  <rect x="68" y="108" width="56" height="72" fill="#F0EEE8"/>
  <rect x="68" y="108" width="8" height="72" fill="#B4B0A8"/>
  <rect x="116" y="108" width="8" height="72" fill="#B4B0A8"/>
  <rect x="44" y="100" width="24" height="52" fill="#F0EEE8"/>
  <rect x="36" y="76" width="24" height="32" fill="#F0EEE8"/>
  <rect x="36" y="52" width="20" height="28" fill="#C8A86C"/>
  <rect x="36" y="52" width="4" height="24" fill="#D4A040"/>
  <rect x="52" y="52" width="4" height="24" fill="#D4A040"/>
  <rect x="124" y="100" width="24" height="52" fill="#F0EEE8"/>
  <rect x="132" y="76" width="24" height="32" fill="#F0EEE8"/>
  <rect x="136" y="52" width="20" height="28" fill="#C8A86C"/>
  <rect x="132" y="52" width="4" height="24" fill="#D4A040"/>
  <rect x="152" y="52" width="4" height="24" fill="#D4A040"/>
  <rect x="72" y="180" width="48" height="52" fill="#606058"/>
  <rect x="96" y="180" width="4" height="52" fill="#2C2C28"/>
  <rect x="116" y="184" width="8" height="44" fill="#2C2C28"/>
  <rect x="68" y="232" width="28" height="20" fill="#F0EEE8"/>
  <rect x="96" y="232" width="28" height="20" fill="#F0EEE8"/>
  <rect x="68" y="236" width="28" height="4" fill="#1C5898"/>
  <rect x="96" y="236" width="28" height="4" fill="#1C5898"/>
  <rect x="64" y="244" width="32" height="12" fill="#2C2C28"/>
  <rect x="96" y="244" width="32" height="12" fill="#2C2C28"/>
  <rect x="256" y="28" width="64" height="20" fill="#484440"/>
  <rect x="248" y="40" width="12" height="60" fill="#484440"/>
  <rect x="316" y="40" width="12" height="60" fill="#484440"/>
  <rect x="248" y="40" width="4" height="56" fill="#686460"/>
  <rect x="316" y="40" width="8" height="56" fill="#2C2C28"/>
  <rect x="256" y="28" width="20" height="12" fill="#686460"/>
  <rect x="268" y="36" width="40" height="12" fill="#2C2C28"/>
  <rect x="264" y="44" width="48" height="16" fill="#2C2C28"/>
  <rect x="264" y="48" width="48" height="48" fill="#E8CFA0"/>
  <rect x="264" y="48" width="16" height="32" fill="#C8A86C"/>
  <rect x="304" y="52" width="8" height="28" fill="#C8A86C"/>
  <rect x="268" y="56" width="16" height="8" fill="#2C2C28"/>
  <rect x="292" y="56" width="16" height="8" fill="#2C2C28"/>
  <rect x="268" y="64" width="16" height="8" fill="#2C2C28"/>
  <rect x="292" y="64" width="16" height="8" fill="#2C2C28"/>
  <rect x="272" y="68" width="8" height="4" fill="#C8A86C"/>
  <rect x="296" y="68" width="8" height="4" fill="#C8A86C"/>
  <rect x="272" y="84" width="32" height="4" fill="#2C2C28"/>
  <rect x="268" y="80" width="8" height="8" fill="#C8A86C"/>
  <rect x="300" y="80" width="8" height="8" fill="#C8A86C"/>
  <rect x="284" y="68" width="12" height="16" fill="#C8A86C"/>
  <rect x="272" y="92" width="32" height="12" fill="#E8CFA0"/>
  <rect x="272" y="96" width="12" height="8" fill="#C8A86C"/>
  <rect x="252" y="104" width="72" height="84" fill="#484440"/>
  <rect x="252" y="104" width="8" height="84" fill="#686460"/>
  <rect x="316" y="104" width="8" height="84" fill="#2C2C28"/>
  <rect x="316" y="92" width="24" height="60" fill="#484440"/>
  <rect x="332" y="64" width="20" height="36" fill="#484440"/>
  <rect x="332" y="44" width="20" height="24" fill="#E8CFA0"/>
  <rect x="332" y="44" width="4" height="20" fill="#C8A86C"/>
  <rect x="348" y="44" width="4" height="20" fill="#C8A86C"/>
  <rect x="228" y="104" width="24" height="80" fill="#484440"/>
  <rect x="228" y="176" width="20" height="16" fill="#E8CFA0"/>
  <rect x="256" y="188" width="64" height="52" fill="#606058"/>
  <rect x="288" y="188" width="4" height="44" fill="#0C0C18"/>
  <rect x="312" y="192" width="8" height="40" fill="#0C0C18"/>
  <rect x="252" y="232" width="32" height="24" fill="#2C2C28"/>
  <rect x="288" y="232" width="32" height="24" fill="#2C2C28"/>
  <rect x="248" y="244" width="36" height="12" fill="#0C0C18"/>
  <rect x="288" y="244" width="36" height="12" fill="#0C0C18"/>
  <rect x="452" y="48" width="56" height="48" fill="#888880"/>
  <rect x="444" y="64" width="12" height="56" fill="#888880"/>
  <rect x="504" y="64" width="8" height="56" fill="#888880"/>
  <rect x="452" y="48" width="20" height="12" fill="#B4B0A8"/>
  <rect x="492" y="56" width="16" height="40" fill="#606058"/>
  <rect x="456" y="72" width="40" height="32" fill="#2C2C28"/>
  <rect x="460" y="76" width="20" height="20" fill="#C8A86C"/>
  <rect x="464" y="80" width="8" height="4" fill="#B4B0A8"/>
  <rect x="480" y="80" width="8" height="4" fill="#B4B0A8"/>
  <rect x="468" y="104" width="24" height="12" fill="#888880"/>
  <rect x="448" y="116" width="64" height="68" fill="#888880"/>
  <rect x="448" y="116" width="8" height="68" fill="#B4B0A8"/>
  <rect x="504" y="116" width="8" height="68" fill="#606058"/>
  <rect x="504" y="112" width="28" height="48" fill="#888880"/>
  <rect x="524" y="84" width="24" height="40" fill="#888880"/>
  <rect x="540" y="68" width="16" height="20" fill="#E8CFA0"/>
  <rect x="536" y="68" width="4" height="16" fill="#C8A86C"/>
  <rect x="552" y="72" width="4" height="12" fill="#C8A86C"/>
  <rect x="420" y="116" width="28" height="72" fill="#888880"/>
  <rect x="452" y="184" width="56" height="52" fill="#606058"/>
  <rect x="480" y="184" width="4" height="44" fill="#0C0C18"/>
  <rect x="500" y="188" width="8" height="40" fill="#0C0C18"/>
  <rect x="448" y="228" width="32" height="20" fill="#606058"/>
  <rect x="480" y="228" width="32" height="20" fill="#606058"/>
  <rect x="444" y="240" width="36" height="12" fill="#0C0C18"/>
  <rect x="480" y="240" width="36" height="12" fill="#0C0C18"/>
  <rect x="628" y="32" width="88" height="12" fill="#DDB800"/>
  <rect x="636" y="16" width="72" height="24" fill="#DDB800"/>
  <rect x="636" y="16" width="28" height="8" fill="#FFD700"/>
  <rect x="696" y="16" width="16" height="24" fill="#D4A040"/>
  <rect x="628" y="32" width="88" height="8" fill="#D4A040"/>
  <rect x="644" y="40" width="56" height="16" fill="#606058"/>
  <rect x="648" y="48" width="48" height="56" fill="#E8CFA0"/>
  <rect x="648" y="48" width="20" height="16" fill="#F4E8C8"/>
  <rect x="688" y="56" width="12" height="32" fill="#C8A86C"/>
  <rect x="648" y="56" width="8" height="24" fill="#C8A86C"/>
  <rect x="652" y="60" width="16" height="8" fill="#606058"/>
  <rect x="676" y="60" width="16" height="8" fill="#606058"/>
  <rect x="652" y="68" width="16" height="12" fill="#2C2C28"/>
  <rect x="676" y="68" width="16" height="12" fill="#2C2C28"/>
  <rect x="656" y="72" width="4" height="4" fill="#F4E8C8"/>
  <rect x="680" y="72" width="4" height="4" fill="#F4E8C8"/>
  <rect x="664" y="84" width="20" height="16" fill="#C8A86C"/>
  <rect x="664" y="92" width="24" height="8" fill="#C8A86C"/>
  <rect x="652" y="96" width="40" height="4" fill="#C8A86C"/>
  <rect x="652" y="92" width="8" height="8" fill="#C8A86C"/>
  <rect x="684" y="92" width="8" height="8" fill="#C8A86C"/>
  <rect x="648" y="100" width="48" height="12" fill="#E8CFA0"/>
  <rect x="648" y="108" width="48" height="4" fill="#C8A86C"/>
  <rect x="640" y="60" width="8" height="24" fill="#E8CFA0"/>
  <rect x="696" y="60" width="8" height="24" fill="#E8CFA0"/>
  <rect x="660" y="112" width="24" height="12" fill="#E8CFA0"/>
  <rect x="664" y="112" width="12" height="16" fill="#F0EEE8"/>
  <rect x="628" y="124" width="88" height="88" fill="#888880"/>
  <rect x="628" y="124" width="8" height="88" fill="#B4B0A8"/>
  <rect x="708" y="124" width="8" height="88" fill="#606058"/>
  <rect x="656" y="124" width="32" height="32" fill="#F0EEE8"/>
  <rect x="664" y="124" width="16" height="60" fill="#CC2010"/>
  <rect x="668" y="172" width="8" height="16" fill="#CC2010"/>
  <rect x="632" y="124" width="24" height="48" fill="#606058"/>
  <rect x="688" y="124" width="20" height="48" fill="#606058"/>
  <rect x="688" y="132" width="12" height="8" fill="#F0EEE8"/>
  <rect x="708" y="124" width="24" height="72" fill="#888880"/>
  <rect x="724" y="80" width="32" height="64" fill="#F4E8C8"/>
  <rect x="724" y="80" width="4" height="64" fill="#C8A86C"/>
  <rect x="752" y="80" width="4" height="64" fill="#606058"/>
  <rect x="724" y="80" width="32" height="8" fill="#DDB800"/>
  <rect x="728" y="92" width="24" height="4" fill="#606058"/>
  <rect x="728" y="100" width="24" height="4" fill="#606058"/>
  <rect x="728" y="108" width="24" height="4" fill="#606058"/>
  <rect x="728" y="116" width="24" height="4" fill="#606058"/>
  <rect x="728" y="124" width="24" height="4" fill="#606058"/>
  <rect x="728" y="140" width="20" height="16" fill="#E8CFA0"/>
  <rect x="604" y="124" width="24" height="80" fill="#888880"/>
  <rect x="604" y="196" width="20" height="16" fill="#E8CFA0"/>
  <rect x="632" y="212" width="80" height="28" fill="#606058"/>
  <rect x="672" y="212" width="4" height="24" fill="#0C0C18"/>
  <rect x="704" y="216" width="8" height="20" fill="#0C0C18"/>
  <rect x="624" y="232" width="44" height="20" fill="#2C2C28"/>
  <rect x="668" y="232" width="44" height="20" fill="#2C2C28"/>
  <rect x="620" y="244" width="48" height="12" fill="#0C0C18"/>
  <rect x="668" y="244" width="48" height="12" fill="#0C0C18"/>
  <rect x="840" y="24" width="48" height="8" fill="#D4A040"/>
  <rect x="836" y="28" width="56" height="28" fill="#D4A040"/>
  <rect x="876" y="32" width="16" height="20" fill="#C8A86C"/>
  <rect x="840" y="32" width="16" height="12" fill="#C8A86C"/>
  <rect x="844" y="48" width="40" height="48" fill="#F4E8C8"/>
  <rect x="844" y="48" width="16" height="12" fill="#F0EEE8"/>
  <rect x="880" y="56" width="8" height="28" fill="#E8CFA0"/>
  <rect x="844" y="56" width="8" height="24" fill="#E8CFA0"/>
  <rect x="848" y="60" width="16" height="8" fill="#C8A86C"/>
  <rect x="868" y="60" width="16" height="8" fill="#C8A86C"/>
  <rect x="852" y="68" width="8" height="8" fill="#0C0C18"/>
  <rect x="872" y="68" width="8" height="8" fill="#0C0C18"/>
  <rect x="852" y="68" width="4" height="4" fill="#F0EEE8"/>
  <rect x="872" y="68" width="4" height="4" fill="#F0EEE8"/>
  <rect x="860" y="76" width="12" height="16" fill="#E8CFA0"/>
  <rect x="856" y="88" width="20" height="4" fill="#E8CFA0"/>
  <rect x="848" y="92" width="8" height="4" fill="#E8CFA0"/>
  <rect x="872" y="92" width="8" height="4" fill="#E8CFA0"/>
  <rect x="852" y="96" width="28" height="4" fill="#E8CFA0"/>
  <rect x="836" y="60" width="8" height="24" fill="#F4E8C8"/>
  <rect x="884" y="60" width="8" height="24" fill="#F4E8C8"/>
  <rect x="852" y="96" width="24" height="16" fill="#F4E8C8"/>
  <rect x="836" y="112" width="56" height="92" fill="#484440"/>
  <rect x="836" y="112" width="8" height="92" fill="#686460"/>
  <rect x="884" y="112" width="8" height="92" fill="#2C2C28"/>
  <rect x="852" y="112" width="24" height="32" fill="#F0EEE8"/>
  <rect x="860" y="112" width="12" height="64" fill="#1C5898"/>
  <rect x="864" y="168" width="4" height="12" fill="#1C5898"/>
  <rect x="840" y="112" width="12" height="44" fill="#2C2C28"/>
  <rect x="880" y="112" width="12" height="44" fill="#2C2C28"/>
  <rect x="892" y="112" width="20" height="64" fill="#484440"/>
  <rect x="904" y="80" width="20" height="36" fill="#484440"/>
  <rect x="916" y="56" width="16" height="28" fill="#F4E8C8"/>
  <rect x="912" y="52" width="4" height="24" fill="#E8CFA0"/>
  <rect x="928" y="60" width="4" height="16" fill="#E8CFA0"/>
  <rect x="920" y="52" width="4" height="12" fill="#F4E8C8"/>
  <rect x="816" y="112" width="20" height="80" fill="#484440"/>
  <rect x="792" y="172" width="48" height="36" fill="#4A2C10"/>
  <rect x="792" y="172" width="8" height="36" fill="#8A5A28"/>
  <rect x="836" y="172" width="4" height="36" fill="#2C2C28"/>
  <rect x="804" y="164" width="16" height="12" fill="#4A2C10"/>
  <rect x="804" y="164" width="4" height="8" fill="#8A5A28"/>
  <rect x="800" y="188" width="8" height="8" fill="#8A5A28"/>
  <rect x="820" y="188" width="8" height="8" fill="#8A5A28"/>
  <rect x="804" y="200" width="24" height="16" fill="#F4E8C8"/>
  <rect x="840" y="204" width="48" height="36" fill="#2C2C28"/>
  <rect x="864" y="204" width="4" height="32" fill="#2C2C28"/>
  <rect x="884" y="208" width="8" height="28" fill="#2C2C28"/>
  <rect x="836" y="232" width="32" height="20" fill="#0C0C18"/>
  <rect x="868" y="232" width="28" height="20" fill="#0C0C18"/>
  <rect x="832" y="244" width="36" height="12" fill="#2C2C28"/>
  <rect x="868" y="244" width="32" height="12" fill="#2C2C28"/>
  <rect x="1020" y="36" width="72" height="12" fill="#1C5898"/>
  <rect x="1028" y="16" width="56" height="28" fill="#1C5898"/>
  <rect x="1028" y="16" width="20" height="8" fill="#A0C8E4"/>
  <rect x="1076" y="16" width="16" height="24" fill="#A8CBE8"/>
  <rect x="1020" y="36" width="72" height="8" fill="#0C0C18"/>
  <rect x="1044" y="24" width="24" height="12" fill="#FFD700"/>
  <rect x="1052" y="28" width="8" height="4" fill="#A8CBE8"/>
  <rect x="1028" y="48" width="56" height="64" fill="#C8DFF2"/>
  <rect x="1028" y="48" width="24" height="16" fill="#EEF3FA"/>
  <rect x="1076" y="56" width="12" height="32" fill="#A8CBE8"/>
  <rect x="1032" y="64" width="20" height="16" fill="#F0EEE8"/>
  <rect x="1060" y="64" width="20" height="16" fill="#F0EEE8"/>
  <rect x="1036" y="68" width="12" height="8" fill="#1C5898"/>
  <rect x="1064" y="68" width="12" height="8" fill="#1C5898"/>
  <rect x="1040" y="72" width="4" height="4" fill="#A8CBE8"/>
  <rect x="1068" y="72" width="4" height="4" fill="#A8CBE8"/>
  <rect x="1036" y="88" width="36" height="20" fill="#A8CBE8"/>
  <rect x="1040" y="92" width="28" height="12" fill="#0C0C18"/>
  <rect x="1040" y="88" width="8" height="4" fill="#C8DFF2"/>
  <rect x="1064" y="88" width="8" height="4" fill="#C8DFF2"/>
  <rect x="1044" y="112" width="24" height="16" fill="#C8DFF2"/>
  <rect x="1016" y="128" width="80" height="84" fill="#1C5898"/>
  <rect x="1016" y="128" width="8" height="84" fill="#A0C8E4"/>
  <rect x="1088" y="128" width="8" height="84" fill="#0C0C18"/>
  <rect x="1044" y="128" width="24" height="32" fill="#EEF3FA"/>
  <rect x="1052" y="144" width="4" height="8" fill="#FFD700"/>
  <rect x="1052" y="156" width="4" height="8" fill="#FFD700"/>
  <rect x="1052" y="168" width="4" height="8" fill="#FFD700"/>
  <rect x="1052" y="180" width="4" height="8" fill="#FFD700"/>
  <rect x="1020" y="128" width="24" height="8" fill="#FFD700"/>
  <rect x="1068" y="128" width="24" height="8" fill="#FFD700"/>
  <rect x="1088" y="128" width="20" height="64" fill="#0C0C18"/>
  <rect x="1100" y="92" width="20" height="44" fill="#C8DFF2"/>
  <rect x="1096" y="72" width="20" height="24" fill="#EEF3FA"/>
  <rect x="996" y="128" width="20" height="64" fill="#0C0C18"/>
  <rect x="996" y="184" width="20" height="16" fill="#C8DFF2"/>
  <rect x="1024" y="212" width="64" height="24" fill="#78AFE1"/>
  <rect x="1032" y="236" width="48" height="16" fill="#EEF3FA"/>
  <rect x="1044" y="252" width="24" height="4" fill="#C8DFF2"/>
  <rect x="1204" y="28" width="8" height="220" fill="#6E2C18"/>
  <rect x="1284" y="28" width="8" height="220" fill="#6E2C18"/>
  <rect x="1204" y="24" width="88" height="8" fill="#6E2C18"/>
  <rect x="1204" y="248" width="88" height="8" fill="#6E2C18"/>
  <rect x="1224" y="28" width="48" height="12" fill="#B4B0A8"/>
  <rect x="1220" y="36" width="56" height="24" fill="#B4B0A8"/>
  <rect x="1224" y="32" width="12" height="16" fill="#888880"/>
  <rect x="1264" y="36" width="12" height="20" fill="#888880"/>
  <rect x="1224" y="52" width="48" height="52" fill="#F4E8C8"/>
  <rect x="1224" y="52" width="12" height="28" fill="#E8CFA0"/>
  <rect x="1264" y="60" width="8" height="28" fill="#E8CFA0"/>
  <rect x="1228" y="56" width="20" height="8" fill="#0C0C18"/>
  <rect x="1252" y="56" width="20" height="8" fill="#0C0C18"/>
  <rect x="1228" y="64" width="16" height="12" fill="#CC2010"/>
  <rect x="1252" y="64" width="16" height="12" fill="#CC2010"/>
  <rect x="1232" y="68" width="8" height="4" fill="#984428"/>
  <rect x="1256" y="68" width="8" height="4" fill="#984428"/>
  <rect x="1244" y="76" width="12" height="16" fill="#E8CFA0"/>
  <rect x="1240" y="88" width="20" height="4" fill="#C8A86C"/>
  <rect x="1232" y="92" width="32" height="4" fill="#C8A86C"/>
  <rect x="1228" y="88" width="8" height="8" fill="#C8A86C"/>
  <rect x="1260" y="88" width="8" height="8" fill="#C8A86C"/>
  <rect x="1216" y="60" width="12" height="40" fill="#888880"/>
  <rect x="1268" y="60" width="12" height="40" fill="#888880"/>
  <rect x="1216" y="64" width="8" height="24" fill="#F4E8C8"/>
  <rect x="1272" y="64" width="8" height="24" fill="#F4E8C8"/>
  <rect x="1236" y="100" width="24" height="16" fill="#F4E8C8"/>
  <rect x="1240" y="104" width="12" height="12" fill="#F4E8C8"/>
  <rect x="1208" y="116" width="80" height="96" fill="#606058"/>
  <rect x="1208" y="116" width="8" height="96" fill="#888880"/>
  <rect x="1280" y="116" width="8" height="96" fill="#0C0C18"/>
  <rect x="1212" y="116" width="24" height="56" fill="#888880"/>
  <rect x="1260" y="116" width="24" height="56" fill="#0C0C18"/>
  <rect x="1236" y="116" width="24" height="28" fill="#F4E8C8"/>
  <rect x="1244" y="116" width="12" height="68" fill="#CC2010"/>
  <rect x="1248" y="172" width="4" height="16" fill="#CC2010"/>
  <rect x="1264" y="124" width="12" height="8" fill="#CC2010"/>
  <rect x="1280" y="116" width="20" height="64" fill="#606058"/>
  <rect x="1292" y="84" width="20" height="36" fill="#606058"/>
  <rect x="1304" y="64" width="16" height="24" fill="#F4E8C8"/>
  <rect x="1300" y="60" width="4" height="20" fill="#E8CFA0"/>
  <rect x="1316" y="68" width="4" height="16" fill="#E8CFA0"/>
  <rect x="1308" y="60" width="4" height="12" fill="#F4E8C8"/>
  <rect x="1188" y="116" width="20" height="88" fill="#606058"/>
  <rect x="1188" y="196" width="20" height="16" fill="#F4E8C8"/>
  <rect x="1212" y="212" width="72" height="32" fill="#0C0C18"/>
  <rect x="1248" y="212" width="4" height="28" fill="#0C0C18"/>
  <rect x="1276" y="216" width="8" height="24" fill="#2C2C28"/>
  <rect x="1208" y="236" width="36" height="20" fill="#0C0C18"/>
  <rect x="1248" y="236" width="36" height="20" fill="#0C0C18"/>
  <rect x="1204" y="248" width="40" height="8" fill="#2C2C28"/>
  <rect x="1248" y="248" width="40" height="8" fill="#2C2C28"/>
  <rect x="1204" y="252" width="88" height="4" fill="#6E2C18"/>
</svg>
