<svg xmlns="http://www.w3.org/2000/svg" viewBox="0 0 768 384" width="768" height="384" shape-rendering="crispEdges">
  <!-- Sofia — Flemish art student 24, olive jacket + tote -->
  <!-- SCALE: 4×  |  1 game px = 4 SVG px  |  PALETTE: Turnhoutsebaan 32-color -->
  <rect x="88" y="16" width="72" height="16" fill="#4A2C10"/>
  <rect x="80" y="32" width="88" height="32" fill="#4A2C10"/>
  <rect x="80" y="24" width="16" height="48" fill="#4A2C10"/>
  <rect x="160" y="24" width="16" height="48" fill="#4A2C10"/>
  <rect x="80" y="104" width="16" height="32" fill="#4A2C10"/>
  <rect x="160" y="104" width="16" height="32" fill="#4A2C10"/>
  <rect x="96" y="16" width="32" height="8" fill="#8A5A28"/>
  <rect x="104" y="24" width="16" height="4" fill="#8A5A28"/>
  <rect x="88" y="32" width="72" height="64" fill="#F4E8C8"/>
  <rect x="80" y="40" width="8" height="32" fill="#F4E8C8"/>
  <rect x="160" y="40" width="8" height="32" fill="#F4E8C8"/>
  <rect x="88" y="32" width="32" height="8" fill="#F0EEE8"/>
  <rect x="144" y="48" width="16" height="32" fill="#E8CFA0"/>
  <rect x="88" y="88" width="72" height="8" fill="#E8CFA0"/>
  <rect x="128" y="52" width="24" height="4" fill="#141210"/>
  <rect x="128" y="56" width="24" height="16" fill="#F0EEE8"/>
  <rect x="136" y="56" width="8" height="16" fill="#4A2C10"/>
  <rect x="140" y="60" width="4" height="8" fill="#141210"/>
  <rect x="128" y="68" width="24" height="4" fill="#E8CFA0"/>
  <rect x="96" y="56" width="8" height="16" fill="#E8CFA0"/>
  <rect x="116" y="72" width="16" height="16" fill="#E8CFA0"/>
  <rect x="112" y="76" width="24" height="8" fill="#E8CFA0"/>
  <rect x="112" y="72" width="8" height="8" fill="#F0EEE8"/>
  <rect x="100" y="88" width="32" height="8" fill="#F4E8C8"/>
  <rect x="104" y="88" width="20" height="4" fill="#C07050"/>
  <rect x="100" y="96" width="32" height="8" fill="#F4E8C8"/>
  <rect x="104" y="96" width="16" height="4" fill="#F0EEE8"/>
  <rect x="160" y="64" width="8" height="16" fill="#F0EEE8"/>
  <rect x="160" y="52" width="8" height="24" fill="#F4E8C8"/>
  <rect x="160" y="60" width="8" height="12" fill="#E8CFA0"/>
  <rect x="104" y="88" width="40" height="40" fill="#F4E8C8"/>
  <rect x="136" y="88" width="16" height="36" fill="#E8CFA0"/>
  <rect x="56" y="128" width="136" height="152" fill="#3C8830"/>
  <rect x="48" y="128" width="8" height="152" fill="#606058"/>
  <rect x="192" y="128" width="8" height="152" fill="#606058"/>
  <rect x="56" y="128" width="32" height="8" fill="#D8D4CC"/>
  <rect x="56" y="136" width="8" height="72" fill="#D8D4CC"/>
  <rect x="184" y="136" width="8" height="128" fill="#0C0C18"/>
  <rect x="104" y="128" width="32" height="24" fill="#0C0C18"/>
  <rect x="104" y="128" width="16" height="24" fill="#3C8830"/>
  <rect x="128" y="128" width="16" height="24" fill="#3C8830"/>
  <rect x="116" y="168" width="8" height="8" fill="#D4A040"/>
  <rect x="116" y="168" width="4" height="4" fill="#FFD700"/>
  <rect x="116" y="200" width="8" height="8" fill="#D4A040"/>
  <rect x="116" y="200" width="4" height="4" fill="#FFD700"/>
  <rect x="116" y="232" width="8" height="8" fill="#D4A040"/>
  <rect x="116" y="232" width="4" height="4" fill="#FFD700"/>
  <rect x="48" y="200" width="16" height="24" fill="#4A2C10"/>
  <rect x="40" y="136" width="16" height="104" fill="#3C8830"/>
  <rect x="32" y="136" width="8" height="104" fill="#606058"/>
  <rect x="40" y="136" width="8" height="8" fill="#D8D4CC"/>
  <rect x="192" y="136" width="16" height="104" fill="#3C8830"/>
  <rect x="208" y="136" width="8" height="104" fill="#606058"/>
  <rect x="24" y="176" width="32" height="88" fill="#D8D4CC"/>
  <rect x="24" y="176" width="8" height="88" fill="#888880"/>
  <rect x="24" y="176" width="32" height="8" fill="#606058"/>
  <rect x="40" y="128" width="8" height="56" fill="#888880"/>
  <rect x="32" y="200" width="16" height="16" fill="#1C5898"/>
  <rect x="36" y="208" width="8" height="8" fill="#FFD700"/>
  <rect x="32" y="216" width="8" height="8" fill="#3C8830"/>
  <rect x="32" y="248" width="16" height="24" fill="#F4E8C8"/>
  <rect x="36" y="248" width="8" height="8" fill="#F0EEE8"/>
  <rect x="192" y="240" width="16" height="24" fill="#F4E8C8"/>
  <rect x="196" y="240" width="8" height="8" fill="#F0EEE8"/>
  <rect x="72" y="280" width="48" height="88" fill="#1C5898"/>
  <rect x="64" y="280" width="8" height="88" fill="#0C0C18"/>
  <rect x="112" y="280" width="8" height="88" fill="#0C0C18"/>
  <rect x="120" y="280" width="48" height="88" fill="#1C5898"/>
  <rect x="160" y="280" width="8" height="88" fill="#0C0C18"/>
  <rect x="80" y="296" width="8" height="8" fill="#F0EEE8"/>
  <rect x="136" y="312" width="8" height="8" fill="#D4A040"/>
  <rect x="96" y="304" width="8" height="8" fill="#CC2010"/>
  <rect x="144" y="288" width="8" height="8" fill="#3C8830"/>
  <rect x="64" y="360" width="56" height="24" fill="#F0EEE8"/>
  <rect x="64" y="376" width="56" height="8" fill="#D8D4CC"/>
  <rect x="120" y="360" width="56" height="24" fill="#F0EEE8"/>
  <rect x="120" y="376" width="56" height="8" fill="#D8D4CC"/>
  <rect x="344" y="16" width="72" height="16" fill="#4A2C10"/>
  <rect x="336" y="32" width="88" height="32" fill="#4A2C10"/>
  <rect x="336" y="24" width="16" height="48" fill="#4A2C10"/>
  <rect x="416" y="24" width="16" height="48" fill="#4A2C10"/>
  <rect x="336" y="104" width="16" height="32" fill="#4A2C10"/>
  <rect x="416" y="104" width="16" height="32" fill="#4A2C10"/>
  <rect x="352" y="16" width="32" height="8" fill="#8A5A28"/>
  <rect x="360" y="24" width="16" height="4" fill="#8A5A28"/>
  <rect x="344" y="32" width="72" height="64" fill="#F4E8C8"/>
  <rect x="336" y="40" width="8" height="32" fill="#F4E8C8"/>
  <rect x="416" y="40" width="8" height="32" fill="#F4E8C8"/>
  <rect x="344" y="32" width="32" height="8" fill="#F0EEE8"/>
  <rect x="400" y="48" width="16" height="32" fill="#E8CFA0"/>
  <rect x="344" y="88" width="72" height="8" fill="#E8CFA0"/>
  <rect x="384" y="52" width="24" height="4" fill="#141210"/>
  <rect x="384" y="56" width="24" height="16" fill="#F0EEE8"/>
  <rect x="392" y="56" width="8" height="16" fill="#4A2C10"/>
  <rect x="396" y="60" width="4" height="8" fill="#141210"/>
  <rect x="384" y="68" width="24" height="4" fill="#E8CFA0"/>
  <rect x="352" y="56" width="8" height="16" fill="#E8CFA0"/>
  <rect x="372" y="72" width="16" height="16" fill="#E8CFA0"/>
  <rect x="368" y="76" width="24" height="8" fill="#E8CFA0"/>
  <rect x="368" y="72" width="8" height="8" fill="#F0EEE8"/>
  <rect x="356" y="88" width="32" height="8" fill="#F4E8C8"/>
  <rect x="360" y="88" width="20" height="4" fill="#C07050"/>
  <rect x="356" y="96" width="32" height="8" fill="#F4E8C8"/>
  <rect x="360" y="96" width="16" height="4" fill="#F0EEE8"/>
  <rect x="416" y="64" width="8" height="16" fill="#F0EEE8"/>
  <rect x="416" y="52" width="8" height="24" fill="#F4E8C8"/>
  <rect x="416" y="60" width="8" height="12" fill="#E8CFA0"/>
  <rect x="360" y="88" width="40" height="40" fill="#F4E8C8"/>
  <rect x="392" y="88" width="16" height="36" fill="#E8CFA0"/>
  <rect x="312" y="128" width="136" height="152" fill="#3C8830"/>
  <rect x="304" y="128" width="8" height="152" fill="#606058"/>
  <rect x="448" y="128" width="8" height="152" fill="#606058"/>
  <rect x="312" y="128" width="32" height="8" fill="#D8D4CC"/>
  <rect x="312" y="136" width="8" height="72" fill="#D8D4CC"/>
  <rect x="440" y="136" width="8" height="128" fill="#0C0C18"/>
  <rect x="360" y="128" width="32" height="24" fill="#0C0C18"/>
  <rect x="360" y="128" width="16" height="24" fill="#3C8830"/>
  <rect x="384" y="128" width="16" height="24" fill="#3C8830"/>
  <rect x="372" y="168" width="8" height="8" fill="#D4A040"/>
  <rect x="372" y="168" width="4" height="4" fill="#FFD700"/>
  <rect x="372" y="200" width="8" height="8" fill="#D4A040"/>
  <rect x="372" y="200" width="4" height="4" fill="#FFD700"/>
  <rect x="372" y="232" width="8" height="8" fill="#D4A040"/>
  <rect x="372" y="232" width="4" height="4" fill="#FFD700"/>
  <rect x="304" y="200" width="16" height="24" fill="#4A2C10"/>
  <rect x="296" y="136" width="16" height="104" fill="#3C8830"/>
  <rect x="288" y="136" width="8" height="104" fill="#606058"/>
  <rect x="296" y="136" width="8" height="8" fill="#D8D4CC"/>
  <rect x="448" y="136" width="16" height="104" fill="#3C8830"/>
  <rect x="464" y="136" width="8" height="104" fill="#606058"/>
  <rect x="280" y="176" width="32" height="88" fill="#D8D4CC"/>
  <rect x="280" y="176" width="8" height="88" fill="#888880"/>
  <rect x="280" y="176" width="32" height="8" fill="#606058"/>
  <rect x="296" y="128" width="8" height="56" fill="#888880"/>
  <rect x="288" y="200" width="16" height="16" fill="#1C5898"/>
  <rect x="292" y="208" width="8" height="8" fill="#FFD700"/>
  <rect x="288" y="216" width="8" height="8" fill="#3C8830"/>
  <rect x="288" y="248" width="16" height="24" fill="#F4E8C8"/>
  <rect x="292" y="248" width="8" height="8" fill="#F0EEE8"/>
  <rect x="448" y="240" width="16" height="24" fill="#F4E8C8"/>
  <rect x="452" y="240" width="8" height="8" fill="#F0EEE8"/>
  <rect x="328" y="280" width="48" height="88" fill="#1C5898"/>
  <rect x="320" y="280" width="8" height="88" fill="#0C0C18"/>
  <rect x="368" y="280" width="8" height="88" fill="#0C0C18"/>
  <rect x="376" y="280" width="48" height="88" fill="#1C5898"/>
  <rect x="416" y="280" width="8" height="88" fill="#0C0C18"/>
  <rect x="336" y="296" width="8" height="8" fill="#F0EEE8"/>
  <rect x="392" y="312" width="8" height="8" fill="#D4A040"/>
  <rect x="352" y="304" width="8" height="8" fill="#CC2010"/>
  <rect x="400" y="288" width="8" height="8" fill="#3C8830"/>
  <rect x="320" y="352" width="56" height="24" fill="#F0EEE8"/>
  <rect x="320" y="368" width="56" height="8" fill="#D8D4CC"/>
  <rect x="376" y="360" width="56" height="24" fill="#F0EEE8"/>
  <rect x="376" y="376" width="56" height="8" fill="#D8D4CC"/>
  <rect x="600" y="16" width="72" height="16" fill="#4A2C10"/>
  <rect x="592" y="32" width="88" height="32" fill="#4A2C10"/>
  <rect x="592" y="24" width="16" height="48" fill="#4A2C10"/>
  <rect x="672" y="24" width="16" height="48" fill="#4A2C10"/>
  <rect x="592" y="104" width="16" height="32" fill="#4A2C10"/>
  <rect x="672" y="104" width="16" height="32" fill="#4A2C10"/>
  <rect x="608" y="16" width="32" height="8" fill="#8A5A28"/>
  <rect x="616" y="24" width="16" height="4" fill="#8A5A28"/>
  <rect x="600" y="32" width="72" height="64" fill="#F4E8C8"/>
  <rect x="592" y="40" width="8" height="32" fill="#F4E8C8"/>
  <rect x="672" y="40" width="8" height="32" fill="#F4E8C8"/>
  <rect x="600" y="32" width="32" height="8" fill="#F0EEE8"/>
  <rect x="656" y="48" width="16" height="32" fill="#E8CFA0"/>
  <rect x="600" y="88" width="72" height="8" fill="#E8CFA0"/>
  <rect x="640" y="52" width="24" height="4" fill="#141210"/>
  <rect x="640" y="56" width="24" height="16" fill="#F0EEE8"/>
  <rect x="648" y="56" width="8" height="16" fill="#4A2C10"/>
  <rect x="652" y="60" width="4" height="8" fill="#141210"/>
  <rect x="640" y="68" width="24" height="4" fill="#E8CFA0"/>
  <rect x="608" y="56" width="8" height="16" fill="#E8CFA0"/>
  <rect x="628" y="72" width="16" height="16" fill="#E8CFA0"/>
  <rect x="624" y="76" width="24" height="8" fill="#E8CFA0"/>
  <rect x="624" y="72" width="8" height="8" fill="#F0EEE8"/>
  <rect x="612" y="88" width="32" height="8" fill="#F4E8C8"/>
  <rect x="616" y="88" width="20" height="4" fill="#C07050"/>
  <rect x="612" y="96" width="32" height="8" fill="#F4E8C8"/>
  <rect x="616" y="96" width="16" height="4" fill="#F0EEE8"/>
  <rect x="672" y="64" width="8" height="16" fill="#F0EEE8"/>
  <rect x="672" y="52" width="8" height="24" fill="#F4E8C8"/>
  <rect x="672" y="60" width="8" height="12" fill="#E8CFA0"/>
  <rect x="616" y="88" width="40" height="40" fill="#F4E8C8"/>
  <rect x="648" y="88" width="16" height="36" fill="#E8CFA0"/>
  <rect x="568" y="128" width="136" height="152" fill="#3C8830"/>
  <rect x="560" y="128" width="8" height="152" fill="#606058"/>
  <rect x="704" y="128" width="8" height="152" fill="#606058"/>
  <rect x="568" y="128" width="32" height="8" fill="#D8D4CC"/>
  <rect x="568" y="136" width="8" height="72" fill="#D8D4CC"/>
  <rect x="696" y="136" width="8" height="128" fill="#0C0C18"/>
  <rect x="616" y="128" width="32" height="24" fill="#0C0C18"/>
  <rect x="616" y="128" width="16" height="24" fill="#3C8830"/>
  <rect x="640" y="128" width="16" height="24" fill="#3C8830"/>
  <rect x="628" y="168" width="8" height="8" fill="#D4A040"/>
  <rect x="628" y="168" width="4" height="4" fill="#FFD700"/>
  <rect x="628" y="200" width="8" height="8" fill="#D4A040"/>
  <rect x="628" y="200" width="4" height="4" fill="#FFD700"/>
  <rect x="628" y="232" width="8" height="8" fill="#D4A040"/>
  <rect x="628" y="232" width="4" height="4" fill="#FFD700"/>
  <rect x="560" y="200" width="16" height="24" fill="#4A2C10"/>
  <rect x="552" y="136" width="16" height="104" fill="#3C8830"/>
  <rect x="544" y="136" width="8" height="104" fill="#606058"/>
  <rect x="552" y="136" width="8" height="8" fill="#D8D4CC"/>
  <rect x="704" y="136" width="16" height="104" fill="#3C8830"/>
  <rect x="720" y="136" width="8" height="104" fill="#606058"/>
  <rect x="536" y="176" width="32" height="88" fill="#D8D4CC"/>
  <rect x="536" y="176" width="8" height="88" fill="#888880"/>
  <rect x="536" y="176" width="32" height="8" fill="#606058"/>
  <rect x="552" y="128" width="8" height="56" fill="#888880"/>
  <rect x="544" y="200" width="16" height="16" fill="#1C5898"/>
  <rect x="548" y="208" width="8" height="8" fill="#FFD700"/>
  <rect x="544" y="216" width="8" height="8" fill="#3C8830"/>
  <rect x="544" y="248" width="16" height="24" fill="#F4E8C8"/>
  <rect x="548" y="248" width="8" height="8" fill="#F0EEE8"/>
  <rect x="704" y="240" width="16" height="24" fill="#F4E8C8"/>
  <rect x="708" y="240" width="8" height="8" fill="#F0EEE8"/>
  <rect x="584" y="280" width="48" height="88" fill="#1C5898"/>
  <rect x="576" y="280" width="8" height="88" fill="#0C0C18"/>
  <rect x="624" y="280" width="8" height="88" fill="#0C0C18"/>
  <rect x="632" y="280" width="48" height="88" fill="#1C5898"/>
  <rect x="672" y="280" width="8" height="88" fill="#0C0C18"/>
  <rect x="592" y="296" width="8" height="8" fill="#F0EEE8"/>
  <rect x="648" y="312" width="8" height="8" fill="#D4A040"/>
  <rect x="608" y="304" width="8" height="8" fill="#CC2010"/>
  <rect x="656" y="288" width="8" height="8" fill="#3C8830"/>
  <rect x="576" y="360" width="56" height="24" fill="#F0EEE8"/>
  <rect x="576" y="376" width="56" height="8" fill="#D8D4CC"/>
  <rect x="632" y="368" width="56" height="24" fill="#F0EEE8"/>
  <rect x="632" y="384" width="56" height="8" fill="#D8D4CC"/>
</svg>
