<svg xmlns="http://www.w3.org/2000/svg" viewBox="0 0 1280 320" width="1280" height="320" shape-rendering="crispEdges">
  <!-- VEHICLES EXTENDED — Bakfiets, scooter, bicycle -->
  <!-- SCALE: 4×  |  1 game px = 4 SVG px  |  PALETTE: Turnhoutsebaan 32-color -->
  <rect x="0" y="32" width="80" height="64" fill="#8A5A28"/>
  <rect x="0" y="32" width="80" height="4" fill="#4A2C10"/>
  <rect x="0" y="32" width="4" height="64" fill="#4A2C10"/>
  <rect x="76" y="32" width="4" height="64" fill="#4A2C10"/>
  <rect x="0" y="92" width="80" height="4" fill="#4A2C10"/>
  <rect x="8" y="36" width="64" height="8" fill="#F4E8C8"/>
  <rect x="12" y="44" width="16" height="32" fill="#3C8830"/>
  <rect x="32" y="44" width="16" height="32" fill="#984428"/>
  <rect x="52" y="44" width="16" height="32" fill="#D4A040"/>
  <rect x="8" y="80" width="64" height="12" fill="#1C5898"/>
  <rect x="24" y="84" width="32" height="4" fill="#F0EEE8"/>
  <rect x="72" y="72" width="40" height="8" fill="#606058"/>
  <rect x="72" y="72" width="40" height="4" fill="#888880"/>
  <rect x="88" y="72" width="8" height="24" fill="#606058"/>
  <rect x="112" y="88" width="4" height="4" fill="#606058"/>
  <rect x="112" y="92" width="4" height="4" fill="#606058"/>
  <rect x="112" y="96" width="4" height="4" fill="#606058"/>
  <rect x="116" y="104" width="4" height="4" fill="#606058"/>
  <rect x="120" y="108" width="4" height="4" fill="#606058"/>
  <rect x="124" y="112" width="4" height="4" fill="#606058"/>
  <rect x="128" y="112" width="4" height="4" fill="#606058"/>
  <rect x="132" y="112" width="4" height="4" fill="#606058"/>
  <rect x="136" y="108" width="4" height="4" fill="#606058"/>
  <rect x="140" y="104" width="4" height="4" fill="#606058"/>
  <rect x="144" y="96" width="4" height="4" fill="#606058"/>
  <rect x="144" y="92" width="4" height="4" fill="#606058"/>
  <rect x="144" y="88" width="4" height="4" fill="#606058"/>
  <rect x="140" y="80" width="4" height="4" fill="#606058"/>
  <rect x="136" y="80" width="4" height="4" fill="#606058"/>
  <rect x="132" y="80" width="4" height="4" fill="#606058"/>
  <rect x="128" y="80" width="4" height="4" fill="#606058"/>
  <rect x="124" y="80" width="4" height="4" fill="#606058"/>
  <rect x="120" y="80" width="4" height="4" fill="#606058"/>
  <rect x="116" y="80" width="4" height="4" fill="#606058"/>
  <rect x="120" y="88" width="16" height="16" fill="#888880"/>
  <rect x="32" y="100" width="4" height="4" fill="#606058"/>
  <rect x="32" y="104" width="4" height="4" fill="#606058"/>
  <rect x="32" y="108" width="4" height="4" fill="#606058"/>
  <rect x="36" y="112" width="4" height="4" fill="#606058"/>
  <rect x="40" y="116" width="4" height="4" fill="#606058"/>
  <rect x="44" y="116" width="4" height="4" fill="#606058"/>
  <rect x="48" y="116" width="4" height="4" fill="#606058"/>
  <rect x="52" y="112" width="4" height="4" fill="#606058"/>
  <rect x="52" y="108" width="4" height="4" fill="#606058"/>
  <rect x="52" y="104" width="4" height="4" fill="#606058"/>
  <rect x="52" y="100" width="4" height="4" fill="#606058"/>
  <rect x="48" y="96" width="4" height="4" fill="#606058"/>
  <rect x="44" y="96" width="4" height="4" fill="#606058"/>
  <rect x="40" y="96" width="4" height="4" fill="#606058"/>
  <rect x="36" y="96" width="4" height="4" fill="#606058"/>
  <rect x="36" y="100" width="8" height="8" fill="#888880"/>
  <rect x="104" y="48" width="24" height="8" fill="#606058"/>
  <rect x="108" y="48" width="4" height="8" fill="#888880"/>
  <rect x="116" y="56" width="4" height="16" fill="#606058"/>
  <rect x="88" y="40" width="24" height="8" fill="#606058"/>
  <rect x="92" y="40" width="16" height="4" fill="#B4B0A8"/>
  <rect x="96" y="88" width="32" height="4" fill="#B4B0A8"/>
  <rect x="16" y="120" width="128" height="8" fill="#2C2C28"/>
  <text x="0" y="296" font-size="9" fill="#666" font-family="monospace" shape-rendering="auto">bakfiets_del</text>
  <rect x="176" y="32" width="112" height="72" fill="#8A5A28"/>
  <rect x="176" y="32" width="112" height="4" fill="#4A2C10"/>
  <rect x="176" y="32" width="4" height="72" fill="#4A2C10"/>
  <rect x="284" y="32" width="4" height="72" fill="#4A2C10"/>
  <rect x="176" y="100" width="112" height="4" fill="#4A2C10"/>
  <rect x="184" y="36" width="96" height="48" fill="#1C5898"/>
  <rect x="184" y="36" width="96" height="4" fill="#C8DFF2"/>
  <rect x="180" y="48" width="104" height="4" fill="#D4A040"/>
  <rect x="180" y="64" width="104" height="4" fill="#D4A040"/>
  <rect x="280" y="56" width="40" height="8" fill="#606058"/>
  <rect x="296" y="56" width="8" height="40" fill="#606058"/>
  <rect x="236" y="104" width="4" height="4" fill="#606058"/>
  <rect x="232" y="112" width="4" height="4" fill="#606058"/>
  <rect x="224" y="120" width="4" height="4" fill="#606058"/>
  <rect x="216" y="124" width="4" height="4" fill="#606058"/>
  <rect x="208" y="120" width="4" height="4" fill="#606058"/>
  <rect x="200" y="112" width="4" height="4" fill="#606058"/>
  <rect x="196" y="104" width="4" height="4" fill="#606058"/>
  <rect x="200" y="96" width="4" height="4" fill="#606058"/>
  <rect x="208" y="88" width="4" height="4" fill="#606058"/>
  <rect x="216" y="84" width="4" height="4" fill="#606058"/>
  <rect x="224" y="88" width="4" height="4" fill="#606058"/>
  <rect x="232" y="96" width="4" height="4" fill="#606058"/>
  <rect x="212" y="100" width="8" height="8" fill="#888880"/>
  <rect x="352" y="96" width="4" height="4" fill="#606058"/>
  <rect x="348" y="104" width="4" height="4" fill="#606058"/>
  <rect x="340" y="116" width="4" height="4" fill="#606058"/>
  <rect x="328" y="120" width="4" height="4" fill="#606058"/>
  <rect x="320" y="116" width="4" height="4" fill="#606058"/>
  <rect x="308" y="104" width="4" height="4" fill="#606058"/>
  <rect x="304" y="96" width="4" height="4" fill="#606058"/>
  <rect x="308" y="88" width="4" height="4" fill="#606058"/>
  <rect x="316" y="76" width="4" height="4" fill="#606058"/>
  <rect x="328" y="72" width="4" height="4" fill="#606058"/>
  <rect x="340" y="76" width="4" height="4" fill="#606058"/>
  <rect x="348" y="84" width="4" height="4" fill="#606058"/>
  <rect x="324" y="92" width="8" height="8" fill="#888880"/>
  <rect x="312" y="32" width="24" height="32" fill="#1C5898"/>
  <rect x="316" y="24" width="16" height="16" fill="#E8CFA0"/>
  <rect x="312" y="32" width="8" height="32" fill="#606058"/>
  <rect x="192" y="124" width="160" height="4" fill="#2C2C28"/>
  <text x="176" y="296" font-size="9" fill="#666" font-family="monospace" shape-rendering="auto">bakfiets_tr</text>
  <rect x="400" y="64" width="80" height="48" fill="#D4A040"/>
  <rect x="400" y="64" width="80" height="4" fill="#DDB800"/>
  <rect x="448" y="48" width="32" height="32" fill="#A0C8E4"/>
  <rect x="452" y="52" width="16" height="12" fill="#C8DFF2"/>
  <rect x="448" y="48" width="4" height="32" fill="#606058"/>
  <rect x="384" y="56" width="32" height="48" fill="#D4A040"/>
  <rect x="384" y="56" width="32" height="4" fill="#C8A86C"/>
  <rect x="412" y="56" width="4" height="48" fill="#C8A86C"/>
  <rect x="392" y="72" width="16" height="16" fill="#F0EEE8"/>
  <rect x="396" y="76" width="8" height="8" fill="#CC2010"/>
  <rect x="416" y="56" width="48" height="12" fill="#606058"/>
  <rect x="420" y="56" width="40" height="4" fill="#B4B0A8"/>
  <rect x="472" y="56" width="32" height="8" fill="#606058"/>
  <rect x="488" y="52" width="4" height="16" fill="#606058"/>
  <rect x="400" y="104" width="16" height="8" fill="#606058"/>
  <rect x="384" y="108" width="16" height="4" fill="#888880"/>
  <rect x="428" y="112" width="4" height="4" fill="#141210"/>
  <rect x="420" y="124" width="4" height="4" fill="#141210"/>
  <rect x="408" y="132" width="4" height="4" fill="#141210"/>
  <rect x="396" y="124" width="4" height="4" fill="#141210"/>
  <rect x="388" y="112" width="4" height="4" fill="#141210"/>
  <rect x="396" y="100" width="4" height="4" fill="#141210"/>
  <rect x="408" y="92" width="4" height="4" fill="#141210"/>
  <rect x="420" y="100" width="4" height="4" fill="#141210"/>
  <rect x="404" y="108" width="12" height="12" fill="#888880"/>
  <rect x="508" y="112" width="4" height="4" fill="#141210"/>
  <rect x="500" y="124" width="4" height="4" fill="#141210"/>
  <rect x="488" y="132" width="4" height="4" fill="#141210"/>
  <rect x="476" y="124" width="4" height="4" fill="#141210"/>
  <rect x="468" y="112" width="4" height="4" fill="#141210"/>
  <rect x="476" y="100" width="4" height="4" fill="#141210"/>
  <rect x="488" y="92" width="4" height="4" fill="#141210"/>
  <rect x="500" y="100" width="4" height="4" fill="#141210"/>
  <rect x="484" y="108" width="12" height="12" fill="#888880"/>
  <rect x="440" y="32" width="32" height="32" fill="#606058"/>
  <rect x="444" y="20" width="24" height="16" fill="#606058"/>
  <rect x="448" y="24" width="16" height="12" fill="#D4A040"/>
  <rect x="440" y="32" width="32" height="4" fill="#D4A040"/>
  <rect x="400" y="128" width="96" height="4" fill="#2C2C28"/>
  <text x="384" y="296" font-size="9" fill="#666" font-family="monospace" shape-rendering="auto">scooter_del</text>
  <rect x="544" y="48" width="4" height="4" fill="#606058"/>
  <rect x="540" y="48" width="4" height="4" fill="#606058"/>
  <rect x="536" y="48" width="4" height="4" fill="#606058"/>
  <rect x="532" y="48" width="4" height="4" fill="#606058"/>
  <rect x="528" y="52" width="4" height="4" fill="#606058"/>
  <rect x="528" y="56" width="4" height="4" fill="#606058"/>
  <rect x="528" y="60" width="4" height="4" fill="#606058"/>
  <rect x="528" y="64" width="4" height="4" fill="#606058"/>
  <rect x="528" y="68" width="4" height="4" fill="#606058"/>
  <rect x="528" y="72" width="4" height="4" fill="#606058"/>
  <rect x="532" y="76" width="4" height="4" fill="#606058"/>
  <rect x="536" y="80" width="4" height="4" fill="#606058"/>
  <rect x="540" y="80" width="4" height="4" fill="#606058"/>
  <rect x="544" y="80" width="4" height="4" fill="#606058"/>
  <rect x="548" y="80" width="4" height="4" fill="#606058"/>
  <rect x="552" y="80" width="4" height="4" fill="#606058"/>
  <rect x="556" y="76" width="4" height="4" fill="#606058"/>
  <rect x="560" y="72" width="4" height="4" fill="#606058"/>
  <rect x="560" y="68" width="4" height="4" fill="#606058"/>
  <rect x="560" y="64" width="4" height="4" fill="#606058"/>
  <rect x="560" y="60" width="4" height="4" fill="#606058"/>
  <rect x="560" y="56" width="4" height="4" fill="#606058"/>
  <rect x="560" y="52" width="4" height="4" fill="#606058"/>
  <rect x="556" y="48" width="4" height="4" fill="#606058"/>
  <rect x="552" y="48" width="4" height="4" fill="#606058"/>
  <rect x="548" y="48" width="4" height="4" fill="#606058"/>
  <rect x="540" y="60" width="12" height="12" fill="#888880"/>
  <rect x="560" y="48" width="48" height="4" fill="#606058"/>
  <rect x="560" y="48" width="48" height="4" fill="#888880"/>
  <rect x="560" y="52" width="4" height="36" fill="#606058"/>
  <rect x="560" y="84" width="48" height="4" fill="#606058"/>
  <rect x="592" y="48" width="4" height="36" fill="#606058"/>
  <rect x="604" y="48" width="4" height="48" fill="#606058"/>
  <rect x="608" y="48" width="16" height="4" fill="#606058"/>
  <rect x="608" y="52" width="4" height="36" fill="#606058"/>
  <rect x="624" y="48" width="4" height="4" fill="#606058"/>
  <rect x="620" y="48" width="4" height="4" fill="#606058"/>
  <rect x="616" y="48" width="4" height="4" fill="#606058"/>
  <rect x="612" y="48" width="4" height="4" fill="#606058"/>
  <rect x="608" y="52" width="4" height="4" fill="#606058"/>
  <rect x="608" y="56" width="4" height="4" fill="#606058"/>
  <rect x="608" y="60" width="4" height="4" fill="#606058"/>
  <rect x="608" y="64" width="4" height="4" fill="#606058"/>
  <rect x="608" y="68" width="4" height="4" fill="#606058"/>
  <rect x="608" y="72" width="4" height="4" fill="#606058"/>
  <rect x="612" y="76" width="4" height="4" fill="#606058"/>
  <rect x="616" y="80" width="4" height="4" fill="#606058"/>
  <rect x="620" y="80" width="4" height="4" fill="#606058"/>
  <rect x="624" y="80" width="4" height="4" fill="#606058"/>
  <rect x="628" y="80" width="4" height="4" fill="#606058"/>
  <rect x="632" y="80" width="4" height="4" fill="#606058"/>
  <rect x="636" y="76" width="4" height="4" fill="#606058"/>
  <rect x="640" y="72" width="4" height="4" fill="#606058"/>
  <rect x="640" y="68" width="4" height="4" fill="#606058"/>
  <rect x="640" y="64" width="4" height="4" fill="#606058"/>
  <rect x="640" y="60" width="4" height="4" fill="#606058"/>
  <rect x="640" y="56" width="4" height="4" fill="#606058"/>
  <rect x="640" y="52" width="4" height="4" fill="#606058"/>
  <rect x="636" y="48" width="4" height="4" fill="#606058"/>
  <rect x="632" y="48" width="4" height="4" fill="#606058"/>
  <rect x="628" y="48" width="4" height="4" fill="#606058"/>
  <rect x="620" y="60" width="12" height="12" fill="#888880"/>
  <rect x="600" y="32" width="20" height="8" fill="#606058"/>
  <rect x="600" y="32" width="20" height="4" fill="#B4B0A8"/>
  <rect x="600" y="36" width="4" height="16" fill="#606058"/>
  <rect x="552" y="32" width="24" height="8" fill="#606058"/>
  <rect x="556" y="32" width="16" height="4" fill="#B4B0A8"/>
  <rect x="564" y="36" width="4" height="12" fill="#606058"/>
  <rect x="608" y="48" width="24" height="24" fill="#8A5A28"/>
  <rect x="608" y="48" width="24" height="4" fill="#4A2C10"/>
  <rect x="612" y="52" width="4" height="20" fill="#4A2C10"/>
  <rect x="620" y="52" width="4" height="20" fill="#4A2C10"/>
  <rect x="628" y="52" width="4" height="20" fill="#4A2C10"/>
  <rect x="612" y="40" width="8" height="8" fill="#B4B0A8"/>
  <rect x="536" y="88" width="104" height="4" fill="#2C2C28"/>
  <text x="528" y="296" font-size="9" fill="#666" font-family="monospace" shape-rendering="auto">bicycle_ant</text>
</svg>
