<svg xmlns="http://www.w3.org/2000/svg" viewBox="0 0 1280 256" width="1280" height="256" shape-rendering="crispEdges">
  <!-- VEHICLES SHEET — De Lijn bus, city cars, scooter, bakfiets -->
  <!-- SCALE: 4×  |  1 game px = 4 SVG px  |  PALETTE: Turnhoutsebaan 32-color -->
  <rect x="0" y="32" width="400" height="88" fill="#F0EEE8"/>
  <rect x="0" y="32" width="400" height="24" fill="#1C5898"/>
  <rect x="0" y="88" width="400" height="8" fill="#DDB800"/>
  <rect x="16" y="36" width="40" height="16" fill="#A0C8E4"/>
  <rect x="16" y="36" width="16" height="8" fill="#C8DFF2"/>
  <rect x="72" y="36" width="40" height="16" fill="#A0C8E4"/>
  <rect x="72" y="36" width="16" height="8" fill="#C8DFF2"/>
  <rect x="128" y="36" width="40" height="16" fill="#A0C8E4"/>
  <rect x="128" y="36" width="16" height="8" fill="#C8DFF2"/>
  <rect x="184" y="36" width="40" height="16" fill="#A0C8E4"/>
  <rect x="184" y="36" width="16" height="8" fill="#C8DFF2"/>
  <rect x="240" y="36" width="40" height="16" fill="#A0C8E4"/>
  <rect x="240" y="36" width="16" height="8" fill="#C8DFF2"/>
  <rect x="296" y="36" width="40" height="16" fill="#A0C8E4"/>
  <rect x="296" y="36" width="16" height="8" fill="#C8DFF2"/>
  <rect x="352" y="36" width="40" height="16" fill="#A0C8E4"/>
  <rect x="352" y="36" width="16" height="8" fill="#C8DFF2"/>
  <rect x="40" y="56" width="24" height="40" fill="#606058"/>
  <rect x="280" y="56" width="24" height="40" fill="#606058"/>
  <rect x="24" y="112" width="32" height="24" fill="#141210"/>
  <rect x="28" y="112" width="8" height="8" fill="#888880"/>
  <rect x="320" y="112" width="32" height="24" fill="#141210"/>
  <rect x="324" y="112" width="8" height="8" fill="#888880"/>
  <rect x="0" y="32" width="8" height="88" fill="#888880"/>
  <rect x="392" y="32" width="8" height="88" fill="#888880"/>
  <rect x="16" y="32" width="48" height="20" fill="#0C0C18"/>
  <rect x="20" y="36" width="24" height="12" fill="#DDB800"/>
  <rect x="16" y="136" width="368" height="8" fill="#2C2C28"/>
  <text x="0" y="240" font-size="9" fill="#666" font-family="monospace" shape-rendering="auto">bus_delijn</text>
  <rect x="432" y="48" width="128" height="56" fill="#984428"/>
  <rect x="456" y="24" width="80" height="32" fill="#984428"/>
  <rect x="464" y="28" width="28" height="24" fill="#A0C8E4"/>
  <rect x="468" y="28" width="12" height="8" fill="#C8DFF2"/>
  <rect x="504" y="28" width="24" height="24" fill="#A0C8E4"/>
  <rect x="448" y="96" width="24" height="16" fill="#141210"/>
  <rect x="452" y="96" width="8" height="8" fill="#888880"/>
  <rect x="528" y="96" width="24" height="16" fill="#141210"/>
  <rect x="532" y="96" width="8" height="8" fill="#888880"/>
  <rect x="440" y="112" width="112" height="8" fill="#2C2C28"/>
  <rect x="576" y="48" width="128" height="56" fill="#1C5898"/>
  <rect x="600" y="24" width="80" height="32" fill="#1C5898"/>
  <rect x="608" y="28" width="28" height="24" fill="#A0C8E4"/>
  <rect x="612" y="28" width="12" height="8" fill="#C8DFF2"/>
  <rect x="648" y="28" width="24" height="24" fill="#A0C8E4"/>
  <rect x="592" y="96" width="24" height="16" fill="#141210"/>
  <rect x="596" y="96" width="8" height="8" fill="#888880"/>
  <rect x="672" y="96" width="24" height="16" fill="#141210"/>
  <rect x="676" y="96" width="8" height="8" fill="#888880"/>
  <rect x="584" y="112" width="112" height="8" fill="#2C2C28"/>
  <rect x="720" y="48" width="128" height="56" fill="#888880"/>
  <rect x="744" y="24" width="80" height="32" fill="#888880"/>
  <rect x="752" y="28" width="28" height="24" fill="#A0C8E4"/>
  <rect x="756" y="28" width="12" height="8" fill="#C8DFF2"/>
  <rect x="792" y="28" width="24" height="24" fill="#A0C8E4"/>
  <rect x="736" y="96" width="24" height="16" fill="#141210"/>
  <rect x="740" y="96" width="8" height="8" fill="#888880"/>
  <rect x="816" y="96" width="24" height="16" fill="#141210"/>
  <rect x="820" y="96" width="8" height="8" fill="#888880"/>
  <rect x="728" y="112" width="112" height="8" fill="#2C2C28"/>
  <rect x="864" y="48" width="128" height="56" fill="#0C0C18"/>
  <rect x="888" y="24" width="80" height="32" fill="#0C0C18"/>
  <rect x="896" y="28" width="28" height="24" fill="#A0C8E4"/>
  <rect x="900" y="28" width="12" height="8" fill="#C8DFF2"/>
  <rect x="936" y="28" width="24" height="24" fill="#A0C8E4"/>
  <rect x="880" y="96" width="24" height="16" fill="#141210"/>
  <rect x="884" y="96" width="8" height="8" fill="#888880"/>
  <rect x="960" y="96" width="24" height="16" fill="#141210"/>
  <rect x="964" y="96" width="8" height="8" fill="#888880"/>
  <rect x="872" y="112" width="112" height="8" fill="#2C2C28"/>
  <rect x="1008" y="48" width="128" height="56" fill="#3C8830"/>
  <rect x="1032" y="24" width="80" height="32" fill="#3C8830"/>
  <rect x="1040" y="28" width="28" height="24" fill="#A0C8E4"/>
  <rect x="1044" y="28" width="12" height="8" fill="#C8DFF2"/>
  <rect x="1080" y="28" width="24" height="24" fill="#A0C8E4"/>
  <rect x="1024" y="96" width="24" height="16" fill="#141210"/>
  <rect x="1028" y="96" width="8" height="8" fill="#888880"/>
  <rect x="1104" y="96" width="24" height="16" fill="#141210"/>
  <rect x="1108" y="96" width="8" height="8" fill="#888880"/>
  <rect x="1016" y="112" width="112" height="8" fill="#2C2C28"/>
  <rect x="1152" y="48" width="128" height="56" fill="#DDB800"/>
  <rect x="1176" y="24" width="80" height="32" fill="#DDB800"/>
  <rect x="1184" y="28" width="28" height="24" fill="#A0C8E4"/>
  <rect x="1188" y="28" width="12" height="8" fill="#C8DFF2"/>
  <rect x="1224" y="28" width="24" height="24" fill="#A0C8E4"/>
  <rect x="1168" y="96" width="24" height="16" fill="#141210"/>
  <rect x="1172" y="96" width="8" height="8" fill="#888880"/>
  <rect x="1248" y="96" width="24" height="16" fill="#141210"/>
  <rect x="1252" y="96" width="8" height="8" fill="#888880"/>
  <rect x="1160" y="112" width="112" height="8" fill="#2C2C28"/>
  <text x="432" y="240" font-size="9" fill="#666" font-family="monospace" shape-rendering="auto">cars_x6</text>
</svg>
