<svg xmlns="http://www.w3.org/2000/svg" viewBox="0 0 500 340" width="500" height="340" shape-rendering="crispEdges">
  <!--
    BUILDING REFERENCE SHEET — TURNHOUTSEBAAN, BORGERHOUT
    3 main facade styles used in the game, 2x scale
    Based on real Antwerp eclectic / late 19th century architecture
  -->

  <!-- ════ STYLE A: BORGERHOUT CLASSIC (cream facade) — x=0 ════ -->
  <!-- Based on typical Turnhoutsebaan buildings: ornate cornice, 3 stories,
       large shop window, classic Belgian door with arched transom -->

  <!-- Cornice / parapet at top -->
  <rect x="0"   y="0"   width="144" height="16" fill="#F0E0B0"/><!-- main cornice band -->
  <rect x="-2"  y="0"   width="148" height="6"  fill="#F8ECD0"/><!-- upper projection -->
  <rect x="-2"  y="6"   width="148" height="4"  fill="#C8A860"/><!-- shadow under cornice -->
  <!-- Corbels under cornice -->
  <rect x="8"   y="10"  width="10"  height="10" fill="#F0E0B0"/>
  <rect x="30"  y="10"  width="10"  height="10" fill="#F0E0B0"/>
  <rect x="52"  y="10"  width="10"  height="10" fill="#F0E0B0"/>
  <rect x="74"  y="10"  width="10"  height="10" fill="#F0E0B0"/>
  <rect x="96"  y="10"  width="10"  height="10" fill="#F0E0B0"/>
  <rect x="118" y="10"  width="10"  height="10" fill="#F0E0B0"/>

  <!-- Main facade — cream -->
  <rect x="0"   y="16"  width="144" height="214" fill="#E8D5A4"/>

  <!-- Pilasters (vertical columns) -->
  <rect x="0"   y="16"  width="10"  height="214" fill="#F0DDB8"/>
  <rect x="134" y="16"  width="10"  height="214" fill="#F0DDB8"/>
  <!-- Pilaster shadow lines -->
  <rect x="10"  y="18"  width="2"   height="210" fill="#C8A860"/>
  <rect x="132" y="18"  width="2"   height="210" fill="#C8A860"/>

  <!-- Brick mortar lines -->
  <rect x="12"  y="24"  width="120" height="1"   fill="#D4AA72"/>
  <rect x="12"  y="36"  width="120" height="1"   fill="#D4AA72"/>
  <rect x="12"  y="48"  width="120" height="1"   fill="#D4AA72"/>
  <rect x="12"  y="60"  width="120" height="1"   fill="#D4AA72"/>
  <rect x="12"  y="72"  width="120" height="1"   fill="#D4AA72"/>
  <rect x="12"  y="84"  width="120" height="1"   fill="#D4AA72"/>

  <!-- 3rd floor windows -->
  <rect x="18"  y="26"  width="34"  height="42" fill="#4A3820"/><!-- frame L -->
  <rect x="20"  y="28"  width="30"  height="38" fill="#A8C8EA"/><!-- glass L -->
  <rect x="35"  y="28"  width="2"   height="38" fill="#4A3820"/><!-- mullion -->
  <rect x="20"  y="46"  width="30"  height="2"  fill="#4A3820"/><!-- transom -->
  <rect x="92"  y="26"  width="34"  height="42" fill="#4A3820"/><!-- frame R -->
  <rect x="94"  y="28"  width="30"  height="38" fill="#A8C8EA"/><!-- glass R -->
  <rect x="109" y="28"  width="2"   height="38" fill="#4A3820"/>
  <rect x="94"  y="46"  width="30"  height="2"  fill="#4A3820"/>
  <!-- 3rd floor window sills -->
  <rect x="16"  y="68"  width="38"  height="4"  fill="#F0DDB8"/>
  <rect x="90"  y="68"  width="38"  height="4"  fill="#F0DDB8"/>

  <!-- 2nd floor entablature line -->
  <rect x="0"   y="88"  width="144" height="4"  fill="#C8A860"/>

  <!-- 2nd floor windows (same pattern) -->
  <rect x="18"  y="96"  width="34"  height="42" fill="#4A3820"/>
  <rect x="20"  y="98"  width="30"  height="38" fill="#FFE888"/><!-- lit window -->
  <rect x="35"  y="98"  width="2"   height="38" fill="#4A3820"/>
  <rect x="20"  y="116" width="30"  height="2"  fill="#4A3820"/>
  <rect x="92"  y="96"  width="34"  height="42" fill="#4A3820"/>
  <rect x="94"  y="98"  width="30"  height="38" fill="#A8C8EA"/>
  <rect x="109" y="98"  width="2"   height="38" fill="#4A3820"/>
  <rect x="94"  y="116" width="30"  height="2"  fill="#4A3820"/>
  <rect x="16"  y="138" width="38"  height="4"  fill="#F0DDB8"/>
  <rect x="90"  y="138" width="38"  height="4"  fill="#F0DDB8"/>

  <!-- Ground floor entablature -->
  <rect x="0"   y="158" width="144" height="6"  fill="#C8A860"/>

  <!-- Ground floor (slightly darker) -->
  <rect x="8"   y="164" width="128" height="66" fill="#D8C590"/>

  <!-- Shop display window -->
  <rect x="14"  y="168" width="52"  height="44" fill="#4A3820"/><!-- frame -->
  <rect x="16"  y="170" width="48"  height="40" fill="#A8C8EA"/><!-- glass -->
  <rect x="16"  y="170" width="4"   height="40" fill="rgba(255,255,255,0.35)"/><!-- reflect -->
  <rect x="40"  y="170" width="2"   height="40" fill="#4A3820"/><!-- vertical mullion -->
  <rect x="16"  y="188" width="48"  height="2"  fill="#4A3820"/><!-- horizontal mullion -->
  <!-- Display items in window -->
  <rect x="20"  y="172" width="18"  height="14" fill="#E03020"/><!-- product 1 -->
  <rect x="42"  y="172" width="18"  height="14" fill="#3498DB"/><!-- product 2 -->

  <!-- Door (arched) -->
  <rect x="80"  y="166" width="22"  height="64" fill="#3A2810"/><!-- surround -->
  <rect x="82"  y="170" width="18"  height="58" fill="#4A3820"/><!-- door -->
  <!-- Arch -->
  <rect x="83"  y="168" width="16"  height="4"  fill="#4A3820"/>
  <rect x="84"  y="166" width="14"  height="4"  fill="#4A3820"/>
  <!-- Door panels -->
  <rect x="84"  y="174" width="7"   height="20" fill="#5A4830"/>
  <rect x="93"  y="174" width="7"   height="20" fill="#5A4830"/>
  <rect x="84"  y="198" width="7"   height="16" fill="#5A4830"/>
  <rect x="93"  y="198" width="7"   height="16" fill="#5A4830"/>
  <!-- Doorknob -->
  <rect x="90"  y="214" width="4"   height="4"  fill="#FFD700"/>

  <!-- Awning (red + white stripes) -->
  <rect x="14"  y="156" width="116" height="12" fill="#CC2B1A"/>
  <rect x="20"  y="156" width="6"   height="12" fill="rgba(255,255,255,0.3)"/>
  <rect x="36"  y="156" width="6"   height="12" fill="rgba(255,255,255,0.3)"/>
  <rect x="52"  y="156" width="6"   height="12" fill="rgba(255,255,255,0.3)"/>
  <rect x="68"  y="156" width="6"   height="12" fill="rgba(255,255,255,0.3)"/>
  <rect x="84"  y="156" width="6"   height="12" fill="rgba(255,255,255,0.3)"/>
  <rect x="100" y="156" width="6"   height="12" fill="rgba(255,255,255,0.3)"/>
  <rect x="116" y="156" width="6"   height="12" fill="rgba(255,255,255,0.3)"/>
  <!-- Valance -->
  <rect x="14"  y="166" width="116" height="6"  fill="#AA1A0A"/>
  <!-- Awning rods -->
  <rect x="16"  y="156" width="4"   height="8"  fill="#666"/>
  <rect x="124" y="156" width="4"   height="8"  fill="#666"/>

  <!-- Shop sign -->
  <rect x="8"   y="144" width="128" height="14" fill="#0A0A0A"/>
  <rect x="8"   y="144" width="128" height="2"  fill="#CC2B1A"/>
  <text x="12"  y="155" font-size="7" fill="white" font-family="monospace">SHOP NAME — nr. XX</text>

  <!-- Street number plaque -->
  <rect x="60"  y="20"  width="24"  height="14" fill="#F0DDB8"/>
  <rect x="60"  y="20"  width="24"  height="2"  fill="#C8A860"/>
  <text x="63"  y="30"  font-size="7" fill="#333" font-family="monospace">XXX</text>

  <!-- Side depth (2.5D) -->
  <rect x="144" y="16"  width="8"   height="214" fill="#B89050"/>
  <rect x="150" y="18"  width="2"   height="212" fill="#907030"/>

  <!-- Style label -->
  <rect x="0"   y="236" width="160" height="20" fill="#111"/>
  <text x="4"   y="250" font-size="7" fill="#888" font-family="monospace">A: BORGERHOUT CLASSIC</text>

  <!-- ════ STYLE B: RED BRICK (x=168) ════ -->
  <!-- Main facade — dark red brick -->
  <rect x="168" y="0"  width="130" height="236" fill="#924020"/>
  <!-- Mortar lines -->
  <rect x="168" y="0"  width="130" height="236" fill="none" stroke="#702010" stroke-width="1" stroke-dasharray="0,8,1,8"/>

  <!-- Stepped gable at top -->
  <rect x="168" y="0"  width="130" height="8"   fill="#A04828"/>
  <rect x="168" y="0"  width="12"  height="14"  fill="#A04828"/><!-- left step -->
  <rect x="286" y="0"  width="12"  height="14"  fill="#A04828"/><!-- right step -->
  <rect x="173" y="0"  width="8"   height="20"  fill="#A04828"/>
  <rect x="284" y="0"  width="8"   height="20"  fill="#A04828"/>
  <!-- Cornice line under gable -->
  <rect x="168" y="20" width="130" height="4"   fill="#C06040"/>

  <!-- Pilasters -->
  <rect x="168" y="0"  width="8"   height="236" fill="#A04828"/>
  <rect x="290" y="0"  width="8"   height="236" fill="#A04828"/>

  <!-- 3rd floor - 3 sash windows -->
  <rect x="180" y="28" width="28"  height="36" fill="#3A2810"/>
  <rect x="182" y="30" width="24"  height="32" fill="#7AACC0"/>
  <rect x="182" y="44" width="24"  height="2"  fill="#3A2810"/><!-- sash rail -->
  <rect x="222" y="28" width="28"  height="36" fill="#3A2810"/>
  <rect x="224" y="30" width="24"  height="32" fill="#7AACC0"/>
  <rect x="224" y="44" width="24"  height="2"  fill="#3A2810"/>
  <rect x="264" y="28" width="28"  height="36" fill="#3A2810"/>
  <rect x="266" y="30" width="24"  height="32" fill="#FFE888"/><!-- lit -->
  <rect x="266" y="44" width="24"  height="2"  fill="#3A2810"/>

  <!-- Band course between floors -->
  <rect x="168" y="70" width="130" height="6"  fill="#B05030"/>

  <!-- 2nd floor - 3 windows -->
  <rect x="180" y="82" width="28"  height="36" fill="#3A2810"/>
  <rect x="182" y="84" width="24"  height="32" fill="#A8C8EA"/>
  <rect x="182" y="98" width="24"  height="2"  fill="#3A2810"/>
  <rect x="222" y="82" width="28"  height="36" fill="#3A2810"/>
  <rect x="224" y="84" width="24"  height="32" fill="#A8C8EA"/>
  <rect x="224" y="98" width="24"  height="2"  fill="#3A2810"/>
  <rect x="264" y="82" width="28"  height="36" fill="#3A2810"/>
  <rect x="266" y="84" width="24"  height="32" fill="#A8C8EA"/>
  <rect x="266" y="98" width="24"  height="2"  fill="#3A2810"/>

  <!-- Band course 2 -->
  <rect x="168" y="124" width="130" height="4" fill="#B05030"/>

  <!-- Ground floor -->
  <rect x="176" y="128" width="118" height="80" fill="#822010"/>
  <!-- Large shop window -->
  <rect x="180" y="132" width="66"  height="56" fill="#3A2810"/>
  <rect x="182" y="134" width="62"  height="52" fill="#A8C8EA"/>
  <!-- Cross frame -->
  <rect x="213" y="134" width="2"   height="52" fill="#3A2810"/>
  <rect x="182" y="158" width="62"  height="2"  fill="#3A2810"/>
  <!-- Door (right side) -->
  <rect x="256" y="128" width="32"  height="80" fill="#3A2810"/>
  <rect x="258" y="132" width="28"  height="74" fill="#4A3820"/>
  <rect x="260" y="136" width="24"  height="30" fill="#5A4830"/>
  <rect x="260" y="172" width="24"  height="28" fill="#5A4830"/>
  <rect x="278" y="188" width="4"   height="4"  fill="#FFD700"/>

  <!-- Blue awning -->
  <rect x="176" y="120" width="118" height="10" fill="#1E5FA0"/>
  <rect x="182" y="120" width="6"   height="10" fill="rgba(255,255,255,0.25)"/>
  <rect x="198" y="120" width="6"   height="10" fill="rgba(255,255,255,0.25)"/>
  <rect x="214" y="120" width="6"   height="10" fill="rgba(255,255,255,0.25)"/>
  <rect x="176" y="128" width="118" height="4"  fill="#1040A0"/>

  <!-- Sign -->
  <rect x="176" y="108" width="118" height="12" fill="#0A0A0A"/>
  <text x="180" y="118" font-size="7" fill="white" font-family="monospace">SHOP NAME</text>

  <!-- Depth face -->
  <rect x="298" y="0"   width="8"   height="236" fill="#6A2010"/>

  <rect x="168" y="236" width="138" height="20" fill="#111"/>
  <text x="172" y="250" font-size="7" fill="#888" font-family="monospace">B: BORGERHOUT BRICK</text>

  <!-- ════ STYLE C: ART NOUVEAU HINT (x=334) ════ -->
  <!-- Ornate cornice with curved details -->
  <rect x="334" y="0"   width="116" height="12" fill="#D4A850"/>
  <rect x="332" y="4"   width="120" height="6"  fill="#E8C870"/>
  <rect x="332" y="10"  width="120" height="4"  fill="#B08030"/>
  <!-- Floral frieze band -->
  <rect x="334" y="14"  width="116" height="8"  fill="#C49040"/>
  <!-- Circular motifs in frieze -->
  <rect x="338" y="15" width="6"   height="6"   rx="3" fill="#E8D090"/>
  <rect x="356" y="15" width="6"   height="6"   rx="3" fill="#E8D090"/>
  <rect x="374" y="15" width="6"   height="6"   rx="3" fill="#E8D090"/>
  <rect x="392" y="15" width="6"   height="6"   rx="3" fill="#E8D090"/>
  <rect x="410" y="15" width="6"   height="6"   rx="3" fill="#E8D090"/>
  <rect x="428" y="15" width="6"   height="6"   rx="3" fill="#E8D090"/>

  <!-- Facade — warm ochre -->
  <rect x="334" y="22"  width="116" height="196" fill="#D4A850"/>
  <!-- Pilasters with capitals -->
  <rect x="334" y="22"  width="8"   height="196" fill="#DDB860"/>
  <rect x="442" y="22"  width="8"   height="196" fill="#DDB860"/>
  <!-- Pilaster capital details -->
  <rect x="332" y="22"  width="12"  height="8"   fill="#E8C870"/>
  <rect x="440" y="22"  width="12"  height="8"   fill="#E8C870"/>

  <!-- 3rd floor — tall elegant windows with curved tops -->
  <rect x="346" y="30"  width="30"  height="44" fill="#4A3820"/><!-- frame L -->
  <rect x="348" y="32"  width="26"  height="34" fill="#A8C8EA"/><!-- glass -->
  <rect x="348" y="32"  width="3"   height="34" fill="rgba(255,255,255,0.4)"/>
  <!-- Arched top of window -->
  <rect x="350" y="30"  width="22"  height="4"  fill="#4A3820"/>
  <rect x="352" y="28"  width="18"  height="4"  fill="#4A3820"/>
  <rect x="354" y="26"  width="14"  height="4"  fill="#4A3820"/>
  <rect x="406" y="30"  width="30"  height="44" fill="#4A3820"/>
  <rect x="408" y="32"  width="26"  height="34" fill="#FFE888"/><!-- lit -->
  <rect x="408" y="32"  width="3"   height="34" fill="rgba(255,255,255,0.4)"/>
  <rect x="410" y="30"  width="22"  height="4"  fill="#4A3820"/>
  <rect x="412" y="28"  width="18"  height="4"  fill="#4A3820"/>
  <rect x="414" y="26"  width="14"  height="4"  fill="#4A3820"/>
  <!-- Window sills -->
  <rect x="344" y="74"  width="34"  height="4"  fill="#DDB860"/>
  <rect x="404" y="74"  width="34"  height="4"  fill="#DDB860"/>

  <!-- Cast iron balcony (between 2nd/3rd floor) -->
  <rect x="334" y="78"  width="116" height="4"  fill="#444"/>
  <!-- Balcony railing -->
  <rect x="334" y="80"  width="4"   height="8"  fill="#444"/>
  <rect x="346" y="80"  width="4"   height="8"  fill="#444"/>
  <rect x="358" y="80"  width="4"   height="8"  fill="#444"/>
  <rect x="370" y="80"  width="4"   height="8"  fill="#444"/>
  <rect x="382" y="80"  width="4"   height="8"  fill="#444"/>
  <rect x="394" y="80"  width="4"   height="8"  fill="#444"/>
  <rect x="406" y="80"  width="4"   height="8"  fill="#444"/>
  <rect x="418" y="80"  width="4"   height="8"  fill="#444"/>
  <rect x="430" y="80"  width="4"   height="8"  fill="#444"/>
  <rect x="442" y="80"  width="4"   height="8"  fill="#444"/>
  <rect x="334" y="88"  width="116" height="2"  fill="#444"/>

  <!-- 2nd floor windows -->
  <rect x="346" y="92"  width="30"  height="42" fill="#4A3820"/>
  <rect x="348" y="94"  width="26"  height="32" fill="#A8C8EA"/>
  <rect x="348" y="108" width="26"  height="2"  fill="#4A3820"/>
  <rect x="406" y="92"  width="30"  height="42" fill="#4A3820"/>
  <rect x="408" y="94"  width="26"  height="32" fill="#A8C8EA"/>
  <rect x="408" y="108" width="26"  height="2"  fill="#4A3820"/>
  <rect x="344" y="134" width="34"  height="4"  fill="#DDB860"/>
  <rect x="404" y="134" width="34"  height="4"  fill="#DDB860"/>

  <!-- Ground floor entablature -->
  <rect x="334" y="142" width="116" height="6"  fill="#B08030"/>

  <!-- Ground floor ornate canopy -->
  <rect x="340" y="136" width="104" height="8"  fill="#D4A850"/><!-- canopy -->
  <!-- Curved canopy edges -->
  <rect x="338" y="140" width="8"   height="4"  fill="#D4A850"/>
  <rect x="438" y="140" width="8"   height="4"  fill="#D4A850"/>
  <!-- Canopy underside -->
  <rect x="340" y="143" width="104" height="2"  fill="#B08030"/>

  <!-- Shop window -->
  <rect x="342" y="148" width="66"  height="62" fill="#4A3820"/>
  <rect x="344" y="150" width="62"  height="58" fill="#A8C8EA"/>
  <rect x="344" y="178" width="62"  height="2"  fill="#4A3820"/>
  <rect x="375" y="150" width="2"   height="58" fill="#4A3820"/>
  <!-- Door -->
  <rect x="418" y="148" width="28"  height="62" fill="#4A3820"/>
  <rect x="420" y="152" width="24"  height="56" fill="#5A4030"/>
  <rect x="422" y="154" width="20"  height="24" fill="#6A5040"/>
  <rect x="422" y="182" width="20"  height="22" fill="#6A5040"/>
  <rect x="438" y="186" width="4"   height="4"  fill="#FFD700"/>

  <!-- Orange awning -->
  <rect x="340" y="130" width="104" height="8"  fill="#D46010"/>
  <rect x="346" y="130" width="6"   height="8"  fill="rgba(255,255,255,0.2)"/>
  <rect x="362" y="130" width="6"   height="8"  fill="rgba(255,255,255,0.2)"/>
  <rect x="378" y="130" width="6"   height="8"  fill="rgba(255,255,255,0.2)"/>
  <rect x="394" y="130" width="6"   height="8"  fill="rgba(255,255,255,0.2)"/>
  <rect x="410" y="130" width="6"   height="8"  fill="rgba(255,255,255,0.2)"/>
  <rect x="340" y="136" width="104" height="4"  fill="#A03800"/>

  <!-- Sign -->
  <rect x="340" y="118" width="104" height="12" fill="#0A0A0A"/>
  <rect x="340" y="118" width="104" height="2"  fill="#D46010"/>
  <text x="344" y="128" font-size="7" fill="white" font-family="monospace">SHOP NAME</text>

  <!-- Depth -->
  <rect x="450" y="22"  width="6"   height="196" fill="#A07828"/>

  <rect x="334" y="236" width="120" height="20" fill="#111"/>
  <text x="338" y="250" font-size="7" fill="#888" font-family="monospace">C: ART NOUVEAU HINT</text>

  <!-- Overall label -->
  <rect x="0" y="270" width="500" height="70" fill="#0A0A0A"/>
  <text x="8"  y="285" font-size="8" fill="#888" font-family="monospace">BUILDING REFERENCE — Turnhoutsebaan, Borgerhout</text>
  <text x="8"  y="298" font-size="6" fill="#555" font-family="monospace">Antwerp eclectic architecture — late 19th century</text>
  <text x="8"  y="310" font-size="6" fill="#555" font-family="monospace">Typical features: ornate cornice, pilasters, arched windows, coloured awnings</text>
  <text x="8"  y="322" font-size="6" fill="#555" font-family="monospace">Ground floor: large display window + arched door + striped awning + sign</text>
  <text x="8"  y="334" font-size="6" fill="#444" font-family="monospace">2x display scale — see sprite_manifest.json for game coordinates</text>
</svg>
