<svg xmlns="http://www.w3.org/2000/svg" viewBox="0 0 1280 320" width="1280" height="320" shape-rendering="crispEdges">
  <!-- BUILDING TILES — Specific Turnhoutsebaan shops (32×32 each) -->
  <!-- SCALE: 4×  |  1 game px = 4 SVG px  |  PALETTE: Turnhoutsebaan 32-color -->
  <rect x="0" y="0" width="128" height="128" fill="#C07050"/>
  <rect x="0" y="0" width="128" height="128" fill="#D4A040"/>
  <rect x="32" y="16" width="64" height="80" fill="#1C5898"/>
  <rect x="24" y="32" width="80" height="64" fill="#1C5898"/>
  <rect x="40" y="24" width="48" height="72" fill="#606058"/>
  <rect x="32" y="40" width="64" height="56" fill="#606058"/>
  <rect x="0" y="0" width="24" height="16" fill="#1C5898"/>
  <rect x="104" y="0" width="24" height="16" fill="#D4A040"/>
  <rect x="0" y="16" width="24" height="16" fill="#D4A040"/>
  <rect x="104" y="16" width="24" height="16" fill="#1C5898"/>
  <rect x="0" y="32" width="24" height="16" fill="#1C5898"/>
  <rect x="104" y="32" width="24" height="16" fill="#D4A040"/>
  <rect x="0" y="48" width="24" height="16" fill="#D4A040"/>
  <rect x="104" y="48" width="24" height="16" fill="#1C5898"/>
  <rect x="0" y="64" width="24" height="16" fill="#1C5898"/>
  <rect x="104" y="64" width="24" height="16" fill="#D4A040"/>
  <rect x="0" y="80" width="24" height="16" fill="#D4A040"/>
  <rect x="104" y="80" width="24" height="16" fill="#1C5898"/>
  <rect x="0" y="96" width="24" height="16" fill="#1C5898"/>
  <rect x="104" y="96" width="24" height="16" fill="#D4A040"/>
  <rect x="0" y="112" width="24" height="16" fill="#D4A040"/>
  <rect x="104" y="112" width="24" height="16" fill="#1C5898"/>
  <rect x="16" y="104" width="16" height="16" fill="#DDB800"/>
  <rect x="20" y="108" width="8" height="8" fill="#606058"/>
  <rect x="48" y="104" width="16" height="16" fill="#DDB800"/>
  <rect x="52" y="108" width="8" height="8" fill="#606058"/>
  <rect x="80" y="104" width="16" height="16" fill="#DDB800"/>
  <rect x="84" y="108" width="8" height="8" fill="#606058"/>
  <rect x="0" y="0" width="128" height="4" fill="#F4E8C8"/>
  <rect x="0" y="0" width="4" height="128" fill="#F4E8C8"/>
  <text x="8" y="144" font-size="9" fill="#666" font-family="monospace" shape-rendering="auto">hammam</text>
  <rect x="144" y="0" width="128" height="128" fill="#E8CFA0"/>
  <rect x="144" y="72" width="128" height="32" fill="#DDB800"/>
  <rect x="144" y="72" width="12" height="32" fill="#D4A040"/>
  <rect x="168" y="72" width="12" height="32" fill="#D4A040"/>
  <rect x="192" y="72" width="12" height="32" fill="#D4A040"/>
  <rect x="216" y="72" width="12" height="32" fill="#D4A040"/>
  <rect x="240" y="72" width="12" height="32" fill="#D4A040"/>
  <rect x="264" y="72" width="12" height="32" fill="#D4A040"/>
  <rect x="144" y="72" width="128" height="4" fill="#D4A040"/>
  <rect x="144" y="100" width="128" height="4" fill="#C8A86C"/>
  <rect x="176" y="8" width="64" height="56" fill="#A0C8E4"/>
  <rect x="180" y="12" width="32" height="16" fill="#C8DFF2"/>
  <rect x="200" y="8" width="16" height="8" fill="#E8CFA0"/>
  <rect x="196" y="12" width="24" height="4" fill="#E8CFA0"/>
  <rect x="176" y="104" width="64" height="8" fill="#606058"/>
  <rect x="184" y="104" width="48" height="4" fill="#F4E8C8"/>
  <rect x="184" y="40" width="16" height="16" fill="#D4A040"/>
  <rect x="204" y="40" width="16" height="16" fill="#E8CFA0"/>
  <rect x="152" y="108" width="112" height="12" fill="#DDB800"/>
  <rect x="168" y="112" width="64" height="4" fill="#141210"/>
  <rect x="144" y="0" width="128" height="4" fill="#F4E8C8"/>
  <rect x="144" y="0" width="4" height="128" fill="#F4E8C8"/>
  <text x="152" y="144" font-size="9" fill="#666" font-family="monospace" shape-rendering="auto">aladdin</text>
  <rect x="288" y="0" width="128" height="128" fill="#F0EEE8"/>
  <rect x="288" y="64" width="128" height="40" fill="#CC2010"/>
  <rect x="288" y="64" width="12" height="40" fill="#F0EEE8"/>
  <rect x="312" y="64" width="12" height="40" fill="#F0EEE8"/>
  <rect x="336" y="64" width="12" height="40" fill="#F0EEE8"/>
  <rect x="360" y="64" width="12" height="40" fill="#F0EEE8"/>
  <rect x="384" y="64" width="12" height="40" fill="#F0EEE8"/>
  <rect x="408" y="64" width="12" height="40" fill="#F0EEE8"/>
  <rect x="288" y="64" width="128" height="4" fill="#6E2C18"/>
  <rect x="296" y="8" width="112" height="48" fill="#606058"/>
  <rect x="304" y="16" width="16" height="16" fill="#D4A040"/>
  <rect x="328" y="16" width="16" height="16" fill="#C07050"/>
  <rect x="352" y="16" width="16" height="16" fill="#CC2010"/>
  <rect x="376" y="16" width="16" height="16" fill="#DDB800"/>
  <rect x="304" y="36" width="96" height="8" fill="#F0EEE8"/>
  <rect x="304" y="108" width="96" height="12" fill="#CC2010"/>
  <rect x="320" y="112" width="64" height="4" fill="#F0EEE8"/>
  <rect x="312" y="48" width="80" height="16" fill="#A0C8E4"/>
  <rect x="316" y="48" width="32" height="8" fill="#C8DFF2"/>
  <rect x="288" y="0" width="128" height="4" fill="#B4B0A8"/>
  <rect x="288" y="0" width="4" height="128" fill="#B4B0A8"/>
  <text x="296" y="144" font-size="9" fill="#666" font-family="monospace" shape-rendering="auto">frituur</text>
  <rect x="432" y="0" width="128" height="128" fill="#D4A040"/>
  <rect x="432" y="0" width="128" height="128" fill="#E8CFA0"/>
  <rect x="432" y="0" width="128" height="80" fill="#D4A040"/>
  <rect x="448" y="16" width="40" height="56" fill="#1C5898"/>
  <rect x="448" y="16" width="40" height="4" fill="#606058"/>
  <rect x="452" y="20" width="32" height="4" fill="#0C0C18"/>
  <rect x="452" y="28" width="32" height="4" fill="#0C0C18"/>
  <rect x="452" y="36" width="32" height="4" fill="#0C0C18"/>
  <rect x="452" y="44" width="32" height="4" fill="#0C0C18"/>
  <rect x="452" y="52" width="32" height="4" fill="#0C0C18"/>
  <rect x="452" y="60" width="32" height="4" fill="#0C0C18"/>
  <rect x="504" y="16" width="40" height="56" fill="#1C5898"/>
  <rect x="504" y="16" width="40" height="4" fill="#606058"/>
  <rect x="508" y="20" width="32" height="4" fill="#0C0C18"/>
  <rect x="508" y="28" width="32" height="4" fill="#0C0C18"/>
  <rect x="508" y="36" width="32" height="4" fill="#0C0C18"/>
  <rect x="508" y="44" width="32" height="4" fill="#0C0C18"/>
  <rect x="508" y="52" width="32" height="4" fill="#0C0C18"/>
  <rect x="508" y="60" width="32" height="4" fill="#0C0C18"/>
  <rect x="488" y="16" width="16" height="56" fill="#A0C8E4"/>
  <rect x="488" y="20" width="8" height="16" fill="#C8DFF2"/>
  <rect x="440" y="80" width="112" height="40" fill="#F4E8C8"/>
  <rect x="448" y="88" width="96" height="8" fill="#606058"/>
  <rect x="448" y="104" width="72" height="8" fill="#606058"/>
  <rect x="520" y="88" width="16" height="24" fill="#D4A040"/>
  <rect x="524" y="92" width="8" height="12" fill="#A0C8E4"/>
  <rect x="484" y="80" width="24" height="48" fill="#4A2C10"/>
  <rect x="488" y="84" width="16" height="40" fill="#A0C8E4"/>
  <rect x="492" y="88" width="8" height="16" fill="#C8DFF2"/>
  <rect x="432" y="0" width="128" height="4" fill="#F4E8C8"/>
  <rect x="432" y="0" width="4" height="128" fill="#F4E8C8"/>
  <text x="440" y="144" font-size="9" fill="#666" font-family="monospace" shape-rendering="auto">theehuys</text>
  <rect x="576" y="0" width="128" height="128" fill="#E8CFA0"/>
  <rect x="584" y="8" width="112" height="88" fill="#A0C8E4"/>
  <rect x="588" y="12" width="32" height="24" fill="#78AFE1"/>
  <rect x="588" y="12" width="16" height="12" fill="#EEF3FA"/>
  <rect x="608" y="24" width="16" height="56" fill="#D8D4CC"/>
  <rect x="608" y="24" width="16" height="32" fill="#1C5898"/>
  <rect x="608" y="20" width="16" height="8" fill="#F4E8C8"/>
  <rect x="648" y="24" width="16" height="56" fill="#D8D4CC"/>
  <rect x="648" y="24" width="16" height="32" fill="#C07050"/>
  <rect x="648" y="20" width="16" height="8" fill="#F4E8C8"/>
  <rect x="616" y="64" width="12" height="24" fill="#CC2010"/>
  <rect x="632" y="64" width="12" height="24" fill="#1C5898"/>
  <rect x="648" y="64" width="12" height="24" fill="#D4A040"/>
  <rect x="576" y="96" width="128" height="24" fill="#606058"/>
  <rect x="576" y="96" width="8" height="24" fill="#0C0C18"/>
  <rect x="592" y="96" width="8" height="24" fill="#0C0C18"/>
  <rect x="608" y="96" width="8" height="24" fill="#0C0C18"/>
  <rect x="624" y="96" width="8" height="24" fill="#0C0C18"/>
  <rect x="640" y="96" width="8" height="24" fill="#0C0C18"/>
  <rect x="656" y="96" width="8" height="24" fill="#0C0C18"/>
  <rect x="672" y="96" width="8" height="24" fill="#0C0C18"/>
  <rect x="688" y="96" width="8" height="24" fill="#0C0C18"/>
  <rect x="576" y="116" width="128" height="4" fill="#FFD700"/>
  <rect x="592" y="104" width="96" height="8" fill="#F4E8C8"/>
  <rect x="592" y="108" width="64" height="4" fill="#D8D4CC"/>
  <rect x="576" y="0" width="128" height="4" fill="#F4E8C8"/>
  <rect x="576" y="0" width="4" height="128" fill="#F4E8C8"/>
  <text x="584" y="144" font-size="9" fill="#666" font-family="monospace" shape-rendering="auto">couture</text>
</svg>
