<svg xmlns="http://www.w3.org/2000/svg" viewBox="0 0 768 384" width="768" height="384" shape-rendering="crispEdges">
  <!-- Aziz — Elderly Moroccan 72, grey djellaba + stick + tasbih -->
  <!-- SCALE: 4×  |  1 game px = 4 SVG px  |  PALETTE: Turnhoutsebaan 32-color -->
  <rect x="88" y="16" width="72" height="24" fill="#F0EEE8"/>
  <rect x="80" y="24" width="16" height="24" fill="#F0EEE8"/>
  <rect x="160" y="24" width="16" height="24" fill="#F0EEE8"/>
  <rect x="88" y="16" width="24" height="8" fill="#D8D4CC"/>
  <rect x="96" y="16" width="8" height="16" fill="#D8D4CC"/>
  <rect x="88" y="40" width="72" height="64" fill="#D4A040"/>
  <rect x="80" y="48" width="8" height="32" fill="#D4A040"/>
  <rect x="160" y="48" width="8" height="32" fill="#D4A040"/>
  <rect x="88" y="40" width="32" height="8" fill="#C8A86C"/>
  <rect x="144" y="52" width="16" height="32" fill="#4A2C10"/>
  <rect x="88" y="96" width="72" height="8" fill="#4A2C10"/>
  <rect x="92" y="72" width="8" height="16" fill="#4A2C10"/>
  <rect x="148" y="72" width="8" height="16" fill="#4A2C10"/>
  <rect x="88" y="84" width="72" height="4" fill="#4A2C10"/>
  <rect x="128" y="56" width="24" height="16" fill="#F0EEE8"/>
  <rect x="136" y="56" width="8" height="16" fill="#606058"/>
  <rect x="136" y="60" width="4" height="8" fill="#141210"/>
  <rect x="128" y="52" width="24" height="4" fill="#606058"/>
  <rect x="128" y="68" width="24" height="4" fill="#888880"/>
  <rect x="96" y="56" width="8" height="16" fill="#4A2C10"/>
  <rect x="116" y="76" width="24" height="20" fill="#4A2C10"/>
  <rect x="112" y="84" width="32" height="12" fill="#4A2C10"/>
  <rect x="112" y="76" width="8" height="8" fill="#C8A86C"/>
  <rect x="80" y="88" width="88" height="40" fill="#D8D4CC"/>
  <rect x="88" y="96" width="72" height="32" fill="#F0EEE8"/>
  <rect x="96" y="104" width="56" height="8" fill="#D8D4CC"/>
  <rect x="104" y="112" width="40" height="8" fill="#D8D4CC"/>
  <rect x="160" y="52" width="8" height="24" fill="#D4A040"/>
  <rect x="160" y="60" width="8" height="12" fill="#4A2C10"/>
  <rect x="104" y="112" width="40" height="16" fill="#D4A040"/>
  <rect x="136" y="112" width="16" height="12" fill="#4A2C10"/>
  <rect x="40" y="128" width="168" height="224" fill="#888880"/>
  <rect x="32" y="128" width="8" height="224" fill="#606058"/>
  <rect x="208" y="128" width="8" height="224" fill="#606058"/>
  <rect x="40" y="128" width="32" height="8" fill="#B4B0A8"/>
  <rect x="40" y="136" width="8" height="72" fill="#B4B0A8"/>
  <rect x="80" y="200" width="16" height="80" fill="#B4B0A8"/>
  <rect x="152" y="184" width="16" height="96" fill="#606058"/>
  <rect x="112" y="216" width="8" height="72" fill="#B4B0A8"/>
  <rect x="64" y="128" width="16" height="24" fill="#B4B0A8"/>
  <rect x="168" y="128" width="16" height="24" fill="#B4B0A8"/>
  <rect x="192" y="232" width="8" height="8" fill="#D4A040"/>
  <rect x="192" y="232" width="4" height="4" fill="#4A2C10"/>
  <rect x="192" y="240" width="8" height="8" fill="#D4A040"/>
  <rect x="192" y="240" width="4" height="4" fill="#4A2C10"/>
  <rect x="192" y="248" width="8" height="8" fill="#D4A040"/>
  <rect x="192" y="248" width="4" height="4" fill="#4A2C10"/>
  <rect x="48" y="224" width="8" height="144" fill="#4A2C10"/>
  <rect x="40" y="224" width="16" height="8" fill="#8A5A28"/>
  <rect x="48" y="360" width="8" height="8" fill="#888880"/>
  <rect x="40" y="216" width="16" height="24" fill="#D4A040"/>
  <rect x="184" y="216" width="16" height="24" fill="#D4A040"/>
  <rect x="80" y="352" width="40" height="24" fill="#606058"/>
  <rect x="80" y="352" width="16" height="8" fill="#888880"/>
  <rect x="136" y="352" width="40" height="24" fill="#606058"/>
  <rect x="136" y="352" width="16" height="8" fill="#888880"/>
  <rect x="344" y="16" width="72" height="24" fill="#F0EEE8"/>
  <rect x="336" y="24" width="16" height="24" fill="#F0EEE8"/>
  <rect x="416" y="24" width="16" height="24" fill="#F0EEE8"/>
  <rect x="344" y="16" width="24" height="8" fill="#D8D4CC"/>
  <rect x="352" y="16" width="8" height="16" fill="#D8D4CC"/>
  <rect x="344" y="40" width="72" height="64" fill="#D4A040"/>
  <rect x="336" y="48" width="8" height="32" fill="#D4A040"/>
  <rect x="416" y="48" width="8" height="32" fill="#D4A040"/>
  <rect x="344" y="40" width="32" height="8" fill="#C8A86C"/>
  <rect x="400" y="52" width="16" height="32" fill="#4A2C10"/>
  <rect x="344" y="96" width="72" height="8" fill="#4A2C10"/>
  <rect x="348" y="72" width="8" height="16" fill="#4A2C10"/>
  <rect x="404" y="72" width="8" height="16" fill="#4A2C10"/>
  <rect x="344" y="84" width="72" height="4" fill="#4A2C10"/>
  <rect x="384" y="56" width="24" height="16" fill="#F0EEE8"/>
  <rect x="392" y="56" width="8" height="16" fill="#606058"/>
  <rect x="392" y="60" width="4" height="8" fill="#141210"/>
  <rect x="384" y="52" width="24" height="4" fill="#606058"/>
  <rect x="384" y="68" width="24" height="4" fill="#888880"/>
  <rect x="352" y="56" width="8" height="16" fill="#4A2C10"/>
  <rect x="372" y="76" width="24" height="20" fill="#4A2C10"/>
  <rect x="368" y="84" width="32" height="12" fill="#4A2C10"/>
  <rect x="368" y="76" width="8" height="8" fill="#C8A86C"/>
  <rect x="336" y="88" width="88" height="40" fill="#D8D4CC"/>
  <rect x="344" y="96" width="72" height="32" fill="#F0EEE8"/>
  <rect x="352" y="104" width="56" height="8" fill="#D8D4CC"/>
  <rect x="360" y="112" width="40" height="8" fill="#D8D4CC"/>
  <rect x="416" y="52" width="8" height="24" fill="#D4A040"/>
  <rect x="416" y="60" width="8" height="12" fill="#4A2C10"/>
  <rect x="360" y="112" width="40" height="16" fill="#D4A040"/>
  <rect x="392" y="112" width="16" height="12" fill="#4A2C10"/>
  <rect x="296" y="128" width="168" height="224" fill="#888880"/>
  <rect x="288" y="128" width="8" height="224" fill="#606058"/>
  <rect x="464" y="128" width="8" height="224" fill="#606058"/>
  <rect x="296" y="128" width="32" height="8" fill="#B4B0A8"/>
  <rect x="296" y="136" width="8" height="72" fill="#B4B0A8"/>
  <rect x="336" y="200" width="16" height="80" fill="#B4B0A8"/>
  <rect x="408" y="184" width="16" height="96" fill="#606058"/>
  <rect x="368" y="216" width="8" height="72" fill="#B4B0A8"/>
  <rect x="320" y="128" width="16" height="24" fill="#B4B0A8"/>
  <rect x="424" y="128" width="16" height="24" fill="#B4B0A8"/>
  <rect x="448" y="232" width="8" height="8" fill="#D4A040"/>
  <rect x="448" y="232" width="4" height="4" fill="#4A2C10"/>
  <rect x="448" y="240" width="8" height="8" fill="#D4A040"/>
  <rect x="448" y="240" width="4" height="4" fill="#4A2C10"/>
  <rect x="448" y="248" width="8" height="8" fill="#D4A040"/>
  <rect x="448" y="248" width="4" height="4" fill="#4A2C10"/>
  <rect x="304" y="224" width="8" height="144" fill="#4A2C10"/>
  <rect x="296" y="224" width="16" height="8" fill="#8A5A28"/>
  <rect x="304" y="360" width="8" height="8" fill="#888880"/>
  <rect x="296" y="216" width="16" height="24" fill="#D4A040"/>
  <rect x="440" y="216" width="16" height="24" fill="#D4A040"/>
  <rect x="336" y="352" width="40" height="24" fill="#606058"/>
  <rect x="336" y="352" width="16" height="8" fill="#888880"/>
  <rect x="392" y="352" width="40" height="24" fill="#606058"/>
  <rect x="392" y="352" width="16" height="8" fill="#888880"/>
  <rect x="600" y="16" width="72" height="24" fill="#F0EEE8"/>
  <rect x="592" y="24" width="16" height="24" fill="#F0EEE8"/>
  <rect x="672" y="24" width="16" height="24" fill="#F0EEE8"/>
  <rect x="600" y="16" width="24" height="8" fill="#D8D4CC"/>
  <rect x="608" y="16" width="8" height="16" fill="#D8D4CC"/>
  <rect x="600" y="40" width="72" height="64" fill="#D4A040"/>
  <rect x="592" y="48" width="8" height="32" fill="#D4A040"/>
  <rect x="672" y="48" width="8" height="32" fill="#D4A040"/>
  <rect x="600" y="40" width="32" height="8" fill="#C8A86C"/>
  <rect x="656" y="52" width="16" height="32" fill="#4A2C10"/>
  <rect x="600" y="96" width="72" height="8" fill="#4A2C10"/>
  <rect x="604" y="72" width="8" height="16" fill="#4A2C10"/>
  <rect x="660" y="72" width="8" height="16" fill="#4A2C10"/>
  <rect x="600" y="84" width="72" height="4" fill="#4A2C10"/>
  <rect x="640" y="56" width="24" height="16" fill="#F0EEE8"/>
  <rect x="648" y="56" width="8" height="16" fill="#606058"/>
  <rect x="648" y="60" width="4" height="8" fill="#141210"/>
  <rect x="640" y="52" width="24" height="4" fill="#606058"/>
  <rect x="640" y="68" width="24" height="4" fill="#888880"/>
  <rect x="608" y="56" width="8" height="16" fill="#4A2C10"/>
  <rect x="628" y="76" width="24" height="20" fill="#4A2C10"/>
  <rect x="624" y="84" width="32" height="12" fill="#4A2C10"/>
  <rect x="624" y="76" width="8" height="8" fill="#C8A86C"/>
  <rect x="592" y="88" width="88" height="40" fill="#D8D4CC"/>
  <rect x="600" y="96" width="72" height="32" fill="#F0EEE8"/>
  <rect x="608" y="104" width="56" height="8" fill="#D8D4CC"/>
  <rect x="616" y="112" width="40" height="8" fill="#D8D4CC"/>
  <rect x="672" y="52" width="8" height="24" fill="#D4A040"/>
  <rect x="672" y="60" width="8" height="12" fill="#4A2C10"/>
  <rect x="616" y="112" width="40" height="16" fill="#D4A040"/>
  <rect x="648" y="112" width="16" height="12" fill="#4A2C10"/>
  <rect x="552" y="128" width="168" height="224" fill="#888880"/>
  <rect x="544" y="128" width="8" height="224" fill="#606058"/>
  <rect x="720" y="128" width="8" height="224" fill="#606058"/>
  <rect x="552" y="128" width="32" height="8" fill="#B4B0A8"/>
  <rect x="552" y="136" width="8" height="72" fill="#B4B0A8"/>
  <rect x="592" y="200" width="16" height="80" fill="#B4B0A8"/>
  <rect x="664" y="184" width="16" height="96" fill="#606058"/>
  <rect x="624" y="216" width="8" height="72" fill="#B4B0A8"/>
  <rect x="576" y="128" width="16" height="24" fill="#B4B0A8"/>
  <rect x="680" y="128" width="16" height="24" fill="#B4B0A8"/>
  <rect x="704" y="232" width="8" height="8" fill="#D4A040"/>
  <rect x="704" y="232" width="4" height="4" fill="#4A2C10"/>
  <rect x="704" y="240" width="8" height="8" fill="#D4A040"/>
  <rect x="704" y="240" width="4" height="4" fill="#4A2C10"/>
  <rect x="704" y="248" width="8" height="8" fill="#D4A040"/>
  <rect x="704" y="248" width="4" height="4" fill="#4A2C10"/>
  <rect x="560" y="224" width="8" height="144" fill="#4A2C10"/>
  <rect x="552" y="224" width="16" height="8" fill="#8A5A28"/>
  <rect x="560" y="360" width="8" height="8" fill="#888880"/>
  <rect x="552" y="216" width="16" height="24" fill="#D4A040"/>
  <rect x="696" y="216" width="16" height="24" fill="#D4A040"/>
  <rect x="592" y="352" width="40" height="24" fill="#606058"/>
  <rect x="592" y="352" width="16" height="8" fill="#888880"/>
  <rect x="648" y="352" width="40" height="24" fill="#606058"/>
  <rect x="648" y="352" width="16" height="8" fill="#888880"/>
</svg>
